M48
; DRILL file {KiCad 7.0.5} date Tue Jul 11 20:53:38 2023
; FORMAT={-:-/ absolute / metric / decimal}
; #@! TF.CreationDate,2023-07-11T20:53:38+10:00
; #@! TF.GenerationSoftware,Kicad,Pcbnew,7.0.5
; #@! TF.FileFunction,Plated,1,2,PTH
FMAT,2
METRIC
; #@! TA.AperFunction,Plated,PTH,ViaDrill
T1C0.400
; #@! TA.AperFunction,Plated,PTH,ComponentDrill
T2C1.000
; #@! TA.AperFunction,Plated,PTH,ComponentDrill
T3C1.020
; #@! TA.AperFunction,Plated,PTH,ComponentDrill
T4C1.100
; #@! TA.AperFunction,Plated,PTH,ViaDrill
T5C1.600
; #@! TA.AperFunction,Plated,PTH,ComponentDrill
T6C1.600
; #@! TA.AperFunction,Plated,PTH,ComponentDrill
T7C1.700
; #@! TA.AperFunction,Plated,PTH,ComponentDrill
T8C1.850
%
G90
G05
T1
X38.1Y-109.22
X41.025Y-121.004
X50.775Y-108.637
X52.685Y-119.263
X55.318Y-120.765
X56.642Y-106.68
X58.635Y-120.293
X58.796Y-119.291
X59.434Y-121.193
X60.902Y-117.48
X62.049Y-111.605
X63.061Y-108.632
X66.04Y-106.68
X69.46Y-108.65
X74.295Y-117.978
X76.2Y-121.665
X77.659Y-110.221
X78.232Y-108.712
X82.416Y-110.567
X86.207Y-104.68
X93.132Y-109.969
X94.21Y-110.019
X98.024Y-108.672
X101.092Y-132.588
X120.794Y-117.023
X124.714Y-135.382
X126.636Y-114.624
X127.918Y-111.247
X133.374Y-120.92
X145.415Y-108.113
X168.485Y-131.451
T2
X87.265Y-131.445
X87.265Y-133.985
X98.595Y-131.445
X98.595Y-133.985
X109.622Y-131.445
X109.622Y-133.985
X121.052Y-131.445
X121.052Y-133.985
X131.445Y-131.445
X131.445Y-133.985
X142.875Y-131.445
X142.875Y-133.985
T3
X102.87Y-102.87
X102.87Y-125.73
X105.41Y-102.87
X105.41Y-125.73
X107.95Y-102.87
X107.95Y-125.73
X110.49Y-102.87
X110.49Y-125.73
X113.03Y-102.87
X113.03Y-125.73
X115.57Y-102.87
X115.57Y-125.73
X118.11Y-102.87
X118.11Y-125.73
X120.65Y-102.87
X120.65Y-125.73
X123.19Y-102.87
X123.19Y-125.73
X125.73Y-102.87
X125.73Y-125.73
X128.27Y-102.87
X128.27Y-125.73
X130.81Y-102.87
X130.81Y-125.73
X133.35Y-102.87
X133.35Y-125.73
X135.89Y-102.87
X135.89Y-125.73
X138.43Y-102.87
X138.43Y-125.73
X140.97Y-102.87
X140.97Y-125.73
X143.51Y-102.87
X143.51Y-125.73
X146.05Y-102.87
X146.05Y-125.73
X148.59Y-102.87
X148.59Y-125.73
X151.13Y-102.87
X151.13Y-125.73
X153.67Y-102.87
X153.67Y-125.73
X156.21Y-102.87
X156.21Y-125.73
T4
X81.28Y-143.335
X86.36Y-143.335
X91.44Y-143.335
X96.52Y-143.335
X102.87Y-143.335
X107.95Y-143.335
X113.03Y-143.335
X118.11Y-143.335
X124.46Y-143.335
X129.54Y-143.335
X134.62Y-143.335
X139.7Y-143.335
X146.05Y-143.335
X151.13Y-143.335
X156.21Y-143.335
X161.29Y-143.335
X167.64Y-143.335
X172.72Y-143.335
X177.8Y-143.335
X182.88Y-143.335
T5
X34.925Y-122.555
X42.429Y-117.215
X47.802Y-117.215
X50.024Y-123.19
X63.5Y-130.72
T6
X21.71Y-126.57
X21.71Y-129.97
X31.63Y-126.57
X31.63Y-129.97
T7
X41.275Y-128.94
X47.625Y-138.44
X53.975Y-128.94
X60.325Y-138.44
X66.675Y-128.94
X73.025Y-138.44
T8
X22.86Y-137.805
X22.86Y-142.24
X22.86Y-146.675
X22.87Y-109.865
X22.87Y-114.3
X22.87Y-118.735
X27.295Y-137.805
X27.295Y-142.24
X27.295Y-146.675
X27.305Y-109.865
X27.305Y-114.3
X27.305Y-118.735
X31.73Y-137.805
X31.73Y-142.24
X31.73Y-146.675
X31.74Y-109.865
X31.74Y-114.3
X31.74Y-118.735
T0
M30
