%TF.GenerationSoftware,KiCad,Pcbnew,7.0.5*%
%TF.CreationDate,2023-07-11T20:53:31+10:00*%
%TF.ProjectId,BCM-ESP32-S3,42434d2d-4553-4503-9332-2d53332e6b69,rev?*%
%TF.SameCoordinates,Original*%
%TF.FileFunction,Paste,Top*%
%TF.FilePolarity,Positive*%
%FSLAX46Y46*%
G04 Gerber Fmt 4.6, Leading zero omitted, Abs format (unit mm)*
G04 Created by KiCad (PCBNEW 7.0.5) date 2023-07-11 20:53:31*
%MOMM*%
%LPD*%
G01*
G04 APERTURE LIST*
G04 Aperture macros list*
%AMRoundRect*
0 Rectangle with rounded corners*
0 $1 Rounding radius*
0 $2 $3 $4 $5 $6 $7 $8 $9 X,Y pos of 4 corners*
0 Add a 4 corners polygon primitive as box body*
4,1,4,$2,$3,$4,$5,$6,$7,$8,$9,$2,$3,0*
0 Add four circle primitives for the rounded corners*
1,1,$1+$1,$2,$3*
1,1,$1+$1,$4,$5*
1,1,$1+$1,$6,$7*
1,1,$1+$1,$8,$9*
0 Add four rect primitives between the rounded corners*
20,1,$1+$1,$2,$3,$4,$5,0*
20,1,$1+$1,$4,$5,$6,$7,0*
20,1,$1+$1,$6,$7,$8,$9,0*
20,1,$1+$1,$8,$9,$2,$3,0*%
%AMOutline4P*
0 Free polygon, 4 corners , with rotation*
0 The origin of the aperture is its center*
0 number of corners: always 4*
0 $1 to $8 corner X, Y*
0 $9 Rotation angle, in degrees counterclockwise*
0 create outline with 4 corners*
4,1,4,$1,$2,$3,$4,$5,$6,$7,$8,$1,$2,$9*%
G04 Aperture macros list end*
%ADD10R,2.000000X1.500000*%
%ADD11R,2.000000X3.800000*%
%ADD12R,2.800000X3.910000*%
%ADD13R,1.500000X0.300000*%
%ADD14RoundRect,0.250000X-0.450000X0.350000X-0.450000X-0.350000X0.450000X-0.350000X0.450000X0.350000X0*%
%ADD15RoundRect,0.250000X-0.350000X-0.450000X0.350000X-0.450000X0.350000X0.450000X-0.350000X0.450000X0*%
%ADD16RoundRect,0.250000X0.450000X-0.350000X0.450000X0.350000X-0.450000X0.350000X-0.450000X-0.350000X0*%
%ADD17RoundRect,0.250000X0.350000X0.450000X-0.350000X0.450000X-0.350000X-0.450000X0.350000X-0.450000X0*%
%ADD18Outline4P,-1.800000X-1.150000X1.800000X-0.550000X1.800000X0.550000X-1.800000X1.150000X0.000000*%
%ADD19Outline4P,-1.800000X-1.150000X1.800000X-0.550000X1.800000X0.550000X-1.800000X1.150000X180.000000*%
%ADD20RoundRect,0.250000X0.337500X0.475000X-0.337500X0.475000X-0.337500X-0.475000X0.337500X-0.475000X0*%
%ADD21RoundRect,0.250000X-0.337500X-0.475000X0.337500X-0.475000X0.337500X0.475000X-0.337500X0.475000X0*%
G04 APERTURE END LIST*
D10*
%TO.C,U3*%
X80060000Y-105650000D03*
D11*
X86360000Y-107950000D03*
D10*
X80060000Y-107950000D03*
X80060000Y-110250000D03*
%TD*%
D12*
%TO.C,IC2*%
X45085000Y-120015000D03*
D13*
X47785000Y-118265000D03*
X47785000Y-118765000D03*
X47785000Y-119265000D03*
X47785000Y-119765000D03*
X47785000Y-120265000D03*
X47785000Y-120765000D03*
X47785000Y-121265000D03*
X47785000Y-121765000D03*
X42385000Y-121765000D03*
X42385000Y-121265000D03*
X42385000Y-120765000D03*
X42385000Y-120265000D03*
X42385000Y-119765000D03*
X42385000Y-119265000D03*
X42385000Y-118765000D03*
X42385000Y-118265000D03*
%TD*%
%TO.C,IC1*%
X60800000Y-118265000D03*
X60800000Y-118765000D03*
X60800000Y-119265000D03*
X60800000Y-119765000D03*
X60800000Y-120265000D03*
X60800000Y-120765000D03*
X60800000Y-121265000D03*
X60800000Y-121765000D03*
X66200000Y-121765000D03*
X66200000Y-121265000D03*
X66200000Y-120765000D03*
X66200000Y-120265000D03*
X66200000Y-119765000D03*
X66200000Y-119265000D03*
X66200000Y-118765000D03*
X66200000Y-118265000D03*
D12*
X63500000Y-120015000D03*
%TD*%
D14*
%TO.C,R40*%
X53340000Y-105680000D03*
X53340000Y-107680000D03*
%TD*%
%TO.C,R39*%
X48260000Y-105680000D03*
X48260000Y-107680000D03*
%TD*%
D15*
%TO.C,R38*%
X116242500Y-133985000D03*
X118242500Y-133985000D03*
%TD*%
%TO.C,R37*%
X104812500Y-133985000D03*
X106812500Y-133985000D03*
%TD*%
D16*
%TO.C,R36*%
X44450000Y-105680000D03*
X44450000Y-107680000D03*
%TD*%
D15*
%TO.C,R35*%
X137430000Y-133985000D03*
X139430000Y-133985000D03*
%TD*%
%TO.C,R34*%
X93785000Y-133985000D03*
X95785000Y-133985000D03*
%TD*%
D16*
%TO.C,R33*%
X39370000Y-107680000D03*
X39370000Y-105680000D03*
%TD*%
D14*
%TO.C,R32*%
X133985000Y-106315000D03*
X133985000Y-108315000D03*
%TD*%
%TO.C,R31*%
X130175000Y-106315000D03*
X130175000Y-108315000D03*
%TD*%
%TO.C,R30*%
X126365000Y-108315000D03*
X126365000Y-106315000D03*
%TD*%
%TO.C,R29*%
X122555000Y-106315000D03*
X122555000Y-108315000D03*
%TD*%
%TO.C,R28*%
X138430000Y-106315000D03*
X138430000Y-108315000D03*
%TD*%
D16*
%TO.C,R27*%
X135890000Y-122920000D03*
X135890000Y-120920000D03*
%TD*%
D14*
%TO.C,R26*%
X143510000Y-106315000D03*
X143510000Y-108315000D03*
%TD*%
D16*
%TO.C,R25*%
X121920000Y-122920000D03*
X121920000Y-120920000D03*
%TD*%
%TO.C,R24*%
X125730000Y-122920000D03*
X125730000Y-120920000D03*
%TD*%
%TO.C,R23*%
X129540000Y-122920000D03*
X129540000Y-120920000D03*
%TD*%
D14*
%TO.C,R22*%
X147320000Y-106315000D03*
X147320000Y-108315000D03*
%TD*%
D15*
%TO.C,R21*%
X126635000Y-133985000D03*
X128635000Y-133985000D03*
%TD*%
%TO.C,R20*%
X84455000Y-133985000D03*
X82455000Y-133985000D03*
%TD*%
D17*
%TO.C,R19*%
X149225000Y-131810000D03*
X147225000Y-131810000D03*
%TD*%
D14*
%TO.C,R18*%
X151765000Y-129540000D03*
X151765000Y-131540000D03*
%TD*%
%TO.C,R17*%
X151765000Y-133350000D03*
X151765000Y-135350000D03*
%TD*%
D15*
%TO.C,R16*%
X154305000Y-131810000D03*
X156305000Y-131810000D03*
%TD*%
D14*
%TO.C,R15*%
X159385000Y-129540000D03*
X159385000Y-131540000D03*
%TD*%
%TO.C,R14*%
X159385000Y-133350000D03*
X159385000Y-135350000D03*
%TD*%
D15*
%TO.C,R13*%
X162465000Y-131810000D03*
X164465000Y-131810000D03*
%TD*%
D14*
%TO.C,R12*%
X167005000Y-129540000D03*
X167005000Y-131540000D03*
%TD*%
%TO.C,R11*%
X167005000Y-133350000D03*
X167005000Y-135350000D03*
%TD*%
D15*
%TO.C,R10*%
X169815000Y-131810000D03*
X171815000Y-131810000D03*
%TD*%
D14*
%TO.C,R9*%
X174625000Y-129540000D03*
X174625000Y-131540000D03*
%TD*%
%TO.C,R8*%
X174625000Y-133350000D03*
X174625000Y-135350000D03*
%TD*%
%TO.C,R7*%
X67945000Y-105680000D03*
X67945000Y-107680000D03*
%TD*%
D16*
%TO.C,R6*%
X64135000Y-107680000D03*
X64135000Y-105680000D03*
%TD*%
D14*
%TO.C,R5*%
X73025000Y-105680000D03*
X73025000Y-107680000D03*
%TD*%
D16*
%TO.C,R4*%
X59690000Y-107680000D03*
X59690000Y-105680000D03*
%TD*%
D17*
%TO.C,R3*%
X95370000Y-108220000D03*
X93370000Y-108220000D03*
%TD*%
D16*
%TO.C,R2*%
X90830000Y-111760000D03*
X90830000Y-109760000D03*
%TD*%
%TO.C,R1*%
X90830000Y-106680000D03*
X90830000Y-104680000D03*
%TD*%
D18*
%TO.C,D4*%
X40280000Y-111760000D03*
D19*
X46080000Y-111760000D03*
%TD*%
D18*
%TO.C,D1*%
X59330000Y-111760000D03*
D19*
X65130000Y-111760000D03*
%TD*%
D20*
%TO.C,C8*%
X118280000Y-131445000D03*
X116205000Y-131445000D03*
%TD*%
D21*
%TO.C,C7*%
X49762500Y-111125000D03*
X51837500Y-111125000D03*
%TD*%
D20*
%TO.C,C6*%
X106850000Y-131445000D03*
X104775000Y-131445000D03*
%TD*%
%TO.C,C5*%
X139467500Y-131445000D03*
X137392500Y-131445000D03*
%TD*%
%TO.C,C4*%
X95822500Y-131445000D03*
X93747500Y-131445000D03*
%TD*%
%TO.C,C3*%
X128672500Y-131445000D03*
X126597500Y-131445000D03*
%TD*%
%TO.C,C2*%
X82417500Y-131445000D03*
X84492500Y-131445000D03*
%TD*%
%TO.C,C1*%
X71755000Y-110490000D03*
X69680000Y-110490000D03*
%TD*%
M02*
