%TF.GenerationSoftware,KiCad,Pcbnew,7.0.5*%
%TF.CreationDate,2023-07-11T20:53:32+10:00*%
%TF.ProjectId,BCM-ESP32-S3,42434d2d-4553-4503-9332-2d53332e6b69,rev?*%
%TF.SameCoordinates,Original*%
%TF.FileFunction,Legend,Top*%
%TF.FilePolarity,Positive*%
%FSLAX46Y46*%
G04 Gerber Fmt 4.6, Leading zero omitted, Abs format (unit mm)*
G04 Created by KiCad (PCBNEW 7.0.5) date 2023-07-11 20:53:32*
%MOMM*%
%LPD*%
G01*
G04 APERTURE LIST*
%ADD10C,0.150000*%
%ADD11C,0.300000*%
%ADD12C,0.254000*%
%ADD13C,0.100000*%
%ADD14C,0.120000*%
%ADD15C,0.127000*%
%ADD16C,0.200000*%
G04 APERTURE END LIST*
D10*
X51327255Y-148094819D02*
X51517731Y-148094819D01*
X51517731Y-148094819D02*
X51612969Y-148142438D01*
X51612969Y-148142438D02*
X51708207Y-148237676D01*
X51708207Y-148237676D02*
X51755826Y-148428152D01*
X51755826Y-148428152D02*
X51755826Y-148761485D01*
X51755826Y-148761485D02*
X51708207Y-148951961D01*
X51708207Y-148951961D02*
X51612969Y-149047200D01*
X51612969Y-149047200D02*
X51517731Y-149094819D01*
X51517731Y-149094819D02*
X51327255Y-149094819D01*
X51327255Y-149094819D02*
X51232017Y-149047200D01*
X51232017Y-149047200D02*
X51136779Y-148951961D01*
X51136779Y-148951961D02*
X51089160Y-148761485D01*
X51089160Y-148761485D02*
X51089160Y-148428152D01*
X51089160Y-148428152D02*
X51136779Y-148237676D01*
X51136779Y-148237676D02*
X51232017Y-148142438D01*
X51232017Y-148142438D02*
X51327255Y-148094819D01*
X52184398Y-148094819D02*
X52184398Y-148904342D01*
X52184398Y-148904342D02*
X52232017Y-148999580D01*
X52232017Y-148999580D02*
X52279636Y-149047200D01*
X52279636Y-149047200D02*
X52374874Y-149094819D01*
X52374874Y-149094819D02*
X52565350Y-149094819D01*
X52565350Y-149094819D02*
X52660588Y-149047200D01*
X52660588Y-149047200D02*
X52708207Y-148999580D01*
X52708207Y-148999580D02*
X52755826Y-148904342D01*
X52755826Y-148904342D02*
X52755826Y-148094819D01*
X53089160Y-148094819D02*
X53660588Y-148094819D01*
X53374874Y-149094819D02*
X53374874Y-148094819D01*
X55279636Y-149094819D02*
X54708208Y-149094819D01*
X54993922Y-149094819D02*
X54993922Y-148094819D01*
X54993922Y-148094819D02*
X54898684Y-148237676D01*
X54898684Y-148237676D02*
X54803446Y-148332914D01*
X54803446Y-148332914D02*
X54708208Y-148380533D01*
X56422494Y-148190057D02*
X56470113Y-148142438D01*
X56470113Y-148142438D02*
X56565351Y-148094819D01*
X56565351Y-148094819D02*
X56803446Y-148094819D01*
X56803446Y-148094819D02*
X56898684Y-148142438D01*
X56898684Y-148142438D02*
X56946303Y-148190057D01*
X56946303Y-148190057D02*
X56993922Y-148285295D01*
X56993922Y-148285295D02*
X56993922Y-148380533D01*
X56993922Y-148380533D02*
X56946303Y-148523390D01*
X56946303Y-148523390D02*
X56374875Y-149094819D01*
X56374875Y-149094819D02*
X56993922Y-149094819D01*
X58089161Y-148094819D02*
X58708208Y-148094819D01*
X58708208Y-148094819D02*
X58374875Y-148475771D01*
X58374875Y-148475771D02*
X58517732Y-148475771D01*
X58517732Y-148475771D02*
X58612970Y-148523390D01*
X58612970Y-148523390D02*
X58660589Y-148571009D01*
X58660589Y-148571009D02*
X58708208Y-148666247D01*
X58708208Y-148666247D02*
X58708208Y-148904342D01*
X58708208Y-148904342D02*
X58660589Y-148999580D01*
X58660589Y-148999580D02*
X58612970Y-149047200D01*
X58612970Y-149047200D02*
X58517732Y-149094819D01*
X58517732Y-149094819D02*
X58232018Y-149094819D01*
X58232018Y-149094819D02*
X58136780Y-149047200D01*
X58136780Y-149047200D02*
X58089161Y-148999580D01*
X60327256Y-148428152D02*
X60327256Y-149094819D01*
X60089161Y-148047200D02*
X59851066Y-148761485D01*
X59851066Y-148761485D02*
X60470113Y-148761485D01*
X62089161Y-148094819D02*
X61612971Y-148094819D01*
X61612971Y-148094819D02*
X61565352Y-148571009D01*
X61565352Y-148571009D02*
X61612971Y-148523390D01*
X61612971Y-148523390D02*
X61708209Y-148475771D01*
X61708209Y-148475771D02*
X61946304Y-148475771D01*
X61946304Y-148475771D02*
X62041542Y-148523390D01*
X62041542Y-148523390D02*
X62089161Y-148571009D01*
X62089161Y-148571009D02*
X62136780Y-148666247D01*
X62136780Y-148666247D02*
X62136780Y-148904342D01*
X62136780Y-148904342D02*
X62089161Y-148999580D01*
X62089161Y-148999580D02*
X62041542Y-149047200D01*
X62041542Y-149047200D02*
X61946304Y-149094819D01*
X61946304Y-149094819D02*
X61708209Y-149094819D01*
X61708209Y-149094819D02*
X61612971Y-149047200D01*
X61612971Y-149047200D02*
X61565352Y-148999580D01*
X63755828Y-148094819D02*
X63565352Y-148094819D01*
X63565352Y-148094819D02*
X63470114Y-148142438D01*
X63470114Y-148142438D02*
X63422495Y-148190057D01*
X63422495Y-148190057D02*
X63327257Y-148332914D01*
X63327257Y-148332914D02*
X63279638Y-148523390D01*
X63279638Y-148523390D02*
X63279638Y-148904342D01*
X63279638Y-148904342D02*
X63327257Y-148999580D01*
X63327257Y-148999580D02*
X63374876Y-149047200D01*
X63374876Y-149047200D02*
X63470114Y-149094819D01*
X63470114Y-149094819D02*
X63660590Y-149094819D01*
X63660590Y-149094819D02*
X63755828Y-149047200D01*
X63755828Y-149047200D02*
X63803447Y-148999580D01*
X63803447Y-148999580D02*
X63851066Y-148904342D01*
X63851066Y-148904342D02*
X63851066Y-148666247D01*
X63851066Y-148666247D02*
X63803447Y-148571009D01*
X63803447Y-148571009D02*
X63755828Y-148523390D01*
X63755828Y-148523390D02*
X63660590Y-148475771D01*
X63660590Y-148475771D02*
X63470114Y-148475771D01*
X63470114Y-148475771D02*
X63374876Y-148523390D01*
X63374876Y-148523390D02*
X63327257Y-148571009D01*
X63327257Y-148571009D02*
X63279638Y-148666247D01*
X25435112Y-123171009D02*
X25101779Y-123171009D01*
X25101779Y-123694819D02*
X25101779Y-122694819D01*
X25101779Y-122694819D02*
X25577969Y-122694819D01*
X25958922Y-122694819D02*
X25958922Y-123504342D01*
X25958922Y-123504342D02*
X26006541Y-123599580D01*
X26006541Y-123599580D02*
X26054160Y-123647200D01*
X26054160Y-123647200D02*
X26149398Y-123694819D01*
X26149398Y-123694819D02*
X26339874Y-123694819D01*
X26339874Y-123694819D02*
X26435112Y-123647200D01*
X26435112Y-123647200D02*
X26482731Y-123599580D01*
X26482731Y-123599580D02*
X26530350Y-123504342D01*
X26530350Y-123504342D02*
X26530350Y-122694819D01*
X26958922Y-123647200D02*
X27101779Y-123694819D01*
X27101779Y-123694819D02*
X27339874Y-123694819D01*
X27339874Y-123694819D02*
X27435112Y-123647200D01*
X27435112Y-123647200D02*
X27482731Y-123599580D01*
X27482731Y-123599580D02*
X27530350Y-123504342D01*
X27530350Y-123504342D02*
X27530350Y-123409104D01*
X27530350Y-123409104D02*
X27482731Y-123313866D01*
X27482731Y-123313866D02*
X27435112Y-123266247D01*
X27435112Y-123266247D02*
X27339874Y-123218628D01*
X27339874Y-123218628D02*
X27149398Y-123171009D01*
X27149398Y-123171009D02*
X27054160Y-123123390D01*
X27054160Y-123123390D02*
X27006541Y-123075771D01*
X27006541Y-123075771D02*
X26958922Y-122980533D01*
X26958922Y-122980533D02*
X26958922Y-122885295D01*
X26958922Y-122885295D02*
X27006541Y-122790057D01*
X27006541Y-122790057D02*
X27054160Y-122742438D01*
X27054160Y-122742438D02*
X27149398Y-122694819D01*
X27149398Y-122694819D02*
X27387493Y-122694819D01*
X27387493Y-122694819D02*
X27530350Y-122742438D01*
X27958922Y-123171009D02*
X28292255Y-123171009D01*
X28435112Y-123694819D02*
X27958922Y-123694819D01*
X27958922Y-123694819D02*
X27958922Y-122694819D01*
X27958922Y-122694819D02*
X28435112Y-122694819D01*
X18602438Y-114709411D02*
X18554819Y-114804649D01*
X18554819Y-114804649D02*
X18554819Y-114947506D01*
X18554819Y-114947506D02*
X18602438Y-115090363D01*
X18602438Y-115090363D02*
X18697676Y-115185601D01*
X18697676Y-115185601D02*
X18792914Y-115233220D01*
X18792914Y-115233220D02*
X18983390Y-115280839D01*
X18983390Y-115280839D02*
X19126247Y-115280839D01*
X19126247Y-115280839D02*
X19316723Y-115233220D01*
X19316723Y-115233220D02*
X19411961Y-115185601D01*
X19411961Y-115185601D02*
X19507200Y-115090363D01*
X19507200Y-115090363D02*
X19554819Y-114947506D01*
X19554819Y-114947506D02*
X19554819Y-114852268D01*
X19554819Y-114852268D02*
X19507200Y-114709411D01*
X19507200Y-114709411D02*
X19459580Y-114661792D01*
X19459580Y-114661792D02*
X19126247Y-114661792D01*
X19126247Y-114661792D02*
X19126247Y-114852268D01*
X19554819Y-114233220D02*
X18554819Y-114233220D01*
X18554819Y-114233220D02*
X19554819Y-113661792D01*
X19554819Y-113661792D02*
X18554819Y-113661792D01*
X19554819Y-113185601D02*
X18554819Y-113185601D01*
X18554819Y-113185601D02*
X18554819Y-112947506D01*
X18554819Y-112947506D02*
X18602438Y-112804649D01*
X18602438Y-112804649D02*
X18697676Y-112709411D01*
X18697676Y-112709411D02*
X18792914Y-112661792D01*
X18792914Y-112661792D02*
X18983390Y-112614173D01*
X18983390Y-112614173D02*
X19126247Y-112614173D01*
X19126247Y-112614173D02*
X19316723Y-112661792D01*
X19316723Y-112661792D02*
X19411961Y-112709411D01*
X19411961Y-112709411D02*
X19507200Y-112804649D01*
X19507200Y-112804649D02*
X19554819Y-112947506D01*
X19554819Y-112947506D02*
X19554819Y-113185601D01*
X19554819Y-142649411D02*
X19554819Y-143220839D01*
X19554819Y-142935125D02*
X18554819Y-142935125D01*
X18554819Y-142935125D02*
X18697676Y-143030363D01*
X18697676Y-143030363D02*
X18792914Y-143125601D01*
X18792914Y-143125601D02*
X18840533Y-143220839D01*
X18650057Y-142268458D02*
X18602438Y-142220839D01*
X18602438Y-142220839D02*
X18554819Y-142125601D01*
X18554819Y-142125601D02*
X18554819Y-141887506D01*
X18554819Y-141887506D02*
X18602438Y-141792268D01*
X18602438Y-141792268D02*
X18650057Y-141744649D01*
X18650057Y-141744649D02*
X18745295Y-141697030D01*
X18745295Y-141697030D02*
X18840533Y-141697030D01*
X18840533Y-141697030D02*
X18983390Y-141744649D01*
X18983390Y-141744649D02*
X19554819Y-142316077D01*
X19554819Y-142316077D02*
X19554819Y-141697030D01*
X18554819Y-141411315D02*
X19554819Y-141077982D01*
X19554819Y-141077982D02*
X18554819Y-140744649D01*
X19173866Y-140411315D02*
X19173866Y-139649411D01*
X19554819Y-140030363D02*
X18792914Y-140030363D01*
D11*
X178970114Y-132930489D02*
X179041542Y-132716203D01*
X179041542Y-132716203D02*
X179112971Y-132644774D01*
X179112971Y-132644774D02*
X179255828Y-132573346D01*
X179255828Y-132573346D02*
X179470114Y-132573346D01*
X179470114Y-132573346D02*
X179612971Y-132644774D01*
X179612971Y-132644774D02*
X179684400Y-132716203D01*
X179684400Y-132716203D02*
X179755828Y-132859060D01*
X179755828Y-132859060D02*
X179755828Y-133430489D01*
X179755828Y-133430489D02*
X178255828Y-133430489D01*
X178255828Y-133430489D02*
X178255828Y-132930489D01*
X178255828Y-132930489D02*
X178327257Y-132787632D01*
X178327257Y-132787632D02*
X178398685Y-132716203D01*
X178398685Y-132716203D02*
X178541542Y-132644774D01*
X178541542Y-132644774D02*
X178684400Y-132644774D01*
X178684400Y-132644774D02*
X178827257Y-132716203D01*
X178827257Y-132716203D02*
X178898685Y-132787632D01*
X178898685Y-132787632D02*
X178970114Y-132930489D01*
X178970114Y-132930489D02*
X178970114Y-133430489D01*
X179612971Y-131073346D02*
X179684400Y-131144774D01*
X179684400Y-131144774D02*
X179755828Y-131359060D01*
X179755828Y-131359060D02*
X179755828Y-131501917D01*
X179755828Y-131501917D02*
X179684400Y-131716203D01*
X179684400Y-131716203D02*
X179541542Y-131859060D01*
X179541542Y-131859060D02*
X179398685Y-131930489D01*
X179398685Y-131930489D02*
X179112971Y-132001917D01*
X179112971Y-132001917D02*
X178898685Y-132001917D01*
X178898685Y-132001917D02*
X178612971Y-131930489D01*
X178612971Y-131930489D02*
X178470114Y-131859060D01*
X178470114Y-131859060D02*
X178327257Y-131716203D01*
X178327257Y-131716203D02*
X178255828Y-131501917D01*
X178255828Y-131501917D02*
X178255828Y-131359060D01*
X178255828Y-131359060D02*
X178327257Y-131144774D01*
X178327257Y-131144774D02*
X178398685Y-131073346D01*
X179755828Y-130430489D02*
X178255828Y-130430489D01*
X178255828Y-130430489D02*
X179327257Y-129930489D01*
X179327257Y-129930489D02*
X178255828Y-129430489D01*
X178255828Y-129430489D02*
X179755828Y-129430489D01*
X178970114Y-127573346D02*
X178970114Y-127073346D01*
X179755828Y-126859060D02*
X179755828Y-127573346D01*
X179755828Y-127573346D02*
X178255828Y-127573346D01*
X178255828Y-127573346D02*
X178255828Y-126859060D01*
X178755828Y-126359060D02*
X179755828Y-126001917D01*
X179755828Y-126001917D02*
X178755828Y-125644774D01*
X179755828Y-124430489D02*
X178970114Y-124430489D01*
X178970114Y-124430489D02*
X178827257Y-124501917D01*
X178827257Y-124501917D02*
X178755828Y-124644774D01*
X178755828Y-124644774D02*
X178755828Y-124930489D01*
X178755828Y-124930489D02*
X178827257Y-125073346D01*
X179684400Y-124430489D02*
X179755828Y-124573346D01*
X179755828Y-124573346D02*
X179755828Y-124930489D01*
X179755828Y-124930489D02*
X179684400Y-125073346D01*
X179684400Y-125073346D02*
X179541542Y-125144774D01*
X179541542Y-125144774D02*
X179398685Y-125144774D01*
X179398685Y-125144774D02*
X179255828Y-125073346D01*
X179255828Y-125073346D02*
X179184400Y-124930489D01*
X179184400Y-124930489D02*
X179184400Y-124573346D01*
X179184400Y-124573346D02*
X179112971Y-124430489D01*
X179755828Y-123501917D02*
X179684400Y-123644774D01*
X179684400Y-123644774D02*
X179541542Y-123716203D01*
X179541542Y-123716203D02*
X178255828Y-123716203D01*
X178755828Y-122287632D02*
X179755828Y-122287632D01*
X178755828Y-122930489D02*
X179541542Y-122930489D01*
X179541542Y-122930489D02*
X179684400Y-122859060D01*
X179684400Y-122859060D02*
X179755828Y-122716203D01*
X179755828Y-122716203D02*
X179755828Y-122501917D01*
X179755828Y-122501917D02*
X179684400Y-122359060D01*
X179684400Y-122359060D02*
X179612971Y-122287632D01*
X179755828Y-120930489D02*
X178970114Y-120930489D01*
X178970114Y-120930489D02*
X178827257Y-121001917D01*
X178827257Y-121001917D02*
X178755828Y-121144774D01*
X178755828Y-121144774D02*
X178755828Y-121430489D01*
X178755828Y-121430489D02*
X178827257Y-121573346D01*
X179684400Y-120930489D02*
X179755828Y-121073346D01*
X179755828Y-121073346D02*
X179755828Y-121430489D01*
X179755828Y-121430489D02*
X179684400Y-121573346D01*
X179684400Y-121573346D02*
X179541542Y-121644774D01*
X179541542Y-121644774D02*
X179398685Y-121644774D01*
X179398685Y-121644774D02*
X179255828Y-121573346D01*
X179255828Y-121573346D02*
X179184400Y-121430489D01*
X179184400Y-121430489D02*
X179184400Y-121073346D01*
X179184400Y-121073346D02*
X179112971Y-120930489D01*
X178755828Y-120430488D02*
X178755828Y-119859060D01*
X178255828Y-120216203D02*
X179541542Y-120216203D01*
X179541542Y-120216203D02*
X179684400Y-120144774D01*
X179684400Y-120144774D02*
X179755828Y-120001917D01*
X179755828Y-120001917D02*
X179755828Y-119859060D01*
X179755828Y-119359060D02*
X178755828Y-119359060D01*
X178255828Y-119359060D02*
X178327257Y-119430488D01*
X178327257Y-119430488D02*
X178398685Y-119359060D01*
X178398685Y-119359060D02*
X178327257Y-119287631D01*
X178327257Y-119287631D02*
X178255828Y-119359060D01*
X178255828Y-119359060D02*
X178398685Y-119359060D01*
X179755828Y-118430488D02*
X179684400Y-118573345D01*
X179684400Y-118573345D02*
X179612971Y-118644774D01*
X179612971Y-118644774D02*
X179470114Y-118716202D01*
X179470114Y-118716202D02*
X179041542Y-118716202D01*
X179041542Y-118716202D02*
X178898685Y-118644774D01*
X178898685Y-118644774D02*
X178827257Y-118573345D01*
X178827257Y-118573345D02*
X178755828Y-118430488D01*
X178755828Y-118430488D02*
X178755828Y-118216202D01*
X178755828Y-118216202D02*
X178827257Y-118073345D01*
X178827257Y-118073345D02*
X178898685Y-118001917D01*
X178898685Y-118001917D02*
X179041542Y-117930488D01*
X179041542Y-117930488D02*
X179470114Y-117930488D01*
X179470114Y-117930488D02*
X179612971Y-118001917D01*
X179612971Y-118001917D02*
X179684400Y-118073345D01*
X179684400Y-118073345D02*
X179755828Y-118216202D01*
X179755828Y-118216202D02*
X179755828Y-118430488D01*
X178755828Y-117287631D02*
X179755828Y-117287631D01*
X178898685Y-117287631D02*
X178827257Y-117216202D01*
X178827257Y-117216202D02*
X178755828Y-117073345D01*
X178755828Y-117073345D02*
X178755828Y-116859059D01*
X178755828Y-116859059D02*
X178827257Y-116716202D01*
X178827257Y-116716202D02*
X178970114Y-116644774D01*
X178970114Y-116644774D02*
X179755828Y-116644774D01*
X178255828Y-115001916D02*
X179755828Y-114501916D01*
X179755828Y-114501916D02*
X178255828Y-114001916D01*
X178255828Y-113216202D02*
X178255828Y-113073345D01*
X178255828Y-113073345D02*
X178327257Y-112930488D01*
X178327257Y-112930488D02*
X178398685Y-112859060D01*
X178398685Y-112859060D02*
X178541542Y-112787631D01*
X178541542Y-112787631D02*
X178827257Y-112716202D01*
X178827257Y-112716202D02*
X179184400Y-112716202D01*
X179184400Y-112716202D02*
X179470114Y-112787631D01*
X179470114Y-112787631D02*
X179612971Y-112859060D01*
X179612971Y-112859060D02*
X179684400Y-112930488D01*
X179684400Y-112930488D02*
X179755828Y-113073345D01*
X179755828Y-113073345D02*
X179755828Y-113216202D01*
X179755828Y-113216202D02*
X179684400Y-113359060D01*
X179684400Y-113359060D02*
X179612971Y-113430488D01*
X179612971Y-113430488D02*
X179470114Y-113501917D01*
X179470114Y-113501917D02*
X179184400Y-113573345D01*
X179184400Y-113573345D02*
X178827257Y-113573345D01*
X178827257Y-113573345D02*
X178541542Y-113501917D01*
X178541542Y-113501917D02*
X178398685Y-113430488D01*
X178398685Y-113430488D02*
X178327257Y-113359060D01*
X178327257Y-113359060D02*
X178255828Y-113216202D01*
X179612971Y-112073346D02*
X179684400Y-112001917D01*
X179684400Y-112001917D02*
X179755828Y-112073346D01*
X179755828Y-112073346D02*
X179684400Y-112144774D01*
X179684400Y-112144774D02*
X179612971Y-112073346D01*
X179612971Y-112073346D02*
X179755828Y-112073346D01*
X178255828Y-111501917D02*
X178255828Y-110573345D01*
X178255828Y-110573345D02*
X178827257Y-111073345D01*
X178827257Y-111073345D02*
X178827257Y-110859060D01*
X178827257Y-110859060D02*
X178898685Y-110716203D01*
X178898685Y-110716203D02*
X178970114Y-110644774D01*
X178970114Y-110644774D02*
X179112971Y-110573345D01*
X179112971Y-110573345D02*
X179470114Y-110573345D01*
X179470114Y-110573345D02*
X179612971Y-110644774D01*
X179612971Y-110644774D02*
X179684400Y-110716203D01*
X179684400Y-110716203D02*
X179755828Y-110859060D01*
X179755828Y-110859060D02*
X179755828Y-111287631D01*
X179755828Y-111287631D02*
X179684400Y-111430488D01*
X179684400Y-111430488D02*
X179612971Y-111501917D01*
X179612971Y-109930489D02*
X179684400Y-109859060D01*
X179684400Y-109859060D02*
X179755828Y-109930489D01*
X179755828Y-109930489D02*
X179684400Y-110001917D01*
X179684400Y-110001917D02*
X179612971Y-109930489D01*
X179612971Y-109930489D02*
X179755828Y-109930489D01*
X184585828Y-133430489D02*
X183085828Y-133430489D01*
X183085828Y-133430489D02*
X183085828Y-133073346D01*
X183085828Y-133073346D02*
X183157257Y-132859060D01*
X183157257Y-132859060D02*
X183300114Y-132716203D01*
X183300114Y-132716203D02*
X183442971Y-132644774D01*
X183442971Y-132644774D02*
X183728685Y-132573346D01*
X183728685Y-132573346D02*
X183942971Y-132573346D01*
X183942971Y-132573346D02*
X184228685Y-132644774D01*
X184228685Y-132644774D02*
X184371542Y-132716203D01*
X184371542Y-132716203D02*
X184514400Y-132859060D01*
X184514400Y-132859060D02*
X184585828Y-133073346D01*
X184585828Y-133073346D02*
X184585828Y-133430489D01*
X184514400Y-131359060D02*
X184585828Y-131501917D01*
X184585828Y-131501917D02*
X184585828Y-131787632D01*
X184585828Y-131787632D02*
X184514400Y-131930489D01*
X184514400Y-131930489D02*
X184371542Y-132001917D01*
X184371542Y-132001917D02*
X183800114Y-132001917D01*
X183800114Y-132001917D02*
X183657257Y-131930489D01*
X183657257Y-131930489D02*
X183585828Y-131787632D01*
X183585828Y-131787632D02*
X183585828Y-131501917D01*
X183585828Y-131501917D02*
X183657257Y-131359060D01*
X183657257Y-131359060D02*
X183800114Y-131287632D01*
X183800114Y-131287632D02*
X183942971Y-131287632D01*
X183942971Y-131287632D02*
X184085828Y-132001917D01*
X184514400Y-130716203D02*
X184585828Y-130573346D01*
X184585828Y-130573346D02*
X184585828Y-130287632D01*
X184585828Y-130287632D02*
X184514400Y-130144775D01*
X184514400Y-130144775D02*
X184371542Y-130073346D01*
X184371542Y-130073346D02*
X184300114Y-130073346D01*
X184300114Y-130073346D02*
X184157257Y-130144775D01*
X184157257Y-130144775D02*
X184085828Y-130287632D01*
X184085828Y-130287632D02*
X184085828Y-130501918D01*
X184085828Y-130501918D02*
X184014400Y-130644775D01*
X184014400Y-130644775D02*
X183871542Y-130716203D01*
X183871542Y-130716203D02*
X183800114Y-130716203D01*
X183800114Y-130716203D02*
X183657257Y-130644775D01*
X183657257Y-130644775D02*
X183585828Y-130501918D01*
X183585828Y-130501918D02*
X183585828Y-130287632D01*
X183585828Y-130287632D02*
X183657257Y-130144775D01*
X184585828Y-129430489D02*
X183585828Y-129430489D01*
X183085828Y-129430489D02*
X183157257Y-129501917D01*
X183157257Y-129501917D02*
X183228685Y-129430489D01*
X183228685Y-129430489D02*
X183157257Y-129359060D01*
X183157257Y-129359060D02*
X183085828Y-129430489D01*
X183085828Y-129430489D02*
X183228685Y-129430489D01*
X183585828Y-128073346D02*
X184800114Y-128073346D01*
X184800114Y-128073346D02*
X184942971Y-128144774D01*
X184942971Y-128144774D02*
X185014400Y-128216203D01*
X185014400Y-128216203D02*
X185085828Y-128359060D01*
X185085828Y-128359060D02*
X185085828Y-128573346D01*
X185085828Y-128573346D02*
X185014400Y-128716203D01*
X184514400Y-128073346D02*
X184585828Y-128216203D01*
X184585828Y-128216203D02*
X184585828Y-128501917D01*
X184585828Y-128501917D02*
X184514400Y-128644774D01*
X184514400Y-128644774D02*
X184442971Y-128716203D01*
X184442971Y-128716203D02*
X184300114Y-128787631D01*
X184300114Y-128787631D02*
X183871542Y-128787631D01*
X183871542Y-128787631D02*
X183728685Y-128716203D01*
X183728685Y-128716203D02*
X183657257Y-128644774D01*
X183657257Y-128644774D02*
X183585828Y-128501917D01*
X183585828Y-128501917D02*
X183585828Y-128216203D01*
X183585828Y-128216203D02*
X183657257Y-128073346D01*
X183585828Y-127359060D02*
X184585828Y-127359060D01*
X183728685Y-127359060D02*
X183657257Y-127287631D01*
X183657257Y-127287631D02*
X183585828Y-127144774D01*
X183585828Y-127144774D02*
X183585828Y-126930488D01*
X183585828Y-126930488D02*
X183657257Y-126787631D01*
X183657257Y-126787631D02*
X183800114Y-126716203D01*
X183800114Y-126716203D02*
X184585828Y-126716203D01*
X184514400Y-125430488D02*
X184585828Y-125573345D01*
X184585828Y-125573345D02*
X184585828Y-125859060D01*
X184585828Y-125859060D02*
X184514400Y-126001917D01*
X184514400Y-126001917D02*
X184371542Y-126073345D01*
X184371542Y-126073345D02*
X183800114Y-126073345D01*
X183800114Y-126073345D02*
X183657257Y-126001917D01*
X183657257Y-126001917D02*
X183585828Y-125859060D01*
X183585828Y-125859060D02*
X183585828Y-125573345D01*
X183585828Y-125573345D02*
X183657257Y-125430488D01*
X183657257Y-125430488D02*
X183800114Y-125359060D01*
X183800114Y-125359060D02*
X183942971Y-125359060D01*
X183942971Y-125359060D02*
X184085828Y-126073345D01*
X184585828Y-124073346D02*
X183085828Y-124073346D01*
X184514400Y-124073346D02*
X184585828Y-124216203D01*
X184585828Y-124216203D02*
X184585828Y-124501917D01*
X184585828Y-124501917D02*
X184514400Y-124644774D01*
X184514400Y-124644774D02*
X184442971Y-124716203D01*
X184442971Y-124716203D02*
X184300114Y-124787631D01*
X184300114Y-124787631D02*
X183871542Y-124787631D01*
X183871542Y-124787631D02*
X183728685Y-124716203D01*
X183728685Y-124716203D02*
X183657257Y-124644774D01*
X183657257Y-124644774D02*
X183585828Y-124501917D01*
X183585828Y-124501917D02*
X183585828Y-124216203D01*
X183585828Y-124216203D02*
X183657257Y-124073346D01*
X183800114Y-121716203D02*
X183871542Y-121501917D01*
X183871542Y-121501917D02*
X183942971Y-121430488D01*
X183942971Y-121430488D02*
X184085828Y-121359060D01*
X184085828Y-121359060D02*
X184300114Y-121359060D01*
X184300114Y-121359060D02*
X184442971Y-121430488D01*
X184442971Y-121430488D02*
X184514400Y-121501917D01*
X184514400Y-121501917D02*
X184585828Y-121644774D01*
X184585828Y-121644774D02*
X184585828Y-122216203D01*
X184585828Y-122216203D02*
X183085828Y-122216203D01*
X183085828Y-122216203D02*
X183085828Y-121716203D01*
X183085828Y-121716203D02*
X183157257Y-121573346D01*
X183157257Y-121573346D02*
X183228685Y-121501917D01*
X183228685Y-121501917D02*
X183371542Y-121430488D01*
X183371542Y-121430488D02*
X183514400Y-121430488D01*
X183514400Y-121430488D02*
X183657257Y-121501917D01*
X183657257Y-121501917D02*
X183728685Y-121573346D01*
X183728685Y-121573346D02*
X183800114Y-121716203D01*
X183800114Y-121716203D02*
X183800114Y-122216203D01*
X183585828Y-120859060D02*
X184585828Y-120501917D01*
X183585828Y-120144774D02*
X184585828Y-120501917D01*
X184585828Y-120501917D02*
X184942971Y-120644774D01*
X184942971Y-120644774D02*
X185014400Y-120716203D01*
X185014400Y-120716203D02*
X185085828Y-120859060D01*
X184585828Y-117573346D02*
X183871542Y-118073346D01*
X184585828Y-118430489D02*
X183085828Y-118430489D01*
X183085828Y-118430489D02*
X183085828Y-117859060D01*
X183085828Y-117859060D02*
X183157257Y-117716203D01*
X183157257Y-117716203D02*
X183228685Y-117644774D01*
X183228685Y-117644774D02*
X183371542Y-117573346D01*
X183371542Y-117573346D02*
X183585828Y-117573346D01*
X183585828Y-117573346D02*
X183728685Y-117644774D01*
X183728685Y-117644774D02*
X183800114Y-117716203D01*
X183800114Y-117716203D02*
X183871542Y-117859060D01*
X183871542Y-117859060D02*
X183871542Y-118430489D01*
X184585828Y-116930489D02*
X183085828Y-116930489D01*
X184585828Y-116287632D02*
X183800114Y-116287632D01*
X183800114Y-116287632D02*
X183657257Y-116359060D01*
X183657257Y-116359060D02*
X183585828Y-116501917D01*
X183585828Y-116501917D02*
X183585828Y-116716203D01*
X183585828Y-116716203D02*
X183657257Y-116859060D01*
X183657257Y-116859060D02*
X183728685Y-116930489D01*
X184585828Y-115359060D02*
X184514400Y-115501917D01*
X184514400Y-115501917D02*
X184442971Y-115573346D01*
X184442971Y-115573346D02*
X184300114Y-115644774D01*
X184300114Y-115644774D02*
X183871542Y-115644774D01*
X183871542Y-115644774D02*
X183728685Y-115573346D01*
X183728685Y-115573346D02*
X183657257Y-115501917D01*
X183657257Y-115501917D02*
X183585828Y-115359060D01*
X183585828Y-115359060D02*
X183585828Y-115144774D01*
X183585828Y-115144774D02*
X183657257Y-115001917D01*
X183657257Y-115001917D02*
X183728685Y-114930489D01*
X183728685Y-114930489D02*
X183871542Y-114859060D01*
X183871542Y-114859060D02*
X184300114Y-114859060D01*
X184300114Y-114859060D02*
X184442971Y-114930489D01*
X184442971Y-114930489D02*
X184514400Y-115001917D01*
X184514400Y-115001917D02*
X184585828Y-115144774D01*
X184585828Y-115144774D02*
X184585828Y-115359060D01*
X184585828Y-113573346D02*
X183085828Y-113573346D01*
X184514400Y-113573346D02*
X184585828Y-113716203D01*
X184585828Y-113716203D02*
X184585828Y-114001917D01*
X184585828Y-114001917D02*
X184514400Y-114144774D01*
X184514400Y-114144774D02*
X184442971Y-114216203D01*
X184442971Y-114216203D02*
X184300114Y-114287631D01*
X184300114Y-114287631D02*
X183871542Y-114287631D01*
X183871542Y-114287631D02*
X183728685Y-114216203D01*
X183728685Y-114216203D02*
X183657257Y-114144774D01*
X183657257Y-114144774D02*
X183585828Y-114001917D01*
X183585828Y-114001917D02*
X183585828Y-113716203D01*
X183585828Y-113716203D02*
X183657257Y-113573346D01*
X183585828Y-113001917D02*
X184585828Y-112644774D01*
X183585828Y-112287631D02*
X184585828Y-112644774D01*
X184585828Y-112644774D02*
X184942971Y-112787631D01*
X184942971Y-112787631D02*
X185014400Y-112859060D01*
X185014400Y-112859060D02*
X185085828Y-113001917D01*
X183800114Y-110073346D02*
X183871542Y-109859060D01*
X183871542Y-109859060D02*
X183942971Y-109787631D01*
X183942971Y-109787631D02*
X184085828Y-109716203D01*
X184085828Y-109716203D02*
X184300114Y-109716203D01*
X184300114Y-109716203D02*
X184442971Y-109787631D01*
X184442971Y-109787631D02*
X184514400Y-109859060D01*
X184514400Y-109859060D02*
X184585828Y-110001917D01*
X184585828Y-110001917D02*
X184585828Y-110573346D01*
X184585828Y-110573346D02*
X183085828Y-110573346D01*
X183085828Y-110573346D02*
X183085828Y-110073346D01*
X183085828Y-110073346D02*
X183157257Y-109930489D01*
X183157257Y-109930489D02*
X183228685Y-109859060D01*
X183228685Y-109859060D02*
X183371542Y-109787631D01*
X183371542Y-109787631D02*
X183514400Y-109787631D01*
X183514400Y-109787631D02*
X183657257Y-109859060D01*
X183657257Y-109859060D02*
X183728685Y-109930489D01*
X183728685Y-109930489D02*
X183800114Y-110073346D01*
X183800114Y-110073346D02*
X183800114Y-110573346D01*
X184585828Y-108859060D02*
X184514400Y-109001917D01*
X184514400Y-109001917D02*
X184442971Y-109073346D01*
X184442971Y-109073346D02*
X184300114Y-109144774D01*
X184300114Y-109144774D02*
X183871542Y-109144774D01*
X183871542Y-109144774D02*
X183728685Y-109073346D01*
X183728685Y-109073346D02*
X183657257Y-109001917D01*
X183657257Y-109001917D02*
X183585828Y-108859060D01*
X183585828Y-108859060D02*
X183585828Y-108644774D01*
X183585828Y-108644774D02*
X183657257Y-108501917D01*
X183657257Y-108501917D02*
X183728685Y-108430489D01*
X183728685Y-108430489D02*
X183871542Y-108359060D01*
X183871542Y-108359060D02*
X184300114Y-108359060D01*
X184300114Y-108359060D02*
X184442971Y-108430489D01*
X184442971Y-108430489D02*
X184514400Y-108501917D01*
X184514400Y-108501917D02*
X184585828Y-108644774D01*
X184585828Y-108644774D02*
X184585828Y-108859060D01*
X184585828Y-107501917D02*
X184514400Y-107644774D01*
X184514400Y-107644774D02*
X184371542Y-107716203D01*
X184371542Y-107716203D02*
X183085828Y-107716203D01*
X184585828Y-106287632D02*
X183800114Y-106287632D01*
X183800114Y-106287632D02*
X183657257Y-106359060D01*
X183657257Y-106359060D02*
X183585828Y-106501917D01*
X183585828Y-106501917D02*
X183585828Y-106787632D01*
X183585828Y-106787632D02*
X183657257Y-106930489D01*
X184514400Y-106287632D02*
X184585828Y-106430489D01*
X184585828Y-106430489D02*
X184585828Y-106787632D01*
X184585828Y-106787632D02*
X184514400Y-106930489D01*
X184514400Y-106930489D02*
X184371542Y-107001917D01*
X184371542Y-107001917D02*
X184228685Y-107001917D01*
X184228685Y-107001917D02*
X184085828Y-106930489D01*
X184085828Y-106930489D02*
X184014400Y-106787632D01*
X184014400Y-106787632D02*
X184014400Y-106430489D01*
X184014400Y-106430489D02*
X183942971Y-106287632D01*
X183585828Y-105573346D02*
X184585828Y-105573346D01*
X183728685Y-105573346D02*
X183657257Y-105501917D01*
X183657257Y-105501917D02*
X183585828Y-105359060D01*
X183585828Y-105359060D02*
X183585828Y-105144774D01*
X183585828Y-105144774D02*
X183657257Y-105001917D01*
X183657257Y-105001917D02*
X183800114Y-104930489D01*
X183800114Y-104930489D02*
X184585828Y-104930489D01*
X184585828Y-103573346D02*
X183085828Y-103573346D01*
X184514400Y-103573346D02*
X184585828Y-103716203D01*
X184585828Y-103716203D02*
X184585828Y-104001917D01*
X184585828Y-104001917D02*
X184514400Y-104144774D01*
X184514400Y-104144774D02*
X184442971Y-104216203D01*
X184442971Y-104216203D02*
X184300114Y-104287631D01*
X184300114Y-104287631D02*
X183871542Y-104287631D01*
X183871542Y-104287631D02*
X183728685Y-104216203D01*
X183728685Y-104216203D02*
X183657257Y-104144774D01*
X183657257Y-104144774D02*
X183585828Y-104001917D01*
X183585828Y-104001917D02*
X183585828Y-103716203D01*
X183585828Y-103716203D02*
X183657257Y-103573346D01*
D12*
%TO.C,U1*%
X25702380Y-127574318D02*
X25702380Y-128602413D01*
X25702380Y-128602413D02*
X25762857Y-128723365D01*
X25762857Y-128723365D02*
X25823333Y-128783842D01*
X25823333Y-128783842D02*
X25944285Y-128844318D01*
X25944285Y-128844318D02*
X26186190Y-128844318D01*
X26186190Y-128844318D02*
X26307142Y-128783842D01*
X26307142Y-128783842D02*
X26367619Y-128723365D01*
X26367619Y-128723365D02*
X26428095Y-128602413D01*
X26428095Y-128602413D02*
X26428095Y-127574318D01*
X27698095Y-128844318D02*
X26972380Y-128844318D01*
X27335237Y-128844318D02*
X27335237Y-127574318D01*
X27335237Y-127574318D02*
X27214285Y-127755746D01*
X27214285Y-127755746D02*
X27093333Y-127876699D01*
X27093333Y-127876699D02*
X26972380Y-127937175D01*
D10*
%TO.C,D8*%
X120314405Y-136769819D02*
X120314405Y-135769819D01*
X120314405Y-135769819D02*
X120552500Y-135769819D01*
X120552500Y-135769819D02*
X120695357Y-135817438D01*
X120695357Y-135817438D02*
X120790595Y-135912676D01*
X120790595Y-135912676D02*
X120838214Y-136007914D01*
X120838214Y-136007914D02*
X120885833Y-136198390D01*
X120885833Y-136198390D02*
X120885833Y-136341247D01*
X120885833Y-136341247D02*
X120838214Y-136531723D01*
X120838214Y-136531723D02*
X120790595Y-136626961D01*
X120790595Y-136626961D02*
X120695357Y-136722200D01*
X120695357Y-136722200D02*
X120552500Y-136769819D01*
X120552500Y-136769819D02*
X120314405Y-136769819D01*
X121457262Y-136198390D02*
X121362024Y-136150771D01*
X121362024Y-136150771D02*
X121314405Y-136103152D01*
X121314405Y-136103152D02*
X121266786Y-136007914D01*
X121266786Y-136007914D02*
X121266786Y-135960295D01*
X121266786Y-135960295D02*
X121314405Y-135865057D01*
X121314405Y-135865057D02*
X121362024Y-135817438D01*
X121362024Y-135817438D02*
X121457262Y-135769819D01*
X121457262Y-135769819D02*
X121647738Y-135769819D01*
X121647738Y-135769819D02*
X121742976Y-135817438D01*
X121742976Y-135817438D02*
X121790595Y-135865057D01*
X121790595Y-135865057D02*
X121838214Y-135960295D01*
X121838214Y-135960295D02*
X121838214Y-136007914D01*
X121838214Y-136007914D02*
X121790595Y-136103152D01*
X121790595Y-136103152D02*
X121742976Y-136150771D01*
X121742976Y-136150771D02*
X121647738Y-136198390D01*
X121647738Y-136198390D02*
X121457262Y-136198390D01*
X121457262Y-136198390D02*
X121362024Y-136246009D01*
X121362024Y-136246009D02*
X121314405Y-136293628D01*
X121314405Y-136293628D02*
X121266786Y-136388866D01*
X121266786Y-136388866D02*
X121266786Y-136579342D01*
X121266786Y-136579342D02*
X121314405Y-136674580D01*
X121314405Y-136674580D02*
X121362024Y-136722200D01*
X121362024Y-136722200D02*
X121457262Y-136769819D01*
X121457262Y-136769819D02*
X121647738Y-136769819D01*
X121647738Y-136769819D02*
X121742976Y-136722200D01*
X121742976Y-136722200D02*
X121790595Y-136674580D01*
X121790595Y-136674580D02*
X121838214Y-136579342D01*
X121838214Y-136579342D02*
X121838214Y-136388866D01*
X121838214Y-136388866D02*
X121790595Y-136293628D01*
X121790595Y-136293628D02*
X121742976Y-136246009D01*
X121742976Y-136246009D02*
X121647738Y-136198390D01*
%TO.C,D7*%
X108884405Y-136769819D02*
X108884405Y-135769819D01*
X108884405Y-135769819D02*
X109122500Y-135769819D01*
X109122500Y-135769819D02*
X109265357Y-135817438D01*
X109265357Y-135817438D02*
X109360595Y-135912676D01*
X109360595Y-135912676D02*
X109408214Y-136007914D01*
X109408214Y-136007914D02*
X109455833Y-136198390D01*
X109455833Y-136198390D02*
X109455833Y-136341247D01*
X109455833Y-136341247D02*
X109408214Y-136531723D01*
X109408214Y-136531723D02*
X109360595Y-136626961D01*
X109360595Y-136626961D02*
X109265357Y-136722200D01*
X109265357Y-136722200D02*
X109122500Y-136769819D01*
X109122500Y-136769819D02*
X108884405Y-136769819D01*
X109789167Y-135769819D02*
X110455833Y-135769819D01*
X110455833Y-135769819D02*
X110027262Y-136769819D01*
%TO.C,D6*%
X142136905Y-136769819D02*
X142136905Y-135769819D01*
X142136905Y-135769819D02*
X142375000Y-135769819D01*
X142375000Y-135769819D02*
X142517857Y-135817438D01*
X142517857Y-135817438D02*
X142613095Y-135912676D01*
X142613095Y-135912676D02*
X142660714Y-136007914D01*
X142660714Y-136007914D02*
X142708333Y-136198390D01*
X142708333Y-136198390D02*
X142708333Y-136341247D01*
X142708333Y-136341247D02*
X142660714Y-136531723D01*
X142660714Y-136531723D02*
X142613095Y-136626961D01*
X142613095Y-136626961D02*
X142517857Y-136722200D01*
X142517857Y-136722200D02*
X142375000Y-136769819D01*
X142375000Y-136769819D02*
X142136905Y-136769819D01*
X143565476Y-135769819D02*
X143375000Y-135769819D01*
X143375000Y-135769819D02*
X143279762Y-135817438D01*
X143279762Y-135817438D02*
X143232143Y-135865057D01*
X143232143Y-135865057D02*
X143136905Y-136007914D01*
X143136905Y-136007914D02*
X143089286Y-136198390D01*
X143089286Y-136198390D02*
X143089286Y-136579342D01*
X143089286Y-136579342D02*
X143136905Y-136674580D01*
X143136905Y-136674580D02*
X143184524Y-136722200D01*
X143184524Y-136722200D02*
X143279762Y-136769819D01*
X143279762Y-136769819D02*
X143470238Y-136769819D01*
X143470238Y-136769819D02*
X143565476Y-136722200D01*
X143565476Y-136722200D02*
X143613095Y-136674580D01*
X143613095Y-136674580D02*
X143660714Y-136579342D01*
X143660714Y-136579342D02*
X143660714Y-136341247D01*
X143660714Y-136341247D02*
X143613095Y-136246009D01*
X143613095Y-136246009D02*
X143565476Y-136198390D01*
X143565476Y-136198390D02*
X143470238Y-136150771D01*
X143470238Y-136150771D02*
X143279762Y-136150771D01*
X143279762Y-136150771D02*
X143184524Y-136198390D01*
X143184524Y-136198390D02*
X143136905Y-136246009D01*
X143136905Y-136246009D02*
X143089286Y-136341247D01*
%TO.C,D5*%
X97856905Y-136769819D02*
X97856905Y-135769819D01*
X97856905Y-135769819D02*
X98095000Y-135769819D01*
X98095000Y-135769819D02*
X98237857Y-135817438D01*
X98237857Y-135817438D02*
X98333095Y-135912676D01*
X98333095Y-135912676D02*
X98380714Y-136007914D01*
X98380714Y-136007914D02*
X98428333Y-136198390D01*
X98428333Y-136198390D02*
X98428333Y-136341247D01*
X98428333Y-136341247D02*
X98380714Y-136531723D01*
X98380714Y-136531723D02*
X98333095Y-136626961D01*
X98333095Y-136626961D02*
X98237857Y-136722200D01*
X98237857Y-136722200D02*
X98095000Y-136769819D01*
X98095000Y-136769819D02*
X97856905Y-136769819D01*
X99333095Y-135769819D02*
X98856905Y-135769819D01*
X98856905Y-135769819D02*
X98809286Y-136246009D01*
X98809286Y-136246009D02*
X98856905Y-136198390D01*
X98856905Y-136198390D02*
X98952143Y-136150771D01*
X98952143Y-136150771D02*
X99190238Y-136150771D01*
X99190238Y-136150771D02*
X99285476Y-136198390D01*
X99285476Y-136198390D02*
X99333095Y-136246009D01*
X99333095Y-136246009D02*
X99380714Y-136341247D01*
X99380714Y-136341247D02*
X99380714Y-136579342D01*
X99380714Y-136579342D02*
X99333095Y-136674580D01*
X99333095Y-136674580D02*
X99285476Y-136722200D01*
X99285476Y-136722200D02*
X99190238Y-136769819D01*
X99190238Y-136769819D02*
X98952143Y-136769819D01*
X98952143Y-136769819D02*
X98856905Y-136722200D01*
X98856905Y-136722200D02*
X98809286Y-136674580D01*
%TO.C,D3*%
X130706905Y-136769819D02*
X130706905Y-135769819D01*
X130706905Y-135769819D02*
X130945000Y-135769819D01*
X130945000Y-135769819D02*
X131087857Y-135817438D01*
X131087857Y-135817438D02*
X131183095Y-135912676D01*
X131183095Y-135912676D02*
X131230714Y-136007914D01*
X131230714Y-136007914D02*
X131278333Y-136198390D01*
X131278333Y-136198390D02*
X131278333Y-136341247D01*
X131278333Y-136341247D02*
X131230714Y-136531723D01*
X131230714Y-136531723D02*
X131183095Y-136626961D01*
X131183095Y-136626961D02*
X131087857Y-136722200D01*
X131087857Y-136722200D02*
X130945000Y-136769819D01*
X130945000Y-136769819D02*
X130706905Y-136769819D01*
X131611667Y-135769819D02*
X132230714Y-135769819D01*
X132230714Y-135769819D02*
X131897381Y-136150771D01*
X131897381Y-136150771D02*
X132040238Y-136150771D01*
X132040238Y-136150771D02*
X132135476Y-136198390D01*
X132135476Y-136198390D02*
X132183095Y-136246009D01*
X132183095Y-136246009D02*
X132230714Y-136341247D01*
X132230714Y-136341247D02*
X132230714Y-136579342D01*
X132230714Y-136579342D02*
X132183095Y-136674580D01*
X132183095Y-136674580D02*
X132135476Y-136722200D01*
X132135476Y-136722200D02*
X132040238Y-136769819D01*
X132040238Y-136769819D02*
X131754524Y-136769819D01*
X131754524Y-136769819D02*
X131659286Y-136722200D01*
X131659286Y-136722200D02*
X131611667Y-136674580D01*
%TO.C,D2*%
X86526905Y-136769819D02*
X86526905Y-135769819D01*
X86526905Y-135769819D02*
X86765000Y-135769819D01*
X86765000Y-135769819D02*
X86907857Y-135817438D01*
X86907857Y-135817438D02*
X87003095Y-135912676D01*
X87003095Y-135912676D02*
X87050714Y-136007914D01*
X87050714Y-136007914D02*
X87098333Y-136198390D01*
X87098333Y-136198390D02*
X87098333Y-136341247D01*
X87098333Y-136341247D02*
X87050714Y-136531723D01*
X87050714Y-136531723D02*
X87003095Y-136626961D01*
X87003095Y-136626961D02*
X86907857Y-136722200D01*
X86907857Y-136722200D02*
X86765000Y-136769819D01*
X86765000Y-136769819D02*
X86526905Y-136769819D01*
X87479286Y-135865057D02*
X87526905Y-135817438D01*
X87526905Y-135817438D02*
X87622143Y-135769819D01*
X87622143Y-135769819D02*
X87860238Y-135769819D01*
X87860238Y-135769819D02*
X87955476Y-135817438D01*
X87955476Y-135817438D02*
X88003095Y-135865057D01*
X88003095Y-135865057D02*
X88050714Y-135960295D01*
X88050714Y-135960295D02*
X88050714Y-136055533D01*
X88050714Y-136055533D02*
X88003095Y-136198390D01*
X88003095Y-136198390D02*
X87431667Y-136769819D01*
X87431667Y-136769819D02*
X88050714Y-136769819D01*
%TO.C,U3*%
X82448095Y-102904819D02*
X82448095Y-103714342D01*
X82448095Y-103714342D02*
X82495714Y-103809580D01*
X82495714Y-103809580D02*
X82543333Y-103857200D01*
X82543333Y-103857200D02*
X82638571Y-103904819D01*
X82638571Y-103904819D02*
X82829047Y-103904819D01*
X82829047Y-103904819D02*
X82924285Y-103857200D01*
X82924285Y-103857200D02*
X82971904Y-103809580D01*
X82971904Y-103809580D02*
X83019523Y-103714342D01*
X83019523Y-103714342D02*
X83019523Y-102904819D01*
X83400476Y-102904819D02*
X84019523Y-102904819D01*
X84019523Y-102904819D02*
X83686190Y-103285771D01*
X83686190Y-103285771D02*
X83829047Y-103285771D01*
X83829047Y-103285771D02*
X83924285Y-103333390D01*
X83924285Y-103333390D02*
X83971904Y-103381009D01*
X83971904Y-103381009D02*
X84019523Y-103476247D01*
X84019523Y-103476247D02*
X84019523Y-103714342D01*
X84019523Y-103714342D02*
X83971904Y-103809580D01*
X83971904Y-103809580D02*
X83924285Y-103857200D01*
X83924285Y-103857200D02*
X83829047Y-103904819D01*
X83829047Y-103904819D02*
X83543333Y-103904819D01*
X83543333Y-103904819D02*
X83448095Y-103857200D01*
X83448095Y-103857200D02*
X83400476Y-103809580D01*
X78781429Y-112619104D02*
X79257619Y-112619104D01*
X78686191Y-112904819D02*
X79019524Y-111904819D01*
X79019524Y-111904819D02*
X79352857Y-112904819D01*
X79590953Y-111904819D02*
X80257619Y-111904819D01*
X80257619Y-111904819D02*
X79590953Y-112904819D01*
X79590953Y-112904819D02*
X80257619Y-112904819D01*
X81162381Y-112904819D02*
X80590953Y-112904819D01*
X80876667Y-112904819D02*
X80876667Y-111904819D01*
X80876667Y-111904819D02*
X80781429Y-112047676D01*
X80781429Y-112047676D02*
X80686191Y-112142914D01*
X80686191Y-112142914D02*
X80590953Y-112190533D01*
X82114762Y-112904819D02*
X81543334Y-112904819D01*
X81829048Y-112904819D02*
X81829048Y-111904819D01*
X81829048Y-111904819D02*
X81733810Y-112047676D01*
X81733810Y-112047676D02*
X81638572Y-112142914D01*
X81638572Y-112142914D02*
X81543334Y-112190533D01*
X83067143Y-112904819D02*
X82495715Y-112904819D01*
X82781429Y-112904819D02*
X82781429Y-111904819D01*
X82781429Y-111904819D02*
X82686191Y-112047676D01*
X82686191Y-112047676D02*
X82590953Y-112142914D01*
X82590953Y-112142914D02*
X82495715Y-112190533D01*
X83400477Y-111904819D02*
X84067143Y-111904819D01*
X84067143Y-111904819D02*
X83638572Y-112904819D01*
X84448096Y-112523866D02*
X85210001Y-112523866D01*
X86162381Y-111904819D02*
X85686191Y-111904819D01*
X85686191Y-111904819D02*
X85638572Y-112381009D01*
X85638572Y-112381009D02*
X85686191Y-112333390D01*
X85686191Y-112333390D02*
X85781429Y-112285771D01*
X85781429Y-112285771D02*
X86019524Y-112285771D01*
X86019524Y-112285771D02*
X86114762Y-112333390D01*
X86114762Y-112333390D02*
X86162381Y-112381009D01*
X86162381Y-112381009D02*
X86210000Y-112476247D01*
X86210000Y-112476247D02*
X86210000Y-112714342D01*
X86210000Y-112714342D02*
X86162381Y-112809580D01*
X86162381Y-112809580D02*
X86114762Y-112857200D01*
X86114762Y-112857200D02*
X86019524Y-112904819D01*
X86019524Y-112904819D02*
X85781429Y-112904819D01*
X85781429Y-112904819D02*
X85686191Y-112857200D01*
X85686191Y-112857200D02*
X85638572Y-112809580D01*
X86638572Y-112809580D02*
X86686191Y-112857200D01*
X86686191Y-112857200D02*
X86638572Y-112904819D01*
X86638572Y-112904819D02*
X86590953Y-112857200D01*
X86590953Y-112857200D02*
X86638572Y-112809580D01*
X86638572Y-112809580D02*
X86638572Y-112904819D01*
X87305238Y-111904819D02*
X87400476Y-111904819D01*
X87400476Y-111904819D02*
X87495714Y-111952438D01*
X87495714Y-111952438D02*
X87543333Y-112000057D01*
X87543333Y-112000057D02*
X87590952Y-112095295D01*
X87590952Y-112095295D02*
X87638571Y-112285771D01*
X87638571Y-112285771D02*
X87638571Y-112523866D01*
X87638571Y-112523866D02*
X87590952Y-112714342D01*
X87590952Y-112714342D02*
X87543333Y-112809580D01*
X87543333Y-112809580D02*
X87495714Y-112857200D01*
X87495714Y-112857200D02*
X87400476Y-112904819D01*
X87400476Y-112904819D02*
X87305238Y-112904819D01*
X87305238Y-112904819D02*
X87210000Y-112857200D01*
X87210000Y-112857200D02*
X87162381Y-112809580D01*
X87162381Y-112809580D02*
X87114762Y-112714342D01*
X87114762Y-112714342D02*
X87067143Y-112523866D01*
X87067143Y-112523866D02*
X87067143Y-112285771D01*
X87067143Y-112285771D02*
X87114762Y-112095295D01*
X87114762Y-112095295D02*
X87162381Y-112000057D01*
X87162381Y-112000057D02*
X87210000Y-111952438D01*
X87210000Y-111952438D02*
X87305238Y-111904819D01*
%TO.C,U2*%
X99039819Y-124836904D02*
X99849342Y-124836904D01*
X99849342Y-124836904D02*
X99944580Y-124789285D01*
X99944580Y-124789285D02*
X99992200Y-124741666D01*
X99992200Y-124741666D02*
X100039819Y-124646428D01*
X100039819Y-124646428D02*
X100039819Y-124455952D01*
X100039819Y-124455952D02*
X99992200Y-124360714D01*
X99992200Y-124360714D02*
X99944580Y-124313095D01*
X99944580Y-124313095D02*
X99849342Y-124265476D01*
X99849342Y-124265476D02*
X99039819Y-124265476D01*
X99135057Y-123836904D02*
X99087438Y-123789285D01*
X99087438Y-123789285D02*
X99039819Y-123694047D01*
X99039819Y-123694047D02*
X99039819Y-123455952D01*
X99039819Y-123455952D02*
X99087438Y-123360714D01*
X99087438Y-123360714D02*
X99135057Y-123313095D01*
X99135057Y-123313095D02*
X99230295Y-123265476D01*
X99230295Y-123265476D02*
X99325533Y-123265476D01*
X99325533Y-123265476D02*
X99468390Y-123313095D01*
X99468390Y-123313095D02*
X100039819Y-123884523D01*
X100039819Y-123884523D02*
X100039819Y-123265476D01*
X165666009Y-124053808D02*
X165666009Y-123720475D01*
X166189819Y-123577618D02*
X166189819Y-124053808D01*
X166189819Y-124053808D02*
X165189819Y-124053808D01*
X165189819Y-124053808D02*
X165189819Y-123577618D01*
X166142200Y-123196665D02*
X166189819Y-123053808D01*
X166189819Y-123053808D02*
X166189819Y-122815713D01*
X166189819Y-122815713D02*
X166142200Y-122720475D01*
X166142200Y-122720475D02*
X166094580Y-122672856D01*
X166094580Y-122672856D02*
X165999342Y-122625237D01*
X165999342Y-122625237D02*
X165904104Y-122625237D01*
X165904104Y-122625237D02*
X165808866Y-122672856D01*
X165808866Y-122672856D02*
X165761247Y-122720475D01*
X165761247Y-122720475D02*
X165713628Y-122815713D01*
X165713628Y-122815713D02*
X165666009Y-123006189D01*
X165666009Y-123006189D02*
X165618390Y-123101427D01*
X165618390Y-123101427D02*
X165570771Y-123149046D01*
X165570771Y-123149046D02*
X165475533Y-123196665D01*
X165475533Y-123196665D02*
X165380295Y-123196665D01*
X165380295Y-123196665D02*
X165285057Y-123149046D01*
X165285057Y-123149046D02*
X165237438Y-123101427D01*
X165237438Y-123101427D02*
X165189819Y-123006189D01*
X165189819Y-123006189D02*
X165189819Y-122768094D01*
X165189819Y-122768094D02*
X165237438Y-122625237D01*
X166189819Y-122196665D02*
X165189819Y-122196665D01*
X165189819Y-122196665D02*
X165189819Y-121815713D01*
X165189819Y-121815713D02*
X165237438Y-121720475D01*
X165237438Y-121720475D02*
X165285057Y-121672856D01*
X165285057Y-121672856D02*
X165380295Y-121625237D01*
X165380295Y-121625237D02*
X165523152Y-121625237D01*
X165523152Y-121625237D02*
X165618390Y-121672856D01*
X165618390Y-121672856D02*
X165666009Y-121720475D01*
X165666009Y-121720475D02*
X165713628Y-121815713D01*
X165713628Y-121815713D02*
X165713628Y-122196665D01*
X165189819Y-121291903D02*
X165189819Y-120672856D01*
X165189819Y-120672856D02*
X165570771Y-121006189D01*
X165570771Y-121006189D02*
X165570771Y-120863332D01*
X165570771Y-120863332D02*
X165618390Y-120768094D01*
X165618390Y-120768094D02*
X165666009Y-120720475D01*
X165666009Y-120720475D02*
X165761247Y-120672856D01*
X165761247Y-120672856D02*
X165999342Y-120672856D01*
X165999342Y-120672856D02*
X166094580Y-120720475D01*
X166094580Y-120720475D02*
X166142200Y-120768094D01*
X166142200Y-120768094D02*
X166189819Y-120863332D01*
X166189819Y-120863332D02*
X166189819Y-121149046D01*
X166189819Y-121149046D02*
X166142200Y-121244284D01*
X166142200Y-121244284D02*
X166094580Y-121291903D01*
X165285057Y-120291903D02*
X165237438Y-120244284D01*
X165237438Y-120244284D02*
X165189819Y-120149046D01*
X165189819Y-120149046D02*
X165189819Y-119910951D01*
X165189819Y-119910951D02*
X165237438Y-119815713D01*
X165237438Y-119815713D02*
X165285057Y-119768094D01*
X165285057Y-119768094D02*
X165380295Y-119720475D01*
X165380295Y-119720475D02*
X165475533Y-119720475D01*
X165475533Y-119720475D02*
X165618390Y-119768094D01*
X165618390Y-119768094D02*
X166189819Y-120339522D01*
X166189819Y-120339522D02*
X166189819Y-119720475D01*
X165808866Y-119291903D02*
X165808866Y-118529999D01*
X166142200Y-118101427D02*
X166189819Y-117958570D01*
X166189819Y-117958570D02*
X166189819Y-117720475D01*
X166189819Y-117720475D02*
X166142200Y-117625237D01*
X166142200Y-117625237D02*
X166094580Y-117577618D01*
X166094580Y-117577618D02*
X165999342Y-117529999D01*
X165999342Y-117529999D02*
X165904104Y-117529999D01*
X165904104Y-117529999D02*
X165808866Y-117577618D01*
X165808866Y-117577618D02*
X165761247Y-117625237D01*
X165761247Y-117625237D02*
X165713628Y-117720475D01*
X165713628Y-117720475D02*
X165666009Y-117910951D01*
X165666009Y-117910951D02*
X165618390Y-118006189D01*
X165618390Y-118006189D02*
X165570771Y-118053808D01*
X165570771Y-118053808D02*
X165475533Y-118101427D01*
X165475533Y-118101427D02*
X165380295Y-118101427D01*
X165380295Y-118101427D02*
X165285057Y-118053808D01*
X165285057Y-118053808D02*
X165237438Y-118006189D01*
X165237438Y-118006189D02*
X165189819Y-117910951D01*
X165189819Y-117910951D02*
X165189819Y-117672856D01*
X165189819Y-117672856D02*
X165237438Y-117529999D01*
X165189819Y-117196665D02*
X165189819Y-116577618D01*
X165189819Y-116577618D02*
X165570771Y-116910951D01*
X165570771Y-116910951D02*
X165570771Y-116768094D01*
X165570771Y-116768094D02*
X165618390Y-116672856D01*
X165618390Y-116672856D02*
X165666009Y-116625237D01*
X165666009Y-116625237D02*
X165761247Y-116577618D01*
X165761247Y-116577618D02*
X165999342Y-116577618D01*
X165999342Y-116577618D02*
X166094580Y-116625237D01*
X166094580Y-116625237D02*
X166142200Y-116672856D01*
X166142200Y-116672856D02*
X166189819Y-116768094D01*
X166189819Y-116768094D02*
X166189819Y-117053808D01*
X166189819Y-117053808D02*
X166142200Y-117149046D01*
X166142200Y-117149046D02*
X166094580Y-117196665D01*
X165808866Y-116149046D02*
X165808866Y-115387142D01*
X166189819Y-114910951D02*
X165189819Y-114910951D01*
X165189819Y-114910951D02*
X165189819Y-114672856D01*
X165189819Y-114672856D02*
X165237438Y-114529999D01*
X165237438Y-114529999D02*
X165332676Y-114434761D01*
X165332676Y-114434761D02*
X165427914Y-114387142D01*
X165427914Y-114387142D02*
X165618390Y-114339523D01*
X165618390Y-114339523D02*
X165761247Y-114339523D01*
X165761247Y-114339523D02*
X165951723Y-114387142D01*
X165951723Y-114387142D02*
X166046961Y-114434761D01*
X166046961Y-114434761D02*
X166142200Y-114529999D01*
X166142200Y-114529999D02*
X166189819Y-114672856D01*
X166189819Y-114672856D02*
X166189819Y-114910951D01*
X165666009Y-113910951D02*
X165666009Y-113577618D01*
X166189819Y-113434761D02*
X166189819Y-113910951D01*
X166189819Y-113910951D02*
X165189819Y-113910951D01*
X165189819Y-113910951D02*
X165189819Y-113434761D01*
X165189819Y-113149046D02*
X166189819Y-112815713D01*
X166189819Y-112815713D02*
X165189819Y-112482380D01*
X166189819Y-112149046D02*
X165189819Y-112149046D01*
X166189819Y-111577618D02*
X165618390Y-112006189D01*
X165189819Y-111577618D02*
X165761247Y-112149046D01*
X166189819Y-111149046D02*
X165189819Y-111149046D01*
X165189819Y-110815713D02*
X165189819Y-110244285D01*
X166189819Y-110529999D02*
X165189819Y-110529999D01*
X166094580Y-109339523D02*
X166142200Y-109387142D01*
X166142200Y-109387142D02*
X166189819Y-109529999D01*
X166189819Y-109529999D02*
X166189819Y-109625237D01*
X166189819Y-109625237D02*
X166142200Y-109768094D01*
X166142200Y-109768094D02*
X166046961Y-109863332D01*
X166046961Y-109863332D02*
X165951723Y-109910951D01*
X165951723Y-109910951D02*
X165761247Y-109958570D01*
X165761247Y-109958570D02*
X165618390Y-109958570D01*
X165618390Y-109958570D02*
X165427914Y-109910951D01*
X165427914Y-109910951D02*
X165332676Y-109863332D01*
X165332676Y-109863332D02*
X165237438Y-109768094D01*
X165237438Y-109768094D02*
X165189819Y-109625237D01*
X165189819Y-109625237D02*
X165189819Y-109529999D01*
X165189819Y-109529999D02*
X165237438Y-109387142D01*
X165237438Y-109387142D02*
X165285057Y-109339523D01*
X165808866Y-108910951D02*
X165808866Y-108149047D01*
X166189819Y-107149047D02*
X166189819Y-107720475D01*
X166189819Y-107434761D02*
X165189819Y-107434761D01*
X165189819Y-107434761D02*
X165332676Y-107529999D01*
X165332676Y-107529999D02*
X165427914Y-107625237D01*
X165427914Y-107625237D02*
X165475533Y-107720475D01*
X165808866Y-106720475D02*
X165808866Y-105958571D01*
X166189819Y-105482380D02*
X165189819Y-105482380D01*
X165189819Y-105482380D02*
X166189819Y-104910952D01*
X166189819Y-104910952D02*
X165189819Y-104910952D01*
X165618390Y-104291904D02*
X165570771Y-104387142D01*
X165570771Y-104387142D02*
X165523152Y-104434761D01*
X165523152Y-104434761D02*
X165427914Y-104482380D01*
X165427914Y-104482380D02*
X165380295Y-104482380D01*
X165380295Y-104482380D02*
X165285057Y-104434761D01*
X165285057Y-104434761D02*
X165237438Y-104387142D01*
X165237438Y-104387142D02*
X165189819Y-104291904D01*
X165189819Y-104291904D02*
X165189819Y-104101428D01*
X165189819Y-104101428D02*
X165237438Y-104006190D01*
X165237438Y-104006190D02*
X165285057Y-103958571D01*
X165285057Y-103958571D02*
X165380295Y-103910952D01*
X165380295Y-103910952D02*
X165427914Y-103910952D01*
X165427914Y-103910952D02*
X165523152Y-103958571D01*
X165523152Y-103958571D02*
X165570771Y-104006190D01*
X165570771Y-104006190D02*
X165618390Y-104101428D01*
X165618390Y-104101428D02*
X165618390Y-104291904D01*
X165618390Y-104291904D02*
X165666009Y-104387142D01*
X165666009Y-104387142D02*
X165713628Y-104434761D01*
X165713628Y-104434761D02*
X165808866Y-104482380D01*
X165808866Y-104482380D02*
X165999342Y-104482380D01*
X165999342Y-104482380D02*
X166094580Y-104434761D01*
X166094580Y-104434761D02*
X166142200Y-104387142D01*
X166142200Y-104387142D02*
X166189819Y-104291904D01*
X166189819Y-104291904D02*
X166189819Y-104101428D01*
X166189819Y-104101428D02*
X166142200Y-104006190D01*
X166142200Y-104006190D02*
X166094580Y-103958571D01*
X166094580Y-103958571D02*
X165999342Y-103910952D01*
X165999342Y-103910952D02*
X165808866Y-103910952D01*
X165808866Y-103910952D02*
X165713628Y-103958571D01*
X165713628Y-103958571D02*
X165666009Y-104006190D01*
X165666009Y-104006190D02*
X165618390Y-104101428D01*
X166189819Y-102910952D02*
X165713628Y-103244285D01*
X166189819Y-103482380D02*
X165189819Y-103482380D01*
X165189819Y-103482380D02*
X165189819Y-103101428D01*
X165189819Y-103101428D02*
X165237438Y-103006190D01*
X165237438Y-103006190D02*
X165285057Y-102958571D01*
X165285057Y-102958571D02*
X165380295Y-102910952D01*
X165380295Y-102910952D02*
X165523152Y-102910952D01*
X165523152Y-102910952D02*
X165618390Y-102958571D01*
X165618390Y-102958571D02*
X165666009Y-103006190D01*
X165666009Y-103006190D02*
X165713628Y-103101428D01*
X165713628Y-103101428D02*
X165713628Y-103482380D01*
X165285057Y-102529999D02*
X165237438Y-102482380D01*
X165237438Y-102482380D02*
X165189819Y-102387142D01*
X165189819Y-102387142D02*
X165189819Y-102149047D01*
X165189819Y-102149047D02*
X165237438Y-102053809D01*
X165237438Y-102053809D02*
X165285057Y-102006190D01*
X165285057Y-102006190D02*
X165380295Y-101958571D01*
X165380295Y-101958571D02*
X165475533Y-101958571D01*
X165475533Y-101958571D02*
X165618390Y-102006190D01*
X165618390Y-102006190D02*
X166189819Y-102577618D01*
X166189819Y-102577618D02*
X166189819Y-101958571D01*
D12*
%TO.C,J8*%
X56726667Y-135194318D02*
X56726667Y-136101461D01*
X56726667Y-136101461D02*
X56666190Y-136282889D01*
X56666190Y-136282889D02*
X56545238Y-136403842D01*
X56545238Y-136403842D02*
X56363809Y-136464318D01*
X56363809Y-136464318D02*
X56242857Y-136464318D01*
X57512857Y-135738603D02*
X57391905Y-135678127D01*
X57391905Y-135678127D02*
X57331428Y-135617651D01*
X57331428Y-135617651D02*
X57270952Y-135496699D01*
X57270952Y-135496699D02*
X57270952Y-135436222D01*
X57270952Y-135436222D02*
X57331428Y-135315270D01*
X57331428Y-135315270D02*
X57391905Y-135254794D01*
X57391905Y-135254794D02*
X57512857Y-135194318D01*
X57512857Y-135194318D02*
X57754762Y-135194318D01*
X57754762Y-135194318D02*
X57875714Y-135254794D01*
X57875714Y-135254794D02*
X57936190Y-135315270D01*
X57936190Y-135315270D02*
X57996667Y-135436222D01*
X57996667Y-135436222D02*
X57996667Y-135496699D01*
X57996667Y-135496699D02*
X57936190Y-135617651D01*
X57936190Y-135617651D02*
X57875714Y-135678127D01*
X57875714Y-135678127D02*
X57754762Y-135738603D01*
X57754762Y-135738603D02*
X57512857Y-135738603D01*
X57512857Y-135738603D02*
X57391905Y-135799080D01*
X57391905Y-135799080D02*
X57331428Y-135859556D01*
X57331428Y-135859556D02*
X57270952Y-135980508D01*
X57270952Y-135980508D02*
X57270952Y-136222413D01*
X57270952Y-136222413D02*
X57331428Y-136343365D01*
X57331428Y-136343365D02*
X57391905Y-136403842D01*
X57391905Y-136403842D02*
X57512857Y-136464318D01*
X57512857Y-136464318D02*
X57754762Y-136464318D01*
X57754762Y-136464318D02*
X57875714Y-136403842D01*
X57875714Y-136403842D02*
X57936190Y-136343365D01*
X57936190Y-136343365D02*
X57996667Y-136222413D01*
X57996667Y-136222413D02*
X57996667Y-135980508D01*
X57996667Y-135980508D02*
X57936190Y-135859556D01*
X57936190Y-135859556D02*
X57875714Y-135799080D01*
X57875714Y-135799080D02*
X57754762Y-135738603D01*
%TO.C,J3*%
X26881667Y-105349318D02*
X26881667Y-106256461D01*
X26881667Y-106256461D02*
X26821190Y-106437889D01*
X26821190Y-106437889D02*
X26700238Y-106558842D01*
X26700238Y-106558842D02*
X26518809Y-106619318D01*
X26518809Y-106619318D02*
X26397857Y-106619318D01*
X27365476Y-105349318D02*
X28151667Y-105349318D01*
X28151667Y-105349318D02*
X27728333Y-105833127D01*
X27728333Y-105833127D02*
X27909762Y-105833127D01*
X27909762Y-105833127D02*
X28030714Y-105893603D01*
X28030714Y-105893603D02*
X28091190Y-105954080D01*
X28091190Y-105954080D02*
X28151667Y-106075032D01*
X28151667Y-106075032D02*
X28151667Y-106377413D01*
X28151667Y-106377413D02*
X28091190Y-106498365D01*
X28091190Y-106498365D02*
X28030714Y-106558842D01*
X28030714Y-106558842D02*
X27909762Y-106619318D01*
X27909762Y-106619318D02*
X27546905Y-106619318D01*
X27546905Y-106619318D02*
X27425952Y-106558842D01*
X27425952Y-106558842D02*
X27365476Y-106498365D01*
%TO.C,J1*%
X29421667Y-133924318D02*
X29421667Y-134831461D01*
X29421667Y-134831461D02*
X29361190Y-135012889D01*
X29361190Y-135012889D02*
X29240238Y-135133842D01*
X29240238Y-135133842D02*
X29058809Y-135194318D01*
X29058809Y-135194318D02*
X28937857Y-135194318D01*
X30691667Y-135194318D02*
X29965952Y-135194318D01*
X30328809Y-135194318D02*
X30328809Y-133924318D01*
X30328809Y-133924318D02*
X30207857Y-134105746D01*
X30207857Y-134105746D02*
X30086905Y-134226699D01*
X30086905Y-134226699D02*
X29965952Y-134287175D01*
%TO.C,IC2*%
X52100237Y-123764318D02*
X52100237Y-122494318D01*
X53430714Y-123643365D02*
X53370238Y-123703842D01*
X53370238Y-123703842D02*
X53188809Y-123764318D01*
X53188809Y-123764318D02*
X53067857Y-123764318D01*
X53067857Y-123764318D02*
X52886428Y-123703842D01*
X52886428Y-123703842D02*
X52765476Y-123582889D01*
X52765476Y-123582889D02*
X52704999Y-123461937D01*
X52704999Y-123461937D02*
X52644523Y-123220032D01*
X52644523Y-123220032D02*
X52644523Y-123038603D01*
X52644523Y-123038603D02*
X52704999Y-122796699D01*
X52704999Y-122796699D02*
X52765476Y-122675746D01*
X52765476Y-122675746D02*
X52886428Y-122554794D01*
X52886428Y-122554794D02*
X53067857Y-122494318D01*
X53067857Y-122494318D02*
X53188809Y-122494318D01*
X53188809Y-122494318D02*
X53370238Y-122554794D01*
X53370238Y-122554794D02*
X53430714Y-122615270D01*
X53914523Y-122615270D02*
X53974999Y-122554794D01*
X53974999Y-122554794D02*
X54095952Y-122494318D01*
X54095952Y-122494318D02*
X54398333Y-122494318D01*
X54398333Y-122494318D02*
X54519285Y-122554794D01*
X54519285Y-122554794D02*
X54579761Y-122615270D01*
X54579761Y-122615270D02*
X54640238Y-122736222D01*
X54640238Y-122736222D02*
X54640238Y-122857175D01*
X54640238Y-122857175D02*
X54579761Y-123038603D01*
X54579761Y-123038603D02*
X53854047Y-123764318D01*
X53854047Y-123764318D02*
X54640238Y-123764318D01*
%TO.C,IC1*%
X58450237Y-124399318D02*
X58450237Y-123129318D01*
X59780714Y-124278365D02*
X59720238Y-124338842D01*
X59720238Y-124338842D02*
X59538809Y-124399318D01*
X59538809Y-124399318D02*
X59417857Y-124399318D01*
X59417857Y-124399318D02*
X59236428Y-124338842D01*
X59236428Y-124338842D02*
X59115476Y-124217889D01*
X59115476Y-124217889D02*
X59054999Y-124096937D01*
X59054999Y-124096937D02*
X58994523Y-123855032D01*
X58994523Y-123855032D02*
X58994523Y-123673603D01*
X58994523Y-123673603D02*
X59054999Y-123431699D01*
X59054999Y-123431699D02*
X59115476Y-123310746D01*
X59115476Y-123310746D02*
X59236428Y-123189794D01*
X59236428Y-123189794D02*
X59417857Y-123129318D01*
X59417857Y-123129318D02*
X59538809Y-123129318D01*
X59538809Y-123129318D02*
X59720238Y-123189794D01*
X59720238Y-123189794D02*
X59780714Y-123250270D01*
X60990238Y-124399318D02*
X60264523Y-124399318D01*
X60627380Y-124399318D02*
X60627380Y-123129318D01*
X60627380Y-123129318D02*
X60506428Y-123310746D01*
X60506428Y-123310746D02*
X60385476Y-123431699D01*
X60385476Y-123431699D02*
X60264523Y-123492175D01*
D10*
%TO.C,R40*%
X55444819Y-107322857D02*
X54968628Y-107656190D01*
X55444819Y-107894285D02*
X54444819Y-107894285D01*
X54444819Y-107894285D02*
X54444819Y-107513333D01*
X54444819Y-107513333D02*
X54492438Y-107418095D01*
X54492438Y-107418095D02*
X54540057Y-107370476D01*
X54540057Y-107370476D02*
X54635295Y-107322857D01*
X54635295Y-107322857D02*
X54778152Y-107322857D01*
X54778152Y-107322857D02*
X54873390Y-107370476D01*
X54873390Y-107370476D02*
X54921009Y-107418095D01*
X54921009Y-107418095D02*
X54968628Y-107513333D01*
X54968628Y-107513333D02*
X54968628Y-107894285D01*
X54778152Y-106465714D02*
X55444819Y-106465714D01*
X54397200Y-106703809D02*
X55111485Y-106941904D01*
X55111485Y-106941904D02*
X55111485Y-106322857D01*
X54444819Y-105751428D02*
X54444819Y-105656190D01*
X54444819Y-105656190D02*
X54492438Y-105560952D01*
X54492438Y-105560952D02*
X54540057Y-105513333D01*
X54540057Y-105513333D02*
X54635295Y-105465714D01*
X54635295Y-105465714D02*
X54825771Y-105418095D01*
X54825771Y-105418095D02*
X55063866Y-105418095D01*
X55063866Y-105418095D02*
X55254342Y-105465714D01*
X55254342Y-105465714D02*
X55349580Y-105513333D01*
X55349580Y-105513333D02*
X55397200Y-105560952D01*
X55397200Y-105560952D02*
X55444819Y-105656190D01*
X55444819Y-105656190D02*
X55444819Y-105751428D01*
X55444819Y-105751428D02*
X55397200Y-105846666D01*
X55397200Y-105846666D02*
X55349580Y-105894285D01*
X55349580Y-105894285D02*
X55254342Y-105941904D01*
X55254342Y-105941904D02*
X55063866Y-105989523D01*
X55063866Y-105989523D02*
X54825771Y-105989523D01*
X54825771Y-105989523D02*
X54635295Y-105941904D01*
X54635295Y-105941904D02*
X54540057Y-105894285D01*
X54540057Y-105894285D02*
X54492438Y-105846666D01*
X54492438Y-105846666D02*
X54444819Y-105751428D01*
%TO.C,R39*%
X50364819Y-107322857D02*
X49888628Y-107656190D01*
X50364819Y-107894285D02*
X49364819Y-107894285D01*
X49364819Y-107894285D02*
X49364819Y-107513333D01*
X49364819Y-107513333D02*
X49412438Y-107418095D01*
X49412438Y-107418095D02*
X49460057Y-107370476D01*
X49460057Y-107370476D02*
X49555295Y-107322857D01*
X49555295Y-107322857D02*
X49698152Y-107322857D01*
X49698152Y-107322857D02*
X49793390Y-107370476D01*
X49793390Y-107370476D02*
X49841009Y-107418095D01*
X49841009Y-107418095D02*
X49888628Y-107513333D01*
X49888628Y-107513333D02*
X49888628Y-107894285D01*
X49364819Y-106989523D02*
X49364819Y-106370476D01*
X49364819Y-106370476D02*
X49745771Y-106703809D01*
X49745771Y-106703809D02*
X49745771Y-106560952D01*
X49745771Y-106560952D02*
X49793390Y-106465714D01*
X49793390Y-106465714D02*
X49841009Y-106418095D01*
X49841009Y-106418095D02*
X49936247Y-106370476D01*
X49936247Y-106370476D02*
X50174342Y-106370476D01*
X50174342Y-106370476D02*
X50269580Y-106418095D01*
X50269580Y-106418095D02*
X50317200Y-106465714D01*
X50317200Y-106465714D02*
X50364819Y-106560952D01*
X50364819Y-106560952D02*
X50364819Y-106846666D01*
X50364819Y-106846666D02*
X50317200Y-106941904D01*
X50317200Y-106941904D02*
X50269580Y-106989523D01*
X50364819Y-105894285D02*
X50364819Y-105703809D01*
X50364819Y-105703809D02*
X50317200Y-105608571D01*
X50317200Y-105608571D02*
X50269580Y-105560952D01*
X50269580Y-105560952D02*
X50126723Y-105465714D01*
X50126723Y-105465714D02*
X49936247Y-105418095D01*
X49936247Y-105418095D02*
X49555295Y-105418095D01*
X49555295Y-105418095D02*
X49460057Y-105465714D01*
X49460057Y-105465714D02*
X49412438Y-105513333D01*
X49412438Y-105513333D02*
X49364819Y-105608571D01*
X49364819Y-105608571D02*
X49364819Y-105799047D01*
X49364819Y-105799047D02*
X49412438Y-105894285D01*
X49412438Y-105894285D02*
X49460057Y-105941904D01*
X49460057Y-105941904D02*
X49555295Y-105989523D01*
X49555295Y-105989523D02*
X49793390Y-105989523D01*
X49793390Y-105989523D02*
X49888628Y-105941904D01*
X49888628Y-105941904D02*
X49936247Y-105894285D01*
X49936247Y-105894285D02*
X49983866Y-105799047D01*
X49983866Y-105799047D02*
X49983866Y-105608571D01*
X49983866Y-105608571D02*
X49936247Y-105513333D01*
X49936247Y-105513333D02*
X49888628Y-105465714D01*
X49888628Y-105465714D02*
X49793390Y-105418095D01*
%TO.C,R38*%
X112789642Y-134439819D02*
X112456309Y-133963628D01*
X112218214Y-134439819D02*
X112218214Y-133439819D01*
X112218214Y-133439819D02*
X112599166Y-133439819D01*
X112599166Y-133439819D02*
X112694404Y-133487438D01*
X112694404Y-133487438D02*
X112742023Y-133535057D01*
X112742023Y-133535057D02*
X112789642Y-133630295D01*
X112789642Y-133630295D02*
X112789642Y-133773152D01*
X112789642Y-133773152D02*
X112742023Y-133868390D01*
X112742023Y-133868390D02*
X112694404Y-133916009D01*
X112694404Y-133916009D02*
X112599166Y-133963628D01*
X112599166Y-133963628D02*
X112218214Y-133963628D01*
X113122976Y-133439819D02*
X113742023Y-133439819D01*
X113742023Y-133439819D02*
X113408690Y-133820771D01*
X113408690Y-133820771D02*
X113551547Y-133820771D01*
X113551547Y-133820771D02*
X113646785Y-133868390D01*
X113646785Y-133868390D02*
X113694404Y-133916009D01*
X113694404Y-133916009D02*
X113742023Y-134011247D01*
X113742023Y-134011247D02*
X113742023Y-134249342D01*
X113742023Y-134249342D02*
X113694404Y-134344580D01*
X113694404Y-134344580D02*
X113646785Y-134392200D01*
X113646785Y-134392200D02*
X113551547Y-134439819D01*
X113551547Y-134439819D02*
X113265833Y-134439819D01*
X113265833Y-134439819D02*
X113170595Y-134392200D01*
X113170595Y-134392200D02*
X113122976Y-134344580D01*
X114313452Y-133868390D02*
X114218214Y-133820771D01*
X114218214Y-133820771D02*
X114170595Y-133773152D01*
X114170595Y-133773152D02*
X114122976Y-133677914D01*
X114122976Y-133677914D02*
X114122976Y-133630295D01*
X114122976Y-133630295D02*
X114170595Y-133535057D01*
X114170595Y-133535057D02*
X114218214Y-133487438D01*
X114218214Y-133487438D02*
X114313452Y-133439819D01*
X114313452Y-133439819D02*
X114503928Y-133439819D01*
X114503928Y-133439819D02*
X114599166Y-133487438D01*
X114599166Y-133487438D02*
X114646785Y-133535057D01*
X114646785Y-133535057D02*
X114694404Y-133630295D01*
X114694404Y-133630295D02*
X114694404Y-133677914D01*
X114694404Y-133677914D02*
X114646785Y-133773152D01*
X114646785Y-133773152D02*
X114599166Y-133820771D01*
X114599166Y-133820771D02*
X114503928Y-133868390D01*
X114503928Y-133868390D02*
X114313452Y-133868390D01*
X114313452Y-133868390D02*
X114218214Y-133916009D01*
X114218214Y-133916009D02*
X114170595Y-133963628D01*
X114170595Y-133963628D02*
X114122976Y-134058866D01*
X114122976Y-134058866D02*
X114122976Y-134249342D01*
X114122976Y-134249342D02*
X114170595Y-134344580D01*
X114170595Y-134344580D02*
X114218214Y-134392200D01*
X114218214Y-134392200D02*
X114313452Y-134439819D01*
X114313452Y-134439819D02*
X114503928Y-134439819D01*
X114503928Y-134439819D02*
X114599166Y-134392200D01*
X114599166Y-134392200D02*
X114646785Y-134344580D01*
X114646785Y-134344580D02*
X114694404Y-134249342D01*
X114694404Y-134249342D02*
X114694404Y-134058866D01*
X114694404Y-134058866D02*
X114646785Y-133963628D01*
X114646785Y-133963628D02*
X114599166Y-133916009D01*
X114599166Y-133916009D02*
X114503928Y-133868390D01*
%TO.C,R37*%
X101359642Y-134439819D02*
X101026309Y-133963628D01*
X100788214Y-134439819D02*
X100788214Y-133439819D01*
X100788214Y-133439819D02*
X101169166Y-133439819D01*
X101169166Y-133439819D02*
X101264404Y-133487438D01*
X101264404Y-133487438D02*
X101312023Y-133535057D01*
X101312023Y-133535057D02*
X101359642Y-133630295D01*
X101359642Y-133630295D02*
X101359642Y-133773152D01*
X101359642Y-133773152D02*
X101312023Y-133868390D01*
X101312023Y-133868390D02*
X101264404Y-133916009D01*
X101264404Y-133916009D02*
X101169166Y-133963628D01*
X101169166Y-133963628D02*
X100788214Y-133963628D01*
X101692976Y-133439819D02*
X102312023Y-133439819D01*
X102312023Y-133439819D02*
X101978690Y-133820771D01*
X101978690Y-133820771D02*
X102121547Y-133820771D01*
X102121547Y-133820771D02*
X102216785Y-133868390D01*
X102216785Y-133868390D02*
X102264404Y-133916009D01*
X102264404Y-133916009D02*
X102312023Y-134011247D01*
X102312023Y-134011247D02*
X102312023Y-134249342D01*
X102312023Y-134249342D02*
X102264404Y-134344580D01*
X102264404Y-134344580D02*
X102216785Y-134392200D01*
X102216785Y-134392200D02*
X102121547Y-134439819D01*
X102121547Y-134439819D02*
X101835833Y-134439819D01*
X101835833Y-134439819D02*
X101740595Y-134392200D01*
X101740595Y-134392200D02*
X101692976Y-134344580D01*
X102645357Y-133439819D02*
X103312023Y-133439819D01*
X103312023Y-133439819D02*
X102883452Y-134439819D01*
%TO.C,R36*%
X43254819Y-107322857D02*
X42778628Y-107656190D01*
X43254819Y-107894285D02*
X42254819Y-107894285D01*
X42254819Y-107894285D02*
X42254819Y-107513333D01*
X42254819Y-107513333D02*
X42302438Y-107418095D01*
X42302438Y-107418095D02*
X42350057Y-107370476D01*
X42350057Y-107370476D02*
X42445295Y-107322857D01*
X42445295Y-107322857D02*
X42588152Y-107322857D01*
X42588152Y-107322857D02*
X42683390Y-107370476D01*
X42683390Y-107370476D02*
X42731009Y-107418095D01*
X42731009Y-107418095D02*
X42778628Y-107513333D01*
X42778628Y-107513333D02*
X42778628Y-107894285D01*
X42254819Y-106989523D02*
X42254819Y-106370476D01*
X42254819Y-106370476D02*
X42635771Y-106703809D01*
X42635771Y-106703809D02*
X42635771Y-106560952D01*
X42635771Y-106560952D02*
X42683390Y-106465714D01*
X42683390Y-106465714D02*
X42731009Y-106418095D01*
X42731009Y-106418095D02*
X42826247Y-106370476D01*
X42826247Y-106370476D02*
X43064342Y-106370476D01*
X43064342Y-106370476D02*
X43159580Y-106418095D01*
X43159580Y-106418095D02*
X43207200Y-106465714D01*
X43207200Y-106465714D02*
X43254819Y-106560952D01*
X43254819Y-106560952D02*
X43254819Y-106846666D01*
X43254819Y-106846666D02*
X43207200Y-106941904D01*
X43207200Y-106941904D02*
X43159580Y-106989523D01*
X42254819Y-105513333D02*
X42254819Y-105703809D01*
X42254819Y-105703809D02*
X42302438Y-105799047D01*
X42302438Y-105799047D02*
X42350057Y-105846666D01*
X42350057Y-105846666D02*
X42492914Y-105941904D01*
X42492914Y-105941904D02*
X42683390Y-105989523D01*
X42683390Y-105989523D02*
X43064342Y-105989523D01*
X43064342Y-105989523D02*
X43159580Y-105941904D01*
X43159580Y-105941904D02*
X43207200Y-105894285D01*
X43207200Y-105894285D02*
X43254819Y-105799047D01*
X43254819Y-105799047D02*
X43254819Y-105608571D01*
X43254819Y-105608571D02*
X43207200Y-105513333D01*
X43207200Y-105513333D02*
X43159580Y-105465714D01*
X43159580Y-105465714D02*
X43064342Y-105418095D01*
X43064342Y-105418095D02*
X42826247Y-105418095D01*
X42826247Y-105418095D02*
X42731009Y-105465714D01*
X42731009Y-105465714D02*
X42683390Y-105513333D01*
X42683390Y-105513333D02*
X42635771Y-105608571D01*
X42635771Y-105608571D02*
X42635771Y-105799047D01*
X42635771Y-105799047D02*
X42683390Y-105894285D01*
X42683390Y-105894285D02*
X42731009Y-105941904D01*
X42731009Y-105941904D02*
X42826247Y-105989523D01*
%TO.C,R35*%
X134342142Y-134439819D02*
X134008809Y-133963628D01*
X133770714Y-134439819D02*
X133770714Y-133439819D01*
X133770714Y-133439819D02*
X134151666Y-133439819D01*
X134151666Y-133439819D02*
X134246904Y-133487438D01*
X134246904Y-133487438D02*
X134294523Y-133535057D01*
X134294523Y-133535057D02*
X134342142Y-133630295D01*
X134342142Y-133630295D02*
X134342142Y-133773152D01*
X134342142Y-133773152D02*
X134294523Y-133868390D01*
X134294523Y-133868390D02*
X134246904Y-133916009D01*
X134246904Y-133916009D02*
X134151666Y-133963628D01*
X134151666Y-133963628D02*
X133770714Y-133963628D01*
X134675476Y-133439819D02*
X135294523Y-133439819D01*
X135294523Y-133439819D02*
X134961190Y-133820771D01*
X134961190Y-133820771D02*
X135104047Y-133820771D01*
X135104047Y-133820771D02*
X135199285Y-133868390D01*
X135199285Y-133868390D02*
X135246904Y-133916009D01*
X135246904Y-133916009D02*
X135294523Y-134011247D01*
X135294523Y-134011247D02*
X135294523Y-134249342D01*
X135294523Y-134249342D02*
X135246904Y-134344580D01*
X135246904Y-134344580D02*
X135199285Y-134392200D01*
X135199285Y-134392200D02*
X135104047Y-134439819D01*
X135104047Y-134439819D02*
X134818333Y-134439819D01*
X134818333Y-134439819D02*
X134723095Y-134392200D01*
X134723095Y-134392200D02*
X134675476Y-134344580D01*
X136199285Y-133439819D02*
X135723095Y-133439819D01*
X135723095Y-133439819D02*
X135675476Y-133916009D01*
X135675476Y-133916009D02*
X135723095Y-133868390D01*
X135723095Y-133868390D02*
X135818333Y-133820771D01*
X135818333Y-133820771D02*
X136056428Y-133820771D01*
X136056428Y-133820771D02*
X136151666Y-133868390D01*
X136151666Y-133868390D02*
X136199285Y-133916009D01*
X136199285Y-133916009D02*
X136246904Y-134011247D01*
X136246904Y-134011247D02*
X136246904Y-134249342D01*
X136246904Y-134249342D02*
X136199285Y-134344580D01*
X136199285Y-134344580D02*
X136151666Y-134392200D01*
X136151666Y-134392200D02*
X136056428Y-134439819D01*
X136056428Y-134439819D02*
X135818333Y-134439819D01*
X135818333Y-134439819D02*
X135723095Y-134392200D01*
X135723095Y-134392200D02*
X135675476Y-134344580D01*
%TO.C,R34*%
X90332142Y-134439819D02*
X89998809Y-133963628D01*
X89760714Y-134439819D02*
X89760714Y-133439819D01*
X89760714Y-133439819D02*
X90141666Y-133439819D01*
X90141666Y-133439819D02*
X90236904Y-133487438D01*
X90236904Y-133487438D02*
X90284523Y-133535057D01*
X90284523Y-133535057D02*
X90332142Y-133630295D01*
X90332142Y-133630295D02*
X90332142Y-133773152D01*
X90332142Y-133773152D02*
X90284523Y-133868390D01*
X90284523Y-133868390D02*
X90236904Y-133916009D01*
X90236904Y-133916009D02*
X90141666Y-133963628D01*
X90141666Y-133963628D02*
X89760714Y-133963628D01*
X90665476Y-133439819D02*
X91284523Y-133439819D01*
X91284523Y-133439819D02*
X90951190Y-133820771D01*
X90951190Y-133820771D02*
X91094047Y-133820771D01*
X91094047Y-133820771D02*
X91189285Y-133868390D01*
X91189285Y-133868390D02*
X91236904Y-133916009D01*
X91236904Y-133916009D02*
X91284523Y-134011247D01*
X91284523Y-134011247D02*
X91284523Y-134249342D01*
X91284523Y-134249342D02*
X91236904Y-134344580D01*
X91236904Y-134344580D02*
X91189285Y-134392200D01*
X91189285Y-134392200D02*
X91094047Y-134439819D01*
X91094047Y-134439819D02*
X90808333Y-134439819D01*
X90808333Y-134439819D02*
X90713095Y-134392200D01*
X90713095Y-134392200D02*
X90665476Y-134344580D01*
X92141666Y-133773152D02*
X92141666Y-134439819D01*
X91903571Y-133392200D02*
X91665476Y-134106485D01*
X91665476Y-134106485D02*
X92284523Y-134106485D01*
%TO.C,R33*%
X38174819Y-107322857D02*
X37698628Y-107656190D01*
X38174819Y-107894285D02*
X37174819Y-107894285D01*
X37174819Y-107894285D02*
X37174819Y-107513333D01*
X37174819Y-107513333D02*
X37222438Y-107418095D01*
X37222438Y-107418095D02*
X37270057Y-107370476D01*
X37270057Y-107370476D02*
X37365295Y-107322857D01*
X37365295Y-107322857D02*
X37508152Y-107322857D01*
X37508152Y-107322857D02*
X37603390Y-107370476D01*
X37603390Y-107370476D02*
X37651009Y-107418095D01*
X37651009Y-107418095D02*
X37698628Y-107513333D01*
X37698628Y-107513333D02*
X37698628Y-107894285D01*
X37174819Y-106989523D02*
X37174819Y-106370476D01*
X37174819Y-106370476D02*
X37555771Y-106703809D01*
X37555771Y-106703809D02*
X37555771Y-106560952D01*
X37555771Y-106560952D02*
X37603390Y-106465714D01*
X37603390Y-106465714D02*
X37651009Y-106418095D01*
X37651009Y-106418095D02*
X37746247Y-106370476D01*
X37746247Y-106370476D02*
X37984342Y-106370476D01*
X37984342Y-106370476D02*
X38079580Y-106418095D01*
X38079580Y-106418095D02*
X38127200Y-106465714D01*
X38127200Y-106465714D02*
X38174819Y-106560952D01*
X38174819Y-106560952D02*
X38174819Y-106846666D01*
X38174819Y-106846666D02*
X38127200Y-106941904D01*
X38127200Y-106941904D02*
X38079580Y-106989523D01*
X37174819Y-106037142D02*
X37174819Y-105418095D01*
X37174819Y-105418095D02*
X37555771Y-105751428D01*
X37555771Y-105751428D02*
X37555771Y-105608571D01*
X37555771Y-105608571D02*
X37603390Y-105513333D01*
X37603390Y-105513333D02*
X37651009Y-105465714D01*
X37651009Y-105465714D02*
X37746247Y-105418095D01*
X37746247Y-105418095D02*
X37984342Y-105418095D01*
X37984342Y-105418095D02*
X38079580Y-105465714D01*
X38079580Y-105465714D02*
X38127200Y-105513333D01*
X38127200Y-105513333D02*
X38174819Y-105608571D01*
X38174819Y-105608571D02*
X38174819Y-105894285D01*
X38174819Y-105894285D02*
X38127200Y-105989523D01*
X38127200Y-105989523D02*
X38079580Y-106037142D01*
%TO.C,R32*%
X134439819Y-111767857D02*
X133963628Y-112101190D01*
X134439819Y-112339285D02*
X133439819Y-112339285D01*
X133439819Y-112339285D02*
X133439819Y-111958333D01*
X133439819Y-111958333D02*
X133487438Y-111863095D01*
X133487438Y-111863095D02*
X133535057Y-111815476D01*
X133535057Y-111815476D02*
X133630295Y-111767857D01*
X133630295Y-111767857D02*
X133773152Y-111767857D01*
X133773152Y-111767857D02*
X133868390Y-111815476D01*
X133868390Y-111815476D02*
X133916009Y-111863095D01*
X133916009Y-111863095D02*
X133963628Y-111958333D01*
X133963628Y-111958333D02*
X133963628Y-112339285D01*
X133439819Y-111434523D02*
X133439819Y-110815476D01*
X133439819Y-110815476D02*
X133820771Y-111148809D01*
X133820771Y-111148809D02*
X133820771Y-111005952D01*
X133820771Y-111005952D02*
X133868390Y-110910714D01*
X133868390Y-110910714D02*
X133916009Y-110863095D01*
X133916009Y-110863095D02*
X134011247Y-110815476D01*
X134011247Y-110815476D02*
X134249342Y-110815476D01*
X134249342Y-110815476D02*
X134344580Y-110863095D01*
X134344580Y-110863095D02*
X134392200Y-110910714D01*
X134392200Y-110910714D02*
X134439819Y-111005952D01*
X134439819Y-111005952D02*
X134439819Y-111291666D01*
X134439819Y-111291666D02*
X134392200Y-111386904D01*
X134392200Y-111386904D02*
X134344580Y-111434523D01*
X133535057Y-110434523D02*
X133487438Y-110386904D01*
X133487438Y-110386904D02*
X133439819Y-110291666D01*
X133439819Y-110291666D02*
X133439819Y-110053571D01*
X133439819Y-110053571D02*
X133487438Y-109958333D01*
X133487438Y-109958333D02*
X133535057Y-109910714D01*
X133535057Y-109910714D02*
X133630295Y-109863095D01*
X133630295Y-109863095D02*
X133725533Y-109863095D01*
X133725533Y-109863095D02*
X133868390Y-109910714D01*
X133868390Y-109910714D02*
X134439819Y-110482142D01*
X134439819Y-110482142D02*
X134439819Y-109863095D01*
%TO.C,R31*%
X130629819Y-111497857D02*
X130153628Y-111831190D01*
X130629819Y-112069285D02*
X129629819Y-112069285D01*
X129629819Y-112069285D02*
X129629819Y-111688333D01*
X129629819Y-111688333D02*
X129677438Y-111593095D01*
X129677438Y-111593095D02*
X129725057Y-111545476D01*
X129725057Y-111545476D02*
X129820295Y-111497857D01*
X129820295Y-111497857D02*
X129963152Y-111497857D01*
X129963152Y-111497857D02*
X130058390Y-111545476D01*
X130058390Y-111545476D02*
X130106009Y-111593095D01*
X130106009Y-111593095D02*
X130153628Y-111688333D01*
X130153628Y-111688333D02*
X130153628Y-112069285D01*
X129629819Y-111164523D02*
X129629819Y-110545476D01*
X129629819Y-110545476D02*
X130010771Y-110878809D01*
X130010771Y-110878809D02*
X130010771Y-110735952D01*
X130010771Y-110735952D02*
X130058390Y-110640714D01*
X130058390Y-110640714D02*
X130106009Y-110593095D01*
X130106009Y-110593095D02*
X130201247Y-110545476D01*
X130201247Y-110545476D02*
X130439342Y-110545476D01*
X130439342Y-110545476D02*
X130534580Y-110593095D01*
X130534580Y-110593095D02*
X130582200Y-110640714D01*
X130582200Y-110640714D02*
X130629819Y-110735952D01*
X130629819Y-110735952D02*
X130629819Y-111021666D01*
X130629819Y-111021666D02*
X130582200Y-111116904D01*
X130582200Y-111116904D02*
X130534580Y-111164523D01*
X130629819Y-109593095D02*
X130629819Y-110164523D01*
X130629819Y-109878809D02*
X129629819Y-109878809D01*
X129629819Y-109878809D02*
X129772676Y-109974047D01*
X129772676Y-109974047D02*
X129867914Y-110069285D01*
X129867914Y-110069285D02*
X129915533Y-110164523D01*
%TO.C,R30*%
X126819819Y-111767857D02*
X126343628Y-112101190D01*
X126819819Y-112339285D02*
X125819819Y-112339285D01*
X125819819Y-112339285D02*
X125819819Y-111958333D01*
X125819819Y-111958333D02*
X125867438Y-111863095D01*
X125867438Y-111863095D02*
X125915057Y-111815476D01*
X125915057Y-111815476D02*
X126010295Y-111767857D01*
X126010295Y-111767857D02*
X126153152Y-111767857D01*
X126153152Y-111767857D02*
X126248390Y-111815476D01*
X126248390Y-111815476D02*
X126296009Y-111863095D01*
X126296009Y-111863095D02*
X126343628Y-111958333D01*
X126343628Y-111958333D02*
X126343628Y-112339285D01*
X125819819Y-111434523D02*
X125819819Y-110815476D01*
X125819819Y-110815476D02*
X126200771Y-111148809D01*
X126200771Y-111148809D02*
X126200771Y-111005952D01*
X126200771Y-111005952D02*
X126248390Y-110910714D01*
X126248390Y-110910714D02*
X126296009Y-110863095D01*
X126296009Y-110863095D02*
X126391247Y-110815476D01*
X126391247Y-110815476D02*
X126629342Y-110815476D01*
X126629342Y-110815476D02*
X126724580Y-110863095D01*
X126724580Y-110863095D02*
X126772200Y-110910714D01*
X126772200Y-110910714D02*
X126819819Y-111005952D01*
X126819819Y-111005952D02*
X126819819Y-111291666D01*
X126819819Y-111291666D02*
X126772200Y-111386904D01*
X126772200Y-111386904D02*
X126724580Y-111434523D01*
X125819819Y-110196428D02*
X125819819Y-110101190D01*
X125819819Y-110101190D02*
X125867438Y-110005952D01*
X125867438Y-110005952D02*
X125915057Y-109958333D01*
X125915057Y-109958333D02*
X126010295Y-109910714D01*
X126010295Y-109910714D02*
X126200771Y-109863095D01*
X126200771Y-109863095D02*
X126438866Y-109863095D01*
X126438866Y-109863095D02*
X126629342Y-109910714D01*
X126629342Y-109910714D02*
X126724580Y-109958333D01*
X126724580Y-109958333D02*
X126772200Y-110005952D01*
X126772200Y-110005952D02*
X126819819Y-110101190D01*
X126819819Y-110101190D02*
X126819819Y-110196428D01*
X126819819Y-110196428D02*
X126772200Y-110291666D01*
X126772200Y-110291666D02*
X126724580Y-110339285D01*
X126724580Y-110339285D02*
X126629342Y-110386904D01*
X126629342Y-110386904D02*
X126438866Y-110434523D01*
X126438866Y-110434523D02*
X126200771Y-110434523D01*
X126200771Y-110434523D02*
X126010295Y-110386904D01*
X126010295Y-110386904D02*
X125915057Y-110339285D01*
X125915057Y-110339285D02*
X125867438Y-110291666D01*
X125867438Y-110291666D02*
X125819819Y-110196428D01*
%TO.C,R29*%
X123009819Y-111497857D02*
X122533628Y-111831190D01*
X123009819Y-112069285D02*
X122009819Y-112069285D01*
X122009819Y-112069285D02*
X122009819Y-111688333D01*
X122009819Y-111688333D02*
X122057438Y-111593095D01*
X122057438Y-111593095D02*
X122105057Y-111545476D01*
X122105057Y-111545476D02*
X122200295Y-111497857D01*
X122200295Y-111497857D02*
X122343152Y-111497857D01*
X122343152Y-111497857D02*
X122438390Y-111545476D01*
X122438390Y-111545476D02*
X122486009Y-111593095D01*
X122486009Y-111593095D02*
X122533628Y-111688333D01*
X122533628Y-111688333D02*
X122533628Y-112069285D01*
X122105057Y-111116904D02*
X122057438Y-111069285D01*
X122057438Y-111069285D02*
X122009819Y-110974047D01*
X122009819Y-110974047D02*
X122009819Y-110735952D01*
X122009819Y-110735952D02*
X122057438Y-110640714D01*
X122057438Y-110640714D02*
X122105057Y-110593095D01*
X122105057Y-110593095D02*
X122200295Y-110545476D01*
X122200295Y-110545476D02*
X122295533Y-110545476D01*
X122295533Y-110545476D02*
X122438390Y-110593095D01*
X122438390Y-110593095D02*
X123009819Y-111164523D01*
X123009819Y-111164523D02*
X123009819Y-110545476D01*
X123009819Y-110069285D02*
X123009819Y-109878809D01*
X123009819Y-109878809D02*
X122962200Y-109783571D01*
X122962200Y-109783571D02*
X122914580Y-109735952D01*
X122914580Y-109735952D02*
X122771723Y-109640714D01*
X122771723Y-109640714D02*
X122581247Y-109593095D01*
X122581247Y-109593095D02*
X122200295Y-109593095D01*
X122200295Y-109593095D02*
X122105057Y-109640714D01*
X122105057Y-109640714D02*
X122057438Y-109688333D01*
X122057438Y-109688333D02*
X122009819Y-109783571D01*
X122009819Y-109783571D02*
X122009819Y-109974047D01*
X122009819Y-109974047D02*
X122057438Y-110069285D01*
X122057438Y-110069285D02*
X122105057Y-110116904D01*
X122105057Y-110116904D02*
X122200295Y-110164523D01*
X122200295Y-110164523D02*
X122438390Y-110164523D01*
X122438390Y-110164523D02*
X122533628Y-110116904D01*
X122533628Y-110116904D02*
X122581247Y-110069285D01*
X122581247Y-110069285D02*
X122628866Y-109974047D01*
X122628866Y-109974047D02*
X122628866Y-109783571D01*
X122628866Y-109783571D02*
X122581247Y-109688333D01*
X122581247Y-109688333D02*
X122533628Y-109640714D01*
X122533628Y-109640714D02*
X122438390Y-109593095D01*
%TO.C,R28*%
X138884819Y-111767857D02*
X138408628Y-112101190D01*
X138884819Y-112339285D02*
X137884819Y-112339285D01*
X137884819Y-112339285D02*
X137884819Y-111958333D01*
X137884819Y-111958333D02*
X137932438Y-111863095D01*
X137932438Y-111863095D02*
X137980057Y-111815476D01*
X137980057Y-111815476D02*
X138075295Y-111767857D01*
X138075295Y-111767857D02*
X138218152Y-111767857D01*
X138218152Y-111767857D02*
X138313390Y-111815476D01*
X138313390Y-111815476D02*
X138361009Y-111863095D01*
X138361009Y-111863095D02*
X138408628Y-111958333D01*
X138408628Y-111958333D02*
X138408628Y-112339285D01*
X137980057Y-111386904D02*
X137932438Y-111339285D01*
X137932438Y-111339285D02*
X137884819Y-111244047D01*
X137884819Y-111244047D02*
X137884819Y-111005952D01*
X137884819Y-111005952D02*
X137932438Y-110910714D01*
X137932438Y-110910714D02*
X137980057Y-110863095D01*
X137980057Y-110863095D02*
X138075295Y-110815476D01*
X138075295Y-110815476D02*
X138170533Y-110815476D01*
X138170533Y-110815476D02*
X138313390Y-110863095D01*
X138313390Y-110863095D02*
X138884819Y-111434523D01*
X138884819Y-111434523D02*
X138884819Y-110815476D01*
X138313390Y-110244047D02*
X138265771Y-110339285D01*
X138265771Y-110339285D02*
X138218152Y-110386904D01*
X138218152Y-110386904D02*
X138122914Y-110434523D01*
X138122914Y-110434523D02*
X138075295Y-110434523D01*
X138075295Y-110434523D02*
X137980057Y-110386904D01*
X137980057Y-110386904D02*
X137932438Y-110339285D01*
X137932438Y-110339285D02*
X137884819Y-110244047D01*
X137884819Y-110244047D02*
X137884819Y-110053571D01*
X137884819Y-110053571D02*
X137932438Y-109958333D01*
X137932438Y-109958333D02*
X137980057Y-109910714D01*
X137980057Y-109910714D02*
X138075295Y-109863095D01*
X138075295Y-109863095D02*
X138122914Y-109863095D01*
X138122914Y-109863095D02*
X138218152Y-109910714D01*
X138218152Y-109910714D02*
X138265771Y-109958333D01*
X138265771Y-109958333D02*
X138313390Y-110053571D01*
X138313390Y-110053571D02*
X138313390Y-110244047D01*
X138313390Y-110244047D02*
X138361009Y-110339285D01*
X138361009Y-110339285D02*
X138408628Y-110386904D01*
X138408628Y-110386904D02*
X138503866Y-110434523D01*
X138503866Y-110434523D02*
X138694342Y-110434523D01*
X138694342Y-110434523D02*
X138789580Y-110386904D01*
X138789580Y-110386904D02*
X138837200Y-110339285D01*
X138837200Y-110339285D02*
X138884819Y-110244047D01*
X138884819Y-110244047D02*
X138884819Y-110053571D01*
X138884819Y-110053571D02*
X138837200Y-109958333D01*
X138837200Y-109958333D02*
X138789580Y-109910714D01*
X138789580Y-109910714D02*
X138694342Y-109863095D01*
X138694342Y-109863095D02*
X138503866Y-109863095D01*
X138503866Y-109863095D02*
X138408628Y-109910714D01*
X138408628Y-109910714D02*
X138361009Y-109958333D01*
X138361009Y-109958333D02*
X138313390Y-110053571D01*
%TO.C,R27*%
X134694819Y-122562857D02*
X134218628Y-122896190D01*
X134694819Y-123134285D02*
X133694819Y-123134285D01*
X133694819Y-123134285D02*
X133694819Y-122753333D01*
X133694819Y-122753333D02*
X133742438Y-122658095D01*
X133742438Y-122658095D02*
X133790057Y-122610476D01*
X133790057Y-122610476D02*
X133885295Y-122562857D01*
X133885295Y-122562857D02*
X134028152Y-122562857D01*
X134028152Y-122562857D02*
X134123390Y-122610476D01*
X134123390Y-122610476D02*
X134171009Y-122658095D01*
X134171009Y-122658095D02*
X134218628Y-122753333D01*
X134218628Y-122753333D02*
X134218628Y-123134285D01*
X133790057Y-122181904D02*
X133742438Y-122134285D01*
X133742438Y-122134285D02*
X133694819Y-122039047D01*
X133694819Y-122039047D02*
X133694819Y-121800952D01*
X133694819Y-121800952D02*
X133742438Y-121705714D01*
X133742438Y-121705714D02*
X133790057Y-121658095D01*
X133790057Y-121658095D02*
X133885295Y-121610476D01*
X133885295Y-121610476D02*
X133980533Y-121610476D01*
X133980533Y-121610476D02*
X134123390Y-121658095D01*
X134123390Y-121658095D02*
X134694819Y-122229523D01*
X134694819Y-122229523D02*
X134694819Y-121610476D01*
X133694819Y-121277142D02*
X133694819Y-120610476D01*
X133694819Y-120610476D02*
X134694819Y-121039047D01*
%TO.C,R26*%
X143964819Y-111767857D02*
X143488628Y-112101190D01*
X143964819Y-112339285D02*
X142964819Y-112339285D01*
X142964819Y-112339285D02*
X142964819Y-111958333D01*
X142964819Y-111958333D02*
X143012438Y-111863095D01*
X143012438Y-111863095D02*
X143060057Y-111815476D01*
X143060057Y-111815476D02*
X143155295Y-111767857D01*
X143155295Y-111767857D02*
X143298152Y-111767857D01*
X143298152Y-111767857D02*
X143393390Y-111815476D01*
X143393390Y-111815476D02*
X143441009Y-111863095D01*
X143441009Y-111863095D02*
X143488628Y-111958333D01*
X143488628Y-111958333D02*
X143488628Y-112339285D01*
X143060057Y-111386904D02*
X143012438Y-111339285D01*
X143012438Y-111339285D02*
X142964819Y-111244047D01*
X142964819Y-111244047D02*
X142964819Y-111005952D01*
X142964819Y-111005952D02*
X143012438Y-110910714D01*
X143012438Y-110910714D02*
X143060057Y-110863095D01*
X143060057Y-110863095D02*
X143155295Y-110815476D01*
X143155295Y-110815476D02*
X143250533Y-110815476D01*
X143250533Y-110815476D02*
X143393390Y-110863095D01*
X143393390Y-110863095D02*
X143964819Y-111434523D01*
X143964819Y-111434523D02*
X143964819Y-110815476D01*
X142964819Y-109958333D02*
X142964819Y-110148809D01*
X142964819Y-110148809D02*
X143012438Y-110244047D01*
X143012438Y-110244047D02*
X143060057Y-110291666D01*
X143060057Y-110291666D02*
X143202914Y-110386904D01*
X143202914Y-110386904D02*
X143393390Y-110434523D01*
X143393390Y-110434523D02*
X143774342Y-110434523D01*
X143774342Y-110434523D02*
X143869580Y-110386904D01*
X143869580Y-110386904D02*
X143917200Y-110339285D01*
X143917200Y-110339285D02*
X143964819Y-110244047D01*
X143964819Y-110244047D02*
X143964819Y-110053571D01*
X143964819Y-110053571D02*
X143917200Y-109958333D01*
X143917200Y-109958333D02*
X143869580Y-109910714D01*
X143869580Y-109910714D02*
X143774342Y-109863095D01*
X143774342Y-109863095D02*
X143536247Y-109863095D01*
X143536247Y-109863095D02*
X143441009Y-109910714D01*
X143441009Y-109910714D02*
X143393390Y-109958333D01*
X143393390Y-109958333D02*
X143345771Y-110053571D01*
X143345771Y-110053571D02*
X143345771Y-110244047D01*
X143345771Y-110244047D02*
X143393390Y-110339285D01*
X143393390Y-110339285D02*
X143441009Y-110386904D01*
X143441009Y-110386904D02*
X143536247Y-110434523D01*
%TO.C,R25*%
X122374819Y-119022857D02*
X121898628Y-119356190D01*
X122374819Y-119594285D02*
X121374819Y-119594285D01*
X121374819Y-119594285D02*
X121374819Y-119213333D01*
X121374819Y-119213333D02*
X121422438Y-119118095D01*
X121422438Y-119118095D02*
X121470057Y-119070476D01*
X121470057Y-119070476D02*
X121565295Y-119022857D01*
X121565295Y-119022857D02*
X121708152Y-119022857D01*
X121708152Y-119022857D02*
X121803390Y-119070476D01*
X121803390Y-119070476D02*
X121851009Y-119118095D01*
X121851009Y-119118095D02*
X121898628Y-119213333D01*
X121898628Y-119213333D02*
X121898628Y-119594285D01*
X121470057Y-118641904D02*
X121422438Y-118594285D01*
X121422438Y-118594285D02*
X121374819Y-118499047D01*
X121374819Y-118499047D02*
X121374819Y-118260952D01*
X121374819Y-118260952D02*
X121422438Y-118165714D01*
X121422438Y-118165714D02*
X121470057Y-118118095D01*
X121470057Y-118118095D02*
X121565295Y-118070476D01*
X121565295Y-118070476D02*
X121660533Y-118070476D01*
X121660533Y-118070476D02*
X121803390Y-118118095D01*
X121803390Y-118118095D02*
X122374819Y-118689523D01*
X122374819Y-118689523D02*
X122374819Y-118070476D01*
X121374819Y-117165714D02*
X121374819Y-117641904D01*
X121374819Y-117641904D02*
X121851009Y-117689523D01*
X121851009Y-117689523D02*
X121803390Y-117641904D01*
X121803390Y-117641904D02*
X121755771Y-117546666D01*
X121755771Y-117546666D02*
X121755771Y-117308571D01*
X121755771Y-117308571D02*
X121803390Y-117213333D01*
X121803390Y-117213333D02*
X121851009Y-117165714D01*
X121851009Y-117165714D02*
X121946247Y-117118095D01*
X121946247Y-117118095D02*
X122184342Y-117118095D01*
X122184342Y-117118095D02*
X122279580Y-117165714D01*
X122279580Y-117165714D02*
X122327200Y-117213333D01*
X122327200Y-117213333D02*
X122374819Y-117308571D01*
X122374819Y-117308571D02*
X122374819Y-117546666D01*
X122374819Y-117546666D02*
X122327200Y-117641904D01*
X122327200Y-117641904D02*
X122279580Y-117689523D01*
%TO.C,R24*%
X126184819Y-119022857D02*
X125708628Y-119356190D01*
X126184819Y-119594285D02*
X125184819Y-119594285D01*
X125184819Y-119594285D02*
X125184819Y-119213333D01*
X125184819Y-119213333D02*
X125232438Y-119118095D01*
X125232438Y-119118095D02*
X125280057Y-119070476D01*
X125280057Y-119070476D02*
X125375295Y-119022857D01*
X125375295Y-119022857D02*
X125518152Y-119022857D01*
X125518152Y-119022857D02*
X125613390Y-119070476D01*
X125613390Y-119070476D02*
X125661009Y-119118095D01*
X125661009Y-119118095D02*
X125708628Y-119213333D01*
X125708628Y-119213333D02*
X125708628Y-119594285D01*
X125280057Y-118641904D02*
X125232438Y-118594285D01*
X125232438Y-118594285D02*
X125184819Y-118499047D01*
X125184819Y-118499047D02*
X125184819Y-118260952D01*
X125184819Y-118260952D02*
X125232438Y-118165714D01*
X125232438Y-118165714D02*
X125280057Y-118118095D01*
X125280057Y-118118095D02*
X125375295Y-118070476D01*
X125375295Y-118070476D02*
X125470533Y-118070476D01*
X125470533Y-118070476D02*
X125613390Y-118118095D01*
X125613390Y-118118095D02*
X126184819Y-118689523D01*
X126184819Y-118689523D02*
X126184819Y-118070476D01*
X125518152Y-117213333D02*
X126184819Y-117213333D01*
X125137200Y-117451428D02*
X125851485Y-117689523D01*
X125851485Y-117689523D02*
X125851485Y-117070476D01*
%TO.C,R23*%
X129994819Y-119022857D02*
X129518628Y-119356190D01*
X129994819Y-119594285D02*
X128994819Y-119594285D01*
X128994819Y-119594285D02*
X128994819Y-119213333D01*
X128994819Y-119213333D02*
X129042438Y-119118095D01*
X129042438Y-119118095D02*
X129090057Y-119070476D01*
X129090057Y-119070476D02*
X129185295Y-119022857D01*
X129185295Y-119022857D02*
X129328152Y-119022857D01*
X129328152Y-119022857D02*
X129423390Y-119070476D01*
X129423390Y-119070476D02*
X129471009Y-119118095D01*
X129471009Y-119118095D02*
X129518628Y-119213333D01*
X129518628Y-119213333D02*
X129518628Y-119594285D01*
X129090057Y-118641904D02*
X129042438Y-118594285D01*
X129042438Y-118594285D02*
X128994819Y-118499047D01*
X128994819Y-118499047D02*
X128994819Y-118260952D01*
X128994819Y-118260952D02*
X129042438Y-118165714D01*
X129042438Y-118165714D02*
X129090057Y-118118095D01*
X129090057Y-118118095D02*
X129185295Y-118070476D01*
X129185295Y-118070476D02*
X129280533Y-118070476D01*
X129280533Y-118070476D02*
X129423390Y-118118095D01*
X129423390Y-118118095D02*
X129994819Y-118689523D01*
X129994819Y-118689523D02*
X129994819Y-118070476D01*
X128994819Y-117737142D02*
X128994819Y-117118095D01*
X128994819Y-117118095D02*
X129375771Y-117451428D01*
X129375771Y-117451428D02*
X129375771Y-117308571D01*
X129375771Y-117308571D02*
X129423390Y-117213333D01*
X129423390Y-117213333D02*
X129471009Y-117165714D01*
X129471009Y-117165714D02*
X129566247Y-117118095D01*
X129566247Y-117118095D02*
X129804342Y-117118095D01*
X129804342Y-117118095D02*
X129899580Y-117165714D01*
X129899580Y-117165714D02*
X129947200Y-117213333D01*
X129947200Y-117213333D02*
X129994819Y-117308571D01*
X129994819Y-117308571D02*
X129994819Y-117594285D01*
X129994819Y-117594285D02*
X129947200Y-117689523D01*
X129947200Y-117689523D02*
X129899580Y-117737142D01*
%TO.C,R22*%
X147774819Y-111767857D02*
X147298628Y-112101190D01*
X147774819Y-112339285D02*
X146774819Y-112339285D01*
X146774819Y-112339285D02*
X146774819Y-111958333D01*
X146774819Y-111958333D02*
X146822438Y-111863095D01*
X146822438Y-111863095D02*
X146870057Y-111815476D01*
X146870057Y-111815476D02*
X146965295Y-111767857D01*
X146965295Y-111767857D02*
X147108152Y-111767857D01*
X147108152Y-111767857D02*
X147203390Y-111815476D01*
X147203390Y-111815476D02*
X147251009Y-111863095D01*
X147251009Y-111863095D02*
X147298628Y-111958333D01*
X147298628Y-111958333D02*
X147298628Y-112339285D01*
X146870057Y-111386904D02*
X146822438Y-111339285D01*
X146822438Y-111339285D02*
X146774819Y-111244047D01*
X146774819Y-111244047D02*
X146774819Y-111005952D01*
X146774819Y-111005952D02*
X146822438Y-110910714D01*
X146822438Y-110910714D02*
X146870057Y-110863095D01*
X146870057Y-110863095D02*
X146965295Y-110815476D01*
X146965295Y-110815476D02*
X147060533Y-110815476D01*
X147060533Y-110815476D02*
X147203390Y-110863095D01*
X147203390Y-110863095D02*
X147774819Y-111434523D01*
X147774819Y-111434523D02*
X147774819Y-110815476D01*
X146870057Y-110434523D02*
X146822438Y-110386904D01*
X146822438Y-110386904D02*
X146774819Y-110291666D01*
X146774819Y-110291666D02*
X146774819Y-110053571D01*
X146774819Y-110053571D02*
X146822438Y-109958333D01*
X146822438Y-109958333D02*
X146870057Y-109910714D01*
X146870057Y-109910714D02*
X146965295Y-109863095D01*
X146965295Y-109863095D02*
X147060533Y-109863095D01*
X147060533Y-109863095D02*
X147203390Y-109910714D01*
X147203390Y-109910714D02*
X147774819Y-110482142D01*
X147774819Y-110482142D02*
X147774819Y-109863095D01*
%TO.C,R21*%
X123817142Y-134439819D02*
X123483809Y-133963628D01*
X123245714Y-134439819D02*
X123245714Y-133439819D01*
X123245714Y-133439819D02*
X123626666Y-133439819D01*
X123626666Y-133439819D02*
X123721904Y-133487438D01*
X123721904Y-133487438D02*
X123769523Y-133535057D01*
X123769523Y-133535057D02*
X123817142Y-133630295D01*
X123817142Y-133630295D02*
X123817142Y-133773152D01*
X123817142Y-133773152D02*
X123769523Y-133868390D01*
X123769523Y-133868390D02*
X123721904Y-133916009D01*
X123721904Y-133916009D02*
X123626666Y-133963628D01*
X123626666Y-133963628D02*
X123245714Y-133963628D01*
X124198095Y-133535057D02*
X124245714Y-133487438D01*
X124245714Y-133487438D02*
X124340952Y-133439819D01*
X124340952Y-133439819D02*
X124579047Y-133439819D01*
X124579047Y-133439819D02*
X124674285Y-133487438D01*
X124674285Y-133487438D02*
X124721904Y-133535057D01*
X124721904Y-133535057D02*
X124769523Y-133630295D01*
X124769523Y-133630295D02*
X124769523Y-133725533D01*
X124769523Y-133725533D02*
X124721904Y-133868390D01*
X124721904Y-133868390D02*
X124150476Y-134439819D01*
X124150476Y-134439819D02*
X124769523Y-134439819D01*
X125721904Y-134439819D02*
X125150476Y-134439819D01*
X125436190Y-134439819D02*
X125436190Y-133439819D01*
X125436190Y-133439819D02*
X125340952Y-133582676D01*
X125340952Y-133582676D02*
X125245714Y-133677914D01*
X125245714Y-133677914D02*
X125150476Y-133725533D01*
%TO.C,R20*%
X79002142Y-134434819D02*
X78668809Y-133958628D01*
X78430714Y-134434819D02*
X78430714Y-133434819D01*
X78430714Y-133434819D02*
X78811666Y-133434819D01*
X78811666Y-133434819D02*
X78906904Y-133482438D01*
X78906904Y-133482438D02*
X78954523Y-133530057D01*
X78954523Y-133530057D02*
X79002142Y-133625295D01*
X79002142Y-133625295D02*
X79002142Y-133768152D01*
X79002142Y-133768152D02*
X78954523Y-133863390D01*
X78954523Y-133863390D02*
X78906904Y-133911009D01*
X78906904Y-133911009D02*
X78811666Y-133958628D01*
X78811666Y-133958628D02*
X78430714Y-133958628D01*
X79383095Y-133530057D02*
X79430714Y-133482438D01*
X79430714Y-133482438D02*
X79525952Y-133434819D01*
X79525952Y-133434819D02*
X79764047Y-133434819D01*
X79764047Y-133434819D02*
X79859285Y-133482438D01*
X79859285Y-133482438D02*
X79906904Y-133530057D01*
X79906904Y-133530057D02*
X79954523Y-133625295D01*
X79954523Y-133625295D02*
X79954523Y-133720533D01*
X79954523Y-133720533D02*
X79906904Y-133863390D01*
X79906904Y-133863390D02*
X79335476Y-134434819D01*
X79335476Y-134434819D02*
X79954523Y-134434819D01*
X80573571Y-133434819D02*
X80668809Y-133434819D01*
X80668809Y-133434819D02*
X80764047Y-133482438D01*
X80764047Y-133482438D02*
X80811666Y-133530057D01*
X80811666Y-133530057D02*
X80859285Y-133625295D01*
X80859285Y-133625295D02*
X80906904Y-133815771D01*
X80906904Y-133815771D02*
X80906904Y-134053866D01*
X80906904Y-134053866D02*
X80859285Y-134244342D01*
X80859285Y-134244342D02*
X80811666Y-134339580D01*
X80811666Y-134339580D02*
X80764047Y-134387200D01*
X80764047Y-134387200D02*
X80668809Y-134434819D01*
X80668809Y-134434819D02*
X80573571Y-134434819D01*
X80573571Y-134434819D02*
X80478333Y-134387200D01*
X80478333Y-134387200D02*
X80430714Y-134339580D01*
X80430714Y-134339580D02*
X80383095Y-134244342D01*
X80383095Y-134244342D02*
X80335476Y-134053866D01*
X80335476Y-134053866D02*
X80335476Y-133815771D01*
X80335476Y-133815771D02*
X80383095Y-133625295D01*
X80383095Y-133625295D02*
X80430714Y-133530057D01*
X80430714Y-133530057D02*
X80478333Y-133482438D01*
X80478333Y-133482438D02*
X80573571Y-133434819D01*
%TO.C,R19*%
X147582142Y-133914819D02*
X147248809Y-133438628D01*
X147010714Y-133914819D02*
X147010714Y-132914819D01*
X147010714Y-132914819D02*
X147391666Y-132914819D01*
X147391666Y-132914819D02*
X147486904Y-132962438D01*
X147486904Y-132962438D02*
X147534523Y-133010057D01*
X147534523Y-133010057D02*
X147582142Y-133105295D01*
X147582142Y-133105295D02*
X147582142Y-133248152D01*
X147582142Y-133248152D02*
X147534523Y-133343390D01*
X147534523Y-133343390D02*
X147486904Y-133391009D01*
X147486904Y-133391009D02*
X147391666Y-133438628D01*
X147391666Y-133438628D02*
X147010714Y-133438628D01*
X148534523Y-133914819D02*
X147963095Y-133914819D01*
X148248809Y-133914819D02*
X148248809Y-132914819D01*
X148248809Y-132914819D02*
X148153571Y-133057676D01*
X148153571Y-133057676D02*
X148058333Y-133152914D01*
X148058333Y-133152914D02*
X147963095Y-133200533D01*
X149010714Y-133914819D02*
X149201190Y-133914819D01*
X149201190Y-133914819D02*
X149296428Y-133867200D01*
X149296428Y-133867200D02*
X149344047Y-133819580D01*
X149344047Y-133819580D02*
X149439285Y-133676723D01*
X149439285Y-133676723D02*
X149486904Y-133486247D01*
X149486904Y-133486247D02*
X149486904Y-133105295D01*
X149486904Y-133105295D02*
X149439285Y-133010057D01*
X149439285Y-133010057D02*
X149391666Y-132962438D01*
X149391666Y-132962438D02*
X149296428Y-132914819D01*
X149296428Y-132914819D02*
X149105952Y-132914819D01*
X149105952Y-132914819D02*
X149010714Y-132962438D01*
X149010714Y-132962438D02*
X148963095Y-133010057D01*
X148963095Y-133010057D02*
X148915476Y-133105295D01*
X148915476Y-133105295D02*
X148915476Y-133343390D01*
X148915476Y-133343390D02*
X148963095Y-133438628D01*
X148963095Y-133438628D02*
X149010714Y-133486247D01*
X149010714Y-133486247D02*
X149105952Y-133533866D01*
X149105952Y-133533866D02*
X149296428Y-133533866D01*
X149296428Y-133533866D02*
X149391666Y-133486247D01*
X149391666Y-133486247D02*
X149439285Y-133438628D01*
X149439285Y-133438628D02*
X149486904Y-133343390D01*
%TO.C,R18*%
X153869819Y-131182857D02*
X153393628Y-131516190D01*
X153869819Y-131754285D02*
X152869819Y-131754285D01*
X152869819Y-131754285D02*
X152869819Y-131373333D01*
X152869819Y-131373333D02*
X152917438Y-131278095D01*
X152917438Y-131278095D02*
X152965057Y-131230476D01*
X152965057Y-131230476D02*
X153060295Y-131182857D01*
X153060295Y-131182857D02*
X153203152Y-131182857D01*
X153203152Y-131182857D02*
X153298390Y-131230476D01*
X153298390Y-131230476D02*
X153346009Y-131278095D01*
X153346009Y-131278095D02*
X153393628Y-131373333D01*
X153393628Y-131373333D02*
X153393628Y-131754285D01*
X153869819Y-130230476D02*
X153869819Y-130801904D01*
X153869819Y-130516190D02*
X152869819Y-130516190D01*
X152869819Y-130516190D02*
X153012676Y-130611428D01*
X153012676Y-130611428D02*
X153107914Y-130706666D01*
X153107914Y-130706666D02*
X153155533Y-130801904D01*
X153298390Y-129659047D02*
X153250771Y-129754285D01*
X153250771Y-129754285D02*
X153203152Y-129801904D01*
X153203152Y-129801904D02*
X153107914Y-129849523D01*
X153107914Y-129849523D02*
X153060295Y-129849523D01*
X153060295Y-129849523D02*
X152965057Y-129801904D01*
X152965057Y-129801904D02*
X152917438Y-129754285D01*
X152917438Y-129754285D02*
X152869819Y-129659047D01*
X152869819Y-129659047D02*
X152869819Y-129468571D01*
X152869819Y-129468571D02*
X152917438Y-129373333D01*
X152917438Y-129373333D02*
X152965057Y-129325714D01*
X152965057Y-129325714D02*
X153060295Y-129278095D01*
X153060295Y-129278095D02*
X153107914Y-129278095D01*
X153107914Y-129278095D02*
X153203152Y-129325714D01*
X153203152Y-129325714D02*
X153250771Y-129373333D01*
X153250771Y-129373333D02*
X153298390Y-129468571D01*
X153298390Y-129468571D02*
X153298390Y-129659047D01*
X153298390Y-129659047D02*
X153346009Y-129754285D01*
X153346009Y-129754285D02*
X153393628Y-129801904D01*
X153393628Y-129801904D02*
X153488866Y-129849523D01*
X153488866Y-129849523D02*
X153679342Y-129849523D01*
X153679342Y-129849523D02*
X153774580Y-129801904D01*
X153774580Y-129801904D02*
X153822200Y-129754285D01*
X153822200Y-129754285D02*
X153869819Y-129659047D01*
X153869819Y-129659047D02*
X153869819Y-129468571D01*
X153869819Y-129468571D02*
X153822200Y-129373333D01*
X153822200Y-129373333D02*
X153774580Y-129325714D01*
X153774580Y-129325714D02*
X153679342Y-129278095D01*
X153679342Y-129278095D02*
X153488866Y-129278095D01*
X153488866Y-129278095D02*
X153393628Y-129325714D01*
X153393628Y-129325714D02*
X153346009Y-129373333D01*
X153346009Y-129373333D02*
X153298390Y-129468571D01*
%TO.C,R17*%
X153869819Y-134992857D02*
X153393628Y-135326190D01*
X153869819Y-135564285D02*
X152869819Y-135564285D01*
X152869819Y-135564285D02*
X152869819Y-135183333D01*
X152869819Y-135183333D02*
X152917438Y-135088095D01*
X152917438Y-135088095D02*
X152965057Y-135040476D01*
X152965057Y-135040476D02*
X153060295Y-134992857D01*
X153060295Y-134992857D02*
X153203152Y-134992857D01*
X153203152Y-134992857D02*
X153298390Y-135040476D01*
X153298390Y-135040476D02*
X153346009Y-135088095D01*
X153346009Y-135088095D02*
X153393628Y-135183333D01*
X153393628Y-135183333D02*
X153393628Y-135564285D01*
X153869819Y-134040476D02*
X153869819Y-134611904D01*
X153869819Y-134326190D02*
X152869819Y-134326190D01*
X152869819Y-134326190D02*
X153012676Y-134421428D01*
X153012676Y-134421428D02*
X153107914Y-134516666D01*
X153107914Y-134516666D02*
X153155533Y-134611904D01*
X152869819Y-133707142D02*
X152869819Y-133040476D01*
X152869819Y-133040476D02*
X153869819Y-133469047D01*
%TO.C,R16*%
X154662142Y-130614819D02*
X154328809Y-130138628D01*
X154090714Y-130614819D02*
X154090714Y-129614819D01*
X154090714Y-129614819D02*
X154471666Y-129614819D01*
X154471666Y-129614819D02*
X154566904Y-129662438D01*
X154566904Y-129662438D02*
X154614523Y-129710057D01*
X154614523Y-129710057D02*
X154662142Y-129805295D01*
X154662142Y-129805295D02*
X154662142Y-129948152D01*
X154662142Y-129948152D02*
X154614523Y-130043390D01*
X154614523Y-130043390D02*
X154566904Y-130091009D01*
X154566904Y-130091009D02*
X154471666Y-130138628D01*
X154471666Y-130138628D02*
X154090714Y-130138628D01*
X155614523Y-130614819D02*
X155043095Y-130614819D01*
X155328809Y-130614819D02*
X155328809Y-129614819D01*
X155328809Y-129614819D02*
X155233571Y-129757676D01*
X155233571Y-129757676D02*
X155138333Y-129852914D01*
X155138333Y-129852914D02*
X155043095Y-129900533D01*
X156471666Y-129614819D02*
X156281190Y-129614819D01*
X156281190Y-129614819D02*
X156185952Y-129662438D01*
X156185952Y-129662438D02*
X156138333Y-129710057D01*
X156138333Y-129710057D02*
X156043095Y-129852914D01*
X156043095Y-129852914D02*
X155995476Y-130043390D01*
X155995476Y-130043390D02*
X155995476Y-130424342D01*
X155995476Y-130424342D02*
X156043095Y-130519580D01*
X156043095Y-130519580D02*
X156090714Y-130567200D01*
X156090714Y-130567200D02*
X156185952Y-130614819D01*
X156185952Y-130614819D02*
X156376428Y-130614819D01*
X156376428Y-130614819D02*
X156471666Y-130567200D01*
X156471666Y-130567200D02*
X156519285Y-130519580D01*
X156519285Y-130519580D02*
X156566904Y-130424342D01*
X156566904Y-130424342D02*
X156566904Y-130186247D01*
X156566904Y-130186247D02*
X156519285Y-130091009D01*
X156519285Y-130091009D02*
X156471666Y-130043390D01*
X156471666Y-130043390D02*
X156376428Y-129995771D01*
X156376428Y-129995771D02*
X156185952Y-129995771D01*
X156185952Y-129995771D02*
X156090714Y-130043390D01*
X156090714Y-130043390D02*
X156043095Y-130091009D01*
X156043095Y-130091009D02*
X155995476Y-130186247D01*
%TO.C,R15*%
X161489819Y-131182857D02*
X161013628Y-131516190D01*
X161489819Y-131754285D02*
X160489819Y-131754285D01*
X160489819Y-131754285D02*
X160489819Y-131373333D01*
X160489819Y-131373333D02*
X160537438Y-131278095D01*
X160537438Y-131278095D02*
X160585057Y-131230476D01*
X160585057Y-131230476D02*
X160680295Y-131182857D01*
X160680295Y-131182857D02*
X160823152Y-131182857D01*
X160823152Y-131182857D02*
X160918390Y-131230476D01*
X160918390Y-131230476D02*
X160966009Y-131278095D01*
X160966009Y-131278095D02*
X161013628Y-131373333D01*
X161013628Y-131373333D02*
X161013628Y-131754285D01*
X161489819Y-130230476D02*
X161489819Y-130801904D01*
X161489819Y-130516190D02*
X160489819Y-130516190D01*
X160489819Y-130516190D02*
X160632676Y-130611428D01*
X160632676Y-130611428D02*
X160727914Y-130706666D01*
X160727914Y-130706666D02*
X160775533Y-130801904D01*
X160489819Y-129325714D02*
X160489819Y-129801904D01*
X160489819Y-129801904D02*
X160966009Y-129849523D01*
X160966009Y-129849523D02*
X160918390Y-129801904D01*
X160918390Y-129801904D02*
X160870771Y-129706666D01*
X160870771Y-129706666D02*
X160870771Y-129468571D01*
X160870771Y-129468571D02*
X160918390Y-129373333D01*
X160918390Y-129373333D02*
X160966009Y-129325714D01*
X160966009Y-129325714D02*
X161061247Y-129278095D01*
X161061247Y-129278095D02*
X161299342Y-129278095D01*
X161299342Y-129278095D02*
X161394580Y-129325714D01*
X161394580Y-129325714D02*
X161442200Y-129373333D01*
X161442200Y-129373333D02*
X161489819Y-129468571D01*
X161489819Y-129468571D02*
X161489819Y-129706666D01*
X161489819Y-129706666D02*
X161442200Y-129801904D01*
X161442200Y-129801904D02*
X161394580Y-129849523D01*
%TO.C,R14*%
X161489819Y-134992857D02*
X161013628Y-135326190D01*
X161489819Y-135564285D02*
X160489819Y-135564285D01*
X160489819Y-135564285D02*
X160489819Y-135183333D01*
X160489819Y-135183333D02*
X160537438Y-135088095D01*
X160537438Y-135088095D02*
X160585057Y-135040476D01*
X160585057Y-135040476D02*
X160680295Y-134992857D01*
X160680295Y-134992857D02*
X160823152Y-134992857D01*
X160823152Y-134992857D02*
X160918390Y-135040476D01*
X160918390Y-135040476D02*
X160966009Y-135088095D01*
X160966009Y-135088095D02*
X161013628Y-135183333D01*
X161013628Y-135183333D02*
X161013628Y-135564285D01*
X161489819Y-134040476D02*
X161489819Y-134611904D01*
X161489819Y-134326190D02*
X160489819Y-134326190D01*
X160489819Y-134326190D02*
X160632676Y-134421428D01*
X160632676Y-134421428D02*
X160727914Y-134516666D01*
X160727914Y-134516666D02*
X160775533Y-134611904D01*
X160823152Y-133183333D02*
X161489819Y-133183333D01*
X160442200Y-133421428D02*
X161156485Y-133659523D01*
X161156485Y-133659523D02*
X161156485Y-133040476D01*
%TO.C,R13*%
X162822142Y-130614819D02*
X162488809Y-130138628D01*
X162250714Y-130614819D02*
X162250714Y-129614819D01*
X162250714Y-129614819D02*
X162631666Y-129614819D01*
X162631666Y-129614819D02*
X162726904Y-129662438D01*
X162726904Y-129662438D02*
X162774523Y-129710057D01*
X162774523Y-129710057D02*
X162822142Y-129805295D01*
X162822142Y-129805295D02*
X162822142Y-129948152D01*
X162822142Y-129948152D02*
X162774523Y-130043390D01*
X162774523Y-130043390D02*
X162726904Y-130091009D01*
X162726904Y-130091009D02*
X162631666Y-130138628D01*
X162631666Y-130138628D02*
X162250714Y-130138628D01*
X163774523Y-130614819D02*
X163203095Y-130614819D01*
X163488809Y-130614819D02*
X163488809Y-129614819D01*
X163488809Y-129614819D02*
X163393571Y-129757676D01*
X163393571Y-129757676D02*
X163298333Y-129852914D01*
X163298333Y-129852914D02*
X163203095Y-129900533D01*
X164107857Y-129614819D02*
X164726904Y-129614819D01*
X164726904Y-129614819D02*
X164393571Y-129995771D01*
X164393571Y-129995771D02*
X164536428Y-129995771D01*
X164536428Y-129995771D02*
X164631666Y-130043390D01*
X164631666Y-130043390D02*
X164679285Y-130091009D01*
X164679285Y-130091009D02*
X164726904Y-130186247D01*
X164726904Y-130186247D02*
X164726904Y-130424342D01*
X164726904Y-130424342D02*
X164679285Y-130519580D01*
X164679285Y-130519580D02*
X164631666Y-130567200D01*
X164631666Y-130567200D02*
X164536428Y-130614819D01*
X164536428Y-130614819D02*
X164250714Y-130614819D01*
X164250714Y-130614819D02*
X164155476Y-130567200D01*
X164155476Y-130567200D02*
X164107857Y-130519580D01*
%TO.C,R12*%
X169109819Y-131182857D02*
X168633628Y-131516190D01*
X169109819Y-131754285D02*
X168109819Y-131754285D01*
X168109819Y-131754285D02*
X168109819Y-131373333D01*
X168109819Y-131373333D02*
X168157438Y-131278095D01*
X168157438Y-131278095D02*
X168205057Y-131230476D01*
X168205057Y-131230476D02*
X168300295Y-131182857D01*
X168300295Y-131182857D02*
X168443152Y-131182857D01*
X168443152Y-131182857D02*
X168538390Y-131230476D01*
X168538390Y-131230476D02*
X168586009Y-131278095D01*
X168586009Y-131278095D02*
X168633628Y-131373333D01*
X168633628Y-131373333D02*
X168633628Y-131754285D01*
X169109819Y-130230476D02*
X169109819Y-130801904D01*
X169109819Y-130516190D02*
X168109819Y-130516190D01*
X168109819Y-130516190D02*
X168252676Y-130611428D01*
X168252676Y-130611428D02*
X168347914Y-130706666D01*
X168347914Y-130706666D02*
X168395533Y-130801904D01*
X168205057Y-129849523D02*
X168157438Y-129801904D01*
X168157438Y-129801904D02*
X168109819Y-129706666D01*
X168109819Y-129706666D02*
X168109819Y-129468571D01*
X168109819Y-129468571D02*
X168157438Y-129373333D01*
X168157438Y-129373333D02*
X168205057Y-129325714D01*
X168205057Y-129325714D02*
X168300295Y-129278095D01*
X168300295Y-129278095D02*
X168395533Y-129278095D01*
X168395533Y-129278095D02*
X168538390Y-129325714D01*
X168538390Y-129325714D02*
X169109819Y-129897142D01*
X169109819Y-129897142D02*
X169109819Y-129278095D01*
%TO.C,R11*%
X169109819Y-134992857D02*
X168633628Y-135326190D01*
X169109819Y-135564285D02*
X168109819Y-135564285D01*
X168109819Y-135564285D02*
X168109819Y-135183333D01*
X168109819Y-135183333D02*
X168157438Y-135088095D01*
X168157438Y-135088095D02*
X168205057Y-135040476D01*
X168205057Y-135040476D02*
X168300295Y-134992857D01*
X168300295Y-134992857D02*
X168443152Y-134992857D01*
X168443152Y-134992857D02*
X168538390Y-135040476D01*
X168538390Y-135040476D02*
X168586009Y-135088095D01*
X168586009Y-135088095D02*
X168633628Y-135183333D01*
X168633628Y-135183333D02*
X168633628Y-135564285D01*
X169109819Y-134040476D02*
X169109819Y-134611904D01*
X169109819Y-134326190D02*
X168109819Y-134326190D01*
X168109819Y-134326190D02*
X168252676Y-134421428D01*
X168252676Y-134421428D02*
X168347914Y-134516666D01*
X168347914Y-134516666D02*
X168395533Y-134611904D01*
X169109819Y-133088095D02*
X169109819Y-133659523D01*
X169109819Y-133373809D02*
X168109819Y-133373809D01*
X168109819Y-133373809D02*
X168252676Y-133469047D01*
X168252676Y-133469047D02*
X168347914Y-133564285D01*
X168347914Y-133564285D02*
X168395533Y-133659523D01*
%TO.C,R10*%
X170172142Y-130614819D02*
X169838809Y-130138628D01*
X169600714Y-130614819D02*
X169600714Y-129614819D01*
X169600714Y-129614819D02*
X169981666Y-129614819D01*
X169981666Y-129614819D02*
X170076904Y-129662438D01*
X170076904Y-129662438D02*
X170124523Y-129710057D01*
X170124523Y-129710057D02*
X170172142Y-129805295D01*
X170172142Y-129805295D02*
X170172142Y-129948152D01*
X170172142Y-129948152D02*
X170124523Y-130043390D01*
X170124523Y-130043390D02*
X170076904Y-130091009D01*
X170076904Y-130091009D02*
X169981666Y-130138628D01*
X169981666Y-130138628D02*
X169600714Y-130138628D01*
X171124523Y-130614819D02*
X170553095Y-130614819D01*
X170838809Y-130614819D02*
X170838809Y-129614819D01*
X170838809Y-129614819D02*
X170743571Y-129757676D01*
X170743571Y-129757676D02*
X170648333Y-129852914D01*
X170648333Y-129852914D02*
X170553095Y-129900533D01*
X171743571Y-129614819D02*
X171838809Y-129614819D01*
X171838809Y-129614819D02*
X171934047Y-129662438D01*
X171934047Y-129662438D02*
X171981666Y-129710057D01*
X171981666Y-129710057D02*
X172029285Y-129805295D01*
X172029285Y-129805295D02*
X172076904Y-129995771D01*
X172076904Y-129995771D02*
X172076904Y-130233866D01*
X172076904Y-130233866D02*
X172029285Y-130424342D01*
X172029285Y-130424342D02*
X171981666Y-130519580D01*
X171981666Y-130519580D02*
X171934047Y-130567200D01*
X171934047Y-130567200D02*
X171838809Y-130614819D01*
X171838809Y-130614819D02*
X171743571Y-130614819D01*
X171743571Y-130614819D02*
X171648333Y-130567200D01*
X171648333Y-130567200D02*
X171600714Y-130519580D01*
X171600714Y-130519580D02*
X171553095Y-130424342D01*
X171553095Y-130424342D02*
X171505476Y-130233866D01*
X171505476Y-130233866D02*
X171505476Y-129995771D01*
X171505476Y-129995771D02*
X171553095Y-129805295D01*
X171553095Y-129805295D02*
X171600714Y-129710057D01*
X171600714Y-129710057D02*
X171648333Y-129662438D01*
X171648333Y-129662438D02*
X171743571Y-129614819D01*
%TO.C,R9*%
X176984819Y-130071666D02*
X176508628Y-130404999D01*
X176984819Y-130643094D02*
X175984819Y-130643094D01*
X175984819Y-130643094D02*
X175984819Y-130262142D01*
X175984819Y-130262142D02*
X176032438Y-130166904D01*
X176032438Y-130166904D02*
X176080057Y-130119285D01*
X176080057Y-130119285D02*
X176175295Y-130071666D01*
X176175295Y-130071666D02*
X176318152Y-130071666D01*
X176318152Y-130071666D02*
X176413390Y-130119285D01*
X176413390Y-130119285D02*
X176461009Y-130166904D01*
X176461009Y-130166904D02*
X176508628Y-130262142D01*
X176508628Y-130262142D02*
X176508628Y-130643094D01*
X176984819Y-129595475D02*
X176984819Y-129404999D01*
X176984819Y-129404999D02*
X176937200Y-129309761D01*
X176937200Y-129309761D02*
X176889580Y-129262142D01*
X176889580Y-129262142D02*
X176746723Y-129166904D01*
X176746723Y-129166904D02*
X176556247Y-129119285D01*
X176556247Y-129119285D02*
X176175295Y-129119285D01*
X176175295Y-129119285D02*
X176080057Y-129166904D01*
X176080057Y-129166904D02*
X176032438Y-129214523D01*
X176032438Y-129214523D02*
X175984819Y-129309761D01*
X175984819Y-129309761D02*
X175984819Y-129500237D01*
X175984819Y-129500237D02*
X176032438Y-129595475D01*
X176032438Y-129595475D02*
X176080057Y-129643094D01*
X176080057Y-129643094D02*
X176175295Y-129690713D01*
X176175295Y-129690713D02*
X176413390Y-129690713D01*
X176413390Y-129690713D02*
X176508628Y-129643094D01*
X176508628Y-129643094D02*
X176556247Y-129595475D01*
X176556247Y-129595475D02*
X176603866Y-129500237D01*
X176603866Y-129500237D02*
X176603866Y-129309761D01*
X176603866Y-129309761D02*
X176556247Y-129214523D01*
X176556247Y-129214523D02*
X176508628Y-129166904D01*
X176508628Y-129166904D02*
X176413390Y-129119285D01*
%TO.C,R8*%
X175079819Y-137691666D02*
X174603628Y-138024999D01*
X175079819Y-138263094D02*
X174079819Y-138263094D01*
X174079819Y-138263094D02*
X174079819Y-137882142D01*
X174079819Y-137882142D02*
X174127438Y-137786904D01*
X174127438Y-137786904D02*
X174175057Y-137739285D01*
X174175057Y-137739285D02*
X174270295Y-137691666D01*
X174270295Y-137691666D02*
X174413152Y-137691666D01*
X174413152Y-137691666D02*
X174508390Y-137739285D01*
X174508390Y-137739285D02*
X174556009Y-137786904D01*
X174556009Y-137786904D02*
X174603628Y-137882142D01*
X174603628Y-137882142D02*
X174603628Y-138263094D01*
X174508390Y-137120237D02*
X174460771Y-137215475D01*
X174460771Y-137215475D02*
X174413152Y-137263094D01*
X174413152Y-137263094D02*
X174317914Y-137310713D01*
X174317914Y-137310713D02*
X174270295Y-137310713D01*
X174270295Y-137310713D02*
X174175057Y-137263094D01*
X174175057Y-137263094D02*
X174127438Y-137215475D01*
X174127438Y-137215475D02*
X174079819Y-137120237D01*
X174079819Y-137120237D02*
X174079819Y-136929761D01*
X174079819Y-136929761D02*
X174127438Y-136834523D01*
X174127438Y-136834523D02*
X174175057Y-136786904D01*
X174175057Y-136786904D02*
X174270295Y-136739285D01*
X174270295Y-136739285D02*
X174317914Y-136739285D01*
X174317914Y-136739285D02*
X174413152Y-136786904D01*
X174413152Y-136786904D02*
X174460771Y-136834523D01*
X174460771Y-136834523D02*
X174508390Y-136929761D01*
X174508390Y-136929761D02*
X174508390Y-137120237D01*
X174508390Y-137120237D02*
X174556009Y-137215475D01*
X174556009Y-137215475D02*
X174603628Y-137263094D01*
X174603628Y-137263094D02*
X174698866Y-137310713D01*
X174698866Y-137310713D02*
X174889342Y-137310713D01*
X174889342Y-137310713D02*
X174984580Y-137263094D01*
X174984580Y-137263094D02*
X175032200Y-137215475D01*
X175032200Y-137215475D02*
X175079819Y-137120237D01*
X175079819Y-137120237D02*
X175079819Y-136929761D01*
X175079819Y-136929761D02*
X175032200Y-136834523D01*
X175032200Y-136834523D02*
X174984580Y-136786904D01*
X174984580Y-136786904D02*
X174889342Y-136739285D01*
X174889342Y-136739285D02*
X174698866Y-136739285D01*
X174698866Y-136739285D02*
X174603628Y-136786904D01*
X174603628Y-136786904D02*
X174556009Y-136834523D01*
X174556009Y-136834523D02*
X174508390Y-136929761D01*
%TO.C,R7*%
X70049819Y-106846666D02*
X69573628Y-107179999D01*
X70049819Y-107418094D02*
X69049819Y-107418094D01*
X69049819Y-107418094D02*
X69049819Y-107037142D01*
X69049819Y-107037142D02*
X69097438Y-106941904D01*
X69097438Y-106941904D02*
X69145057Y-106894285D01*
X69145057Y-106894285D02*
X69240295Y-106846666D01*
X69240295Y-106846666D02*
X69383152Y-106846666D01*
X69383152Y-106846666D02*
X69478390Y-106894285D01*
X69478390Y-106894285D02*
X69526009Y-106941904D01*
X69526009Y-106941904D02*
X69573628Y-107037142D01*
X69573628Y-107037142D02*
X69573628Y-107418094D01*
X69049819Y-106513332D02*
X69049819Y-105846666D01*
X69049819Y-105846666D02*
X70049819Y-106275237D01*
%TO.C,R6*%
X64589819Y-103671666D02*
X64113628Y-104004999D01*
X64589819Y-104243094D02*
X63589819Y-104243094D01*
X63589819Y-104243094D02*
X63589819Y-103862142D01*
X63589819Y-103862142D02*
X63637438Y-103766904D01*
X63637438Y-103766904D02*
X63685057Y-103719285D01*
X63685057Y-103719285D02*
X63780295Y-103671666D01*
X63780295Y-103671666D02*
X63923152Y-103671666D01*
X63923152Y-103671666D02*
X64018390Y-103719285D01*
X64018390Y-103719285D02*
X64066009Y-103766904D01*
X64066009Y-103766904D02*
X64113628Y-103862142D01*
X64113628Y-103862142D02*
X64113628Y-104243094D01*
X63589819Y-102814523D02*
X63589819Y-103004999D01*
X63589819Y-103004999D02*
X63637438Y-103100237D01*
X63637438Y-103100237D02*
X63685057Y-103147856D01*
X63685057Y-103147856D02*
X63827914Y-103243094D01*
X63827914Y-103243094D02*
X64018390Y-103290713D01*
X64018390Y-103290713D02*
X64399342Y-103290713D01*
X64399342Y-103290713D02*
X64494580Y-103243094D01*
X64494580Y-103243094D02*
X64542200Y-103195475D01*
X64542200Y-103195475D02*
X64589819Y-103100237D01*
X64589819Y-103100237D02*
X64589819Y-102909761D01*
X64589819Y-102909761D02*
X64542200Y-102814523D01*
X64542200Y-102814523D02*
X64494580Y-102766904D01*
X64494580Y-102766904D02*
X64399342Y-102719285D01*
X64399342Y-102719285D02*
X64161247Y-102719285D01*
X64161247Y-102719285D02*
X64066009Y-102766904D01*
X64066009Y-102766904D02*
X64018390Y-102814523D01*
X64018390Y-102814523D02*
X63970771Y-102909761D01*
X63970771Y-102909761D02*
X63970771Y-103100237D01*
X63970771Y-103100237D02*
X64018390Y-103195475D01*
X64018390Y-103195475D02*
X64066009Y-103243094D01*
X64066009Y-103243094D02*
X64161247Y-103290713D01*
%TO.C,R5*%
X75129819Y-106846666D02*
X74653628Y-107179999D01*
X75129819Y-107418094D02*
X74129819Y-107418094D01*
X74129819Y-107418094D02*
X74129819Y-107037142D01*
X74129819Y-107037142D02*
X74177438Y-106941904D01*
X74177438Y-106941904D02*
X74225057Y-106894285D01*
X74225057Y-106894285D02*
X74320295Y-106846666D01*
X74320295Y-106846666D02*
X74463152Y-106846666D01*
X74463152Y-106846666D02*
X74558390Y-106894285D01*
X74558390Y-106894285D02*
X74606009Y-106941904D01*
X74606009Y-106941904D02*
X74653628Y-107037142D01*
X74653628Y-107037142D02*
X74653628Y-107418094D01*
X74129819Y-105941904D02*
X74129819Y-106418094D01*
X74129819Y-106418094D02*
X74606009Y-106465713D01*
X74606009Y-106465713D02*
X74558390Y-106418094D01*
X74558390Y-106418094D02*
X74510771Y-106322856D01*
X74510771Y-106322856D02*
X74510771Y-106084761D01*
X74510771Y-106084761D02*
X74558390Y-105989523D01*
X74558390Y-105989523D02*
X74606009Y-105941904D01*
X74606009Y-105941904D02*
X74701247Y-105894285D01*
X74701247Y-105894285D02*
X74939342Y-105894285D01*
X74939342Y-105894285D02*
X75034580Y-105941904D01*
X75034580Y-105941904D02*
X75082200Y-105989523D01*
X75082200Y-105989523D02*
X75129819Y-106084761D01*
X75129819Y-106084761D02*
X75129819Y-106322856D01*
X75129819Y-106322856D02*
X75082200Y-106418094D01*
X75082200Y-106418094D02*
X75034580Y-106465713D01*
%TO.C,R4*%
X60144819Y-103671666D02*
X59668628Y-104004999D01*
X60144819Y-104243094D02*
X59144819Y-104243094D01*
X59144819Y-104243094D02*
X59144819Y-103862142D01*
X59144819Y-103862142D02*
X59192438Y-103766904D01*
X59192438Y-103766904D02*
X59240057Y-103719285D01*
X59240057Y-103719285D02*
X59335295Y-103671666D01*
X59335295Y-103671666D02*
X59478152Y-103671666D01*
X59478152Y-103671666D02*
X59573390Y-103719285D01*
X59573390Y-103719285D02*
X59621009Y-103766904D01*
X59621009Y-103766904D02*
X59668628Y-103862142D01*
X59668628Y-103862142D02*
X59668628Y-104243094D01*
X59478152Y-102814523D02*
X60144819Y-102814523D01*
X59097200Y-103052618D02*
X59811485Y-103290713D01*
X59811485Y-103290713D02*
X59811485Y-102671666D01*
%TO.C,R3*%
X94203333Y-110324819D02*
X93870000Y-109848628D01*
X93631905Y-110324819D02*
X93631905Y-109324819D01*
X93631905Y-109324819D02*
X94012857Y-109324819D01*
X94012857Y-109324819D02*
X94108095Y-109372438D01*
X94108095Y-109372438D02*
X94155714Y-109420057D01*
X94155714Y-109420057D02*
X94203333Y-109515295D01*
X94203333Y-109515295D02*
X94203333Y-109658152D01*
X94203333Y-109658152D02*
X94155714Y-109753390D01*
X94155714Y-109753390D02*
X94108095Y-109801009D01*
X94108095Y-109801009D02*
X94012857Y-109848628D01*
X94012857Y-109848628D02*
X93631905Y-109848628D01*
X94536667Y-109324819D02*
X95155714Y-109324819D01*
X95155714Y-109324819D02*
X94822381Y-109705771D01*
X94822381Y-109705771D02*
X94965238Y-109705771D01*
X94965238Y-109705771D02*
X95060476Y-109753390D01*
X95060476Y-109753390D02*
X95108095Y-109801009D01*
X95108095Y-109801009D02*
X95155714Y-109896247D01*
X95155714Y-109896247D02*
X95155714Y-110134342D01*
X95155714Y-110134342D02*
X95108095Y-110229580D01*
X95108095Y-110229580D02*
X95060476Y-110277200D01*
X95060476Y-110277200D02*
X94965238Y-110324819D01*
X94965238Y-110324819D02*
X94679524Y-110324819D01*
X94679524Y-110324819D02*
X94584286Y-110277200D01*
X94584286Y-110277200D02*
X94536667Y-110229580D01*
%TO.C,R2*%
X89634819Y-110926666D02*
X89158628Y-111259999D01*
X89634819Y-111498094D02*
X88634819Y-111498094D01*
X88634819Y-111498094D02*
X88634819Y-111117142D01*
X88634819Y-111117142D02*
X88682438Y-111021904D01*
X88682438Y-111021904D02*
X88730057Y-110974285D01*
X88730057Y-110974285D02*
X88825295Y-110926666D01*
X88825295Y-110926666D02*
X88968152Y-110926666D01*
X88968152Y-110926666D02*
X89063390Y-110974285D01*
X89063390Y-110974285D02*
X89111009Y-111021904D01*
X89111009Y-111021904D02*
X89158628Y-111117142D01*
X89158628Y-111117142D02*
X89158628Y-111498094D01*
X88730057Y-110545713D02*
X88682438Y-110498094D01*
X88682438Y-110498094D02*
X88634819Y-110402856D01*
X88634819Y-110402856D02*
X88634819Y-110164761D01*
X88634819Y-110164761D02*
X88682438Y-110069523D01*
X88682438Y-110069523D02*
X88730057Y-110021904D01*
X88730057Y-110021904D02*
X88825295Y-109974285D01*
X88825295Y-109974285D02*
X88920533Y-109974285D01*
X88920533Y-109974285D02*
X89063390Y-110021904D01*
X89063390Y-110021904D02*
X89634819Y-110593332D01*
X89634819Y-110593332D02*
X89634819Y-109974285D01*
%TO.C,R1*%
X89634819Y-105846666D02*
X89158628Y-106179999D01*
X89634819Y-106418094D02*
X88634819Y-106418094D01*
X88634819Y-106418094D02*
X88634819Y-106037142D01*
X88634819Y-106037142D02*
X88682438Y-105941904D01*
X88682438Y-105941904D02*
X88730057Y-105894285D01*
X88730057Y-105894285D02*
X88825295Y-105846666D01*
X88825295Y-105846666D02*
X88968152Y-105846666D01*
X88968152Y-105846666D02*
X89063390Y-105894285D01*
X89063390Y-105894285D02*
X89111009Y-105941904D01*
X89111009Y-105941904D02*
X89158628Y-106037142D01*
X89158628Y-106037142D02*
X89158628Y-106418094D01*
X89634819Y-104894285D02*
X89634819Y-105465713D01*
X89634819Y-105179999D02*
X88634819Y-105179999D01*
X88634819Y-105179999D02*
X88777676Y-105275237D01*
X88777676Y-105275237D02*
X88872914Y-105370475D01*
X88872914Y-105370475D02*
X88920533Y-105465713D01*
%TO.C,J7*%
X174926666Y-148249819D02*
X174926666Y-148964104D01*
X174926666Y-148964104D02*
X174879047Y-149106961D01*
X174879047Y-149106961D02*
X174783809Y-149202200D01*
X174783809Y-149202200D02*
X174640952Y-149249819D01*
X174640952Y-149249819D02*
X174545714Y-149249819D01*
X175307619Y-148249819D02*
X175974285Y-148249819D01*
X175974285Y-148249819D02*
X175545714Y-149249819D01*
X169617142Y-137679819D02*
X170236189Y-137679819D01*
X170236189Y-137679819D02*
X169902856Y-138060771D01*
X169902856Y-138060771D02*
X170045713Y-138060771D01*
X170045713Y-138060771D02*
X170140951Y-138108390D01*
X170140951Y-138108390D02*
X170188570Y-138156009D01*
X170188570Y-138156009D02*
X170236189Y-138251247D01*
X170236189Y-138251247D02*
X170236189Y-138489342D01*
X170236189Y-138489342D02*
X170188570Y-138584580D01*
X170188570Y-138584580D02*
X170140951Y-138632200D01*
X170140951Y-138632200D02*
X170045713Y-138679819D01*
X170045713Y-138679819D02*
X169759999Y-138679819D01*
X169759999Y-138679819D02*
X169664761Y-138632200D01*
X169664761Y-138632200D02*
X169617142Y-138584580D01*
X170569523Y-138013152D02*
X170807618Y-138679819D01*
X170807618Y-138679819D02*
X171045713Y-138013152D01*
X171331428Y-137679819D02*
X171950475Y-137679819D01*
X171950475Y-137679819D02*
X171617142Y-138060771D01*
X171617142Y-138060771D02*
X171759999Y-138060771D01*
X171759999Y-138060771D02*
X171855237Y-138108390D01*
X171855237Y-138108390D02*
X171902856Y-138156009D01*
X171902856Y-138156009D02*
X171950475Y-138251247D01*
X171950475Y-138251247D02*
X171950475Y-138489342D01*
X171950475Y-138489342D02*
X171902856Y-138584580D01*
X171902856Y-138584580D02*
X171855237Y-138632200D01*
X171855237Y-138632200D02*
X171759999Y-138679819D01*
X171759999Y-138679819D02*
X171474285Y-138679819D01*
X171474285Y-138679819D02*
X171379047Y-138632200D01*
X171379047Y-138632200D02*
X171331428Y-138584580D01*
X173093333Y-138632200D02*
X173236190Y-138679819D01*
X173236190Y-138679819D02*
X173474285Y-138679819D01*
X173474285Y-138679819D02*
X173569523Y-138632200D01*
X173569523Y-138632200D02*
X173617142Y-138584580D01*
X173617142Y-138584580D02*
X173664761Y-138489342D01*
X173664761Y-138489342D02*
X173664761Y-138394104D01*
X173664761Y-138394104D02*
X173617142Y-138298866D01*
X173617142Y-138298866D02*
X173569523Y-138251247D01*
X173569523Y-138251247D02*
X173474285Y-138203628D01*
X173474285Y-138203628D02*
X173283809Y-138156009D01*
X173283809Y-138156009D02*
X173188571Y-138108390D01*
X173188571Y-138108390D02*
X173140952Y-138060771D01*
X173140952Y-138060771D02*
X173093333Y-137965533D01*
X173093333Y-137965533D02*
X173093333Y-137870295D01*
X173093333Y-137870295D02*
X173140952Y-137775057D01*
X173140952Y-137775057D02*
X173188571Y-137727438D01*
X173188571Y-137727438D02*
X173283809Y-137679819D01*
X173283809Y-137679819D02*
X173521904Y-137679819D01*
X173521904Y-137679819D02*
X173664761Y-137727438D01*
X174474285Y-138632200D02*
X174379047Y-138679819D01*
X174379047Y-138679819D02*
X174188571Y-138679819D01*
X174188571Y-138679819D02*
X174093333Y-138632200D01*
X174093333Y-138632200D02*
X174045714Y-138536961D01*
X174045714Y-138536961D02*
X174045714Y-138156009D01*
X174045714Y-138156009D02*
X174093333Y-138060771D01*
X174093333Y-138060771D02*
X174188571Y-138013152D01*
X174188571Y-138013152D02*
X174379047Y-138013152D01*
X174379047Y-138013152D02*
X174474285Y-138060771D01*
X174474285Y-138060771D02*
X174521904Y-138156009D01*
X174521904Y-138156009D02*
X174521904Y-138251247D01*
X174521904Y-138251247D02*
X174045714Y-138346485D01*
X174950476Y-138013152D02*
X174950476Y-138679819D01*
X174950476Y-138108390D02*
X174998095Y-138060771D01*
X174998095Y-138060771D02*
X175093333Y-138013152D01*
X175093333Y-138013152D02*
X175236190Y-138013152D01*
X175236190Y-138013152D02*
X175331428Y-138060771D01*
X175331428Y-138060771D02*
X175379047Y-138156009D01*
X175379047Y-138156009D02*
X175379047Y-138679819D01*
X175807619Y-138632200D02*
X175902857Y-138679819D01*
X175902857Y-138679819D02*
X176093333Y-138679819D01*
X176093333Y-138679819D02*
X176188571Y-138632200D01*
X176188571Y-138632200D02*
X176236190Y-138536961D01*
X176236190Y-138536961D02*
X176236190Y-138489342D01*
X176236190Y-138489342D02*
X176188571Y-138394104D01*
X176188571Y-138394104D02*
X176093333Y-138346485D01*
X176093333Y-138346485D02*
X175950476Y-138346485D01*
X175950476Y-138346485D02*
X175855238Y-138298866D01*
X175855238Y-138298866D02*
X175807619Y-138203628D01*
X175807619Y-138203628D02*
X175807619Y-138156009D01*
X175807619Y-138156009D02*
X175855238Y-138060771D01*
X175855238Y-138060771D02*
X175950476Y-138013152D01*
X175950476Y-138013152D02*
X176093333Y-138013152D01*
X176093333Y-138013152D02*
X176188571Y-138060771D01*
X176807619Y-138679819D02*
X176712381Y-138632200D01*
X176712381Y-138632200D02*
X176664762Y-138584580D01*
X176664762Y-138584580D02*
X176617143Y-138489342D01*
X176617143Y-138489342D02*
X176617143Y-138203628D01*
X176617143Y-138203628D02*
X176664762Y-138108390D01*
X176664762Y-138108390D02*
X176712381Y-138060771D01*
X176712381Y-138060771D02*
X176807619Y-138013152D01*
X176807619Y-138013152D02*
X176950476Y-138013152D01*
X176950476Y-138013152D02*
X177045714Y-138060771D01*
X177045714Y-138060771D02*
X177093333Y-138108390D01*
X177093333Y-138108390D02*
X177140952Y-138203628D01*
X177140952Y-138203628D02*
X177140952Y-138489342D01*
X177140952Y-138489342D02*
X177093333Y-138584580D01*
X177093333Y-138584580D02*
X177045714Y-138632200D01*
X177045714Y-138632200D02*
X176950476Y-138679819D01*
X176950476Y-138679819D02*
X176807619Y-138679819D01*
X177569524Y-138679819D02*
X177569524Y-138013152D01*
X177569524Y-138203628D02*
X177617143Y-138108390D01*
X177617143Y-138108390D02*
X177664762Y-138060771D01*
X177664762Y-138060771D02*
X177760000Y-138013152D01*
X177760000Y-138013152D02*
X177855238Y-138013152D01*
X178140953Y-138632200D02*
X178236191Y-138679819D01*
X178236191Y-138679819D02*
X178426667Y-138679819D01*
X178426667Y-138679819D02*
X178521905Y-138632200D01*
X178521905Y-138632200D02*
X178569524Y-138536961D01*
X178569524Y-138536961D02*
X178569524Y-138489342D01*
X178569524Y-138489342D02*
X178521905Y-138394104D01*
X178521905Y-138394104D02*
X178426667Y-138346485D01*
X178426667Y-138346485D02*
X178283810Y-138346485D01*
X178283810Y-138346485D02*
X178188572Y-138298866D01*
X178188572Y-138298866D02*
X178140953Y-138203628D01*
X178140953Y-138203628D02*
X178140953Y-138156009D01*
X178140953Y-138156009D02*
X178188572Y-138060771D01*
X178188572Y-138060771D02*
X178283810Y-138013152D01*
X178283810Y-138013152D02*
X178426667Y-138013152D01*
X178426667Y-138013152D02*
X178521905Y-138060771D01*
X179760001Y-138679819D02*
X179760001Y-137679819D01*
X180236191Y-138679819D02*
X180236191Y-137679819D01*
X180236191Y-137679819D02*
X180807619Y-138679819D01*
X180807619Y-138679819D02*
X180807619Y-137679819D01*
%TO.C,J6*%
X153336666Y-148249819D02*
X153336666Y-148964104D01*
X153336666Y-148964104D02*
X153289047Y-149106961D01*
X153289047Y-149106961D02*
X153193809Y-149202200D01*
X153193809Y-149202200D02*
X153050952Y-149249819D01*
X153050952Y-149249819D02*
X152955714Y-149249819D01*
X154241428Y-148249819D02*
X154050952Y-148249819D01*
X154050952Y-148249819D02*
X153955714Y-148297438D01*
X153955714Y-148297438D02*
X153908095Y-148345057D01*
X153908095Y-148345057D02*
X153812857Y-148487914D01*
X153812857Y-148487914D02*
X153765238Y-148678390D01*
X153765238Y-148678390D02*
X153765238Y-149059342D01*
X153765238Y-149059342D02*
X153812857Y-149154580D01*
X153812857Y-149154580D02*
X153860476Y-149202200D01*
X153860476Y-149202200D02*
X153955714Y-149249819D01*
X153955714Y-149249819D02*
X154146190Y-149249819D01*
X154146190Y-149249819D02*
X154241428Y-149202200D01*
X154241428Y-149202200D02*
X154289047Y-149154580D01*
X154289047Y-149154580D02*
X154336666Y-149059342D01*
X154336666Y-149059342D02*
X154336666Y-148821247D01*
X154336666Y-148821247D02*
X154289047Y-148726009D01*
X154289047Y-148726009D02*
X154241428Y-148678390D01*
X154241428Y-148678390D02*
X154146190Y-148630771D01*
X154146190Y-148630771D02*
X153955714Y-148630771D01*
X153955714Y-148630771D02*
X153860476Y-148678390D01*
X153860476Y-148678390D02*
X153812857Y-148726009D01*
X153812857Y-148726009D02*
X153765238Y-148821247D01*
X147995475Y-137249819D02*
X148614522Y-137249819D01*
X148614522Y-137249819D02*
X148281189Y-137630771D01*
X148281189Y-137630771D02*
X148424046Y-137630771D01*
X148424046Y-137630771D02*
X148519284Y-137678390D01*
X148519284Y-137678390D02*
X148566903Y-137726009D01*
X148566903Y-137726009D02*
X148614522Y-137821247D01*
X148614522Y-137821247D02*
X148614522Y-138059342D01*
X148614522Y-138059342D02*
X148566903Y-138154580D01*
X148566903Y-138154580D02*
X148519284Y-138202200D01*
X148519284Y-138202200D02*
X148424046Y-138249819D01*
X148424046Y-138249819D02*
X148138332Y-138249819D01*
X148138332Y-138249819D02*
X148043094Y-138202200D01*
X148043094Y-138202200D02*
X147995475Y-138154580D01*
X148947856Y-137583152D02*
X149185951Y-138249819D01*
X149185951Y-138249819D02*
X149424046Y-137583152D01*
X149709761Y-137249819D02*
X150328808Y-137249819D01*
X150328808Y-137249819D02*
X149995475Y-137630771D01*
X149995475Y-137630771D02*
X150138332Y-137630771D01*
X150138332Y-137630771D02*
X150233570Y-137678390D01*
X150233570Y-137678390D02*
X150281189Y-137726009D01*
X150281189Y-137726009D02*
X150328808Y-137821247D01*
X150328808Y-137821247D02*
X150328808Y-138059342D01*
X150328808Y-138059342D02*
X150281189Y-138154580D01*
X150281189Y-138154580D02*
X150233570Y-138202200D01*
X150233570Y-138202200D02*
X150138332Y-138249819D01*
X150138332Y-138249819D02*
X149852618Y-138249819D01*
X149852618Y-138249819D02*
X149757380Y-138202200D01*
X149757380Y-138202200D02*
X149709761Y-138154580D01*
X151471666Y-138202200D02*
X151614523Y-138249819D01*
X151614523Y-138249819D02*
X151852618Y-138249819D01*
X151852618Y-138249819D02*
X151947856Y-138202200D01*
X151947856Y-138202200D02*
X151995475Y-138154580D01*
X151995475Y-138154580D02*
X152043094Y-138059342D01*
X152043094Y-138059342D02*
X152043094Y-137964104D01*
X152043094Y-137964104D02*
X151995475Y-137868866D01*
X151995475Y-137868866D02*
X151947856Y-137821247D01*
X151947856Y-137821247D02*
X151852618Y-137773628D01*
X151852618Y-137773628D02*
X151662142Y-137726009D01*
X151662142Y-137726009D02*
X151566904Y-137678390D01*
X151566904Y-137678390D02*
X151519285Y-137630771D01*
X151519285Y-137630771D02*
X151471666Y-137535533D01*
X151471666Y-137535533D02*
X151471666Y-137440295D01*
X151471666Y-137440295D02*
X151519285Y-137345057D01*
X151519285Y-137345057D02*
X151566904Y-137297438D01*
X151566904Y-137297438D02*
X151662142Y-137249819D01*
X151662142Y-137249819D02*
X151900237Y-137249819D01*
X151900237Y-137249819D02*
X152043094Y-137297438D01*
X152852618Y-138202200D02*
X152757380Y-138249819D01*
X152757380Y-138249819D02*
X152566904Y-138249819D01*
X152566904Y-138249819D02*
X152471666Y-138202200D01*
X152471666Y-138202200D02*
X152424047Y-138106961D01*
X152424047Y-138106961D02*
X152424047Y-137726009D01*
X152424047Y-137726009D02*
X152471666Y-137630771D01*
X152471666Y-137630771D02*
X152566904Y-137583152D01*
X152566904Y-137583152D02*
X152757380Y-137583152D01*
X152757380Y-137583152D02*
X152852618Y-137630771D01*
X152852618Y-137630771D02*
X152900237Y-137726009D01*
X152900237Y-137726009D02*
X152900237Y-137821247D01*
X152900237Y-137821247D02*
X152424047Y-137916485D01*
X153328809Y-137583152D02*
X153328809Y-138249819D01*
X153328809Y-137678390D02*
X153376428Y-137630771D01*
X153376428Y-137630771D02*
X153471666Y-137583152D01*
X153471666Y-137583152D02*
X153614523Y-137583152D01*
X153614523Y-137583152D02*
X153709761Y-137630771D01*
X153709761Y-137630771D02*
X153757380Y-137726009D01*
X153757380Y-137726009D02*
X153757380Y-138249819D01*
X154185952Y-138202200D02*
X154281190Y-138249819D01*
X154281190Y-138249819D02*
X154471666Y-138249819D01*
X154471666Y-138249819D02*
X154566904Y-138202200D01*
X154566904Y-138202200D02*
X154614523Y-138106961D01*
X154614523Y-138106961D02*
X154614523Y-138059342D01*
X154614523Y-138059342D02*
X154566904Y-137964104D01*
X154566904Y-137964104D02*
X154471666Y-137916485D01*
X154471666Y-137916485D02*
X154328809Y-137916485D01*
X154328809Y-137916485D02*
X154233571Y-137868866D01*
X154233571Y-137868866D02*
X154185952Y-137773628D01*
X154185952Y-137773628D02*
X154185952Y-137726009D01*
X154185952Y-137726009D02*
X154233571Y-137630771D01*
X154233571Y-137630771D02*
X154328809Y-137583152D01*
X154328809Y-137583152D02*
X154471666Y-137583152D01*
X154471666Y-137583152D02*
X154566904Y-137630771D01*
X155185952Y-138249819D02*
X155090714Y-138202200D01*
X155090714Y-138202200D02*
X155043095Y-138154580D01*
X155043095Y-138154580D02*
X154995476Y-138059342D01*
X154995476Y-138059342D02*
X154995476Y-137773628D01*
X154995476Y-137773628D02*
X155043095Y-137678390D01*
X155043095Y-137678390D02*
X155090714Y-137630771D01*
X155090714Y-137630771D02*
X155185952Y-137583152D01*
X155185952Y-137583152D02*
X155328809Y-137583152D01*
X155328809Y-137583152D02*
X155424047Y-137630771D01*
X155424047Y-137630771D02*
X155471666Y-137678390D01*
X155471666Y-137678390D02*
X155519285Y-137773628D01*
X155519285Y-137773628D02*
X155519285Y-138059342D01*
X155519285Y-138059342D02*
X155471666Y-138154580D01*
X155471666Y-138154580D02*
X155424047Y-138202200D01*
X155424047Y-138202200D02*
X155328809Y-138249819D01*
X155328809Y-138249819D02*
X155185952Y-138249819D01*
X155947857Y-138249819D02*
X155947857Y-137583152D01*
X155947857Y-137773628D02*
X155995476Y-137678390D01*
X155995476Y-137678390D02*
X156043095Y-137630771D01*
X156043095Y-137630771D02*
X156138333Y-137583152D01*
X156138333Y-137583152D02*
X156233571Y-137583152D01*
X156519286Y-138202200D02*
X156614524Y-138249819D01*
X156614524Y-138249819D02*
X156805000Y-138249819D01*
X156805000Y-138249819D02*
X156900238Y-138202200D01*
X156900238Y-138202200D02*
X156947857Y-138106961D01*
X156947857Y-138106961D02*
X156947857Y-138059342D01*
X156947857Y-138059342D02*
X156900238Y-137964104D01*
X156900238Y-137964104D02*
X156805000Y-137916485D01*
X156805000Y-137916485D02*
X156662143Y-137916485D01*
X156662143Y-137916485D02*
X156566905Y-137868866D01*
X156566905Y-137868866D02*
X156519286Y-137773628D01*
X156519286Y-137773628D02*
X156519286Y-137726009D01*
X156519286Y-137726009D02*
X156566905Y-137630771D01*
X156566905Y-137630771D02*
X156662143Y-137583152D01*
X156662143Y-137583152D02*
X156805000Y-137583152D01*
X156805000Y-137583152D02*
X156900238Y-137630771D01*
X158328810Y-137249819D02*
X158519286Y-137249819D01*
X158519286Y-137249819D02*
X158614524Y-137297438D01*
X158614524Y-137297438D02*
X158709762Y-137392676D01*
X158709762Y-137392676D02*
X158757381Y-137583152D01*
X158757381Y-137583152D02*
X158757381Y-137916485D01*
X158757381Y-137916485D02*
X158709762Y-138106961D01*
X158709762Y-138106961D02*
X158614524Y-138202200D01*
X158614524Y-138202200D02*
X158519286Y-138249819D01*
X158519286Y-138249819D02*
X158328810Y-138249819D01*
X158328810Y-138249819D02*
X158233572Y-138202200D01*
X158233572Y-138202200D02*
X158138334Y-138106961D01*
X158138334Y-138106961D02*
X158090715Y-137916485D01*
X158090715Y-137916485D02*
X158090715Y-137583152D01*
X158090715Y-137583152D02*
X158138334Y-137392676D01*
X158138334Y-137392676D02*
X158233572Y-137297438D01*
X158233572Y-137297438D02*
X158328810Y-137249819D01*
X159185953Y-137249819D02*
X159185953Y-138059342D01*
X159185953Y-138059342D02*
X159233572Y-138154580D01*
X159233572Y-138154580D02*
X159281191Y-138202200D01*
X159281191Y-138202200D02*
X159376429Y-138249819D01*
X159376429Y-138249819D02*
X159566905Y-138249819D01*
X159566905Y-138249819D02*
X159662143Y-138202200D01*
X159662143Y-138202200D02*
X159709762Y-138154580D01*
X159709762Y-138154580D02*
X159757381Y-138059342D01*
X159757381Y-138059342D02*
X159757381Y-137249819D01*
X160090715Y-137249819D02*
X160662143Y-137249819D01*
X160376429Y-138249819D02*
X160376429Y-137249819D01*
%TO.C,J5*%
X110156666Y-148249819D02*
X110156666Y-148964104D01*
X110156666Y-148964104D02*
X110109047Y-149106961D01*
X110109047Y-149106961D02*
X110013809Y-149202200D01*
X110013809Y-149202200D02*
X109870952Y-149249819D01*
X109870952Y-149249819D02*
X109775714Y-149249819D01*
X111109047Y-148249819D02*
X110632857Y-148249819D01*
X110632857Y-148249819D02*
X110585238Y-148726009D01*
X110585238Y-148726009D02*
X110632857Y-148678390D01*
X110632857Y-148678390D02*
X110728095Y-148630771D01*
X110728095Y-148630771D02*
X110966190Y-148630771D01*
X110966190Y-148630771D02*
X111061428Y-148678390D01*
X111061428Y-148678390D02*
X111109047Y-148726009D01*
X111109047Y-148726009D02*
X111156666Y-148821247D01*
X111156666Y-148821247D02*
X111156666Y-149059342D01*
X111156666Y-149059342D02*
X111109047Y-149154580D01*
X111109047Y-149154580D02*
X111061428Y-149202200D01*
X111061428Y-149202200D02*
X110966190Y-149249819D01*
X110966190Y-149249819D02*
X110728095Y-149249819D01*
X110728095Y-149249819D02*
X110632857Y-149202200D01*
X110632857Y-149202200D02*
X110585238Y-149154580D01*
X109728095Y-137727438D02*
X109632857Y-137679819D01*
X109632857Y-137679819D02*
X109490000Y-137679819D01*
X109490000Y-137679819D02*
X109347143Y-137727438D01*
X109347143Y-137727438D02*
X109251905Y-137822676D01*
X109251905Y-137822676D02*
X109204286Y-137917914D01*
X109204286Y-137917914D02*
X109156667Y-138108390D01*
X109156667Y-138108390D02*
X109156667Y-138251247D01*
X109156667Y-138251247D02*
X109204286Y-138441723D01*
X109204286Y-138441723D02*
X109251905Y-138536961D01*
X109251905Y-138536961D02*
X109347143Y-138632200D01*
X109347143Y-138632200D02*
X109490000Y-138679819D01*
X109490000Y-138679819D02*
X109585238Y-138679819D01*
X109585238Y-138679819D02*
X109728095Y-138632200D01*
X109728095Y-138632200D02*
X109775714Y-138584580D01*
X109775714Y-138584580D02*
X109775714Y-138251247D01*
X109775714Y-138251247D02*
X109585238Y-138251247D01*
X110204286Y-138679819D02*
X110204286Y-137679819D01*
X110204286Y-137679819D02*
X110775714Y-138679819D01*
X110775714Y-138679819D02*
X110775714Y-137679819D01*
X111251905Y-138679819D02*
X111251905Y-137679819D01*
X111251905Y-137679819D02*
X111490000Y-137679819D01*
X111490000Y-137679819D02*
X111632857Y-137727438D01*
X111632857Y-137727438D02*
X111728095Y-137822676D01*
X111728095Y-137822676D02*
X111775714Y-137917914D01*
X111775714Y-137917914D02*
X111823333Y-138108390D01*
X111823333Y-138108390D02*
X111823333Y-138251247D01*
X111823333Y-138251247D02*
X111775714Y-138441723D01*
X111775714Y-138441723D02*
X111728095Y-138536961D01*
X111728095Y-138536961D02*
X111632857Y-138632200D01*
X111632857Y-138632200D02*
X111490000Y-138679819D01*
X111490000Y-138679819D02*
X111251905Y-138679819D01*
%TO.C,J4*%
X88566666Y-148249819D02*
X88566666Y-148964104D01*
X88566666Y-148964104D02*
X88519047Y-149106961D01*
X88519047Y-149106961D02*
X88423809Y-149202200D01*
X88423809Y-149202200D02*
X88280952Y-149249819D01*
X88280952Y-149249819D02*
X88185714Y-149249819D01*
X89471428Y-148583152D02*
X89471428Y-149249819D01*
X89233333Y-148202200D02*
X88995238Y-148916485D01*
X88995238Y-148916485D02*
X89614285Y-148916485D01*
X88138095Y-137727438D02*
X88042857Y-137679819D01*
X88042857Y-137679819D02*
X87900000Y-137679819D01*
X87900000Y-137679819D02*
X87757143Y-137727438D01*
X87757143Y-137727438D02*
X87661905Y-137822676D01*
X87661905Y-137822676D02*
X87614286Y-137917914D01*
X87614286Y-137917914D02*
X87566667Y-138108390D01*
X87566667Y-138108390D02*
X87566667Y-138251247D01*
X87566667Y-138251247D02*
X87614286Y-138441723D01*
X87614286Y-138441723D02*
X87661905Y-138536961D01*
X87661905Y-138536961D02*
X87757143Y-138632200D01*
X87757143Y-138632200D02*
X87900000Y-138679819D01*
X87900000Y-138679819D02*
X87995238Y-138679819D01*
X87995238Y-138679819D02*
X88138095Y-138632200D01*
X88138095Y-138632200D02*
X88185714Y-138584580D01*
X88185714Y-138584580D02*
X88185714Y-138251247D01*
X88185714Y-138251247D02*
X87995238Y-138251247D01*
X88614286Y-138679819D02*
X88614286Y-137679819D01*
X88614286Y-137679819D02*
X89185714Y-138679819D01*
X89185714Y-138679819D02*
X89185714Y-137679819D01*
X89661905Y-138679819D02*
X89661905Y-137679819D01*
X89661905Y-137679819D02*
X89900000Y-137679819D01*
X89900000Y-137679819D02*
X90042857Y-137727438D01*
X90042857Y-137727438D02*
X90138095Y-137822676D01*
X90138095Y-137822676D02*
X90185714Y-137917914D01*
X90185714Y-137917914D02*
X90233333Y-138108390D01*
X90233333Y-138108390D02*
X90233333Y-138251247D01*
X90233333Y-138251247D02*
X90185714Y-138441723D01*
X90185714Y-138441723D02*
X90138095Y-138536961D01*
X90138095Y-138536961D02*
X90042857Y-138632200D01*
X90042857Y-138632200D02*
X89900000Y-138679819D01*
X89900000Y-138679819D02*
X89661905Y-138679819D01*
%TO.C,J2*%
X131746666Y-148249819D02*
X131746666Y-148964104D01*
X131746666Y-148964104D02*
X131699047Y-149106961D01*
X131699047Y-149106961D02*
X131603809Y-149202200D01*
X131603809Y-149202200D02*
X131460952Y-149249819D01*
X131460952Y-149249819D02*
X131365714Y-149249819D01*
X132175238Y-148345057D02*
X132222857Y-148297438D01*
X132222857Y-148297438D02*
X132318095Y-148249819D01*
X132318095Y-148249819D02*
X132556190Y-148249819D01*
X132556190Y-148249819D02*
X132651428Y-148297438D01*
X132651428Y-148297438D02*
X132699047Y-148345057D01*
X132699047Y-148345057D02*
X132746666Y-148440295D01*
X132746666Y-148440295D02*
X132746666Y-148535533D01*
X132746666Y-148535533D02*
X132699047Y-148678390D01*
X132699047Y-148678390D02*
X132127619Y-149249819D01*
X132127619Y-149249819D02*
X132746666Y-149249819D01*
X127008571Y-137726009D02*
X127341904Y-137726009D01*
X127484761Y-138249819D02*
X127008571Y-138249819D01*
X127008571Y-138249819D02*
X127008571Y-137249819D01*
X127008571Y-137249819D02*
X127484761Y-137249819D01*
X127818095Y-137249819D02*
X128484761Y-138249819D01*
X128484761Y-137249819D02*
X127818095Y-138249819D01*
X128722857Y-137249819D02*
X129294285Y-137249819D01*
X129008571Y-138249819D02*
X129008571Y-137249819D01*
X130341905Y-138202200D02*
X130484762Y-138249819D01*
X130484762Y-138249819D02*
X130722857Y-138249819D01*
X130722857Y-138249819D02*
X130818095Y-138202200D01*
X130818095Y-138202200D02*
X130865714Y-138154580D01*
X130865714Y-138154580D02*
X130913333Y-138059342D01*
X130913333Y-138059342D02*
X130913333Y-137964104D01*
X130913333Y-137964104D02*
X130865714Y-137868866D01*
X130865714Y-137868866D02*
X130818095Y-137821247D01*
X130818095Y-137821247D02*
X130722857Y-137773628D01*
X130722857Y-137773628D02*
X130532381Y-137726009D01*
X130532381Y-137726009D02*
X130437143Y-137678390D01*
X130437143Y-137678390D02*
X130389524Y-137630771D01*
X130389524Y-137630771D02*
X130341905Y-137535533D01*
X130341905Y-137535533D02*
X130341905Y-137440295D01*
X130341905Y-137440295D02*
X130389524Y-137345057D01*
X130389524Y-137345057D02*
X130437143Y-137297438D01*
X130437143Y-137297438D02*
X130532381Y-137249819D01*
X130532381Y-137249819D02*
X130770476Y-137249819D01*
X130770476Y-137249819D02*
X130913333Y-137297438D01*
X131246667Y-137249819D02*
X131484762Y-138249819D01*
X131484762Y-138249819D02*
X131675238Y-137535533D01*
X131675238Y-137535533D02*
X131865714Y-138249819D01*
X131865714Y-138249819D02*
X132103810Y-137249819D01*
X132484762Y-138249819D02*
X132484762Y-137249819D01*
X132818095Y-137249819D02*
X133389523Y-137249819D01*
X133103809Y-138249819D02*
X133103809Y-137249819D01*
X134294285Y-138154580D02*
X134246666Y-138202200D01*
X134246666Y-138202200D02*
X134103809Y-138249819D01*
X134103809Y-138249819D02*
X134008571Y-138249819D01*
X134008571Y-138249819D02*
X133865714Y-138202200D01*
X133865714Y-138202200D02*
X133770476Y-138106961D01*
X133770476Y-138106961D02*
X133722857Y-138011723D01*
X133722857Y-138011723D02*
X133675238Y-137821247D01*
X133675238Y-137821247D02*
X133675238Y-137678390D01*
X133675238Y-137678390D02*
X133722857Y-137487914D01*
X133722857Y-137487914D02*
X133770476Y-137392676D01*
X133770476Y-137392676D02*
X133865714Y-137297438D01*
X133865714Y-137297438D02*
X134008571Y-137249819D01*
X134008571Y-137249819D02*
X134103809Y-137249819D01*
X134103809Y-137249819D02*
X134246666Y-137297438D01*
X134246666Y-137297438D02*
X134294285Y-137345057D01*
X134722857Y-138249819D02*
X134722857Y-137249819D01*
X134722857Y-137726009D02*
X135294285Y-137726009D01*
X135294285Y-138249819D02*
X135294285Y-137249819D01*
X135770476Y-137726009D02*
X136103809Y-137726009D01*
X136246666Y-138249819D02*
X135770476Y-138249819D01*
X135770476Y-138249819D02*
X135770476Y-137249819D01*
X135770476Y-137249819D02*
X136246666Y-137249819D01*
X136627619Y-138202200D02*
X136770476Y-138249819D01*
X136770476Y-138249819D02*
X137008571Y-138249819D01*
X137008571Y-138249819D02*
X137103809Y-138202200D01*
X137103809Y-138202200D02*
X137151428Y-138154580D01*
X137151428Y-138154580D02*
X137199047Y-138059342D01*
X137199047Y-138059342D02*
X137199047Y-137964104D01*
X137199047Y-137964104D02*
X137151428Y-137868866D01*
X137151428Y-137868866D02*
X137103809Y-137821247D01*
X137103809Y-137821247D02*
X137008571Y-137773628D01*
X137008571Y-137773628D02*
X136818095Y-137726009D01*
X136818095Y-137726009D02*
X136722857Y-137678390D01*
X136722857Y-137678390D02*
X136675238Y-137630771D01*
X136675238Y-137630771D02*
X136627619Y-137535533D01*
X136627619Y-137535533D02*
X136627619Y-137440295D01*
X136627619Y-137440295D02*
X136675238Y-137345057D01*
X136675238Y-137345057D02*
X136722857Y-137297438D01*
X136722857Y-137297438D02*
X136818095Y-137249819D01*
X136818095Y-137249819D02*
X137056190Y-137249819D01*
X137056190Y-137249819D02*
X137199047Y-137297438D01*
%TO.C,D4*%
X42441905Y-109214819D02*
X42441905Y-108214819D01*
X42441905Y-108214819D02*
X42680000Y-108214819D01*
X42680000Y-108214819D02*
X42822857Y-108262438D01*
X42822857Y-108262438D02*
X42918095Y-108357676D01*
X42918095Y-108357676D02*
X42965714Y-108452914D01*
X42965714Y-108452914D02*
X43013333Y-108643390D01*
X43013333Y-108643390D02*
X43013333Y-108786247D01*
X43013333Y-108786247D02*
X42965714Y-108976723D01*
X42965714Y-108976723D02*
X42918095Y-109071961D01*
X42918095Y-109071961D02*
X42822857Y-109167200D01*
X42822857Y-109167200D02*
X42680000Y-109214819D01*
X42680000Y-109214819D02*
X42441905Y-109214819D01*
X43870476Y-108548152D02*
X43870476Y-109214819D01*
X43632381Y-108167200D02*
X43394286Y-108881485D01*
X43394286Y-108881485D02*
X44013333Y-108881485D01*
%TO.C,D1*%
X61491905Y-109214819D02*
X61491905Y-108214819D01*
X61491905Y-108214819D02*
X61730000Y-108214819D01*
X61730000Y-108214819D02*
X61872857Y-108262438D01*
X61872857Y-108262438D02*
X61968095Y-108357676D01*
X61968095Y-108357676D02*
X62015714Y-108452914D01*
X62015714Y-108452914D02*
X62063333Y-108643390D01*
X62063333Y-108643390D02*
X62063333Y-108786247D01*
X62063333Y-108786247D02*
X62015714Y-108976723D01*
X62015714Y-108976723D02*
X61968095Y-109071961D01*
X61968095Y-109071961D02*
X61872857Y-109167200D01*
X61872857Y-109167200D02*
X61730000Y-109214819D01*
X61730000Y-109214819D02*
X61491905Y-109214819D01*
X63015714Y-109214819D02*
X62444286Y-109214819D01*
X62730000Y-109214819D02*
X62730000Y-108214819D01*
X62730000Y-108214819D02*
X62634762Y-108357676D01*
X62634762Y-108357676D02*
X62539524Y-108452914D01*
X62539524Y-108452914D02*
X62444286Y-108500533D01*
%TO.C,C8*%
X113900833Y-131804580D02*
X113853214Y-131852200D01*
X113853214Y-131852200D02*
X113710357Y-131899819D01*
X113710357Y-131899819D02*
X113615119Y-131899819D01*
X113615119Y-131899819D02*
X113472262Y-131852200D01*
X113472262Y-131852200D02*
X113377024Y-131756961D01*
X113377024Y-131756961D02*
X113329405Y-131661723D01*
X113329405Y-131661723D02*
X113281786Y-131471247D01*
X113281786Y-131471247D02*
X113281786Y-131328390D01*
X113281786Y-131328390D02*
X113329405Y-131137914D01*
X113329405Y-131137914D02*
X113377024Y-131042676D01*
X113377024Y-131042676D02*
X113472262Y-130947438D01*
X113472262Y-130947438D02*
X113615119Y-130899819D01*
X113615119Y-130899819D02*
X113710357Y-130899819D01*
X113710357Y-130899819D02*
X113853214Y-130947438D01*
X113853214Y-130947438D02*
X113900833Y-130995057D01*
X114472262Y-131328390D02*
X114377024Y-131280771D01*
X114377024Y-131280771D02*
X114329405Y-131233152D01*
X114329405Y-131233152D02*
X114281786Y-131137914D01*
X114281786Y-131137914D02*
X114281786Y-131090295D01*
X114281786Y-131090295D02*
X114329405Y-130995057D01*
X114329405Y-130995057D02*
X114377024Y-130947438D01*
X114377024Y-130947438D02*
X114472262Y-130899819D01*
X114472262Y-130899819D02*
X114662738Y-130899819D01*
X114662738Y-130899819D02*
X114757976Y-130947438D01*
X114757976Y-130947438D02*
X114805595Y-130995057D01*
X114805595Y-130995057D02*
X114853214Y-131090295D01*
X114853214Y-131090295D02*
X114853214Y-131137914D01*
X114853214Y-131137914D02*
X114805595Y-131233152D01*
X114805595Y-131233152D02*
X114757976Y-131280771D01*
X114757976Y-131280771D02*
X114662738Y-131328390D01*
X114662738Y-131328390D02*
X114472262Y-131328390D01*
X114472262Y-131328390D02*
X114377024Y-131376009D01*
X114377024Y-131376009D02*
X114329405Y-131423628D01*
X114329405Y-131423628D02*
X114281786Y-131518866D01*
X114281786Y-131518866D02*
X114281786Y-131709342D01*
X114281786Y-131709342D02*
X114329405Y-131804580D01*
X114329405Y-131804580D02*
X114377024Y-131852200D01*
X114377024Y-131852200D02*
X114472262Y-131899819D01*
X114472262Y-131899819D02*
X114662738Y-131899819D01*
X114662738Y-131899819D02*
X114757976Y-131852200D01*
X114757976Y-131852200D02*
X114805595Y-131804580D01*
X114805595Y-131804580D02*
X114853214Y-131709342D01*
X114853214Y-131709342D02*
X114853214Y-131518866D01*
X114853214Y-131518866D02*
X114805595Y-131423628D01*
X114805595Y-131423628D02*
X114757976Y-131376009D01*
X114757976Y-131376009D02*
X114662738Y-131328390D01*
%TO.C,C7*%
X50633333Y-109804580D02*
X50585714Y-109852200D01*
X50585714Y-109852200D02*
X50442857Y-109899819D01*
X50442857Y-109899819D02*
X50347619Y-109899819D01*
X50347619Y-109899819D02*
X50204762Y-109852200D01*
X50204762Y-109852200D02*
X50109524Y-109756961D01*
X50109524Y-109756961D02*
X50061905Y-109661723D01*
X50061905Y-109661723D02*
X50014286Y-109471247D01*
X50014286Y-109471247D02*
X50014286Y-109328390D01*
X50014286Y-109328390D02*
X50061905Y-109137914D01*
X50061905Y-109137914D02*
X50109524Y-109042676D01*
X50109524Y-109042676D02*
X50204762Y-108947438D01*
X50204762Y-108947438D02*
X50347619Y-108899819D01*
X50347619Y-108899819D02*
X50442857Y-108899819D01*
X50442857Y-108899819D02*
X50585714Y-108947438D01*
X50585714Y-108947438D02*
X50633333Y-108995057D01*
X50966667Y-108899819D02*
X51633333Y-108899819D01*
X51633333Y-108899819D02*
X51204762Y-109899819D01*
%TO.C,C6*%
X102470833Y-131804580D02*
X102423214Y-131852200D01*
X102423214Y-131852200D02*
X102280357Y-131899819D01*
X102280357Y-131899819D02*
X102185119Y-131899819D01*
X102185119Y-131899819D02*
X102042262Y-131852200D01*
X102042262Y-131852200D02*
X101947024Y-131756961D01*
X101947024Y-131756961D02*
X101899405Y-131661723D01*
X101899405Y-131661723D02*
X101851786Y-131471247D01*
X101851786Y-131471247D02*
X101851786Y-131328390D01*
X101851786Y-131328390D02*
X101899405Y-131137914D01*
X101899405Y-131137914D02*
X101947024Y-131042676D01*
X101947024Y-131042676D02*
X102042262Y-130947438D01*
X102042262Y-130947438D02*
X102185119Y-130899819D01*
X102185119Y-130899819D02*
X102280357Y-130899819D01*
X102280357Y-130899819D02*
X102423214Y-130947438D01*
X102423214Y-130947438D02*
X102470833Y-130995057D01*
X103327976Y-130899819D02*
X103137500Y-130899819D01*
X103137500Y-130899819D02*
X103042262Y-130947438D01*
X103042262Y-130947438D02*
X102994643Y-130995057D01*
X102994643Y-130995057D02*
X102899405Y-131137914D01*
X102899405Y-131137914D02*
X102851786Y-131328390D01*
X102851786Y-131328390D02*
X102851786Y-131709342D01*
X102851786Y-131709342D02*
X102899405Y-131804580D01*
X102899405Y-131804580D02*
X102947024Y-131852200D01*
X102947024Y-131852200D02*
X103042262Y-131899819D01*
X103042262Y-131899819D02*
X103232738Y-131899819D01*
X103232738Y-131899819D02*
X103327976Y-131852200D01*
X103327976Y-131852200D02*
X103375595Y-131804580D01*
X103375595Y-131804580D02*
X103423214Y-131709342D01*
X103423214Y-131709342D02*
X103423214Y-131471247D01*
X103423214Y-131471247D02*
X103375595Y-131376009D01*
X103375595Y-131376009D02*
X103327976Y-131328390D01*
X103327976Y-131328390D02*
X103232738Y-131280771D01*
X103232738Y-131280771D02*
X103042262Y-131280771D01*
X103042262Y-131280771D02*
X102947024Y-131328390D01*
X102947024Y-131328390D02*
X102899405Y-131376009D01*
X102899405Y-131376009D02*
X102851786Y-131471247D01*
%TO.C,C5*%
X135088333Y-131804580D02*
X135040714Y-131852200D01*
X135040714Y-131852200D02*
X134897857Y-131899819D01*
X134897857Y-131899819D02*
X134802619Y-131899819D01*
X134802619Y-131899819D02*
X134659762Y-131852200D01*
X134659762Y-131852200D02*
X134564524Y-131756961D01*
X134564524Y-131756961D02*
X134516905Y-131661723D01*
X134516905Y-131661723D02*
X134469286Y-131471247D01*
X134469286Y-131471247D02*
X134469286Y-131328390D01*
X134469286Y-131328390D02*
X134516905Y-131137914D01*
X134516905Y-131137914D02*
X134564524Y-131042676D01*
X134564524Y-131042676D02*
X134659762Y-130947438D01*
X134659762Y-130947438D02*
X134802619Y-130899819D01*
X134802619Y-130899819D02*
X134897857Y-130899819D01*
X134897857Y-130899819D02*
X135040714Y-130947438D01*
X135040714Y-130947438D02*
X135088333Y-130995057D01*
X135993095Y-130899819D02*
X135516905Y-130899819D01*
X135516905Y-130899819D02*
X135469286Y-131376009D01*
X135469286Y-131376009D02*
X135516905Y-131328390D01*
X135516905Y-131328390D02*
X135612143Y-131280771D01*
X135612143Y-131280771D02*
X135850238Y-131280771D01*
X135850238Y-131280771D02*
X135945476Y-131328390D01*
X135945476Y-131328390D02*
X135993095Y-131376009D01*
X135993095Y-131376009D02*
X136040714Y-131471247D01*
X136040714Y-131471247D02*
X136040714Y-131709342D01*
X136040714Y-131709342D02*
X135993095Y-131804580D01*
X135993095Y-131804580D02*
X135945476Y-131852200D01*
X135945476Y-131852200D02*
X135850238Y-131899819D01*
X135850238Y-131899819D02*
X135612143Y-131899819D01*
X135612143Y-131899819D02*
X135516905Y-131852200D01*
X135516905Y-131852200D02*
X135469286Y-131804580D01*
%TO.C,C4*%
X91443333Y-131804580D02*
X91395714Y-131852200D01*
X91395714Y-131852200D02*
X91252857Y-131899819D01*
X91252857Y-131899819D02*
X91157619Y-131899819D01*
X91157619Y-131899819D02*
X91014762Y-131852200D01*
X91014762Y-131852200D02*
X90919524Y-131756961D01*
X90919524Y-131756961D02*
X90871905Y-131661723D01*
X90871905Y-131661723D02*
X90824286Y-131471247D01*
X90824286Y-131471247D02*
X90824286Y-131328390D01*
X90824286Y-131328390D02*
X90871905Y-131137914D01*
X90871905Y-131137914D02*
X90919524Y-131042676D01*
X90919524Y-131042676D02*
X91014762Y-130947438D01*
X91014762Y-130947438D02*
X91157619Y-130899819D01*
X91157619Y-130899819D02*
X91252857Y-130899819D01*
X91252857Y-130899819D02*
X91395714Y-130947438D01*
X91395714Y-130947438D02*
X91443333Y-130995057D01*
X92300476Y-131233152D02*
X92300476Y-131899819D01*
X92062381Y-130852200D02*
X91824286Y-131566485D01*
X91824286Y-131566485D02*
X92443333Y-131566485D01*
%TO.C,C3*%
X124293333Y-131804580D02*
X124245714Y-131852200D01*
X124245714Y-131852200D02*
X124102857Y-131899819D01*
X124102857Y-131899819D02*
X124007619Y-131899819D01*
X124007619Y-131899819D02*
X123864762Y-131852200D01*
X123864762Y-131852200D02*
X123769524Y-131756961D01*
X123769524Y-131756961D02*
X123721905Y-131661723D01*
X123721905Y-131661723D02*
X123674286Y-131471247D01*
X123674286Y-131471247D02*
X123674286Y-131328390D01*
X123674286Y-131328390D02*
X123721905Y-131137914D01*
X123721905Y-131137914D02*
X123769524Y-131042676D01*
X123769524Y-131042676D02*
X123864762Y-130947438D01*
X123864762Y-130947438D02*
X124007619Y-130899819D01*
X124007619Y-130899819D02*
X124102857Y-130899819D01*
X124102857Y-130899819D02*
X124245714Y-130947438D01*
X124245714Y-130947438D02*
X124293333Y-130995057D01*
X124626667Y-130899819D02*
X125245714Y-130899819D01*
X125245714Y-130899819D02*
X124912381Y-131280771D01*
X124912381Y-131280771D02*
X125055238Y-131280771D01*
X125055238Y-131280771D02*
X125150476Y-131328390D01*
X125150476Y-131328390D02*
X125198095Y-131376009D01*
X125198095Y-131376009D02*
X125245714Y-131471247D01*
X125245714Y-131471247D02*
X125245714Y-131709342D01*
X125245714Y-131709342D02*
X125198095Y-131804580D01*
X125198095Y-131804580D02*
X125150476Y-131852200D01*
X125150476Y-131852200D02*
X125055238Y-131899819D01*
X125055238Y-131899819D02*
X124769524Y-131899819D01*
X124769524Y-131899819D02*
X124674286Y-131852200D01*
X124674286Y-131852200D02*
X124626667Y-131804580D01*
%TO.C,C2*%
X80113333Y-131804580D02*
X80065714Y-131852200D01*
X80065714Y-131852200D02*
X79922857Y-131899819D01*
X79922857Y-131899819D02*
X79827619Y-131899819D01*
X79827619Y-131899819D02*
X79684762Y-131852200D01*
X79684762Y-131852200D02*
X79589524Y-131756961D01*
X79589524Y-131756961D02*
X79541905Y-131661723D01*
X79541905Y-131661723D02*
X79494286Y-131471247D01*
X79494286Y-131471247D02*
X79494286Y-131328390D01*
X79494286Y-131328390D02*
X79541905Y-131137914D01*
X79541905Y-131137914D02*
X79589524Y-131042676D01*
X79589524Y-131042676D02*
X79684762Y-130947438D01*
X79684762Y-130947438D02*
X79827619Y-130899819D01*
X79827619Y-130899819D02*
X79922857Y-130899819D01*
X79922857Y-130899819D02*
X80065714Y-130947438D01*
X80065714Y-130947438D02*
X80113333Y-130995057D01*
X80494286Y-130995057D02*
X80541905Y-130947438D01*
X80541905Y-130947438D02*
X80637143Y-130899819D01*
X80637143Y-130899819D02*
X80875238Y-130899819D01*
X80875238Y-130899819D02*
X80970476Y-130947438D01*
X80970476Y-130947438D02*
X81018095Y-130995057D01*
X81018095Y-130995057D02*
X81065714Y-131090295D01*
X81065714Y-131090295D02*
X81065714Y-131185533D01*
X81065714Y-131185533D02*
X81018095Y-131328390D01*
X81018095Y-131328390D02*
X80446667Y-131899819D01*
X80446667Y-131899819D02*
X81065714Y-131899819D01*
%TO.C,C1*%
X70550833Y-112529580D02*
X70503214Y-112577200D01*
X70503214Y-112577200D02*
X70360357Y-112624819D01*
X70360357Y-112624819D02*
X70265119Y-112624819D01*
X70265119Y-112624819D02*
X70122262Y-112577200D01*
X70122262Y-112577200D02*
X70027024Y-112481961D01*
X70027024Y-112481961D02*
X69979405Y-112386723D01*
X69979405Y-112386723D02*
X69931786Y-112196247D01*
X69931786Y-112196247D02*
X69931786Y-112053390D01*
X69931786Y-112053390D02*
X69979405Y-111862914D01*
X69979405Y-111862914D02*
X70027024Y-111767676D01*
X70027024Y-111767676D02*
X70122262Y-111672438D01*
X70122262Y-111672438D02*
X70265119Y-111624819D01*
X70265119Y-111624819D02*
X70360357Y-111624819D01*
X70360357Y-111624819D02*
X70503214Y-111672438D01*
X70503214Y-111672438D02*
X70550833Y-111720057D01*
X71503214Y-112624819D02*
X70931786Y-112624819D01*
X71217500Y-112624819D02*
X71217500Y-111624819D01*
X71217500Y-111624819D02*
X71122262Y-111767676D01*
X71122262Y-111767676D02*
X71027024Y-111862914D01*
X71027024Y-111862914D02*
X70931786Y-111910533D01*
D13*
%TO.C,U1*%
X18670000Y-124905000D02*
X34670000Y-124905000D01*
X34670000Y-124905000D02*
X34670000Y-131635000D01*
X34670000Y-131635000D02*
X18670000Y-131635000D01*
X18670000Y-131635000D02*
X18670000Y-124905000D01*
D14*
%TO.C,D8*%
X122382500Y-133985000D02*
X122382500Y-135315000D01*
X122382500Y-130115000D02*
X119722500Y-130115000D01*
X122382500Y-132715000D02*
X122382500Y-130115000D01*
X122382500Y-132715000D02*
X119722500Y-132715000D01*
X122382500Y-135315000D02*
X121052500Y-135315000D01*
X119722500Y-132715000D02*
X119722500Y-130115000D01*
%TO.C,D7*%
X110952500Y-133985000D02*
X110952500Y-135315000D01*
X110952500Y-130115000D02*
X108292500Y-130115000D01*
X110952500Y-132715000D02*
X110952500Y-130115000D01*
X110952500Y-132715000D02*
X108292500Y-132715000D01*
X110952500Y-135315000D02*
X109622500Y-135315000D01*
X108292500Y-132715000D02*
X108292500Y-130115000D01*
%TO.C,D6*%
X144205000Y-133985000D02*
X144205000Y-135315000D01*
X144205000Y-130115000D02*
X141545000Y-130115000D01*
X144205000Y-132715000D02*
X144205000Y-130115000D01*
X144205000Y-132715000D02*
X141545000Y-132715000D01*
X144205000Y-135315000D02*
X142875000Y-135315000D01*
X141545000Y-132715000D02*
X141545000Y-130115000D01*
%TO.C,D5*%
X99925000Y-133985000D02*
X99925000Y-135315000D01*
X99925000Y-130115000D02*
X97265000Y-130115000D01*
X99925000Y-132715000D02*
X99925000Y-130115000D01*
X99925000Y-132715000D02*
X97265000Y-132715000D01*
X99925000Y-135315000D02*
X98595000Y-135315000D01*
X97265000Y-132715000D02*
X97265000Y-130115000D01*
%TO.C,D3*%
X132775000Y-133985000D02*
X132775000Y-135315000D01*
X132775000Y-130115000D02*
X130115000Y-130115000D01*
X132775000Y-132715000D02*
X132775000Y-130115000D01*
X132775000Y-132715000D02*
X130115000Y-132715000D01*
X132775000Y-135315000D02*
X131445000Y-135315000D01*
X130115000Y-132715000D02*
X130115000Y-130115000D01*
%TO.C,D2*%
X85935000Y-132715000D02*
X85935000Y-130115000D01*
X88595000Y-135315000D02*
X87265000Y-135315000D01*
X88595000Y-132715000D02*
X85935000Y-132715000D01*
X88595000Y-132715000D02*
X88595000Y-130115000D01*
X88595000Y-130115000D02*
X85935000Y-130115000D01*
X88595000Y-133985000D02*
X88595000Y-135315000D01*
%TO.C,U3*%
X79110000Y-104540000D02*
X85120000Y-104540000D01*
X81360000Y-111360000D02*
X85120000Y-111360000D01*
X85120000Y-111360000D02*
X85120000Y-110100000D01*
X85120000Y-104540000D02*
X85120000Y-105800000D01*
D15*
%TO.C,U2*%
X164210000Y-127000000D02*
X101470000Y-127000000D01*
X101470000Y-127000000D02*
X101470000Y-101600000D01*
X101470000Y-101600000D02*
X164210000Y-101600000D01*
X164210000Y-101600000D02*
X164210000Y-127000000D01*
D16*
X102968000Y-128016000D02*
G75*
G03*
X102968000Y-128016000I-100000J0D01*
G01*
%TO.C,J8*%
X41275000Y-124740000D02*
G75*
G03*
X41275000Y-124940000I0J-100000D01*
G01*
X41275000Y-124940000D02*
G75*
G03*
X41275000Y-124740000I0J100000D01*
G01*
X41275000Y-124740000D02*
X41275000Y-124740000D01*
X41275000Y-124940000D02*
X41275000Y-124940000D01*
D13*
X37700000Y-147040000D02*
X37700000Y-126290000D01*
X76600000Y-147040000D02*
X37700000Y-147040000D01*
X76600000Y-126290000D02*
X76600000Y-147040000D01*
X37700000Y-126290000D02*
X76600000Y-126290000D01*
%TO.C,J3*%
X22305000Y-111700000D02*
X22305000Y-111700000D01*
X22305000Y-111700000D02*
X22305000Y-112400000D01*
X22305000Y-112400000D02*
X22305000Y-112400000D01*
X22305000Y-112400000D02*
X22305000Y-111700000D01*
X24605000Y-109300000D02*
X25305000Y-109300000D01*
X25305000Y-109300000D02*
X25305000Y-109300000D01*
X25305000Y-109300000D02*
X24605000Y-109300000D01*
X24605000Y-109300000D02*
X24605000Y-109300000D01*
X29105000Y-109300000D02*
X29805000Y-109300000D01*
X29805000Y-109300000D02*
X29805000Y-109300000D01*
X29805000Y-109300000D02*
X29105000Y-109300000D01*
X29105000Y-109300000D02*
X29105000Y-109300000D01*
X22305000Y-116100000D02*
X22305000Y-116100000D01*
X22305000Y-116100000D02*
X22305000Y-116700000D01*
X22305000Y-116700000D02*
X22305000Y-116700000D01*
X22305000Y-116700000D02*
X22305000Y-116100000D01*
X32305000Y-111700000D02*
X32305000Y-111700000D01*
X32305000Y-111700000D02*
X32305000Y-112300000D01*
X32305000Y-112300000D02*
X32305000Y-112300000D01*
X32305000Y-112300000D02*
X32305000Y-111700000D01*
X32305000Y-116100000D02*
X32305000Y-116100000D01*
X32305000Y-116100000D02*
X32305000Y-116800000D01*
X32305000Y-116800000D02*
X32305000Y-116800000D01*
X32305000Y-116800000D02*
X32305000Y-116100000D01*
X24605000Y-119300000D02*
X25405000Y-119300000D01*
X25405000Y-119300000D02*
X25405000Y-119300000D01*
X25405000Y-119300000D02*
X24605000Y-119300000D01*
X24605000Y-119300000D02*
X24605000Y-119300000D01*
X29105000Y-119300000D02*
X29905000Y-119300000D01*
X29905000Y-119300000D02*
X29905000Y-119300000D01*
X29905000Y-119300000D02*
X29105000Y-119300000D01*
X29105000Y-119300000D02*
X29105000Y-119300000D01*
%TO.C,J1*%
X22295000Y-139640000D02*
X22295000Y-139640000D01*
X22295000Y-139640000D02*
X22295000Y-140340000D01*
X22295000Y-140340000D02*
X22295000Y-140340000D01*
X22295000Y-140340000D02*
X22295000Y-139640000D01*
X24595000Y-137240000D02*
X25295000Y-137240000D01*
X25295000Y-137240000D02*
X25295000Y-137240000D01*
X25295000Y-137240000D02*
X24595000Y-137240000D01*
X24595000Y-137240000D02*
X24595000Y-137240000D01*
X29095000Y-137240000D02*
X29795000Y-137240000D01*
X29795000Y-137240000D02*
X29795000Y-137240000D01*
X29795000Y-137240000D02*
X29095000Y-137240000D01*
X29095000Y-137240000D02*
X29095000Y-137240000D01*
X22295000Y-144040000D02*
X22295000Y-144040000D01*
X22295000Y-144040000D02*
X22295000Y-144640000D01*
X22295000Y-144640000D02*
X22295000Y-144640000D01*
X22295000Y-144640000D02*
X22295000Y-144040000D01*
X32295000Y-139640000D02*
X32295000Y-139640000D01*
X32295000Y-139640000D02*
X32295000Y-140240000D01*
X32295000Y-140240000D02*
X32295000Y-140240000D01*
X32295000Y-140240000D02*
X32295000Y-139640000D01*
X32295000Y-144040000D02*
X32295000Y-144040000D01*
X32295000Y-144040000D02*
X32295000Y-144740000D01*
X32295000Y-144740000D02*
X32295000Y-144740000D01*
X32295000Y-144740000D02*
X32295000Y-144040000D01*
X24595000Y-147240000D02*
X25395000Y-147240000D01*
X25395000Y-147240000D02*
X25395000Y-147240000D01*
X25395000Y-147240000D02*
X24595000Y-147240000D01*
X24595000Y-147240000D02*
X24595000Y-147240000D01*
X29095000Y-147240000D02*
X29895000Y-147240000D01*
X29895000Y-147240000D02*
X29895000Y-147240000D01*
X29895000Y-147240000D02*
X29095000Y-147240000D01*
X29095000Y-147240000D02*
X29095000Y-147240000D01*
D16*
%TO.C,IC2*%
X41635000Y-117765000D02*
X43135000Y-117765000D01*
%TO.C,IC1*%
X60050000Y-117765000D02*
X61550000Y-117765000D01*
D14*
%TO.C,R40*%
X54075000Y-106452936D02*
X54075000Y-106907064D01*
X52605000Y-106452936D02*
X52605000Y-106907064D01*
%TO.C,R39*%
X48995000Y-106452936D02*
X48995000Y-106907064D01*
X47525000Y-106452936D02*
X47525000Y-106907064D01*
%TO.C,R38*%
X117015436Y-133250000D02*
X117469564Y-133250000D01*
X117015436Y-134720000D02*
X117469564Y-134720000D01*
%TO.C,R37*%
X105585436Y-133250000D02*
X106039564Y-133250000D01*
X105585436Y-134720000D02*
X106039564Y-134720000D01*
%TO.C,R36*%
X45185000Y-106907064D02*
X45185000Y-106452936D01*
X43715000Y-106907064D02*
X43715000Y-106452936D01*
%TO.C,R35*%
X138202936Y-133250000D02*
X138657064Y-133250000D01*
X138202936Y-134720000D02*
X138657064Y-134720000D01*
%TO.C,R34*%
X94557936Y-133250000D02*
X95012064Y-133250000D01*
X94557936Y-134720000D02*
X95012064Y-134720000D01*
%TO.C,R33*%
X38635000Y-106907064D02*
X38635000Y-106452936D01*
X40105000Y-106907064D02*
X40105000Y-106452936D01*
%TO.C,R32*%
X134720000Y-107087936D02*
X134720000Y-107542064D01*
X133250000Y-107087936D02*
X133250000Y-107542064D01*
%TO.C,R31*%
X130910000Y-107087936D02*
X130910000Y-107542064D01*
X129440000Y-107087936D02*
X129440000Y-107542064D01*
%TO.C,R30*%
X125630000Y-107087936D02*
X125630000Y-107542064D01*
X127100000Y-107087936D02*
X127100000Y-107542064D01*
%TO.C,R29*%
X123290000Y-107087936D02*
X123290000Y-107542064D01*
X121820000Y-107087936D02*
X121820000Y-107542064D01*
%TO.C,R28*%
X139165000Y-107087936D02*
X139165000Y-107542064D01*
X137695000Y-107087936D02*
X137695000Y-107542064D01*
%TO.C,R27*%
X135155000Y-122147064D02*
X135155000Y-121692936D01*
X136625000Y-122147064D02*
X136625000Y-121692936D01*
%TO.C,R26*%
X144245000Y-107087936D02*
X144245000Y-107542064D01*
X142775000Y-107087936D02*
X142775000Y-107542064D01*
%TO.C,R25*%
X121185000Y-122147064D02*
X121185000Y-121692936D01*
X122655000Y-122147064D02*
X122655000Y-121692936D01*
%TO.C,R24*%
X124995000Y-122147064D02*
X124995000Y-121692936D01*
X126465000Y-122147064D02*
X126465000Y-121692936D01*
%TO.C,R23*%
X128805000Y-122147064D02*
X128805000Y-121692936D01*
X130275000Y-122147064D02*
X130275000Y-121692936D01*
%TO.C,R22*%
X148055000Y-107087936D02*
X148055000Y-107542064D01*
X146585000Y-107087936D02*
X146585000Y-107542064D01*
%TO.C,R21*%
X127407936Y-133250000D02*
X127862064Y-133250000D01*
X127407936Y-134720000D02*
X127862064Y-134720000D01*
%TO.C,R20*%
X83227936Y-134720000D02*
X83682064Y-134720000D01*
X83227936Y-133250000D02*
X83682064Y-133250000D01*
%TO.C,R19*%
X148452064Y-132545000D02*
X147997936Y-132545000D01*
X148452064Y-131075000D02*
X147997936Y-131075000D01*
%TO.C,R18*%
X152500000Y-130312936D02*
X152500000Y-130767064D01*
X151030000Y-130312936D02*
X151030000Y-130767064D01*
%TO.C,R17*%
X152500000Y-134122936D02*
X152500000Y-134577064D01*
X151030000Y-134122936D02*
X151030000Y-134577064D01*
%TO.C,R16*%
X155077936Y-131075000D02*
X155532064Y-131075000D01*
X155077936Y-132545000D02*
X155532064Y-132545000D01*
%TO.C,R15*%
X160120000Y-130312936D02*
X160120000Y-130767064D01*
X158650000Y-130312936D02*
X158650000Y-130767064D01*
%TO.C,R14*%
X160120000Y-134122936D02*
X160120000Y-134577064D01*
X158650000Y-134122936D02*
X158650000Y-134577064D01*
%TO.C,R13*%
X163237936Y-131075000D02*
X163692064Y-131075000D01*
X163237936Y-132545000D02*
X163692064Y-132545000D01*
%TO.C,R12*%
X167740000Y-130312936D02*
X167740000Y-130767064D01*
X166270000Y-130312936D02*
X166270000Y-130767064D01*
%TO.C,R11*%
X167740000Y-134122936D02*
X167740000Y-134577064D01*
X166270000Y-134122936D02*
X166270000Y-134577064D01*
%TO.C,R10*%
X170587936Y-131075000D02*
X171042064Y-131075000D01*
X170587936Y-132545000D02*
X171042064Y-132545000D01*
%TO.C,R9*%
X175360000Y-130312936D02*
X175360000Y-130767064D01*
X173890000Y-130312936D02*
X173890000Y-130767064D01*
%TO.C,R8*%
X175360000Y-134122936D02*
X175360000Y-134577064D01*
X173890000Y-134122936D02*
X173890000Y-134577064D01*
%TO.C,R7*%
X68680000Y-106452936D02*
X68680000Y-106907064D01*
X67210000Y-106452936D02*
X67210000Y-106907064D01*
%TO.C,R6*%
X63400000Y-106907064D02*
X63400000Y-106452936D01*
X64870000Y-106907064D02*
X64870000Y-106452936D01*
%TO.C,R5*%
X73760000Y-106452936D02*
X73760000Y-106907064D01*
X72290000Y-106452936D02*
X72290000Y-106907064D01*
%TO.C,R4*%
X58955000Y-106907064D02*
X58955000Y-106452936D01*
X60425000Y-106907064D02*
X60425000Y-106452936D01*
%TO.C,R3*%
X94597064Y-108955000D02*
X94142936Y-108955000D01*
X94597064Y-107485000D02*
X94142936Y-107485000D01*
%TO.C,R2*%
X90095000Y-110987064D02*
X90095000Y-110532936D01*
X91565000Y-110987064D02*
X91565000Y-110532936D01*
%TO.C,R1*%
X90095000Y-105907064D02*
X90095000Y-105452936D01*
X91565000Y-105907064D02*
X91565000Y-105452936D01*
%TO.C,J7*%
X168664000Y-142485000D02*
X168724000Y-142425000D01*
X173970000Y-147735000D02*
X171470000Y-147735000D01*
X166729000Y-144420000D02*
X166769000Y-144380000D01*
X171809000Y-144420000D02*
X171849000Y-144380000D01*
X179050000Y-147735000D02*
X176550000Y-147735000D01*
X171635000Y-144245000D02*
X171695000Y-144186000D01*
X185480000Y-139225000D02*
X165040000Y-139225000D01*
X178670000Y-142290000D02*
X178710000Y-142250000D01*
X171470000Y-147735000D02*
X171470000Y-146735000D01*
X168510000Y-142290000D02*
X168550000Y-142250000D01*
X185480000Y-139785000D02*
X165040000Y-139785000D01*
X173970000Y-147735000D02*
X173970000Y-146735000D01*
X176715000Y-144245000D02*
X176775000Y-144186000D01*
X168890000Y-147735000D02*
X166390000Y-147735000D01*
X181630000Y-147735000D02*
X181630000Y-146735000D01*
X184130000Y-147735000D02*
X181630000Y-147735000D01*
X166390000Y-147735000D02*
X166390000Y-146735000D01*
X185480000Y-147795000D02*
X165040000Y-147795000D01*
X176550000Y-147735000D02*
X176550000Y-146735000D01*
X165040000Y-147795000D02*
X165040000Y-139225000D01*
X179050000Y-146735000D02*
X176550000Y-146735000D01*
X185480000Y-140885000D02*
X165040000Y-140885000D01*
X185480000Y-145885000D02*
X165040000Y-145885000D01*
X173970000Y-146735000D02*
X171470000Y-146735000D01*
X168890000Y-146735000D02*
X166390000Y-146735000D01*
X185480000Y-147795000D02*
X185480000Y-139225000D01*
X176889000Y-144420000D02*
X176929000Y-144380000D01*
X166555000Y-144245000D02*
X166615000Y-144186000D01*
X168890000Y-147735000D02*
X168890000Y-146735000D01*
X173590000Y-142290000D02*
X173630000Y-142250000D01*
X184130000Y-146735000D02*
X181630000Y-146735000D01*
X185720000Y-139725000D02*
X185720000Y-138985000D01*
X179050000Y-147735000D02*
X179050000Y-146735000D01*
X185720000Y-138985000D02*
X185220000Y-138985000D01*
X173744000Y-142485000D02*
X173804000Y-142425000D01*
X178824000Y-142485000D02*
X178884000Y-142425000D01*
X184130000Y-147735000D02*
X184130000Y-146735000D01*
X182253000Y-144620999D02*
G75*
G03*
X183507362Y-144620823I627000J1286009D01*
G01*
X182880000Y-141905000D02*
G75*
G03*
X182253129Y-142049725I1J-1430001D01*
G01*
X184166000Y-143963000D02*
G75*
G03*
X184166611Y-142708254I-1285999J627999D01*
G01*
X183507999Y-142049001D02*
G75*
G03*
X182855720Y-141904061I-627999J-1285999D01*
G01*
X181594001Y-142708001D02*
G75*
G03*
X181594178Y-143962362I1286005J-626999D01*
G01*
X179230000Y-143335000D02*
G75*
G03*
X179230000Y-143335000I-1430000J0D01*
G01*
X169070000Y-143335000D02*
G75*
G03*
X169070000Y-143335000I-1430000J0D01*
G01*
X174150000Y-143335000D02*
G75*
G03*
X174150000Y-143335000I-1430000J0D01*
G01*
%TO.C,J6*%
X147074000Y-142485000D02*
X147134000Y-142425000D01*
X152380000Y-147735000D02*
X149880000Y-147735000D01*
X145139000Y-144420000D02*
X145179000Y-144380000D01*
X150219000Y-144420000D02*
X150259000Y-144380000D01*
X157460000Y-147735000D02*
X154960000Y-147735000D01*
X150045000Y-144245000D02*
X150105000Y-144186000D01*
X163890000Y-139225000D02*
X143450000Y-139225000D01*
X157080000Y-142290000D02*
X157120000Y-142250000D01*
X149880000Y-147735000D02*
X149880000Y-146735000D01*
X146920000Y-142290000D02*
X146960000Y-142250000D01*
X163890000Y-139785000D02*
X143450000Y-139785000D01*
X152380000Y-147735000D02*
X152380000Y-146735000D01*
X155125000Y-144245000D02*
X155185000Y-144186000D01*
X147300000Y-147735000D02*
X144800000Y-147735000D01*
X160040000Y-147735000D02*
X160040000Y-146735000D01*
X162540000Y-147735000D02*
X160040000Y-147735000D01*
X144800000Y-147735000D02*
X144800000Y-146735000D01*
X163890000Y-147795000D02*
X143450000Y-147795000D01*
X154960000Y-147735000D02*
X154960000Y-146735000D01*
X143450000Y-147795000D02*
X143450000Y-139225000D01*
X157460000Y-146735000D02*
X154960000Y-146735000D01*
X163890000Y-140885000D02*
X143450000Y-140885000D01*
X163890000Y-145885000D02*
X143450000Y-145885000D01*
X152380000Y-146735000D02*
X149880000Y-146735000D01*
X147300000Y-146735000D02*
X144800000Y-146735000D01*
X163890000Y-147795000D02*
X163890000Y-139225000D01*
X155299000Y-144420000D02*
X155339000Y-144380000D01*
X144965000Y-144245000D02*
X145025000Y-144186000D01*
X147300000Y-147735000D02*
X147300000Y-146735000D01*
X152000000Y-142290000D02*
X152040000Y-142250000D01*
X162540000Y-146735000D02*
X160040000Y-146735000D01*
X164130000Y-139725000D02*
X164130000Y-138985000D01*
X157460000Y-147735000D02*
X157460000Y-146735000D01*
X164130000Y-138985000D02*
X163630000Y-138985000D01*
X152154000Y-142485000D02*
X152214000Y-142425000D01*
X157234000Y-142485000D02*
X157294000Y-142425000D01*
X162540000Y-147735000D02*
X162540000Y-146735000D01*
X160663000Y-144620999D02*
G75*
G03*
X161917362Y-144620823I627000J1286009D01*
G01*
X161290000Y-141905000D02*
G75*
G03*
X160663129Y-142049725I1J-1430001D01*
G01*
X162576000Y-143963000D02*
G75*
G03*
X162576611Y-142708254I-1285999J627999D01*
G01*
X161917999Y-142049001D02*
G75*
G03*
X161265720Y-141904061I-627999J-1285999D01*
G01*
X160004001Y-142708001D02*
G75*
G03*
X160004178Y-143962362I1286005J-626999D01*
G01*
X157640000Y-143335000D02*
G75*
G03*
X157640000Y-143335000I-1430000J0D01*
G01*
X147480000Y-143335000D02*
G75*
G03*
X147480000Y-143335000I-1430000J0D01*
G01*
X152560000Y-143335000D02*
G75*
G03*
X152560000Y-143335000I-1430000J0D01*
G01*
%TO.C,J5*%
X103894000Y-142485000D02*
X103954000Y-142425000D01*
X109200000Y-147735000D02*
X106700000Y-147735000D01*
X101959000Y-144420000D02*
X101999000Y-144380000D01*
X107039000Y-144420000D02*
X107079000Y-144380000D01*
X114280000Y-147735000D02*
X111780000Y-147735000D01*
X106865000Y-144245000D02*
X106925000Y-144186000D01*
X120710000Y-139225000D02*
X100270000Y-139225000D01*
X113900000Y-142290000D02*
X113940000Y-142250000D01*
X106700000Y-147735000D02*
X106700000Y-146735000D01*
X103740000Y-142290000D02*
X103780000Y-142250000D01*
X120710000Y-139785000D02*
X100270000Y-139785000D01*
X109200000Y-147735000D02*
X109200000Y-146735000D01*
X111945000Y-144245000D02*
X112005000Y-144186000D01*
X104120000Y-147735000D02*
X101620000Y-147735000D01*
X116860000Y-147735000D02*
X116860000Y-146735000D01*
X119360000Y-147735000D02*
X116860000Y-147735000D01*
X101620000Y-147735000D02*
X101620000Y-146735000D01*
X120710000Y-147795000D02*
X100270000Y-147795000D01*
X111780000Y-147735000D02*
X111780000Y-146735000D01*
X100270000Y-147795000D02*
X100270000Y-139225000D01*
X114280000Y-146735000D02*
X111780000Y-146735000D01*
X120710000Y-140885000D02*
X100270000Y-140885000D01*
X120710000Y-145885000D02*
X100270000Y-145885000D01*
X109200000Y-146735000D02*
X106700000Y-146735000D01*
X104120000Y-146735000D02*
X101620000Y-146735000D01*
X120710000Y-147795000D02*
X120710000Y-139225000D01*
X112119000Y-144420000D02*
X112159000Y-144380000D01*
X101785000Y-144245000D02*
X101845000Y-144186000D01*
X104120000Y-147735000D02*
X104120000Y-146735000D01*
X108820000Y-142290000D02*
X108860000Y-142250000D01*
X119360000Y-146735000D02*
X116860000Y-146735000D01*
X120950000Y-139725000D02*
X120950000Y-138985000D01*
X114280000Y-147735000D02*
X114280000Y-146735000D01*
X120950000Y-138985000D02*
X120450000Y-138985000D01*
X108974000Y-142485000D02*
X109034000Y-142425000D01*
X114054000Y-142485000D02*
X114114000Y-142425000D01*
X119360000Y-147735000D02*
X119360000Y-146735000D01*
X117483000Y-144620999D02*
G75*
G03*
X118737362Y-144620823I627000J1286009D01*
G01*
X118110000Y-141905000D02*
G75*
G03*
X117483129Y-142049725I1J-1430001D01*
G01*
X119396000Y-143963000D02*
G75*
G03*
X119396611Y-142708254I-1285999J627999D01*
G01*
X118737999Y-142049001D02*
G75*
G03*
X118085720Y-141904061I-627999J-1285999D01*
G01*
X116824001Y-142708001D02*
G75*
G03*
X116824178Y-143962362I1286005J-626999D01*
G01*
X114460000Y-143335000D02*
G75*
G03*
X114460000Y-143335000I-1430000J0D01*
G01*
X104300000Y-143335000D02*
G75*
G03*
X104300000Y-143335000I-1430000J0D01*
G01*
X109380000Y-143335000D02*
G75*
G03*
X109380000Y-143335000I-1430000J0D01*
G01*
%TO.C,J4*%
X82304000Y-142485000D02*
X82364000Y-142425000D01*
X87610000Y-147735000D02*
X85110000Y-147735000D01*
X80369000Y-144420000D02*
X80409000Y-144380000D01*
X85449000Y-144420000D02*
X85489000Y-144380000D01*
X92690000Y-147735000D02*
X90190000Y-147735000D01*
X85275000Y-144245000D02*
X85335000Y-144186000D01*
X99120000Y-139225000D02*
X78680000Y-139225000D01*
X92310000Y-142290000D02*
X92350000Y-142250000D01*
X85110000Y-147735000D02*
X85110000Y-146735000D01*
X82150000Y-142290000D02*
X82190000Y-142250000D01*
X99120000Y-139785000D02*
X78680000Y-139785000D01*
X87610000Y-147735000D02*
X87610000Y-146735000D01*
X90355000Y-144245000D02*
X90415000Y-144186000D01*
X82530000Y-147735000D02*
X80030000Y-147735000D01*
X95270000Y-147735000D02*
X95270000Y-146735000D01*
X97770000Y-147735000D02*
X95270000Y-147735000D01*
X80030000Y-147735000D02*
X80030000Y-146735000D01*
X99120000Y-147795000D02*
X78680000Y-147795000D01*
X90190000Y-147735000D02*
X90190000Y-146735000D01*
X78680000Y-147795000D02*
X78680000Y-139225000D01*
X92690000Y-146735000D02*
X90190000Y-146735000D01*
X99120000Y-140885000D02*
X78680000Y-140885000D01*
X99120000Y-145885000D02*
X78680000Y-145885000D01*
X87610000Y-146735000D02*
X85110000Y-146735000D01*
X82530000Y-146735000D02*
X80030000Y-146735000D01*
X99120000Y-147795000D02*
X99120000Y-139225000D01*
X90529000Y-144420000D02*
X90569000Y-144380000D01*
X80195000Y-144245000D02*
X80255000Y-144186000D01*
X82530000Y-147735000D02*
X82530000Y-146735000D01*
X87230000Y-142290000D02*
X87270000Y-142250000D01*
X97770000Y-146735000D02*
X95270000Y-146735000D01*
X99360000Y-139725000D02*
X99360000Y-138985000D01*
X92690000Y-147735000D02*
X92690000Y-146735000D01*
X99360000Y-138985000D02*
X98860000Y-138985000D01*
X87384000Y-142485000D02*
X87444000Y-142425000D01*
X92464000Y-142485000D02*
X92524000Y-142425000D01*
X97770000Y-147735000D02*
X97770000Y-146735000D01*
X95893000Y-144620999D02*
G75*
G03*
X97147362Y-144620823I627000J1286009D01*
G01*
X96520000Y-141905000D02*
G75*
G03*
X95893129Y-142049725I1J-1430001D01*
G01*
X97806000Y-143963000D02*
G75*
G03*
X97806611Y-142708254I-1285999J627999D01*
G01*
X97147999Y-142049001D02*
G75*
G03*
X96495720Y-141904061I-627999J-1285999D01*
G01*
X95234001Y-142708001D02*
G75*
G03*
X95234178Y-143962362I1286005J-626999D01*
G01*
X92870000Y-143335000D02*
G75*
G03*
X92870000Y-143335000I-1430000J0D01*
G01*
X82710000Y-143335000D02*
G75*
G03*
X82710000Y-143335000I-1430000J0D01*
G01*
X87790000Y-143335000D02*
G75*
G03*
X87790000Y-143335000I-1430000J0D01*
G01*
%TO.C,J2*%
X125484000Y-142485000D02*
X125544000Y-142425000D01*
X130790000Y-147735000D02*
X128290000Y-147735000D01*
X123549000Y-144420000D02*
X123589000Y-144380000D01*
X128629000Y-144420000D02*
X128669000Y-144380000D01*
X135870000Y-147735000D02*
X133370000Y-147735000D01*
X128455000Y-144245000D02*
X128515000Y-144186000D01*
X142300000Y-139225000D02*
X121860000Y-139225000D01*
X135490000Y-142290000D02*
X135530000Y-142250000D01*
X128290000Y-147735000D02*
X128290000Y-146735000D01*
X125330000Y-142290000D02*
X125370000Y-142250000D01*
X142300000Y-139785000D02*
X121860000Y-139785000D01*
X130790000Y-147735000D02*
X130790000Y-146735000D01*
X133535000Y-144245000D02*
X133595000Y-144186000D01*
X125710000Y-147735000D02*
X123210000Y-147735000D01*
X138450000Y-147735000D02*
X138450000Y-146735000D01*
X140950000Y-147735000D02*
X138450000Y-147735000D01*
X123210000Y-147735000D02*
X123210000Y-146735000D01*
X142300000Y-147795000D02*
X121860000Y-147795000D01*
X133370000Y-147735000D02*
X133370000Y-146735000D01*
X121860000Y-147795000D02*
X121860000Y-139225000D01*
X135870000Y-146735000D02*
X133370000Y-146735000D01*
X142300000Y-140885000D02*
X121860000Y-140885000D01*
X142300000Y-145885000D02*
X121860000Y-145885000D01*
X130790000Y-146735000D02*
X128290000Y-146735000D01*
X125710000Y-146735000D02*
X123210000Y-146735000D01*
X142300000Y-147795000D02*
X142300000Y-139225000D01*
X133709000Y-144420000D02*
X133749000Y-144380000D01*
X123375000Y-144245000D02*
X123435000Y-144186000D01*
X125710000Y-147735000D02*
X125710000Y-146735000D01*
X130410000Y-142290000D02*
X130450000Y-142250000D01*
X140950000Y-146735000D02*
X138450000Y-146735000D01*
X142540000Y-139725000D02*
X142540000Y-138985000D01*
X135870000Y-147735000D02*
X135870000Y-146735000D01*
X142540000Y-138985000D02*
X142040000Y-138985000D01*
X130564000Y-142485000D02*
X130624000Y-142425000D01*
X135644000Y-142485000D02*
X135704000Y-142425000D01*
X140950000Y-147735000D02*
X140950000Y-146735000D01*
X139073000Y-144620999D02*
G75*
G03*
X140327362Y-144620823I627000J1286009D01*
G01*
X139700000Y-141905000D02*
G75*
G03*
X139073129Y-142049725I1J-1430001D01*
G01*
X140986000Y-143963000D02*
G75*
G03*
X140986611Y-142708254I-1285999J627999D01*
G01*
X140327999Y-142049001D02*
G75*
G03*
X139675720Y-141904061I-627999J-1285999D01*
G01*
X138414001Y-142708001D02*
G75*
G03*
X138414178Y-143962362I1286005J-626999D01*
G01*
X136050000Y-143335000D02*
G75*
G03*
X136050000Y-143335000I-1430000J0D01*
G01*
X125890000Y-143335000D02*
G75*
G03*
X125890000Y-143335000I-1430000J0D01*
G01*
X130970000Y-143335000D02*
G75*
G03*
X130970000Y-143335000I-1430000J0D01*
G01*
%TO.C,D4*%
X38220000Y-109610000D02*
X45880000Y-109610000D01*
X38220000Y-109610000D02*
X38220000Y-113910000D01*
X38220000Y-113910000D02*
X45880000Y-113910000D01*
%TO.C,D1*%
X57270000Y-109610000D02*
X64930000Y-109610000D01*
X57270000Y-109610000D02*
X57270000Y-113910000D01*
X57270000Y-113910000D02*
X64930000Y-113910000D01*
%TO.C,C8*%
X117503752Y-132180000D02*
X116981248Y-132180000D01*
X117503752Y-130710000D02*
X116981248Y-130710000D01*
%TO.C,C7*%
X50538748Y-110390000D02*
X51061252Y-110390000D01*
X50538748Y-111860000D02*
X51061252Y-111860000D01*
%TO.C,C6*%
X106073752Y-132180000D02*
X105551248Y-132180000D01*
X106073752Y-130710000D02*
X105551248Y-130710000D01*
%TO.C,C5*%
X138691252Y-132180000D02*
X138168748Y-132180000D01*
X138691252Y-130710000D02*
X138168748Y-130710000D01*
%TO.C,C4*%
X95046252Y-132180000D02*
X94523748Y-132180000D01*
X95046252Y-130710000D02*
X94523748Y-130710000D01*
%TO.C,C3*%
X127896252Y-132180000D02*
X127373748Y-132180000D01*
X127896252Y-130710000D02*
X127373748Y-130710000D01*
%TO.C,C2*%
X83716252Y-130710000D02*
X83193748Y-130710000D01*
X83716252Y-132180000D02*
X83193748Y-132180000D01*
%TO.C,C1*%
X70978752Y-111225000D02*
X70456248Y-111225000D01*
X70978752Y-109755000D02*
X70456248Y-109755000D01*
%TD*%
M02*
