%TF.GenerationSoftware,KiCad,Pcbnew,7.0.5*%
%TF.CreationDate,2023-07-11T20:53:32+10:00*%
%TF.ProjectId,BCM-ESP32-S3,42434d2d-4553-4503-9332-2d53332e6b69,rev?*%
%TF.SameCoordinates,Original*%
%TF.FileFunction,Soldermask,Top*%
%TF.FilePolarity,Negative*%
%FSLAX46Y46*%
G04 Gerber Fmt 4.6, Leading zero omitted, Abs format (unit mm)*
G04 Created by KiCad (PCBNEW 7.0.5) date 2023-07-11 20:53:32*
%MOMM*%
%LPD*%
G01*
G04 APERTURE LIST*
G04 Aperture macros list*
%AMRoundRect*
0 Rectangle with rounded corners*
0 $1 Rounding radius*
0 $2 $3 $4 $5 $6 $7 $8 $9 X,Y pos of 4 corners*
0 Add a 4 corners polygon primitive as box body*
4,1,4,$2,$3,$4,$5,$6,$7,$8,$9,$2,$3,0*
0 Add four circle primitives for the rounded corners*
1,1,$1+$1,$2,$3*
1,1,$1+$1,$4,$5*
1,1,$1+$1,$6,$7*
1,1,$1+$1,$8,$9*
0 Add four rect primitives between the rounded corners*
20,1,$1+$1,$2,$3,$4,$5,0*
20,1,$1+$1,$4,$5,$6,$7,0*
20,1,$1+$1,$6,$7,$8,$9,0*
20,1,$1+$1,$8,$9,$2,$3,0*%
%AMOutline4P*
0 Free polygon, 4 corners , with rotation*
0 The origin of the aperture is its center*
0 number of corners: always 4*
0 $1 to $8 corner X, Y*
0 $9 Rotation angle, in degrees counterclockwise*
0 create outline with 4 corners*
4,1,4,$1,$2,$3,$4,$5,$6,$7,$8,$1,$2,$9*%
G04 Aperture macros list end*
%ADD10C,2.400000*%
%ADD11R,1.700000X1.700000*%
%ADD12O,1.700000X1.700000*%
%ADD13R,2.000000X1.500000*%
%ADD14R,2.000000X3.800000*%
%ADD15C,1.530000*%
%ADD16R,1.530000X1.530000*%
%ADD17C,2.550000*%
%ADD18C,2.775000*%
%ADD19R,2.800000X3.910000*%
%ADD20R,1.500000X0.300000*%
%ADD21RoundRect,0.250000X-0.450000X0.350000X-0.450000X-0.350000X0.450000X-0.350000X0.450000X0.350000X0*%
%ADD22RoundRect,0.250000X-0.350000X-0.450000X0.350000X-0.450000X0.350000X0.450000X-0.350000X0.450000X0*%
%ADD23RoundRect,0.250000X0.450000X-0.350000X0.450000X0.350000X-0.450000X0.350000X-0.450000X-0.350000X0*%
%ADD24RoundRect,0.250000X0.350000X0.450000X-0.350000X0.450000X-0.350000X-0.450000X0.350000X-0.450000X0*%
%ADD25R,2.100000X2.100000*%
%ADD26C,2.100000*%
%ADD27Outline4P,-1.800000X-1.150000X1.800000X-0.550000X1.800000X0.550000X-1.800000X1.150000X0.000000*%
%ADD28Outline4P,-1.800000X-1.150000X1.800000X-0.550000X1.800000X0.550000X-1.800000X1.150000X180.000000*%
%ADD29RoundRect,0.250000X0.337500X0.475000X-0.337500X0.475000X-0.337500X-0.475000X0.337500X-0.475000X0*%
%ADD30RoundRect,0.250000X-0.337500X-0.475000X0.337500X-0.475000X0.337500X0.475000X-0.337500X0.475000X0*%
G04 APERTURE END LIST*
D10*
%TO.C,U1*%
X21710000Y-129970000D03*
X21710000Y-126570000D03*
X31630000Y-129970000D03*
X31630000Y-126570000D03*
%TD*%
D11*
%TO.C,D8*%
X121052500Y-133985000D03*
D12*
X121052500Y-131445000D03*
%TD*%
D11*
%TO.C,D7*%
X109622500Y-133985000D03*
D12*
X109622500Y-131445000D03*
%TD*%
D11*
%TO.C,D6*%
X142875000Y-133985000D03*
D12*
X142875000Y-131445000D03*
%TD*%
D11*
%TO.C,D5*%
X98595000Y-133985000D03*
D12*
X98595000Y-131445000D03*
%TD*%
D11*
%TO.C,D3*%
X131445000Y-133985000D03*
D12*
X131445000Y-131445000D03*
%TD*%
%TO.C,D2*%
X87265000Y-131445000D03*
D11*
X87265000Y-133985000D03*
%TD*%
D13*
%TO.C,U3*%
X80060000Y-105650000D03*
D14*
X86360000Y-107950000D03*
D13*
X80060000Y-107950000D03*
X80060000Y-110250000D03*
%TD*%
D15*
%TO.C,U2*%
X156210000Y-125730000D03*
X156210000Y-102870000D03*
X153670000Y-125730000D03*
X151130000Y-125730000D03*
X148590000Y-125730000D03*
X146050000Y-125730000D03*
X143510000Y-125730000D03*
X140970000Y-125730000D03*
X138430000Y-125730000D03*
X135890000Y-125730000D03*
X133350000Y-125730000D03*
X130810000Y-125730000D03*
X128270000Y-125730000D03*
X125730000Y-125730000D03*
X123190000Y-125730000D03*
X120650000Y-125730000D03*
X118110000Y-125730000D03*
X115570000Y-125730000D03*
X113030000Y-125730000D03*
X110490000Y-125730000D03*
X107950000Y-125730000D03*
X105410000Y-125730000D03*
D16*
X102870000Y-125730000D03*
D15*
X153670000Y-102870000D03*
X151130000Y-102870000D03*
X148590000Y-102870000D03*
X146050000Y-102870000D03*
X143510000Y-102870000D03*
X140970000Y-102870000D03*
X138430000Y-102870000D03*
X135890000Y-102870000D03*
X133350000Y-102870000D03*
X130810000Y-102870000D03*
X128270000Y-102870000D03*
X125730000Y-102870000D03*
X123190000Y-102870000D03*
X120650000Y-102870000D03*
X118110000Y-102870000D03*
X115570000Y-102870000D03*
X113030000Y-102870000D03*
X110490000Y-102870000D03*
X107950000Y-102870000D03*
X105410000Y-102870000D03*
X102870000Y-102870000D03*
%TD*%
D17*
%TO.C,J8*%
X73025000Y-138440000D03*
X66675000Y-128940000D03*
X60325000Y-138440000D03*
X53975000Y-128940000D03*
X47625000Y-138440000D03*
X41275000Y-128940000D03*
%TD*%
D18*
%TO.C,J3*%
X22870000Y-109865000D03*
X27305000Y-109865000D03*
X31740000Y-109865000D03*
X22870000Y-114300000D03*
X27305000Y-114300000D03*
X31740000Y-114300000D03*
X22870000Y-118735000D03*
X27305000Y-118735000D03*
X31740000Y-118735000D03*
%TD*%
%TO.C,J1*%
X22860000Y-137805000D03*
X27295000Y-137805000D03*
X31730000Y-137805000D03*
X22860000Y-142240000D03*
X27295000Y-142240000D03*
X31730000Y-142240000D03*
X22860000Y-146675000D03*
X27295000Y-146675000D03*
X31730000Y-146675000D03*
%TD*%
D19*
%TO.C,IC2*%
X45085000Y-120015000D03*
D20*
X47785000Y-118265000D03*
X47785000Y-118765000D03*
X47785000Y-119265000D03*
X47785000Y-119765000D03*
X47785000Y-120265000D03*
X47785000Y-120765000D03*
X47785000Y-121265000D03*
X47785000Y-121765000D03*
X42385000Y-121765000D03*
X42385000Y-121265000D03*
X42385000Y-120765000D03*
X42385000Y-120265000D03*
X42385000Y-119765000D03*
X42385000Y-119265000D03*
X42385000Y-118765000D03*
X42385000Y-118265000D03*
%TD*%
%TO.C,IC1*%
X60800000Y-118265000D03*
X60800000Y-118765000D03*
X60800000Y-119265000D03*
X60800000Y-119765000D03*
X60800000Y-120265000D03*
X60800000Y-120765000D03*
X60800000Y-121265000D03*
X60800000Y-121765000D03*
X66200000Y-121765000D03*
X66200000Y-121265000D03*
X66200000Y-120765000D03*
X66200000Y-120265000D03*
X66200000Y-119765000D03*
X66200000Y-119265000D03*
X66200000Y-118765000D03*
X66200000Y-118265000D03*
D19*
X63500000Y-120015000D03*
%TD*%
D21*
%TO.C,R40*%
X53340000Y-105680000D03*
X53340000Y-107680000D03*
%TD*%
%TO.C,R39*%
X48260000Y-105680000D03*
X48260000Y-107680000D03*
%TD*%
D22*
%TO.C,R38*%
X116242500Y-133985000D03*
X118242500Y-133985000D03*
%TD*%
%TO.C,R37*%
X104812500Y-133985000D03*
X106812500Y-133985000D03*
%TD*%
D23*
%TO.C,R36*%
X44450000Y-105680000D03*
X44450000Y-107680000D03*
%TD*%
D22*
%TO.C,R35*%
X137430000Y-133985000D03*
X139430000Y-133985000D03*
%TD*%
%TO.C,R34*%
X93785000Y-133985000D03*
X95785000Y-133985000D03*
%TD*%
D23*
%TO.C,R33*%
X39370000Y-107680000D03*
X39370000Y-105680000D03*
%TD*%
D21*
%TO.C,R32*%
X133985000Y-106315000D03*
X133985000Y-108315000D03*
%TD*%
%TO.C,R31*%
X130175000Y-106315000D03*
X130175000Y-108315000D03*
%TD*%
%TO.C,R30*%
X126365000Y-108315000D03*
X126365000Y-106315000D03*
%TD*%
%TO.C,R29*%
X122555000Y-106315000D03*
X122555000Y-108315000D03*
%TD*%
%TO.C,R28*%
X138430000Y-106315000D03*
X138430000Y-108315000D03*
%TD*%
D23*
%TO.C,R27*%
X135890000Y-122920000D03*
X135890000Y-120920000D03*
%TD*%
D21*
%TO.C,R26*%
X143510000Y-106315000D03*
X143510000Y-108315000D03*
%TD*%
D23*
%TO.C,R25*%
X121920000Y-122920000D03*
X121920000Y-120920000D03*
%TD*%
%TO.C,R24*%
X125730000Y-122920000D03*
X125730000Y-120920000D03*
%TD*%
%TO.C,R23*%
X129540000Y-122920000D03*
X129540000Y-120920000D03*
%TD*%
D21*
%TO.C,R22*%
X147320000Y-106315000D03*
X147320000Y-108315000D03*
%TD*%
D22*
%TO.C,R21*%
X126635000Y-133985000D03*
X128635000Y-133985000D03*
%TD*%
%TO.C,R20*%
X84455000Y-133985000D03*
X82455000Y-133985000D03*
%TD*%
D24*
%TO.C,R19*%
X149225000Y-131810000D03*
X147225000Y-131810000D03*
%TD*%
D21*
%TO.C,R18*%
X151765000Y-129540000D03*
X151765000Y-131540000D03*
%TD*%
%TO.C,R17*%
X151765000Y-133350000D03*
X151765000Y-135350000D03*
%TD*%
D22*
%TO.C,R16*%
X154305000Y-131810000D03*
X156305000Y-131810000D03*
%TD*%
D21*
%TO.C,R15*%
X159385000Y-129540000D03*
X159385000Y-131540000D03*
%TD*%
%TO.C,R14*%
X159385000Y-133350000D03*
X159385000Y-135350000D03*
%TD*%
D22*
%TO.C,R13*%
X162465000Y-131810000D03*
X164465000Y-131810000D03*
%TD*%
D21*
%TO.C,R12*%
X167005000Y-129540000D03*
X167005000Y-131540000D03*
%TD*%
%TO.C,R11*%
X167005000Y-133350000D03*
X167005000Y-135350000D03*
%TD*%
D22*
%TO.C,R10*%
X169815000Y-131810000D03*
X171815000Y-131810000D03*
%TD*%
D21*
%TO.C,R9*%
X174625000Y-129540000D03*
X174625000Y-131540000D03*
%TD*%
%TO.C,R8*%
X174625000Y-133350000D03*
X174625000Y-135350000D03*
%TD*%
%TO.C,R7*%
X67945000Y-105680000D03*
X67945000Y-107680000D03*
%TD*%
D23*
%TO.C,R6*%
X64135000Y-107680000D03*
X64135000Y-105680000D03*
%TD*%
D21*
%TO.C,R5*%
X73025000Y-105680000D03*
X73025000Y-107680000D03*
%TD*%
D23*
%TO.C,R4*%
X59690000Y-107680000D03*
X59690000Y-105680000D03*
%TD*%
D24*
%TO.C,R3*%
X95370000Y-108220000D03*
X93370000Y-108220000D03*
%TD*%
D23*
%TO.C,R2*%
X90830000Y-111760000D03*
X90830000Y-109760000D03*
%TD*%
%TO.C,R1*%
X90830000Y-106680000D03*
X90830000Y-104680000D03*
%TD*%
D25*
%TO.C,J7*%
X182880000Y-143335000D03*
D26*
X177800000Y-143335000D03*
X172720000Y-143335000D03*
X167640000Y-143335000D03*
%TD*%
D25*
%TO.C,J6*%
X161290000Y-143335000D03*
D26*
X156210000Y-143335000D03*
X151130000Y-143335000D03*
X146050000Y-143335000D03*
%TD*%
D25*
%TO.C,J5*%
X118110000Y-143335000D03*
D26*
X113030000Y-143335000D03*
X107950000Y-143335000D03*
X102870000Y-143335000D03*
%TD*%
D25*
%TO.C,J4*%
X96520000Y-143335000D03*
D26*
X91440000Y-143335000D03*
X86360000Y-143335000D03*
X81280000Y-143335000D03*
%TD*%
D25*
%TO.C,J2*%
X139700000Y-143335000D03*
D26*
X134620000Y-143335000D03*
X129540000Y-143335000D03*
X124460000Y-143335000D03*
%TD*%
D27*
%TO.C,D4*%
X40280000Y-111760000D03*
D28*
X46080000Y-111760000D03*
%TD*%
D27*
%TO.C,D1*%
X59330000Y-111760000D03*
D28*
X65130000Y-111760000D03*
%TD*%
D29*
%TO.C,C8*%
X118280000Y-131445000D03*
X116205000Y-131445000D03*
%TD*%
D30*
%TO.C,C7*%
X49762500Y-111125000D03*
X51837500Y-111125000D03*
%TD*%
D29*
%TO.C,C6*%
X106850000Y-131445000D03*
X104775000Y-131445000D03*
%TD*%
%TO.C,C5*%
X139467500Y-131445000D03*
X137392500Y-131445000D03*
%TD*%
%TO.C,C4*%
X95822500Y-131445000D03*
X93747500Y-131445000D03*
%TD*%
%TO.C,C3*%
X128672500Y-131445000D03*
X126597500Y-131445000D03*
%TD*%
%TO.C,C2*%
X82417500Y-131445000D03*
X84492500Y-131445000D03*
%TD*%
%TO.C,C1*%
X71755000Y-110490000D03*
X69680000Y-110490000D03*
%TD*%
M02*
