%TF.GenerationSoftware,KiCad,Pcbnew,7.0.5*%
%TF.CreationDate,2023-07-11T20:53:31+10:00*%
%TF.ProjectId,BCM-ESP32-S3,42434d2d-4553-4503-9332-2d53332e6b69,rev?*%
%TF.SameCoordinates,Original*%
%TF.FileFunction,Copper,L1,Top*%
%TF.FilePolarity,Positive*%
%FSLAX46Y46*%
G04 Gerber Fmt 4.6, Leading zero omitted, Abs format (unit mm)*
G04 Created by KiCad (PCBNEW 7.0.5) date 2023-07-11 20:53:31*
%MOMM*%
%LPD*%
G01*
G04 APERTURE LIST*
G04 Aperture macros list*
%AMRoundRect*
0 Rectangle with rounded corners*
0 $1 Rounding radius*
0 $2 $3 $4 $5 $6 $7 $8 $9 X,Y pos of 4 corners*
0 Add a 4 corners polygon primitive as box body*
4,1,4,$2,$3,$4,$5,$6,$7,$8,$9,$2,$3,0*
0 Add four circle primitives for the rounded corners*
1,1,$1+$1,$2,$3*
1,1,$1+$1,$4,$5*
1,1,$1+$1,$6,$7*
1,1,$1+$1,$8,$9*
0 Add four rect primitives between the rounded corners*
20,1,$1+$1,$2,$3,$4,$5,0*
20,1,$1+$1,$4,$5,$6,$7,0*
20,1,$1+$1,$6,$7,$8,$9,0*
20,1,$1+$1,$8,$9,$2,$3,0*%
%AMOutline4P*
0 Free polygon, 4 corners , with rotation*
0 The origin of the aperture is its center*
0 number of corners: always 4*
0 $1 to $8 corner X, Y*
0 $9 Rotation angle, in degrees counterclockwise*
0 create outline with 4 corners*
4,1,4,$1,$2,$3,$4,$5,$6,$7,$8,$1,$2,$9*%
G04 Aperture macros list end*
%TA.AperFunction,ComponentPad*%
%ADD10C,2.400000*%
%TD*%
%TA.AperFunction,ComponentPad*%
%ADD11R,1.700000X1.700000*%
%TD*%
%TA.AperFunction,ComponentPad*%
%ADD12O,1.700000X1.700000*%
%TD*%
%TA.AperFunction,SMDPad,CuDef*%
%ADD13R,2.000000X1.500000*%
%TD*%
%TA.AperFunction,SMDPad,CuDef*%
%ADD14R,2.000000X3.800000*%
%TD*%
%TA.AperFunction,ComponentPad*%
%ADD15C,1.530000*%
%TD*%
%TA.AperFunction,ComponentPad*%
%ADD16R,1.530000X1.530000*%
%TD*%
%TA.AperFunction,ComponentPad*%
%ADD17C,2.550000*%
%TD*%
%TA.AperFunction,ComponentPad*%
%ADD18C,2.775000*%
%TD*%
%TA.AperFunction,SMDPad,CuDef*%
%ADD19R,2.800000X3.910000*%
%TD*%
%TA.AperFunction,SMDPad,CuDef*%
%ADD20R,1.500000X0.300000*%
%TD*%
%TA.AperFunction,SMDPad,CuDef*%
%ADD21RoundRect,0.250000X-0.450000X0.350000X-0.450000X-0.350000X0.450000X-0.350000X0.450000X0.350000X0*%
%TD*%
%TA.AperFunction,SMDPad,CuDef*%
%ADD22RoundRect,0.250000X-0.350000X-0.450000X0.350000X-0.450000X0.350000X0.450000X-0.350000X0.450000X0*%
%TD*%
%TA.AperFunction,SMDPad,CuDef*%
%ADD23RoundRect,0.250000X0.450000X-0.350000X0.450000X0.350000X-0.450000X0.350000X-0.450000X-0.350000X0*%
%TD*%
%TA.AperFunction,SMDPad,CuDef*%
%ADD24RoundRect,0.250000X0.350000X0.450000X-0.350000X0.450000X-0.350000X-0.450000X0.350000X-0.450000X0*%
%TD*%
%TA.AperFunction,ComponentPad*%
%ADD25R,2.100000X2.100000*%
%TD*%
%TA.AperFunction,ComponentPad*%
%ADD26C,2.100000*%
%TD*%
%TA.AperFunction,SMDPad,CuDef*%
%ADD27Outline4P,-1.800000X-1.150000X1.800000X-0.550000X1.800000X0.550000X-1.800000X1.150000X0.000000*%
%TD*%
%TA.AperFunction,SMDPad,CuDef*%
%ADD28Outline4P,-1.800000X-1.150000X1.800000X-0.550000X1.800000X0.550000X-1.800000X1.150000X180.000000*%
%TD*%
%TA.AperFunction,SMDPad,CuDef*%
%ADD29RoundRect,0.250000X0.337500X0.475000X-0.337500X0.475000X-0.337500X-0.475000X0.337500X-0.475000X0*%
%TD*%
%TA.AperFunction,SMDPad,CuDef*%
%ADD30RoundRect,0.250000X-0.337500X-0.475000X0.337500X-0.475000X0.337500X0.475000X-0.337500X0.475000X0*%
%TD*%
%TA.AperFunction,ViaPad*%
%ADD31C,0.800000*%
%TD*%
%TA.AperFunction,ViaPad*%
%ADD32C,2.400000*%
%TD*%
%TA.AperFunction,Conductor*%
%ADD33C,2.000000*%
%TD*%
%TA.AperFunction,Conductor*%
%ADD34C,0.250000*%
%TD*%
%TA.AperFunction,Conductor*%
%ADD35C,4.000000*%
%TD*%
%TA.AperFunction,Conductor*%
%ADD36C,5.000000*%
%TD*%
%TA.AperFunction,Conductor*%
%ADD37C,3.000000*%
%TD*%
%TA.AperFunction,Conductor*%
%ADD38C,1.000000*%
%TD*%
%TA.AperFunction,Conductor*%
%ADD39C,0.500000*%
%TD*%
%TA.AperFunction,Conductor*%
%ADD40C,2.800000*%
%TD*%
G04 APERTURE END LIST*
D10*
%TO.P,U1,1,1*%
%TO.N,Net-(U3-VI)*%
X21710000Y-129970000D03*
%TO.P,U1,2,2*%
X21710000Y-126570000D03*
%TO.P,U1,3,3*%
%TO.N,+12V*%
X31630000Y-129970000D03*
%TO.P,U1,4,4*%
X31630000Y-126570000D03*
%TD*%
D11*
%TO.P,D8,1,K*%
%TO.N,Net-(D8-K)*%
X121052500Y-133985000D03*
D12*
%TO.P,D8,2,A*%
%TO.N,/OUT3*%
X121052500Y-131445000D03*
%TD*%
D11*
%TO.P,D7,1,K*%
%TO.N,Net-(D7-K)*%
X109622500Y-133985000D03*
D12*
%TO.P,D7,2,A*%
%TO.N,/OUT2*%
X109622500Y-131445000D03*
%TD*%
D11*
%TO.P,D6,1,K*%
%TO.N,Net-(D6-K)*%
X142875000Y-133985000D03*
D12*
%TO.P,D6,2,A*%
%TO.N,/OUT5*%
X142875000Y-131445000D03*
%TD*%
D11*
%TO.P,D5,1,K*%
%TO.N,Net-(D5-K)*%
X98595000Y-133985000D03*
D12*
%TO.P,D5,2,A*%
%TO.N,/OUT1*%
X98595000Y-131445000D03*
%TD*%
D11*
%TO.P,D3,1,K*%
%TO.N,Net-(D3-K)*%
X131445000Y-133985000D03*
D12*
%TO.P,D3,2,A*%
%TO.N,/OUT4*%
X131445000Y-131445000D03*
%TD*%
%TO.P,D2,2,A*%
%TO.N,/OUT0*%
X87265000Y-131445000D03*
D11*
%TO.P,D2,1,K*%
%TO.N,Net-(D2-K)*%
X87265000Y-133985000D03*
%TD*%
D13*
%TO.P,U3,1,GND*%
%TO.N,GND*%
X80060000Y-105650000D03*
D14*
%TO.P,U3,2,VO*%
%TO.N,+5V*%
X86360000Y-107950000D03*
D13*
X80060000Y-107950000D03*
%TO.P,U3,3,VI*%
%TO.N,Net-(U3-VI)*%
X80060000Y-110250000D03*
%TD*%
D15*
%TO.P,U2,J1_22,GND*%
%TO.N,GND*%
X156210000Y-125730000D03*
%TO.P,U2,J3_22,GND*%
X156210000Y-102870000D03*
%TO.P,U2,J1_21,5V0*%
%TO.N,+5V*%
X153670000Y-125730000D03*
%TO.P,U2,J1_20,GPIO14*%
%TO.N,/EXT3*%
X151130000Y-125730000D03*
%TO.P,U2,J1_19,GPIO13*%
%TO.N,/EXT2*%
X148590000Y-125730000D03*
%TO.P,U2,J1_18,GPIO12*%
%TO.N,/EXT1*%
X146050000Y-125730000D03*
%TO.P,U2,J1_17,GPIO11*%
%TO.N,/EXT0*%
X143510000Y-125730000D03*
%TO.P,U2,J1_16,GPIO10*%
%TO.N,Net-(J7-Pin_1)*%
X140970000Y-125730000D03*
%TO.P,U2,J1_15,GPIO9*%
%TO.N,Net-(J7-Pin_2)*%
X138430000Y-125730000D03*
%TO.P,U2,J1_14,GPIO46*%
%TO.N,Net-(U2-GPIO46)*%
X135890000Y-125730000D03*
%TO.P,U2,J1_13,GPIO3*%
%TO.N,/Quad_CS*%
X133350000Y-125730000D03*
%TO.P,U2,J1_12,GPIO8*%
%TO.N,Net-(J7-Pin_3)*%
X130810000Y-125730000D03*
%TO.P,U2,J1_11,GPIO18*%
%TO.N,Net-(U2-GPIO18)*%
X128270000Y-125730000D03*
%TO.P,U2,J1_10,GPIO17*%
%TO.N,Net-(U2-GPIO17)*%
X125730000Y-125730000D03*
%TO.P,U2,J1_9,GPIO16*%
%TO.N,Net-(U2-GPIO16)*%
X123190000Y-125730000D03*
%TO.P,U2,J1_8,GPIO15*%
%TO.N,unconnected-(U2-GPIO15-PadJ1_8)*%
X120650000Y-125730000D03*
%TO.P,U2,J1_7,GPIO7*%
%TO.N,Net-(J7-Pin_4)*%
X118110000Y-125730000D03*
%TO.P,U2,J1_6,GPIO6*%
%TO.N,unconnected-(U2-GPIO6-PadJ1_6)*%
X115570000Y-125730000D03*
%TO.P,U2,J1_5,GPIO5*%
%TO.N,unconnected-(U2-GPIO5-PadJ1_5)*%
X113030000Y-125730000D03*
%TO.P,U2,J1_4,GPIO4*%
%TO.N,unconnected-(U2-GPIO4-PadJ1_4)*%
X110490000Y-125730000D03*
%TO.P,U2,J1_3,RST*%
%TO.N,unconnected-(U2-RST-PadJ1_3)*%
X107950000Y-125730000D03*
%TO.P,U2,J1_2,3V3*%
%TO.N,+3V3*%
X105410000Y-125730000D03*
D16*
%TO.P,U2,J1_1,3V3*%
X102870000Y-125730000D03*
D15*
%TO.P,U2,J3_21,GND*%
%TO.N,GND*%
X153670000Y-102870000D03*
%TO.P,U2,J3_20,USB_D-/GPIO19*%
%TO.N,unconnected-(U2-USB_D-{slash}GPIO19-PadJ3_20)*%
X151130000Y-102870000D03*
%TO.P,U2,J3_19,USB_D+/GPIO20*%
%TO.N,unconnected-(U2-USB_D+{slash}GPIO20-PadJ3_19)*%
X148590000Y-102870000D03*
%TO.P,U2,J3_18,GPIO21*%
%TO.N,Net-(U2-GPIO21)*%
X146050000Y-102870000D03*
%TO.P,U2,J3_17,GPIO47*%
%TO.N,Net-(U2-GPIO47)*%
X143510000Y-102870000D03*
%TO.P,U2,J3_16,GPIO48*%
%TO.N,unconnected-(U2-GPIO48-PadJ3_16)*%
X140970000Y-102870000D03*
%TO.P,U2,J3_15,GPIO45*%
%TO.N,Net-(U2-GPIO45)*%
X138430000Y-102870000D03*
%TO.P,U2,J3_14,GPIO0*%
%TO.N,unconnected-(U2-GPIO0-PadJ3_14)*%
X135890000Y-102870000D03*
%TO.P,U2,J3_13,GPIO35*%
%TO.N,Net-(U2-GPIO35)*%
X133350000Y-102870000D03*
%TO.P,U2,J3_12,GPIO36*%
%TO.N,Net-(U2-GPIO36)*%
X130810000Y-102870000D03*
%TO.P,U2,J3_11,GPIO37*%
%TO.N,Net-(U2-GPIO37)*%
X128270000Y-102870000D03*
%TO.P,U2,J3_10,GPIO38*%
%TO.N,Net-(U2-GPIO38)*%
X125730000Y-102870000D03*
%TO.P,U2,J3_9,MTCK/GPIO39*%
%TO.N,unconnected-(U2-MTCK{slash}GPIO39-PadJ3_9)*%
X123190000Y-102870000D03*
%TO.P,U2,J3_8,MTDO/GPIO40*%
%TO.N,unconnected-(U2-MTDO{slash}GPIO40-PadJ3_8)*%
X120650000Y-102870000D03*
%TO.P,U2,J3_7,MTDI/GPIO41*%
%TO.N,unconnected-(U2-MTDI{slash}GPIO41-PadJ3_7)*%
X118110000Y-102870000D03*
%TO.P,U2,J3_6,MTMS/GPIO42*%
%TO.N,unconnected-(U2-MTMS{slash}GPIO42-PadJ3_6)*%
X115570000Y-102870000D03*
%TO.P,U2,J3_5,GPIO2*%
%TO.N,/Dual_CS*%
X113030000Y-102870000D03*
%TO.P,U2,J3_4,GPIO1*%
%TO.N,/VBAT_ADC*%
X110490000Y-102870000D03*
%TO.P,U2,J3_3,U0RXD/GPIO44*%
%TO.N,unconnected-(U2-U0RXD{slash}GPIO44-PadJ3_3)*%
X107950000Y-102870000D03*
%TO.P,U2,J3_2,U0TXD/GPIO43*%
%TO.N,unconnected-(U2-U0TXD{slash}GPIO43-PadJ3_2)*%
X105410000Y-102870000D03*
%TO.P,U2,J3_1,GND*%
%TO.N,GND*%
X102870000Y-102870000D03*
%TD*%
D17*
%TO.P,J8,6,6*%
%TO.N,/OUT5*%
X73025000Y-138440000D03*
%TO.P,J8,5,5*%
%TO.N,/OUT4*%
X66675000Y-128940000D03*
%TO.P,J8,4,4*%
%TO.N,/OUT3*%
X60325000Y-138440000D03*
%TO.P,J8,3,3*%
%TO.N,/OUT2*%
X53975000Y-128940000D03*
%TO.P,J8,2,2*%
%TO.N,/OUT1*%
X47625000Y-138440000D03*
%TO.P,J8,1,1*%
%TO.N,/OUT0*%
X41275000Y-128940000D03*
%TD*%
D18*
%TO.P,J3,1,1*%
%TO.N,GND*%
X22870000Y-109865000D03*
%TO.P,J3,2,2*%
X27305000Y-109865000D03*
%TO.P,J3,3,3*%
X31740000Y-109865000D03*
%TO.P,J3,4,4*%
X22870000Y-114300000D03*
%TO.P,J3,5,5*%
X27305000Y-114300000D03*
%TO.P,J3,6,6*%
X31740000Y-114300000D03*
%TO.P,J3,7,7*%
X22870000Y-118735000D03*
%TO.P,J3,8,8*%
X27305000Y-118735000D03*
%TO.P,J3,9,9*%
X31740000Y-118735000D03*
%TD*%
%TO.P,J1,1,1*%
%TO.N,Net-(U3-VI)*%
X22860000Y-137805000D03*
%TO.P,J1,2,2*%
X27295000Y-137805000D03*
%TO.P,J1,3,3*%
X31730000Y-137805000D03*
%TO.P,J1,4,4*%
X22860000Y-142240000D03*
%TO.P,J1,5,5*%
X27295000Y-142240000D03*
%TO.P,J1,6,6*%
X31730000Y-142240000D03*
%TO.P,J1,7,7*%
X22860000Y-146675000D03*
%TO.P,J1,8,8*%
X27295000Y-146675000D03*
%TO.P,J1,9,9*%
X31730000Y-146675000D03*
%TD*%
D19*
%TO.P,IC2,17,VCC*%
%TO.N,+12V*%
X45085000Y-120015000D03*
D20*
%TO.P,IC2,16,OUTPUT3*%
%TO.N,/OUT3*%
X47785000Y-118265000D03*
%TO.P,IC2,15,SEL1*%
%TO.N,/Quad_SEL1*%
X47785000Y-118765000D03*
%TO.P,IC2,14,INPUT3*%
%TO.N,/Quad_INPUT3*%
X47785000Y-119265000D03*
%TO.P,IC2,13,CS*%
%TO.N,Net-(IC2-CS)*%
X47785000Y-119765000D03*
%TO.P,IC2,12,SEL0*%
%TO.N,/Quad_SEL0*%
X47785000Y-120265000D03*
%TO.P,IC2,11,INPUT2*%
%TO.N,/Quad_INPUT2*%
X47785000Y-120765000D03*
%TO.P,IC2,10,N.C._2*%
%TO.N,unconnected-(IC2-N.C._2-Pad10)*%
X47785000Y-121265000D03*
%TO.P,IC2,9,OUTPUT2*%
%TO.N,/OUT2*%
X47785000Y-121765000D03*
%TO.P,IC2,8,OUTPUT1*%
%TO.N,/OUT1*%
X42385000Y-121765000D03*
%TO.P,IC2,7,N.C._1*%
%TO.N,unconnected-(IC2-N.C._1-Pad7)*%
X42385000Y-121265000D03*
%TO.P,IC2,6,INPUT1*%
%TO.N,/Quad_INPUT1*%
X42385000Y-120765000D03*
%TO.P,IC2,5,~{FAULTRST}*%
%TO.N,Net-(IC2-~{FAULTRST})*%
X42385000Y-120265000D03*
%TO.P,IC2,4,GND*%
%TO.N,Net-(D4-A)*%
X42385000Y-119765000D03*
%TO.P,IC2,3,INPUT0*%
%TO.N,/Quad_INPUT0*%
X42385000Y-119265000D03*
%TO.P,IC2,2,SEN*%
%TO.N,/Quad_SEN*%
X42385000Y-118765000D03*
%TO.P,IC2,1,OUTPUT0*%
%TO.N,/OUT0*%
X42385000Y-118265000D03*
%TD*%
%TO.P,IC1,1,INPUT0*%
%TO.N,/Dual_INPUT0*%
X60800000Y-118265000D03*
%TO.P,IC1,2,FaultRST*%
%TO.N,Net-(IC1-FaultRST)*%
X60800000Y-118765000D03*
%TO.P,IC1,3,SEn*%
%TO.N,/Dual_SEN*%
X60800000Y-119265000D03*
%TO.P,IC1,4,GND*%
%TO.N,Net-(D1-A)*%
X60800000Y-119765000D03*
%TO.P,IC1,5,SEL*%
%TO.N,/Dual_SEL*%
X60800000Y-120265000D03*
%TO.P,IC1,6,N.C.*%
%TO.N,unconnected-(IC1-N.C.-Pad6)*%
X60800000Y-120765000D03*
%TO.P,IC1,7,CS*%
%TO.N,Net-(IC1-CS)*%
X60800000Y-121265000D03*
%TO.P,IC1,8,INPUT1*%
%TO.N,/Dual_INPUT1*%
X60800000Y-121765000D03*
%TO.P,IC1,9,OUTPUT1*%
%TO.N,/OUT5*%
X66200000Y-121765000D03*
%TO.P,IC1,10,OUTPUT1*%
X66200000Y-121265000D03*
%TO.P,IC1,11,OUTPUT1*%
X66200000Y-120765000D03*
%TO.P,IC1,12,OUTPUT1*%
X66200000Y-120265000D03*
%TO.P,IC1,13,OUTPUT0*%
%TO.N,/OUT4*%
X66200000Y-119765000D03*
%TO.P,IC1,14,OUTPUT0*%
X66200000Y-119265000D03*
%TO.P,IC1,15,OUTPUT0*%
X66200000Y-118765000D03*
%TO.P,IC1,16,OUTPUT0*%
X66200000Y-118265000D03*
D19*
%TO.P,IC1,17,VCC*%
%TO.N,+12V*%
X63500000Y-120015000D03*
%TD*%
D21*
%TO.P,R40,1*%
%TO.N,Net-(IC2-CS)*%
X53340000Y-105680000D03*
%TO.P,R40,2*%
%TO.N,GND*%
X53340000Y-107680000D03*
%TD*%
%TO.P,R39,1*%
%TO.N,/Quad_CS*%
X48260000Y-105680000D03*
%TO.P,R39,2*%
%TO.N,Net-(IC2-CS)*%
X48260000Y-107680000D03*
%TD*%
D22*
%TO.P,R38,1*%
%TO.N,GND*%
X116242500Y-133985000D03*
%TO.P,R38,2*%
%TO.N,Net-(D8-K)*%
X118242500Y-133985000D03*
%TD*%
%TO.P,R37,1*%
%TO.N,GND*%
X104812500Y-133985000D03*
%TO.P,R37,2*%
%TO.N,Net-(D7-K)*%
X106812500Y-133985000D03*
%TD*%
D23*
%TO.P,R36,2*%
%TO.N,Net-(IC2-~{FAULTRST})*%
X44450000Y-105680000D03*
%TO.P,R36,1*%
%TO.N,GND*%
X44450000Y-107680000D03*
%TD*%
D22*
%TO.P,R35,1*%
%TO.N,GND*%
X137430000Y-133985000D03*
%TO.P,R35,2*%
%TO.N,Net-(D6-K)*%
X139430000Y-133985000D03*
%TD*%
%TO.P,R34,1*%
%TO.N,GND*%
X93785000Y-133985000D03*
%TO.P,R34,2*%
%TO.N,Net-(D5-K)*%
X95785000Y-133985000D03*
%TD*%
D23*
%TO.P,R33,1*%
%TO.N,GND*%
X39370000Y-107680000D03*
%TO.P,R33,2*%
%TO.N,Net-(D4-A)*%
X39370000Y-105680000D03*
%TD*%
D21*
%TO.P,R32,1*%
%TO.N,Net-(U2-GPIO35)*%
X133985000Y-106315000D03*
%TO.P,R32,2*%
%TO.N,/Quad_INPUT3*%
X133985000Y-108315000D03*
%TD*%
%TO.P,R31,1*%
%TO.N,Net-(U2-GPIO36)*%
X130175000Y-106315000D03*
%TO.P,R31,2*%
%TO.N,/Quad_INPUT2*%
X130175000Y-108315000D03*
%TD*%
%TO.P,R30,2*%
%TO.N,/Quad_INPUT1*%
X126365000Y-108315000D03*
%TO.P,R30,1*%
%TO.N,Net-(U2-GPIO37)*%
X126365000Y-106315000D03*
%TD*%
%TO.P,R29,1*%
%TO.N,Net-(U2-GPIO38)*%
X122555000Y-106315000D03*
%TO.P,R29,2*%
%TO.N,/Quad_INPUT0*%
X122555000Y-108315000D03*
%TD*%
%TO.P,R28,1*%
%TO.N,Net-(U2-GPIO45)*%
X138430000Y-106315000D03*
%TO.P,R28,2*%
%TO.N,/Quad_SEN*%
X138430000Y-108315000D03*
%TD*%
D23*
%TO.P,R27,1*%
%TO.N,Net-(U2-GPIO46)*%
X135890000Y-122920000D03*
%TO.P,R27,2*%
%TO.N,/Quad_SEL1*%
X135890000Y-120920000D03*
%TD*%
D21*
%TO.P,R26,1*%
%TO.N,Net-(U2-GPIO47)*%
X143510000Y-106315000D03*
%TO.P,R26,2*%
%TO.N,/Quad_SEL0*%
X143510000Y-108315000D03*
%TD*%
D23*
%TO.P,R25,1*%
%TO.N,Net-(U2-GPIO16)*%
X121920000Y-122920000D03*
%TO.P,R25,2*%
%TO.N,/Dual_INPUT0*%
X121920000Y-120920000D03*
%TD*%
%TO.P,R24,1*%
%TO.N,Net-(U2-GPIO17)*%
X125730000Y-122920000D03*
%TO.P,R24,2*%
%TO.N,/Dual_INPUT1*%
X125730000Y-120920000D03*
%TD*%
%TO.P,R23,1*%
%TO.N,Net-(U2-GPIO18)*%
X129540000Y-122920000D03*
%TO.P,R23,2*%
%TO.N,/Dual_SEL*%
X129540000Y-120920000D03*
%TD*%
D21*
%TO.P,R22,1*%
%TO.N,Net-(U2-GPIO21)*%
X147320000Y-106315000D03*
%TO.P,R22,2*%
%TO.N,/Dual_SEN*%
X147320000Y-108315000D03*
%TD*%
D22*
%TO.P,R21,1*%
%TO.N,GND*%
X126635000Y-133985000D03*
%TO.P,R21,2*%
%TO.N,Net-(D3-K)*%
X128635000Y-133985000D03*
%TD*%
%TO.P,R20,2*%
%TO.N,Net-(D2-K)*%
X84455000Y-133985000D03*
%TO.P,R20,1*%
%TO.N,GND*%
X82455000Y-133985000D03*
%TD*%
D24*
%TO.P,R19,1*%
%TO.N,/EXT3*%
X149225000Y-131810000D03*
%TO.P,R19,2*%
%TO.N,Net-(R17-Pad1)*%
X147225000Y-131810000D03*
%TD*%
D21*
%TO.P,R18,1*%
%TO.N,GND*%
X151765000Y-129540000D03*
%TO.P,R18,2*%
%TO.N,Net-(R17-Pad1)*%
X151765000Y-131540000D03*
%TD*%
%TO.P,R17,1*%
%TO.N,Net-(R17-Pad1)*%
X151765000Y-133350000D03*
%TO.P,R17,2*%
%TO.N,/EXT_SWITCH3*%
X151765000Y-135350000D03*
%TD*%
D22*
%TO.P,R16,1*%
%TO.N,/EXT2*%
X154305000Y-131810000D03*
%TO.P,R16,2*%
%TO.N,Net-(R14-Pad1)*%
X156305000Y-131810000D03*
%TD*%
D21*
%TO.P,R15,1*%
%TO.N,GND*%
X159385000Y-129540000D03*
%TO.P,R15,2*%
%TO.N,Net-(R14-Pad1)*%
X159385000Y-131540000D03*
%TD*%
%TO.P,R14,1*%
%TO.N,Net-(R14-Pad1)*%
X159385000Y-133350000D03*
%TO.P,R14,2*%
%TO.N,/EXT_SWITCH2*%
X159385000Y-135350000D03*
%TD*%
D22*
%TO.P,R13,1*%
%TO.N,/EXT1*%
X162465000Y-131810000D03*
%TO.P,R13,2*%
%TO.N,Net-(R11-Pad1)*%
X164465000Y-131810000D03*
%TD*%
D21*
%TO.P,R12,1*%
%TO.N,GND*%
X167005000Y-129540000D03*
%TO.P,R12,2*%
%TO.N,Net-(R11-Pad1)*%
X167005000Y-131540000D03*
%TD*%
%TO.P,R11,1*%
%TO.N,Net-(R11-Pad1)*%
X167005000Y-133350000D03*
%TO.P,R11,2*%
%TO.N,/EXT_SWITCH1*%
X167005000Y-135350000D03*
%TD*%
D22*
%TO.P,R10,1*%
%TO.N,/EXT0*%
X169815000Y-131810000D03*
%TO.P,R10,2*%
%TO.N,Net-(R10-Pad2)*%
X171815000Y-131810000D03*
%TD*%
D21*
%TO.P,R9,1*%
%TO.N,GND*%
X174625000Y-129540000D03*
%TO.P,R9,2*%
%TO.N,Net-(R10-Pad2)*%
X174625000Y-131540000D03*
%TD*%
%TO.P,R8,1*%
%TO.N,Net-(R10-Pad2)*%
X174625000Y-133350000D03*
%TO.P,R8,2*%
%TO.N,/EXT_SWITCH0*%
X174625000Y-135350000D03*
%TD*%
%TO.P,R7,1*%
%TO.N,Net-(IC1-CS)*%
X67945000Y-105680000D03*
%TO.P,R7,2*%
%TO.N,GND*%
X67945000Y-107680000D03*
%TD*%
D23*
%TO.P,R6,1*%
%TO.N,GND*%
X64135000Y-107680000D03*
%TO.P,R6,2*%
%TO.N,Net-(IC1-FaultRST)*%
X64135000Y-105680000D03*
%TD*%
D21*
%TO.P,R5,1*%
%TO.N,/Dual_CS*%
X73025000Y-105680000D03*
%TO.P,R5,2*%
%TO.N,Net-(IC1-CS)*%
X73025000Y-107680000D03*
%TD*%
D23*
%TO.P,R4,1*%
%TO.N,GND*%
X59690000Y-107680000D03*
%TO.P,R4,2*%
%TO.N,Net-(D1-A)*%
X59690000Y-105680000D03*
%TD*%
D24*
%TO.P,R3,1*%
%TO.N,/VBAT_ADC*%
X95370000Y-108220000D03*
%TO.P,R3,2*%
%TO.N,Net-(R1-Pad1)*%
X93370000Y-108220000D03*
%TD*%
D23*
%TO.P,R2,1*%
%TO.N,GND*%
X90830000Y-111760000D03*
%TO.P,R2,2*%
%TO.N,Net-(R1-Pad1)*%
X90830000Y-109760000D03*
%TD*%
%TO.P,R1,1*%
%TO.N,Net-(R1-Pad1)*%
X90830000Y-106680000D03*
%TO.P,R1,2*%
%TO.N,+12V*%
X90830000Y-104680000D03*
%TD*%
D25*
%TO.P,J7,1,Pin_1*%
%TO.N,Net-(J7-Pin_1)*%
X182880000Y-143335000D03*
D26*
%TO.P,J7,2,Pin_2*%
%TO.N,Net-(J7-Pin_2)*%
X177800000Y-143335000D03*
%TO.P,J7,3,Pin_3*%
%TO.N,Net-(J7-Pin_3)*%
X172720000Y-143335000D03*
%TO.P,J7,4,Pin_4*%
%TO.N,Net-(J7-Pin_4)*%
X167640000Y-143335000D03*
%TD*%
D25*
%TO.P,J6,1,Pin_1*%
%TO.N,+3V3*%
X161290000Y-143335000D03*
D26*
%TO.P,J6,2,Pin_2*%
X156210000Y-143335000D03*
%TO.P,J6,3,Pin_3*%
X151130000Y-143335000D03*
%TO.P,J6,4,Pin_4*%
X146050000Y-143335000D03*
%TD*%
D25*
%TO.P,J5,1,Pin_1*%
%TO.N,GND*%
X118110000Y-143335000D03*
D26*
%TO.P,J5,2,Pin_2*%
X113030000Y-143335000D03*
%TO.P,J5,3,Pin_3*%
X107950000Y-143335000D03*
%TO.P,J5,4,Pin_4*%
X102870000Y-143335000D03*
%TD*%
D25*
%TO.P,J4,1,Pin_1*%
%TO.N,GND*%
X96520000Y-143335000D03*
D26*
%TO.P,J4,2,Pin_2*%
X91440000Y-143335000D03*
%TO.P,J4,3,Pin_3*%
X86360000Y-143335000D03*
%TO.P,J4,4,Pin_4*%
X81280000Y-143335000D03*
%TD*%
D25*
%TO.P,J2,1,Pin_1*%
%TO.N,/EXT_SWITCH0*%
X139700000Y-143335000D03*
D26*
%TO.P,J2,2,Pin_2*%
%TO.N,/EXT_SWITCH1*%
X134620000Y-143335000D03*
%TO.P,J2,3,Pin_3*%
%TO.N,/EXT_SWITCH2*%
X129540000Y-143335000D03*
%TO.P,J2,4,Pin_4*%
%TO.N,/EXT_SWITCH3*%
X124460000Y-143335000D03*
%TD*%
D27*
%TO.P,D4,1,K*%
%TO.N,GND*%
X40280000Y-111760000D03*
D28*
%TO.P,D4,2,A*%
%TO.N,Net-(D4-A)*%
X46080000Y-111760000D03*
%TD*%
D27*
%TO.P,D1,1,K*%
%TO.N,GND*%
X59330000Y-111760000D03*
D28*
%TO.P,D1,2,A*%
%TO.N,Net-(D1-A)*%
X65130000Y-111760000D03*
%TD*%
D29*
%TO.P,C8,1*%
%TO.N,/OUT3*%
X118280000Y-131445000D03*
%TO.P,C8,2*%
%TO.N,GND*%
X116205000Y-131445000D03*
%TD*%
D30*
%TO.P,C7,1*%
%TO.N,/Quad_CS*%
X49762500Y-111125000D03*
%TO.P,C7,2*%
%TO.N,GND*%
X51837500Y-111125000D03*
%TD*%
D29*
%TO.P,C6,1*%
%TO.N,/OUT2*%
X106850000Y-131445000D03*
%TO.P,C6,2*%
%TO.N,GND*%
X104775000Y-131445000D03*
%TD*%
%TO.P,C5,1*%
%TO.N,/OUT5*%
X139467500Y-131445000D03*
%TO.P,C5,2*%
%TO.N,GND*%
X137392500Y-131445000D03*
%TD*%
%TO.P,C4,1*%
%TO.N,/OUT1*%
X95822500Y-131445000D03*
%TO.P,C4,2*%
%TO.N,GND*%
X93747500Y-131445000D03*
%TD*%
%TO.P,C3,1*%
%TO.N,/OUT4*%
X128672500Y-131445000D03*
%TO.P,C3,2*%
%TO.N,GND*%
X126597500Y-131445000D03*
%TD*%
%TO.P,C2,2*%
%TO.N,GND*%
X82417500Y-131445000D03*
%TO.P,C2,1*%
%TO.N,/OUT0*%
X84492500Y-131445000D03*
%TD*%
%TO.P,C1,1*%
%TO.N,/Dual_CS*%
X71755000Y-110490000D03*
%TO.P,C1,2*%
%TO.N,GND*%
X69680000Y-110490000D03*
%TD*%
D31*
%TO.N,GND*%
X101092000Y-132588000D03*
X124714000Y-135382000D03*
X78232000Y-108712000D03*
X66040000Y-106680000D03*
X56642000Y-106680000D03*
X38100000Y-109220000D03*
D32*
%TO.N,/OUT0*%
X42429500Y-117215498D03*
%TO.N,/OUT1*%
X34925000Y-122555000D03*
D31*
%TO.N,+5V*%
X127917700Y-111246700D03*
%TO.N,Net-(U3-VI)*%
X77659500Y-110221000D03*
%TO.N,Net-(IC2-CS)*%
X50775400Y-108636900D03*
X52684600Y-119263100D03*
%TO.N,/Quad_INPUT2*%
X93131500Y-109968700D03*
X55318100Y-120765000D03*
%TO.N,/Quad_INPUT1*%
X41024800Y-121003900D03*
X94210400Y-110019400D03*
%TO.N,/Quad_INPUT0*%
X98024200Y-108671900D03*
X82415800Y-110567400D03*
%TO.N,/Quad_SEL1*%
X133374500Y-120920000D03*
X126636000Y-114624300D03*
%TO.N,/Dual_SEL*%
X76200000Y-121664900D03*
X58635300Y-120293200D03*
%TO.N,/Dual_SEN*%
X145415000Y-108113000D03*
X120794300Y-117023200D03*
%TO.N,/EXT0*%
X168485400Y-131450700D03*
%TO.N,Net-(IC1-FaultRST)*%
X63060900Y-108632400D03*
X60901600Y-117479600D03*
%TO.N,Net-(IC1-CS)*%
X59433900Y-121193000D03*
X69460100Y-108650400D03*
%TO.N,+12V*%
X86207200Y-104680000D03*
X74295000Y-117978100D03*
%TO.N,Net-(D1-A)*%
X62049300Y-111605500D03*
X58796500Y-119291200D03*
D32*
%TO.N,/OUT3*%
X47802101Y-117215498D03*
%TO.N,/OUT2*%
X50024500Y-123190000D03*
%TO.N,/OUT5*%
X63500000Y-130720500D03*
%TD*%
D33*
%TO.N,/OUT2*%
X49449500Y-122615000D02*
X47785000Y-122615000D01*
X50024500Y-123190000D02*
X49449500Y-122615000D01*
D34*
%TO.N,/Quad_CS*%
X49546000Y-104394000D02*
X48260000Y-105680000D01*
X75821804Y-104394000D02*
X49546000Y-104394000D01*
X78926804Y-101289000D02*
X75821804Y-104394000D01*
X133310493Y-101289000D02*
X78926804Y-101289000D01*
X134440000Y-102418507D02*
X133310493Y-101289000D01*
X135078507Y-103960000D02*
X134440000Y-103321493D01*
X136701493Y-103960000D02*
X135078507Y-103960000D01*
X137340000Y-103321493D02*
X136701493Y-103960000D01*
X137340000Y-102418507D02*
X137340000Y-103321493D01*
X137978507Y-101780000D02*
X137340000Y-102418507D01*
X138881493Y-101780000D02*
X137978507Y-101780000D01*
X139700000Y-102598507D02*
X138881493Y-101780000D01*
X139700000Y-104122100D02*
X139700000Y-102598507D01*
X142910200Y-107332300D02*
X139700000Y-104122100D01*
X144209605Y-107332300D02*
X142910200Y-107332300D01*
X144690000Y-107812695D02*
X144209605Y-107332300D01*
X144690000Y-109056000D02*
X144690000Y-107812695D01*
X134440000Y-103321493D02*
X134440000Y-102418507D01*
X137464700Y-116281300D02*
X144690000Y-109056000D01*
X132334000Y-121412000D02*
X132334000Y-116840000D01*
X132892700Y-116281300D02*
X137464700Y-116281300D01*
X133350000Y-125730000D02*
X133350000Y-122428000D01*
X133350000Y-122428000D02*
X132334000Y-121412000D01*
X132334000Y-116840000D02*
X132892700Y-116281300D01*
%TO.N,GND*%
X139297500Y-129540000D02*
X137392500Y-131445000D01*
X151765000Y-129540000D02*
X139297500Y-129540000D01*
X124714000Y-135382000D02*
X125238000Y-135382000D01*
X125238000Y-135382000D02*
X126635000Y-133985000D01*
X101299400Y-132795400D02*
X101092000Y-132588000D01*
X104812500Y-132795400D02*
X101299400Y-132795400D01*
X100884600Y-132795400D02*
X93785000Y-132795400D01*
X101092000Y-132588000D02*
X100884600Y-132795400D01*
X78232000Y-107378000D02*
X78232000Y-108712000D01*
X78735000Y-106875000D02*
X78232000Y-107378000D01*
X80060000Y-105650000D02*
X80060000Y-106875000D01*
X80060000Y-106875000D02*
X78735000Y-106875000D01*
X78620000Y-109100000D02*
X78692900Y-109100000D01*
X78232000Y-108712000D02*
X78620000Y-109100000D01*
X66040000Y-107426000D02*
X66294000Y-107680000D01*
X66040000Y-106680000D02*
X66040000Y-107426000D01*
X66294000Y-107680000D02*
X67945000Y-107680000D01*
X64135000Y-107680000D02*
X66294000Y-107680000D01*
%TO.N,Net-(IC2-~{FAULTRST})*%
X36576000Y-106011500D02*
X37846000Y-104741500D01*
X36576000Y-112776000D02*
X36576000Y-106011500D01*
X39555000Y-115755000D02*
X36576000Y-112776000D01*
X39555000Y-118948396D02*
X39555000Y-115755000D01*
X43511500Y-104741500D02*
X44450000Y-105680000D01*
X40871604Y-120265000D02*
X39555000Y-118948396D01*
X42385000Y-120265000D02*
X40871604Y-120265000D01*
X37846000Y-104741500D02*
X43511500Y-104741500D01*
%TO.N,GND*%
X55340300Y-110373700D02*
X53340000Y-110373700D01*
X56642000Y-109072000D02*
X55340300Y-110373700D01*
X56642000Y-109072000D02*
X57943700Y-110373700D01*
X56642000Y-106680000D02*
X56642000Y-109072000D01*
X38100000Y-109220000D02*
X38385000Y-109505000D01*
X38385000Y-108935000D02*
X38385000Y-108665000D01*
X38100000Y-109220000D02*
X38385000Y-108935000D01*
D35*
%TO.N,Net-(U3-VI)*%
X21710000Y-129970000D02*
X21710000Y-126570000D01*
D33*
X27295000Y-142240000D02*
X27295000Y-146675000D01*
X31730000Y-142240000D02*
X31730000Y-146675000D01*
X31730000Y-137805000D02*
X31730000Y-142240000D01*
X27295000Y-137805000D02*
X27295000Y-142240000D01*
D35*
X21710000Y-132220000D02*
X27295000Y-137805000D01*
X21710000Y-129970000D02*
X21710000Y-132220000D01*
X23895000Y-129970000D02*
X31730000Y-137805000D01*
X21710000Y-129970000D02*
X23895000Y-129970000D01*
D36*
X22860000Y-131120000D02*
X21710000Y-129970000D01*
X22860000Y-137805000D02*
X22860000Y-131120000D01*
D37*
%TO.N,/OUT4*%
X72910000Y-120535000D02*
X72910000Y-128234400D01*
X71895800Y-119520800D02*
X72910000Y-120535000D01*
X70485000Y-119520800D02*
X71895800Y-119520800D01*
D34*
X69227000Y-119888000D02*
X69850000Y-119265000D01*
X67275000Y-119888000D02*
X69227000Y-119888000D01*
X67152000Y-119765000D02*
X67275000Y-119888000D01*
X66200000Y-119765000D02*
X67152000Y-119765000D01*
X69850000Y-118145800D02*
X69850000Y-118765000D01*
X69814200Y-118145800D02*
X69850000Y-118145800D01*
X69695000Y-118265000D02*
X69814200Y-118145800D01*
X66200000Y-118265000D02*
X69695000Y-118265000D01*
%TO.N,/EXT_SWITCH0*%
X142806900Y-141605000D02*
X168370000Y-141605000D01*
X141076900Y-143335000D02*
X142806900Y-141605000D01*
X168370000Y-141605000D02*
X174625000Y-135350000D01*
X139700000Y-143335000D02*
X141076900Y-143335000D01*
%TO.N,/OUT5*%
X73035000Y-138430000D02*
X73025000Y-138440000D01*
X100330000Y-138430000D02*
X73035000Y-138430000D01*
X100965000Y-139065000D02*
X100330000Y-138430000D01*
X120205100Y-145415000D02*
X102235000Y-145415000D01*
X102235000Y-145415000D02*
X100965000Y-144145000D01*
X137712600Y-135350000D02*
X130270100Y-135350000D01*
X138430000Y-134632600D02*
X137712600Y-135350000D01*
X130270100Y-135350000D02*
X120205100Y-145415000D01*
X138430000Y-132482500D02*
X138430000Y-134632600D01*
X100965000Y-144145000D02*
X100965000Y-139065000D01*
X139467500Y-131445000D02*
X138430000Y-132482500D01*
X66200000Y-120810000D02*
X66200000Y-120650000D01*
X67310000Y-121920000D02*
X66200000Y-120810000D01*
X66200000Y-120650000D02*
X66200000Y-120765000D01*
X66200000Y-120265000D02*
X66200000Y-120650000D01*
X67155000Y-121765000D02*
X66200000Y-121765000D01*
X67310000Y-121920000D02*
X67155000Y-121765000D01*
D37*
X67310000Y-123190000D02*
X67310000Y-121920000D01*
X63500000Y-127000000D02*
X67310000Y-123190000D01*
X63500000Y-130720500D02*
X63500000Y-127000000D01*
D38*
%TO.N,/OUT4*%
X73660000Y-128895600D02*
X72998800Y-128234400D01*
D37*
X72204400Y-128940000D02*
X66675000Y-128940000D01*
X72910000Y-128234400D02*
X72204400Y-128940000D01*
D38*
X72998800Y-128234400D02*
X72910000Y-128234400D01*
D34*
X68511900Y-130175000D02*
X67276900Y-128940000D01*
X78121104Y-130175000D02*
X68511900Y-130175000D01*
X126562100Y-129334600D02*
X78961504Y-129334600D01*
X128672500Y-131445000D02*
X126562100Y-129334600D01*
X78961504Y-129334600D02*
X78121104Y-130175000D01*
%TO.N,+12V*%
X63500000Y-117695800D02*
X63500000Y-120015000D01*
X74295000Y-117978100D02*
X74012700Y-117695800D01*
X74012700Y-117695800D02*
X63500000Y-117695800D01*
D38*
%TO.N,/OUT4*%
X66200000Y-119265000D02*
X69850000Y-119265000D01*
X66200000Y-118765000D02*
X69850000Y-118765000D01*
D34*
%TO.N,/OUT2*%
X79147900Y-129784600D02*
X77487500Y-131445000D01*
X77487500Y-131445000D02*
X56480000Y-131445000D01*
X105189600Y-129784600D02*
X79147900Y-129784600D01*
X106850000Y-131445000D02*
X105189600Y-129784600D01*
X56480000Y-131445000D02*
X53975000Y-128940000D01*
%TO.N,/Dual_SEL*%
X128602500Y-121857500D02*
X129540000Y-120920000D01*
X76200000Y-121664900D02*
X76392600Y-121857500D01*
X76392600Y-121857500D02*
X128602500Y-121857500D01*
%TO.N,/OUT1*%
X50175000Y-135890000D02*
X47625000Y-138440000D01*
X73999800Y-135890000D02*
X50175000Y-135890000D01*
X94626800Y-130249300D02*
X79640500Y-130249300D01*
X79640500Y-130249300D02*
X73999800Y-135890000D01*
X95822500Y-131445000D02*
X94626800Y-130249300D01*
%TO.N,/OUT3*%
X117242500Y-132482500D02*
X118280000Y-131445000D01*
X117242500Y-134615300D02*
X117242500Y-132482500D01*
X62240000Y-136525000D02*
X115332800Y-136525000D01*
X115332800Y-136525000D02*
X117242500Y-134615300D01*
X60325000Y-138440000D02*
X62240000Y-136525000D01*
D33*
%TO.N,Net-(U3-VI)*%
X22860000Y-146675000D02*
X22860000Y-142240000D01*
X22860000Y-137805000D02*
X22860000Y-142240000D01*
D34*
%TO.N,/OUT3*%
X47785000Y-118265000D02*
X47785000Y-117232599D01*
X47785000Y-117232599D02*
X47802101Y-117215498D01*
X47802101Y-117215498D02*
X48260000Y-117673397D01*
X48260000Y-117673397D02*
X48260000Y-117790000D01*
D33*
%TO.N,/OUT0*%
X42385000Y-117404000D02*
X42385000Y-117415000D01*
X42429500Y-117359500D02*
X42385000Y-117404000D01*
X42429500Y-117215498D02*
X42429500Y-117359500D01*
D34*
%TO.N,/Quad_SEN*%
X132814900Y-107377500D02*
X137492500Y-107377500D01*
X43012892Y-114469900D02*
X125722500Y-114469900D01*
X125722500Y-114469900D02*
X132814900Y-107377500D01*
X40905000Y-118375504D02*
X40905000Y-116577792D01*
X137492500Y-107377500D02*
X138430000Y-108315000D01*
X41294496Y-118765000D02*
X40905000Y-118375504D01*
X42385000Y-118765000D02*
X41294496Y-118765000D01*
X40905000Y-116577792D02*
X43012892Y-114469900D01*
%TO.N,/Quad_INPUT0*%
X41158100Y-119265000D02*
X42385000Y-119265000D01*
X40455000Y-118561900D02*
X41158100Y-119265000D01*
X42979496Y-113866900D02*
X40455000Y-116391396D01*
X82415800Y-110567400D02*
X79116300Y-113866900D01*
X79116300Y-113866900D02*
X42979496Y-113866900D01*
X40455000Y-116391396D02*
X40455000Y-118561900D01*
%TO.N,Net-(D4-A)*%
X41008000Y-119765000D02*
X42385000Y-119765000D01*
X40005000Y-118762000D02*
X41008000Y-119765000D01*
X40005000Y-116205000D02*
X40005000Y-118762000D01*
X44450000Y-111760000D02*
X40005000Y-116205000D01*
X46080000Y-111760000D02*
X44450000Y-111760000D01*
D33*
%TO.N,/OUT1*%
X34925000Y-122555000D02*
X42385000Y-122555000D01*
D39*
X42385000Y-122555000D02*
X42385000Y-121765000D01*
D34*
%TO.N,+5V*%
X86360000Y-107950000D02*
X86360000Y-107609100D01*
X86360000Y-107609100D02*
X86360000Y-107268200D01*
X81727800Y-107609100D02*
X81386900Y-107950000D01*
X86360000Y-107609100D02*
X81727800Y-107609100D01*
X80060000Y-107950000D02*
X81386900Y-107950000D01*
X89805600Y-110713800D02*
X86360000Y-107268200D01*
X93237500Y-110713800D02*
X89805600Y-110713800D01*
X93770400Y-111246700D02*
X93237500Y-110713800D01*
X127917700Y-111246700D02*
X93770400Y-111246700D01*
D33*
%TO.N,Net-(U3-VI)*%
X31730000Y-146675000D02*
X27295000Y-146675000D01*
X27295000Y-146675000D02*
X22860000Y-146675000D01*
X31730000Y-142240000D02*
X27295000Y-142240000D01*
X27295000Y-142240000D02*
X22860000Y-142240000D01*
X31730000Y-137805000D02*
X27295000Y-137805000D01*
X27295000Y-137805000D02*
X22860000Y-137805000D01*
D34*
X78704100Y-110221000D02*
X78733100Y-110250000D01*
D39*
X77659500Y-110221000D02*
X78704100Y-110221000D01*
X80060000Y-110250000D02*
X78733100Y-110250000D01*
D34*
%TO.N,Net-(IC2-CS)*%
X48260000Y-107680000D02*
X50775400Y-107680000D01*
X51340000Y-107680000D02*
X53340000Y-105680000D01*
X50775400Y-107680000D02*
X51340000Y-107680000D01*
X50775400Y-107680000D02*
X50775400Y-108636900D01*
X51671400Y-119765000D02*
X47785000Y-119765000D01*
X51898200Y-119538200D02*
X51671400Y-119765000D01*
X52409500Y-119538200D02*
X51898200Y-119538200D01*
X52684600Y-119263100D02*
X52409500Y-119538200D01*
%TO.N,/Quad_INPUT3*%
X47785000Y-119265000D02*
X48861900Y-119265000D01*
X126924800Y-115375200D02*
X133985000Y-108315000D01*
X55544600Y-115375200D02*
X126924800Y-115375200D01*
X51833600Y-119086200D02*
X55544600Y-115375200D01*
X51833600Y-119086300D02*
X51833600Y-119086200D01*
X51711000Y-119086300D02*
X51833600Y-119086300D01*
X51532300Y-119265000D02*
X51711000Y-119086300D01*
X48861900Y-119265000D02*
X51532300Y-119265000D01*
%TO.N,Net-(U2-GPIO35)*%
X133350000Y-105680000D02*
X133350000Y-102870000D01*
X133985000Y-106315000D02*
X133350000Y-105680000D01*
%TO.N,/Quad_INPUT2*%
X47785000Y-120765000D02*
X48861900Y-120765000D01*
X93910200Y-110747400D02*
X93131500Y-109968700D01*
X105493200Y-110747400D02*
X93910200Y-110747400D01*
X105767300Y-110473300D02*
X105493200Y-110747400D01*
X128016700Y-110473300D02*
X105767300Y-110473300D01*
X130175000Y-108315000D02*
X128016700Y-110473300D01*
X55318100Y-120765000D02*
X48861900Y-120765000D01*
%TO.N,Net-(U2-GPIO36)*%
X130810000Y-105680000D02*
X130810000Y-102870000D01*
X130175000Y-106315000D02*
X130810000Y-105680000D01*
%TO.N,/Quad_INPUT1*%
X42385000Y-120765000D02*
X41308100Y-120765000D01*
X124660600Y-110019400D02*
X94210400Y-110019400D01*
X126365000Y-108315000D02*
X124660600Y-110019400D01*
X41069200Y-121003900D02*
X41024800Y-121003900D01*
X41308100Y-120765000D02*
X41069200Y-121003900D01*
%TO.N,Net-(U2-GPIO37)*%
X128270000Y-104410000D02*
X128270000Y-102870000D01*
X126365000Y-106315000D02*
X128270000Y-104410000D01*
%TO.N,/Quad_INPUT0*%
X98381100Y-108315000D02*
X98024200Y-108671900D01*
X122555000Y-108315000D02*
X98381100Y-108315000D01*
%TO.N,Net-(U2-GPIO38)*%
X125730000Y-103140000D02*
X125730000Y-102870000D01*
X122555000Y-106315000D02*
X125730000Y-103140000D01*
%TO.N,Net-(U2-GPIO45)*%
X138430000Y-106315000D02*
X138430000Y-102870000D01*
%TO.N,/Quad_SEL1*%
X135890000Y-120920000D02*
X133374500Y-120920000D01*
X126338500Y-114921800D02*
X126636000Y-114624300D01*
X55063600Y-114921800D02*
X126338500Y-114921800D01*
X51193600Y-118791800D02*
X55063600Y-114921800D01*
X48863600Y-118791800D02*
X51193600Y-118791800D01*
X48836800Y-118765000D02*
X48863600Y-118791800D01*
X47785000Y-118765000D02*
X48836800Y-118765000D01*
%TO.N,Net-(U2-GPIO46)*%
X135890000Y-122920000D02*
X135890000Y-125730000D01*
%TO.N,/Quad_SEL0*%
X51973400Y-120265000D02*
X47785000Y-120265000D01*
X52248300Y-119990100D02*
X51973400Y-120265000D01*
X55538400Y-119990100D02*
X52248300Y-119990100D01*
X59697200Y-115831300D02*
X55538400Y-119990100D01*
X135993700Y-115831300D02*
X59697200Y-115831300D01*
X143510000Y-108315000D02*
X135993700Y-115831300D01*
%TO.N,Net-(U2-GPIO47)*%
X143510000Y-106315000D02*
X143510000Y-102870000D01*
%TO.N,/Dual_INPUT0*%
X118245800Y-117245800D02*
X121920000Y-120920000D01*
X62163400Y-117245800D02*
X118245800Y-117245800D01*
X61144200Y-118265000D02*
X62163400Y-117245800D01*
X60800000Y-118265000D02*
X61144200Y-118265000D01*
%TO.N,Net-(U2-GPIO16)*%
X123190000Y-124190000D02*
X123190000Y-125730000D01*
X121920000Y-122920000D02*
X123190000Y-124190000D01*
%TO.N,/Dual_INPUT1*%
X121101900Y-116291900D02*
X125730000Y-120920000D01*
X60126600Y-116291900D02*
X121101900Y-116291900D01*
X57896000Y-118522500D02*
X60126600Y-116291900D01*
X57896000Y-120761400D02*
X57896000Y-118522500D01*
X59054500Y-121919900D02*
X57896000Y-120761400D01*
X60645100Y-121919900D02*
X59054500Y-121919900D01*
X60800000Y-121765000D02*
X60645100Y-121919900D01*
%TO.N,Net-(U2-GPIO17)*%
X125730000Y-122920000D02*
X125730000Y-125730000D01*
%TO.N,/Dual_SEL*%
X60800000Y-120265000D02*
X59723100Y-120265000D01*
X59694900Y-120293200D02*
X58635300Y-120293200D01*
X59723100Y-120265000D02*
X59694900Y-120293200D01*
%TO.N,Net-(U2-GPIO18)*%
X128270000Y-124190000D02*
X128270000Y-125730000D01*
X129540000Y-122920000D02*
X128270000Y-124190000D01*
%TO.N,/Dual_SEN*%
X145617000Y-108315000D02*
X145415000Y-108113000D01*
X147320000Y-108315000D02*
X145617000Y-108315000D01*
X60800000Y-119265000D02*
X59723100Y-119265000D01*
X120523700Y-116752600D02*
X120794300Y-117023200D01*
X60305700Y-116752600D02*
X120523700Y-116752600D01*
X59271200Y-117787100D02*
X60305700Y-116752600D01*
X59271200Y-118737600D02*
X59271200Y-117787100D01*
X59723100Y-119189500D02*
X59271200Y-118737600D01*
X59723100Y-119265000D02*
X59723100Y-119189500D01*
%TO.N,Net-(U2-GPIO21)*%
X146050000Y-105045000D02*
X146050000Y-102870000D01*
X147320000Y-106315000D02*
X146050000Y-105045000D01*
%TO.N,/EXT3*%
X150422900Y-130612100D02*
X149225000Y-131810000D01*
X152538000Y-130612100D02*
X150422900Y-130612100D01*
X153170000Y-131244100D02*
X152538000Y-130612100D01*
X153170000Y-132294800D02*
X153170000Y-131244100D01*
X153736500Y-132861300D02*
X153170000Y-132294800D01*
X154872400Y-132861300D02*
X153736500Y-132861300D01*
X155232900Y-132500800D02*
X154872400Y-132861300D01*
X155232900Y-129832900D02*
X155232900Y-132500800D01*
X151130000Y-125730000D02*
X155232900Y-129832900D01*
%TO.N,Net-(R17-Pad1)*%
X148253700Y-132838700D02*
X147225000Y-131810000D01*
X151765000Y-132838700D02*
X148253700Y-132838700D01*
X151765000Y-133350000D02*
X151765000Y-132838700D01*
X151765000Y-132838700D02*
X151765000Y-131540000D01*
%TO.N,/EXT2*%
X147454100Y-124594100D02*
X148590000Y-125730000D01*
X145621900Y-124594100D02*
X147454100Y-124594100D01*
X144941400Y-125274600D02*
X145621900Y-124594100D01*
X144941400Y-126225300D02*
X144941400Y-125274600D01*
X146030300Y-127314200D02*
X144941400Y-126225300D01*
X151185600Y-127314200D02*
X146030300Y-127314200D01*
X154305000Y-130433600D02*
X151185600Y-127314200D01*
X154305000Y-131810000D02*
X154305000Y-130433600D01*
%TO.N,Net-(R14-Pad1)*%
X156575000Y-131540000D02*
X156305000Y-131810000D01*
X159385000Y-131540000D02*
X156575000Y-131540000D01*
X159385000Y-133350000D02*
X159385000Y-131540000D01*
%TO.N,/EXT1*%
X147154700Y-126834700D02*
X146050000Y-125730000D01*
X149104700Y-126834700D02*
X147154700Y-126834700D01*
X149883900Y-126055500D02*
X149104700Y-126834700D01*
X149883900Y-125432000D02*
X149883900Y-126055500D01*
X150677800Y-124638100D02*
X149883900Y-125432000D01*
X151582300Y-124638100D02*
X150677800Y-124638100D01*
X152221900Y-125277700D02*
X151582300Y-124638100D01*
X152221900Y-125843200D02*
X152221900Y-125277700D01*
X156990800Y-130612100D02*
X152221900Y-125843200D01*
X161267100Y-130612100D02*
X156990800Y-130612100D01*
X162465000Y-131810000D02*
X161267100Y-130612100D01*
%TO.N,Net-(R11-Pad1)*%
X164735000Y-131540000D02*
X164465000Y-131810000D01*
X167005000Y-131540000D02*
X164735000Y-131540000D01*
X167005000Y-133350000D02*
X167005000Y-131540000D01*
%TO.N,/EXT0*%
X168844700Y-131810000D02*
X168485400Y-131450700D01*
X169815000Y-131810000D02*
X168844700Y-131810000D01*
%TO.N,Net-(R10-Pad2)*%
X172085000Y-131540000D02*
X171815000Y-131810000D01*
X174625000Y-131540000D02*
X172085000Y-131540000D01*
X174625000Y-133350000D02*
X174625000Y-131540000D01*
%TO.N,Net-(IC1-FaultRST)*%
X60220000Y-117479600D02*
X60901600Y-117479600D01*
X59723100Y-117976500D02*
X60220000Y-117479600D01*
X59723100Y-118550400D02*
X59723100Y-117976500D01*
X59937700Y-118765000D02*
X59723100Y-118550400D01*
X60800000Y-118765000D02*
X59937700Y-118765000D01*
X63060900Y-106754100D02*
X63060900Y-108632400D01*
X64135000Y-105680000D02*
X63060900Y-106754100D01*
%TO.N,Net-(IC1-CS)*%
X73025000Y-107680000D02*
X69945000Y-107680000D01*
X69945000Y-107680000D02*
X67945000Y-105680000D01*
X69945000Y-108165500D02*
X69945000Y-107680000D01*
X69460100Y-108650400D02*
X69945000Y-108165500D01*
X59505900Y-121265000D02*
X59433900Y-121193000D01*
X60800000Y-121265000D02*
X59505900Y-121265000D01*
%TO.N,/VBAT_ADC*%
X108436000Y-104924000D02*
X110490000Y-102870000D01*
X98666000Y-104924000D02*
X108436000Y-104924000D01*
X95370000Y-108220000D02*
X98666000Y-104924000D01*
D40*
%TO.N,+12V*%
X45085000Y-120015000D02*
X45085000Y-122156000D01*
D34*
X45085000Y-122296900D02*
X45085000Y-122156000D01*
X90830000Y-104680000D02*
X86207200Y-104680000D01*
%TO.N,Net-(R1-Pad1)*%
X90830000Y-106680000D02*
X92370000Y-108220000D01*
X93370000Y-108220000D02*
X92370000Y-108220000D01*
X92370000Y-108220000D02*
X90830000Y-109760000D01*
D38*
%TO.N,+3V3*%
X146050000Y-143335000D02*
X151130000Y-143335000D01*
X151130000Y-143335000D02*
X156210000Y-143335000D01*
X156210000Y-143335000D02*
X161290000Y-143335000D01*
D34*
X102870000Y-125730000D02*
X105410000Y-125730000D01*
%TO.N,/EXT_SWITCH3*%
X151313100Y-135801900D02*
X151765000Y-135350000D01*
X131993100Y-135801900D02*
X151313100Y-135801900D01*
X124460000Y-143335000D02*
X131993100Y-135801900D01*
%TO.N,/EXT_SWITCH2*%
X155240100Y-139494900D02*
X159385000Y-135350000D01*
X133380100Y-139494900D02*
X155240100Y-139494900D01*
X129540000Y-143335000D02*
X133380100Y-139494900D01*
%TO.N,/EXT_SWITCH1*%
X137958400Y-139996600D02*
X134620000Y-143335000D01*
X162358400Y-139996600D02*
X137958400Y-139996600D01*
X167005000Y-135350000D02*
X162358400Y-139996600D01*
%TO.N,Net-(D8-K)*%
X118242500Y-133985000D02*
X121052500Y-133985000D01*
%TO.N,Net-(D7-K)*%
X106812500Y-133985000D02*
X109622500Y-133985000D01*
%TO.N,Net-(D6-K)*%
X139430000Y-133985000D02*
X142875000Y-133985000D01*
%TO.N,Net-(D5-K)*%
X95785000Y-133985000D02*
X98595000Y-133985000D01*
%TO.N,Net-(D4-A)*%
X40431200Y-106741200D02*
X39370000Y-105680000D01*
X45153000Y-106741200D02*
X40431200Y-106741200D01*
X46080000Y-107668200D02*
X45153000Y-106741200D01*
X46080000Y-111760000D02*
X46080000Y-107668200D01*
%TO.N,Net-(D3-K)*%
X128635000Y-133985000D02*
X131445000Y-133985000D01*
%TO.N,Net-(D2-K)*%
X84455000Y-133985000D02*
X87265000Y-133985000D01*
%TO.N,Net-(D1-A)*%
X62203800Y-111760000D02*
X62049300Y-111605500D01*
X65130000Y-111760000D02*
X62203800Y-111760000D01*
X62049300Y-108039300D02*
X62049300Y-111605500D01*
X59690000Y-105680000D02*
X62049300Y-108039300D01*
X59270300Y-119765000D02*
X58796500Y-119291200D01*
X60800000Y-119765000D02*
X59270300Y-119765000D01*
%TO.N,/OUT3*%
X121052500Y-131445000D02*
X119875600Y-131445000D01*
X118280000Y-131445000D02*
X119875600Y-131445000D01*
%TO.N,/Quad_CS*%
X47222600Y-106717400D02*
X48260000Y-105680000D01*
X47222600Y-108585100D02*
X47222600Y-106717400D01*
X49762500Y-111125000D02*
X47222600Y-108585100D01*
%TO.N,/OUT2*%
X109622500Y-131445000D02*
X108445600Y-131445000D01*
X106850000Y-131445000D02*
X108445600Y-131445000D01*
%TO.N,/OUT5*%
X66200000Y-120765000D02*
X66200000Y-121265000D01*
X142875000Y-131445000D02*
X141698100Y-131445000D01*
X66200000Y-121265000D02*
X66200000Y-121765000D01*
X139467500Y-131445000D02*
X141698100Y-131445000D01*
%TO.N,/OUT1*%
X98595000Y-131445000D02*
X97418100Y-131445000D01*
X97418100Y-131445000D02*
X95822500Y-131445000D01*
%TO.N,/OUT4*%
X66200000Y-118265000D02*
X66200000Y-118765000D01*
X66200000Y-119265000D02*
X66200000Y-119765000D01*
X66200000Y-118765000D02*
X66200000Y-119265000D01*
X131445000Y-131445000D02*
X130268100Y-131445000D01*
X128672500Y-131445000D02*
X130268100Y-131445000D01*
%TO.N,/OUT0*%
X84492500Y-131445000D02*
X87265000Y-131445000D01*
X42486100Y-118163900D02*
X42385000Y-118265000D01*
%TO.N,GND*%
X93747500Y-131445000D02*
X93747500Y-132757900D01*
X167005000Y-129540000D02*
X159385000Y-129540000D01*
X114972500Y-132715000D02*
X116242500Y-133985000D01*
X174625000Y-129540000D02*
X167005000Y-129540000D01*
X67945000Y-108755000D02*
X69680000Y-110490000D01*
X67945000Y-107680000D02*
X67945000Y-108755000D01*
X114972500Y-132677500D02*
X116205000Y-131445000D01*
X114972500Y-132715000D02*
X114972500Y-132677500D01*
X156210000Y-126365000D02*
X156210000Y-125730000D01*
X159385000Y-129540000D02*
X156210000Y-126365000D01*
X38385000Y-109865000D02*
X40280000Y-111760000D01*
X93747500Y-132757900D02*
X93785000Y-132795400D01*
X93785000Y-132795400D02*
X93785000Y-133985000D01*
X104812500Y-133985000D02*
X104812500Y-132795400D01*
X104892900Y-131562900D02*
X104775000Y-131445000D01*
X104892900Y-132715000D02*
X104892900Y-131562900D01*
X104812500Y-132795400D02*
X104892900Y-132715000D01*
X104892900Y-132715000D02*
X114972500Y-132715000D01*
X126635000Y-131482500D02*
X126635000Y-132638000D01*
X126597500Y-131445000D02*
X126635000Y-131482500D01*
X126635000Y-132638000D02*
X126635000Y-133985000D01*
X136199500Y-132754500D02*
X137430000Y-133985000D01*
X136199500Y-132638000D02*
X136199500Y-132754500D01*
X126635000Y-132638000D02*
X136199500Y-132638000D01*
X53340000Y-110373700D02*
X53340000Y-107680000D01*
X52588800Y-110373700D02*
X53340000Y-110373700D01*
X51837500Y-111125000D02*
X52588800Y-110373700D01*
X59690000Y-108627400D02*
X57943700Y-110373700D01*
X59690000Y-107680000D02*
X59690000Y-108627400D01*
X57943700Y-110373700D02*
X59330000Y-111760000D01*
X84794600Y-111760000D02*
X90830000Y-111760000D01*
X82134600Y-109100000D02*
X84794600Y-111760000D01*
X78692900Y-109100000D02*
X82134600Y-109100000D01*
X69680000Y-110490000D02*
X69747800Y-110557700D01*
X136199500Y-132638000D02*
X137392500Y-131445000D01*
X38385000Y-108665000D02*
X39370000Y-107680000D01*
X38385000Y-109865000D02*
X38385000Y-109505000D01*
X39370000Y-107680000D02*
X44450000Y-107680000D01*
X82417500Y-132528500D02*
X82646900Y-132757900D01*
X82417500Y-131445000D02*
X82417500Y-132528500D01*
X82455000Y-132949800D02*
X82646900Y-132757900D01*
X82455000Y-133985000D02*
X82455000Y-132949800D01*
X82646900Y-132757900D02*
X93747500Y-132757900D01*
X81763100Y-102870000D02*
X80060000Y-104573100D01*
X102870000Y-102870000D02*
X81763100Y-102870000D01*
X80060000Y-105650000D02*
X80060000Y-104573100D01*
%TO.N,/Dual_CS*%
X111899000Y-101739000D02*
X113030000Y-102870000D01*
X79113200Y-101739000D02*
X111899000Y-101739000D01*
X74098600Y-106753600D02*
X79113200Y-101739000D01*
X74098600Y-108260400D02*
X74098600Y-106753600D01*
X71869000Y-110490000D02*
X74098600Y-108260400D01*
X71755000Y-110490000D02*
X71869000Y-110490000D01*
X74098600Y-106753600D02*
X73025000Y-105680000D01*
%TD*%
%TA.AperFunction,Conductor*%
%TO.N,+12V*%
G36*
X118002387Y-117890985D02*
G01*
X118023029Y-117907619D01*
X120683181Y-120567771D01*
X120716666Y-120629094D01*
X120719500Y-120655452D01*
X120719500Y-120898318D01*
X120719501Y-121108000D01*
X120699817Y-121175039D01*
X120647013Y-121220794D01*
X120595501Y-121232000D01*
X77061465Y-121232000D01*
X76994426Y-121212315D01*
X76954078Y-121170001D01*
X76949447Y-121161980D01*
X76932533Y-121132684D01*
X76805871Y-120992012D01*
X76799932Y-120987697D01*
X76652734Y-120880751D01*
X76652729Y-120880748D01*
X76479807Y-120803757D01*
X76479802Y-120803755D01*
X76331309Y-120772193D01*
X76294646Y-120764400D01*
X76105354Y-120764400D01*
X76073296Y-120771214D01*
X75920197Y-120803755D01*
X75920192Y-120803757D01*
X75747270Y-120880748D01*
X75747265Y-120880751D01*
X75632385Y-120964217D01*
X75566579Y-120987697D01*
X75498525Y-120971871D01*
X75449830Y-120921766D01*
X75435500Y-120863899D01*
X75435500Y-119209588D01*
X75434907Y-119192310D01*
X75434906Y-119192285D01*
X75433155Y-119166760D01*
X75433155Y-119166756D01*
X75429606Y-119132323D01*
X75421811Y-119105187D01*
X75389880Y-118994035D01*
X75361228Y-118930311D01*
X75284150Y-118808818D01*
X75175966Y-118713961D01*
X75175963Y-118713959D01*
X75175958Y-118713955D01*
X75117417Y-118675847D01*
X75117410Y-118675843D01*
X74986882Y-118615306D01*
X74986879Y-118615305D01*
X74065772Y-118338974D01*
X74007216Y-118300856D01*
X73990496Y-118275661D01*
X73878043Y-118050754D01*
X73865669Y-117981989D01*
X73892436Y-117917450D01*
X73949846Y-117877628D01*
X73988952Y-117871300D01*
X117935348Y-117871300D01*
X118002387Y-117890985D01*
G37*
%TD.AperFunction*%
%TA.AperFunction,Conductor*%
G36*
X101765578Y-103515185D02*
G01*
X101800112Y-103548374D01*
X101896868Y-103686555D01*
X102053445Y-103843132D01*
X102234833Y-103970142D01*
X102286988Y-103994462D01*
X102432077Y-104062118D01*
X102484517Y-104108290D01*
X102503669Y-104175483D01*
X102483453Y-104242365D01*
X102430288Y-104287699D01*
X102379673Y-104298500D01*
X98748743Y-104298500D01*
X98733122Y-104296775D01*
X98733096Y-104297061D01*
X98725333Y-104296326D01*
X98657153Y-104298469D01*
X98655206Y-104298500D01*
X98626649Y-104298500D01*
X98619766Y-104299369D01*
X98613949Y-104299826D01*
X98567373Y-104301290D01*
X98548129Y-104306881D01*
X98529079Y-104310825D01*
X98509211Y-104313334D01*
X98465884Y-104330488D01*
X98460358Y-104332379D01*
X98415614Y-104345379D01*
X98415610Y-104345381D01*
X98398366Y-104355579D01*
X98380905Y-104364133D01*
X98362274Y-104371510D01*
X98362262Y-104371517D01*
X98324570Y-104398902D01*
X98319687Y-104402109D01*
X98279580Y-104425829D01*
X98265414Y-104439995D01*
X98250624Y-104452627D01*
X98234414Y-104464404D01*
X98234411Y-104464407D01*
X98204710Y-104500309D01*
X98200777Y-104504631D01*
X95722227Y-106983181D01*
X95660904Y-107016666D01*
X95634546Y-107019500D01*
X94969998Y-107019500D01*
X94969980Y-107019501D01*
X94867203Y-107030000D01*
X94867200Y-107030001D01*
X94700668Y-107085185D01*
X94700663Y-107085187D01*
X94551342Y-107177289D01*
X94457681Y-107270951D01*
X94396358Y-107304436D01*
X94326666Y-107299452D01*
X94282319Y-107270951D01*
X94188657Y-107177289D01*
X94188656Y-107177289D01*
X94188656Y-107177288D01*
X94071594Y-107105084D01*
X94039336Y-107085187D01*
X94039331Y-107085185D01*
X94023687Y-107080001D01*
X93872797Y-107030001D01*
X93872795Y-107030000D01*
X93770010Y-107019500D01*
X92969998Y-107019500D01*
X92969980Y-107019501D01*
X92867203Y-107030000D01*
X92867200Y-107030001D01*
X92700668Y-107085185D01*
X92700663Y-107085187D01*
X92551345Y-107177287D01*
X92469292Y-107259340D01*
X92407968Y-107292824D01*
X92338277Y-107287840D01*
X92293930Y-107259339D01*
X92066818Y-107032227D01*
X92033333Y-106970904D01*
X92030499Y-106944546D01*
X92030499Y-106622712D01*
X92030499Y-106279992D01*
X92027390Y-106249561D01*
X92019999Y-106177203D01*
X92019998Y-106177200D01*
X91999619Y-106115700D01*
X91964814Y-106010666D01*
X91872712Y-105861344D01*
X91748656Y-105737288D01*
X91607961Y-105650507D01*
X91599336Y-105645187D01*
X91599331Y-105645185D01*
X91586454Y-105640918D01*
X91432797Y-105590001D01*
X91432795Y-105590000D01*
X91330010Y-105579500D01*
X90329998Y-105579500D01*
X90329980Y-105579501D01*
X90227203Y-105590000D01*
X90227200Y-105590001D01*
X90060668Y-105645185D01*
X90060663Y-105645187D01*
X89911342Y-105737289D01*
X89787289Y-105861342D01*
X89695187Y-106010663D01*
X89695185Y-106010668D01*
X89688041Y-106032227D01*
X89640001Y-106177203D01*
X89640001Y-106177204D01*
X89640000Y-106177204D01*
X89629500Y-106279983D01*
X89629500Y-107080001D01*
X89629501Y-107080019D01*
X89640000Y-107182796D01*
X89640001Y-107182799D01*
X89695185Y-107349331D01*
X89695187Y-107349336D01*
X89704346Y-107364185D01*
X89787288Y-107498656D01*
X89911344Y-107622712D01*
X90060666Y-107714814D01*
X90227203Y-107769999D01*
X90329991Y-107780500D01*
X90994546Y-107780499D01*
X91061585Y-107800183D01*
X91082227Y-107816818D01*
X91397729Y-108132320D01*
X91431213Y-108193641D01*
X91426229Y-108263332D01*
X91397728Y-108307680D01*
X91082227Y-108623181D01*
X91020904Y-108656666D01*
X90994546Y-108659500D01*
X90329998Y-108659500D01*
X90329980Y-108659501D01*
X90227203Y-108670000D01*
X90227200Y-108670001D01*
X90060668Y-108725185D01*
X90060663Y-108725187D01*
X89911342Y-108817289D01*
X89787289Y-108941342D01*
X89695187Y-109090663D01*
X89695185Y-109090668D01*
X89680489Y-109135018D01*
X89640001Y-109257203D01*
X89640001Y-109257204D01*
X89640000Y-109257204D01*
X89629499Y-109359992D01*
X89629488Y-109360222D01*
X89629471Y-109360269D01*
X89629179Y-109363132D01*
X89628494Y-109363062D01*
X89606408Y-109426170D01*
X89551339Y-109469171D01*
X89481763Y-109475574D01*
X89419771Y-109443344D01*
X89417968Y-109441577D01*
X87896818Y-107920427D01*
X87863333Y-107859104D01*
X87860499Y-107832746D01*
X87860499Y-106002129D01*
X87860498Y-106002123D01*
X87860497Y-106002116D01*
X87854091Y-105942517D01*
X87850348Y-105932482D01*
X87803797Y-105807671D01*
X87803793Y-105807664D01*
X87717547Y-105692455D01*
X87717544Y-105692452D01*
X87602335Y-105606206D01*
X87602328Y-105606202D01*
X87467482Y-105555908D01*
X87467483Y-105555908D01*
X87407883Y-105549501D01*
X87407881Y-105549500D01*
X87407873Y-105549500D01*
X87407864Y-105549500D01*
X85312129Y-105549500D01*
X85312123Y-105549501D01*
X85252516Y-105555908D01*
X85117671Y-105606202D01*
X85117664Y-105606206D01*
X85002455Y-105692452D01*
X85002452Y-105692455D01*
X84916206Y-105807664D01*
X84916202Y-105807671D01*
X84865908Y-105942517D01*
X84859826Y-105999091D01*
X84859501Y-106002123D01*
X84859500Y-106002135D01*
X84859500Y-106859600D01*
X84839815Y-106926639D01*
X84787011Y-106972394D01*
X84735500Y-106983600D01*
X81810537Y-106983600D01*
X81794920Y-106981876D01*
X81794893Y-106982162D01*
X81787131Y-106981427D01*
X81718971Y-106983569D01*
X81717024Y-106983600D01*
X81688450Y-106983600D01*
X81687729Y-106983690D01*
X81681557Y-106984469D01*
X81675745Y-106984926D01*
X81629172Y-106986390D01*
X81629171Y-106986391D01*
X81626269Y-106987234D01*
X81623893Y-106987227D01*
X81621470Y-106987611D01*
X81621408Y-106987219D01*
X81556400Y-106987030D01*
X81497732Y-106949084D01*
X81492415Y-106942466D01*
X81454796Y-106892214D01*
X81441393Y-106874310D01*
X81416977Y-106808847D01*
X81431828Y-106740574D01*
X81441394Y-106725689D01*
X81443157Y-106723334D01*
X81503796Y-106642331D01*
X81554091Y-106507483D01*
X81560500Y-106447873D01*
X81560499Y-104852128D01*
X81554091Y-104792517D01*
X81543093Y-104763031D01*
X81503797Y-104657671D01*
X81503793Y-104657664D01*
X81417547Y-104542455D01*
X81417544Y-104542452D01*
X81302335Y-104456206D01*
X81294546Y-104451953D01*
X81295937Y-104449404D01*
X81251756Y-104416327D01*
X81227343Y-104350861D01*
X81242199Y-104282589D01*
X81263343Y-104254346D01*
X81985871Y-103531819D01*
X82047195Y-103498334D01*
X82073553Y-103495500D01*
X101698539Y-103495500D01*
X101765578Y-103515185D01*
G37*
%TD.AperFunction*%
%TA.AperFunction,Conductor*%
G36*
X186632539Y-99715185D02*
G01*
X186678294Y-99767989D01*
X186689500Y-99819500D01*
X186689500Y-149735500D01*
X186669815Y-149802539D01*
X186617011Y-149848294D01*
X186565500Y-149859500D01*
X17269500Y-149859500D01*
X17202461Y-149839815D01*
X17156706Y-149787011D01*
X17145500Y-149735500D01*
X17145500Y-129882584D01*
X18705686Y-129882584D01*
X18713842Y-130162873D01*
X18715852Y-130231955D01*
X18766508Y-130577784D01*
X18766508Y-130577785D01*
X18856969Y-130915386D01*
X18856973Y-130915397D01*
X18986010Y-131240203D01*
X18986017Y-131240220D01*
X19151891Y-131547854D01*
X19151896Y-131547861D01*
X19187075Y-131598101D01*
X19209402Y-131664304D01*
X19209500Y-131669223D01*
X19209500Y-132179747D01*
X19209469Y-132181694D01*
X19205793Y-132298693D01*
X19205793Y-132298698D01*
X19216808Y-132415242D01*
X19216961Y-132417183D01*
X19224310Y-132534004D01*
X19224312Y-132534015D01*
X19231145Y-132569839D01*
X19231968Y-132575621D01*
X19234728Y-132604812D01*
X19235402Y-132611938D01*
X19235403Y-132611944D01*
X19260936Y-132726174D01*
X19261331Y-132728080D01*
X19279404Y-132822818D01*
X19283269Y-132843079D01*
X19286399Y-132852712D01*
X19294540Y-132877769D01*
X19296082Y-132883404D01*
X19304038Y-132918998D01*
X19343686Y-133029124D01*
X19344317Y-133030966D01*
X19380496Y-133142313D01*
X19380500Y-133142322D01*
X19396025Y-133175315D01*
X19398261Y-133180713D01*
X19410618Y-133215034D01*
X19410940Y-133215666D01*
X19460566Y-133313064D01*
X19463770Y-133319351D01*
X19464613Y-133321071D01*
X19483019Y-133360185D01*
X19511712Y-133421162D01*
X19514463Y-133427007D01*
X19517391Y-133431621D01*
X19534001Y-133457795D01*
X19536897Y-133462871D01*
X19549089Y-133486799D01*
X19553459Y-133495375D01*
X19619286Y-133592237D01*
X19620317Y-133593807D01*
X19683051Y-133692661D01*
X19683053Y-133692664D01*
X19706300Y-133720765D01*
X19709809Y-133725438D01*
X19726502Y-133750001D01*
X19730312Y-133755606D01*
X19807728Y-133843418D01*
X19808992Y-133844898D01*
X19831042Y-133871550D01*
X19858609Y-133935752D01*
X19859500Y-133950593D01*
X19859500Y-137892306D01*
X19874738Y-138153927D01*
X19874739Y-138153938D01*
X19935428Y-138498127D01*
X19935430Y-138498134D01*
X20035674Y-138832972D01*
X20174107Y-139153895D01*
X20174113Y-139153908D01*
X20348870Y-139456597D01*
X20557584Y-139736949D01*
X20557589Y-139736955D01*
X20647292Y-139832034D01*
X20797442Y-139991183D01*
X20924026Y-140097399D01*
X21065186Y-140215847D01*
X21065194Y-140215853D01*
X21303639Y-140372681D01*
X21348833Y-140425965D01*
X21359500Y-140476281D01*
X21359500Y-141052702D01*
X21339815Y-141119741D01*
X21334767Y-141127012D01*
X21267657Y-141216660D01*
X21267652Y-141216668D01*
X21138230Y-141453687D01*
X21138228Y-141453691D01*
X21043848Y-141706736D01*
X20986443Y-141970617D01*
X20967177Y-142239998D01*
X20967177Y-142240001D01*
X20986443Y-142509382D01*
X21043848Y-142773263D01*
X21043850Y-142773270D01*
X21102448Y-142930377D01*
X21138228Y-143026308D01*
X21138230Y-143026312D01*
X21267652Y-143263331D01*
X21267657Y-143263339D01*
X21334767Y-143352987D01*
X21359184Y-143418451D01*
X21359500Y-143427297D01*
X21359500Y-145487702D01*
X21339815Y-145554741D01*
X21334767Y-145562012D01*
X21267657Y-145651660D01*
X21267652Y-145651668D01*
X21138230Y-145888687D01*
X21138228Y-145888691D01*
X21043848Y-146141736D01*
X20986443Y-146405617D01*
X20967177Y-146674998D01*
X20967177Y-146675001D01*
X20986443Y-146944382D01*
X21043848Y-147208263D01*
X21043850Y-147208270D01*
X21102448Y-147365377D01*
X21138228Y-147461308D01*
X21138230Y-147461312D01*
X21267652Y-147698331D01*
X21267657Y-147698339D01*
X21429493Y-147914527D01*
X21429509Y-147914545D01*
X21620454Y-148105490D01*
X21620472Y-148105506D01*
X21836660Y-148267342D01*
X21836668Y-148267347D01*
X22073687Y-148396769D01*
X22073691Y-148396771D01*
X22073693Y-148396772D01*
X22326730Y-148491150D01*
X22458676Y-148519853D01*
X22590617Y-148548556D01*
X22590619Y-148548556D01*
X22590623Y-148548557D01*
X22830007Y-148565677D01*
X22859999Y-148567823D01*
X22860000Y-148567823D01*
X22860001Y-148567823D01*
X22886987Y-148565892D01*
X23129377Y-148548557D01*
X23393270Y-148491150D01*
X23646307Y-148396772D01*
X23883337Y-148267344D01*
X23972986Y-148200233D01*
X24038451Y-148175816D01*
X24047297Y-148175500D01*
X26107703Y-148175500D01*
X26174742Y-148195185D01*
X26182013Y-148200233D01*
X26271660Y-148267342D01*
X26271668Y-148267347D01*
X26508687Y-148396769D01*
X26508691Y-148396771D01*
X26508693Y-148396772D01*
X26761730Y-148491150D01*
X26893676Y-148519853D01*
X27025617Y-148548556D01*
X27025619Y-148548556D01*
X27025623Y-148548557D01*
X27265007Y-148565677D01*
X27294999Y-148567823D01*
X27295000Y-148567823D01*
X27295001Y-148567823D01*
X27321987Y-148565892D01*
X27564377Y-148548557D01*
X27828270Y-148491150D01*
X28081307Y-148396772D01*
X28318337Y-148267344D01*
X28407986Y-148200233D01*
X28473451Y-148175816D01*
X28482297Y-148175500D01*
X30542703Y-148175500D01*
X30609742Y-148195185D01*
X30617013Y-148200233D01*
X30706660Y-148267342D01*
X30706668Y-148267347D01*
X30943687Y-148396769D01*
X30943691Y-148396771D01*
X30943693Y-148396772D01*
X31196730Y-148491150D01*
X31328676Y-148519853D01*
X31460617Y-148548556D01*
X31460619Y-148548556D01*
X31460623Y-148548557D01*
X31700007Y-148565677D01*
X31729999Y-148567823D01*
X31730000Y-148567823D01*
X31730001Y-148567823D01*
X31756987Y-148565892D01*
X31999377Y-148548557D01*
X32263270Y-148491150D01*
X32516307Y-148396772D01*
X32753337Y-148267344D01*
X32969535Y-148105500D01*
X33160500Y-147914535D01*
X33322344Y-147698337D01*
X33451772Y-147461307D01*
X33546150Y-147208270D01*
X33603557Y-146944377D01*
X33622823Y-146675000D01*
X33603557Y-146405623D01*
X33546150Y-146141730D01*
X33451772Y-145888693D01*
X33449818Y-145885115D01*
X33322347Y-145651668D01*
X33322342Y-145651660D01*
X33255232Y-145562011D01*
X33230815Y-145496547D01*
X33230499Y-145487701D01*
X33230499Y-143427298D01*
X33250184Y-143360259D01*
X33255232Y-143352987D01*
X33268698Y-143334999D01*
X79724706Y-143334999D01*
X79743853Y-143578297D01*
X79743853Y-143578300D01*
X79743854Y-143578302D01*
X79800198Y-143812989D01*
X79800830Y-143815619D01*
X79894222Y-144041089D01*
X80021737Y-144249173D01*
X80021738Y-144249176D01*
X80066676Y-144301791D01*
X80180241Y-144434759D01*
X80309996Y-144545580D01*
X80365823Y-144593261D01*
X80365826Y-144593262D01*
X80573910Y-144720777D01*
X80799381Y-144814169D01*
X80799378Y-144814169D01*
X80799384Y-144814170D01*
X80799388Y-144814172D01*
X81036698Y-144871146D01*
X81280000Y-144890294D01*
X81523302Y-144871146D01*
X81760612Y-144814172D01*
X81986089Y-144720777D01*
X82194179Y-144593259D01*
X82379759Y-144434759D01*
X82538259Y-144249179D01*
X82665777Y-144041089D01*
X82759172Y-143815612D01*
X82816146Y-143578302D01*
X82835294Y-143335000D01*
X84804706Y-143335000D01*
X84823853Y-143578297D01*
X84823853Y-143578300D01*
X84823854Y-143578302D01*
X84880198Y-143812989D01*
X84880830Y-143815619D01*
X84974222Y-144041089D01*
X85101737Y-144249173D01*
X85101738Y-144249176D01*
X85146676Y-144301791D01*
X85260241Y-144434759D01*
X85389996Y-144545580D01*
X85445823Y-144593261D01*
X85445826Y-144593262D01*
X85653910Y-144720777D01*
X85879381Y-144814169D01*
X85879378Y-144814169D01*
X85879384Y-144814170D01*
X85879388Y-144814172D01*
X86116698Y-144871146D01*
X86360000Y-144890294D01*
X86603302Y-144871146D01*
X86840612Y-144814172D01*
X87066089Y-144720777D01*
X87274179Y-144593259D01*
X87459759Y-144434759D01*
X87618259Y-144249179D01*
X87745777Y-144041089D01*
X87839172Y-143815612D01*
X87896146Y-143578302D01*
X87915294Y-143335000D01*
X89884706Y-143335000D01*
X89903853Y-143578297D01*
X89903853Y-143578300D01*
X89903854Y-143578302D01*
X89960198Y-143812989D01*
X89960830Y-143815619D01*
X90054222Y-144041089D01*
X90181737Y-144249173D01*
X90181738Y-144249176D01*
X90226676Y-144301791D01*
X90340241Y-144434759D01*
X90469996Y-144545580D01*
X90525823Y-144593261D01*
X90525826Y-144593262D01*
X90733910Y-144720777D01*
X90959381Y-144814169D01*
X90959378Y-144814169D01*
X90959384Y-144814170D01*
X90959388Y-144814172D01*
X91196698Y-144871146D01*
X91440000Y-144890294D01*
X91683302Y-144871146D01*
X91920612Y-144814172D01*
X92146089Y-144720777D01*
X92354179Y-144593259D01*
X92539759Y-144434759D01*
X92541372Y-144432870D01*
X94969500Y-144432870D01*
X94969501Y-144432876D01*
X94975908Y-144492483D01*
X95026202Y-144627328D01*
X95026206Y-144627335D01*
X95112452Y-144742544D01*
X95112455Y-144742547D01*
X95227664Y-144828793D01*
X95227671Y-144828797D01*
X95362517Y-144879091D01*
X95362516Y-144879091D01*
X95369444Y-144879835D01*
X95422127Y-144885500D01*
X97617872Y-144885499D01*
X97677483Y-144879091D01*
X97812331Y-144828796D01*
X97927546Y-144742546D01*
X98013796Y-144627331D01*
X98064091Y-144492483D01*
X98070500Y-144432873D01*
X98070499Y-142237128D01*
X98064091Y-142177517D01*
X98059143Y-142164252D01*
X98013797Y-142042671D01*
X98013793Y-142042664D01*
X97927547Y-141927455D01*
X97927544Y-141927452D01*
X97812335Y-141841206D01*
X97812328Y-141841202D01*
X97677482Y-141790908D01*
X97677483Y-141790908D01*
X97617883Y-141784501D01*
X97617881Y-141784500D01*
X97617873Y-141784500D01*
X97617864Y-141784500D01*
X95422129Y-141784500D01*
X95422123Y-141784501D01*
X95362516Y-141790908D01*
X95227671Y-141841202D01*
X95227664Y-141841206D01*
X95112455Y-141927452D01*
X95112452Y-141927455D01*
X95026206Y-142042664D01*
X95026202Y-142042671D01*
X94975908Y-142177517D01*
X94969908Y-142233334D01*
X94969501Y-142237123D01*
X94969500Y-142237135D01*
X94969500Y-144432870D01*
X92541372Y-144432870D01*
X92698259Y-144249179D01*
X92825777Y-144041089D01*
X92919172Y-143815612D01*
X92976146Y-143578302D01*
X92995294Y-143335000D01*
X92976146Y-143091698D01*
X92919172Y-142854388D01*
X92885572Y-142773270D01*
X92825777Y-142628910D01*
X92698262Y-142420826D01*
X92698261Y-142420823D01*
X92656688Y-142372147D01*
X92539759Y-142235241D01*
X92386910Y-142104696D01*
X92354176Y-142076738D01*
X92354173Y-142076737D01*
X92146089Y-141949222D01*
X91920618Y-141855830D01*
X91920621Y-141855830D01*
X91755727Y-141816242D01*
X91683302Y-141798854D01*
X91683300Y-141798853D01*
X91683297Y-141798853D01*
X91440000Y-141779706D01*
X91196702Y-141798853D01*
X91196697Y-141798854D01*
X91196698Y-141798854D01*
X90959397Y-141855826D01*
X90959380Y-141855830D01*
X90733910Y-141949222D01*
X90525826Y-142076737D01*
X90525823Y-142076738D01*
X90340241Y-142235241D01*
X90181738Y-142420823D01*
X90181737Y-142420826D01*
X90054222Y-142628910D01*
X89960830Y-142854380D01*
X89903853Y-143091702D01*
X89884706Y-143335000D01*
X87915294Y-143335000D01*
X87896146Y-143091698D01*
X87839172Y-142854388D01*
X87805572Y-142773270D01*
X87745777Y-142628910D01*
X87618262Y-142420826D01*
X87618261Y-142420823D01*
X87576688Y-142372147D01*
X87459759Y-142235241D01*
X87306910Y-142104696D01*
X87274176Y-142076738D01*
X87274173Y-142076737D01*
X87066089Y-141949222D01*
X86840618Y-141855830D01*
X86840621Y-141855830D01*
X86675727Y-141816242D01*
X86603302Y-141798854D01*
X86603300Y-141798853D01*
X86603297Y-141798853D01*
X86360000Y-141779706D01*
X86116702Y-141798853D01*
X86116697Y-141798854D01*
X86116698Y-141798854D01*
X85879397Y-141855826D01*
X85879380Y-141855830D01*
X85653910Y-141949222D01*
X85445826Y-142076737D01*
X85445823Y-142076738D01*
X85260241Y-142235241D01*
X85101738Y-142420823D01*
X85101737Y-142420826D01*
X84974222Y-142628910D01*
X84880830Y-142854380D01*
X84823853Y-143091702D01*
X84804706Y-143335000D01*
X82835294Y-143335000D01*
X82816146Y-143091698D01*
X82759172Y-142854388D01*
X82725572Y-142773270D01*
X82665777Y-142628910D01*
X82538262Y-142420826D01*
X82538261Y-142420823D01*
X82496688Y-142372147D01*
X82379759Y-142235241D01*
X82226910Y-142104696D01*
X82194176Y-142076738D01*
X82194173Y-142076737D01*
X81986089Y-141949222D01*
X81760618Y-141855830D01*
X81760621Y-141855830D01*
X81595727Y-141816242D01*
X81523302Y-141798854D01*
X81523300Y-141798853D01*
X81523297Y-141798853D01*
X81280000Y-141779706D01*
X81036702Y-141798853D01*
X81036697Y-141798854D01*
X81036698Y-141798854D01*
X80799397Y-141855826D01*
X80799380Y-141855830D01*
X80573910Y-141949222D01*
X80365826Y-142076737D01*
X80365823Y-142076738D01*
X80180241Y-142235241D01*
X80021738Y-142420823D01*
X80021737Y-142420826D01*
X79894222Y-142628910D01*
X79800830Y-142854380D01*
X79743853Y-143091702D01*
X79724706Y-143334999D01*
X33268698Y-143334999D01*
X33322344Y-143263337D01*
X33451772Y-143026307D01*
X33546150Y-142773270D01*
X33603557Y-142509377D01*
X33622823Y-142240000D01*
X33603557Y-141970623D01*
X33598901Y-141949222D01*
X33566297Y-141799344D01*
X33546150Y-141706730D01*
X33451772Y-141453693D01*
X33322344Y-141216663D01*
X33299114Y-141185631D01*
X33255232Y-141127011D01*
X33230815Y-141061547D01*
X33230499Y-141052701D01*
X33230499Y-140456194D01*
X33230499Y-139866405D01*
X33250184Y-139799370D01*
X33278495Y-139768432D01*
X33386880Y-139684361D01*
X33609361Y-139461880D01*
X33802204Y-139213269D01*
X33962367Y-138942448D01*
X34087324Y-138653689D01*
X34132516Y-138498136D01*
X34175103Y-138351551D01*
X34175105Y-138351542D01*
X34224324Y-138040790D01*
X34224324Y-138040789D01*
X34224325Y-138040783D01*
X34234207Y-137726302D01*
X34204598Y-137413062D01*
X34135962Y-137106004D01*
X34029382Y-136809968D01*
X33886541Y-136529625D01*
X33788126Y-136384812D01*
X33709687Y-136269391D01*
X33553687Y-136092446D01*
X33553672Y-136092430D01*
X27657723Y-130196482D01*
X26401245Y-128940004D01*
X39494521Y-128940004D01*
X39514405Y-129205357D01*
X39514405Y-129205359D01*
X39564651Y-129425500D01*
X39573623Y-129464805D01*
X39670844Y-129712521D01*
X39803899Y-129942980D01*
X39883501Y-130042797D01*
X39969820Y-130151037D01*
X40084332Y-130257288D01*
X40164890Y-130332035D01*
X40384761Y-130481940D01*
X40384767Y-130481942D01*
X40384769Y-130481944D01*
X40386364Y-130482712D01*
X40624514Y-130597399D01*
X40624515Y-130597399D01*
X40624518Y-130597401D01*
X40878806Y-130675839D01*
X40878807Y-130675839D01*
X40878810Y-130675840D01*
X41141937Y-130715499D01*
X41141942Y-130715499D01*
X41141945Y-130715500D01*
X41141946Y-130715500D01*
X41408054Y-130715500D01*
X41408055Y-130715500D01*
X41408062Y-130715499D01*
X41671189Y-130675840D01*
X41671190Y-130675839D01*
X41671194Y-130675839D01*
X41925482Y-130597401D01*
X42163637Y-130482712D01*
X42165232Y-130481944D01*
X42165232Y-130481943D01*
X42165240Y-130481940D01*
X42385110Y-130332035D01*
X42558559Y-130171097D01*
X42580179Y-130151037D01*
X42580179Y-130151035D01*
X42580183Y-130151033D01*
X42746101Y-129942980D01*
X42879156Y-129712521D01*
X42976377Y-129464805D01*
X43035593Y-129205367D01*
X43036587Y-129192101D01*
X43055479Y-128940004D01*
X43055479Y-128939995D01*
X43035594Y-128674642D01*
X43035594Y-128674640D01*
X43035593Y-128674636D01*
X43035593Y-128674633D01*
X42976377Y-128415195D01*
X42879156Y-128167479D01*
X42746101Y-127937020D01*
X42580183Y-127728967D01*
X42580182Y-127728966D01*
X42580179Y-127728962D01*
X42385110Y-127547965D01*
X42346045Y-127521331D01*
X42165240Y-127398060D01*
X42165236Y-127398058D01*
X42165233Y-127398056D01*
X42165232Y-127398055D01*
X41925484Y-127282600D01*
X41925486Y-127282600D01*
X41671195Y-127204161D01*
X41671189Y-127204159D01*
X41408062Y-127164500D01*
X41408055Y-127164500D01*
X41141945Y-127164500D01*
X41141937Y-127164500D01*
X40878810Y-127204159D01*
X40878804Y-127204161D01*
X40624514Y-127282600D01*
X40384769Y-127398055D01*
X40384760Y-127398060D01*
X40164892Y-127547963D01*
X39969820Y-127728962D01*
X39803899Y-127937020D01*
X39670844Y-128167478D01*
X39573625Y-128415189D01*
X39573620Y-128415206D01*
X39514405Y-128674640D01*
X39514405Y-128674642D01*
X39494521Y-128939995D01*
X39494521Y-128940004D01*
X26401245Y-128940004D01*
X25691558Y-128230317D01*
X25690234Y-128228950D01*
X25610092Y-128143608D01*
X25610090Y-128143606D01*
X25519900Y-128068993D01*
X25518419Y-128067729D01*
X25430606Y-127990312D01*
X25400438Y-127969809D01*
X25395765Y-127966300D01*
X25367664Y-127943053D01*
X25367661Y-127943051D01*
X25268807Y-127880317D01*
X25267237Y-127879286D01*
X25170375Y-127813459D01*
X25163807Y-127810112D01*
X25137871Y-127796897D01*
X25132795Y-127794001D01*
X25116671Y-127783769D01*
X25102007Y-127774463D01*
X24996071Y-127724613D01*
X24994351Y-127723770D01*
X24967818Y-127710251D01*
X24890032Y-127670617D01*
X24855713Y-127658261D01*
X24850315Y-127656025D01*
X24817322Y-127640500D01*
X24817313Y-127640496D01*
X24705966Y-127604317D01*
X24704124Y-127603686D01*
X24593998Y-127564038D01*
X24570838Y-127558861D01*
X24558399Y-127556080D01*
X24552769Y-127554540D01*
X24547880Y-127552951D01*
X24518079Y-127543269D01*
X24518074Y-127543268D01*
X24403080Y-127521331D01*
X24401173Y-127520936D01*
X24307449Y-127499985D01*
X24246319Y-127466150D01*
X24213185Y-127404637D01*
X24210500Y-127378972D01*
X24210500Y-126491405D01*
X24195689Y-126255995D01*
X24195688Y-126255988D01*
X24195688Y-126255985D01*
X24136731Y-125946921D01*
X24039503Y-125647685D01*
X23905537Y-125362993D01*
X23830037Y-125244024D01*
X23736948Y-125097338D01*
X23736945Y-125097334D01*
X23536393Y-124854909D01*
X23536391Y-124854907D01*
X23533839Y-124852510D01*
X23307030Y-124639522D01*
X23307027Y-124639520D01*
X23307021Y-124639515D01*
X23052495Y-124454591D01*
X23052488Y-124454586D01*
X23052484Y-124454584D01*
X22776766Y-124303006D01*
X22776763Y-124303004D01*
X22776758Y-124303002D01*
X22776757Y-124303001D01*
X22484228Y-124187181D01*
X22484225Y-124187180D01*
X22179476Y-124108934D01*
X22179463Y-124108932D01*
X21867329Y-124069500D01*
X21867318Y-124069500D01*
X21552682Y-124069500D01*
X21552670Y-124069500D01*
X21240536Y-124108932D01*
X21240523Y-124108934D01*
X20935774Y-124187180D01*
X20935771Y-124187181D01*
X20643242Y-124303001D01*
X20643241Y-124303002D01*
X20367516Y-124454584D01*
X20367504Y-124454591D01*
X20112978Y-124639515D01*
X20112968Y-124639523D01*
X19883608Y-124854907D01*
X19883606Y-124854909D01*
X19683054Y-125097334D01*
X19683051Y-125097338D01*
X19514464Y-125362990D01*
X19514461Y-125362996D01*
X19380499Y-125647678D01*
X19380497Y-125647683D01*
X19283270Y-125946916D01*
X19224311Y-126255988D01*
X19224310Y-126255995D01*
X19209500Y-126491405D01*
X19209500Y-128273266D01*
X19191039Y-128338363D01*
X19064480Y-128543548D01*
X18916769Y-128860313D01*
X18916766Y-128860321D01*
X18806825Y-129192101D01*
X18736148Y-129534395D01*
X18736148Y-129534398D01*
X18705686Y-129882571D01*
X18705686Y-129882580D01*
X18705686Y-129882584D01*
X17145500Y-129882584D01*
X17145500Y-122555004D01*
X33219732Y-122555004D01*
X33238777Y-122809154D01*
X33267693Y-122935845D01*
X33295492Y-123057637D01*
X33355645Y-123210904D01*
X33388608Y-123294890D01*
X33403116Y-123320019D01*
X33516041Y-123515612D01*
X33674950Y-123714877D01*
X33861783Y-123888232D01*
X34072366Y-124031805D01*
X34072371Y-124031807D01*
X34072372Y-124031808D01*
X34072373Y-124031809D01*
X34194328Y-124090538D01*
X34301992Y-124142387D01*
X34301993Y-124142387D01*
X34301996Y-124142389D01*
X34545542Y-124217513D01*
X34797565Y-124255500D01*
X35052435Y-124255500D01*
X35304458Y-124217513D01*
X35548004Y-124142389D01*
X35669171Y-124084038D01*
X35702932Y-124067780D01*
X35756733Y-124055500D01*
X42447063Y-124055500D01*
X42447067Y-124055500D01*
X42509677Y-124050311D01*
X42632813Y-124040109D01*
X42632816Y-124040108D01*
X42632821Y-124040108D01*
X42873881Y-123979063D01*
X43101607Y-123879173D01*
X43309785Y-123743164D01*
X43492738Y-123574744D01*
X43645474Y-123378509D01*
X43763828Y-123159810D01*
X43844571Y-122924614D01*
X43885500Y-122679335D01*
X43885500Y-122430665D01*
X43844571Y-122185386D01*
X43841901Y-122177610D01*
X43815719Y-122101344D01*
X43763828Y-121950190D01*
X43706137Y-121843586D01*
X43650444Y-121740674D01*
X43635499Y-121681657D01*
X43635499Y-121567128D01*
X43635498Y-121567111D01*
X43631320Y-121528253D01*
X43631320Y-121501745D01*
X43635500Y-121462873D01*
X43635499Y-121067128D01*
X43635499Y-121067127D01*
X43635498Y-121067111D01*
X43631320Y-121028253D01*
X43631320Y-121001745D01*
X43635500Y-120962873D01*
X43635499Y-120567128D01*
X43635499Y-120567127D01*
X43635498Y-120567111D01*
X43631320Y-120528253D01*
X43631320Y-120501745D01*
X43635500Y-120462873D01*
X43635499Y-120067128D01*
X43635499Y-120067127D01*
X43635498Y-120067111D01*
X43631320Y-120028253D01*
X43631320Y-120001745D01*
X43635500Y-119962873D01*
X43635499Y-119567128D01*
X43635499Y-119567127D01*
X43635498Y-119567111D01*
X43631320Y-119528253D01*
X43631320Y-119501745D01*
X43635500Y-119462873D01*
X43635499Y-119067128D01*
X43635499Y-119067127D01*
X43635498Y-119067111D01*
X43631320Y-119028253D01*
X43631320Y-119001745D01*
X43635500Y-118962873D01*
X43635499Y-118567128D01*
X43635499Y-118567127D01*
X43635498Y-118567111D01*
X43631320Y-118528253D01*
X43631320Y-118501745D01*
X43635500Y-118462873D01*
X43635500Y-118462867D01*
X43635855Y-118459568D01*
X43636942Y-118459684D01*
X43658679Y-118398049D01*
X43674927Y-118379664D01*
X43679550Y-118375375D01*
X43838459Y-118176110D01*
X43965893Y-117955386D01*
X44059008Y-117718135D01*
X44115722Y-117469655D01*
X44134768Y-117215498D01*
X44129309Y-117142657D01*
X44115722Y-116961343D01*
X44111562Y-116943118D01*
X44059008Y-116712861D01*
X43965893Y-116475610D01*
X43838459Y-116254886D01*
X43679550Y-116055621D01*
X43492717Y-115882266D01*
X43282134Y-115738693D01*
X43282130Y-115738691D01*
X43282127Y-115738689D01*
X43282126Y-115738688D01*
X43052506Y-115628110D01*
X43052503Y-115628108D01*
X43009758Y-115614923D01*
X42951500Y-115576352D01*
X42923343Y-115512407D01*
X42934227Y-115443391D01*
X42958623Y-115408758D01*
X43235666Y-115131716D01*
X43296987Y-115098234D01*
X43323345Y-115095400D01*
X53706047Y-115095400D01*
X53773086Y-115115085D01*
X53818841Y-115167889D01*
X53828785Y-115237047D01*
X53799760Y-115300603D01*
X53793728Y-115307081D01*
X50970828Y-118129981D01*
X50909505Y-118163466D01*
X50883147Y-118166300D01*
X49431497Y-118166300D01*
X49364458Y-118146615D01*
X49318703Y-118093811D01*
X49308759Y-118024653D01*
X49324110Y-117980300D01*
X49338494Y-117955386D01*
X49431609Y-117718135D01*
X49488323Y-117469655D01*
X49507369Y-117215498D01*
X49501910Y-117142657D01*
X49488323Y-116961343D01*
X49484163Y-116943118D01*
X49431609Y-116712861D01*
X49338494Y-116475610D01*
X49211060Y-116254886D01*
X49052151Y-116055621D01*
X48865318Y-115882266D01*
X48654735Y-115738693D01*
X48654731Y-115738691D01*
X48654728Y-115738689D01*
X48654727Y-115738688D01*
X48425107Y-115628110D01*
X48425109Y-115628110D01*
X48181567Y-115552987D01*
X48181563Y-115552986D01*
X48181559Y-115552985D01*
X48060332Y-115534712D01*
X47929541Y-115514998D01*
X47929536Y-115514998D01*
X47674666Y-115514998D01*
X47674660Y-115514998D01*
X47517710Y-115538655D01*
X47422643Y-115552985D01*
X47422639Y-115552986D01*
X47422640Y-115552986D01*
X47422634Y-115552987D01*
X47179093Y-115628110D01*
X46949474Y-115738688D01*
X46949473Y-115738689D01*
X46738883Y-115882266D01*
X46552053Y-116055619D01*
X46552051Y-116055621D01*
X46393142Y-116254886D01*
X46265709Y-116475607D01*
X46172593Y-116712860D01*
X46172591Y-116712867D01*
X46115878Y-116961343D01*
X46096833Y-117215493D01*
X46096833Y-117215502D01*
X46115878Y-117469652D01*
X46171115Y-117711663D01*
X46172593Y-117718135D01*
X46265708Y-117955386D01*
X46393142Y-118176110D01*
X46446717Y-118243291D01*
X46507447Y-118319444D01*
X46533856Y-118384131D01*
X46534500Y-118396755D01*
X46534500Y-118462867D01*
X46534501Y-118462878D01*
X46538679Y-118501745D01*
X46538679Y-118528250D01*
X46534500Y-118567122D01*
X46534500Y-118962869D01*
X46534501Y-118962878D01*
X46538679Y-119001745D01*
X46538679Y-119028250D01*
X46534500Y-119067122D01*
X46534500Y-119462869D01*
X46534501Y-119462878D01*
X46538679Y-119501745D01*
X46538679Y-119528250D01*
X46534500Y-119567122D01*
X46534500Y-119962869D01*
X46534501Y-119962878D01*
X46538679Y-120001745D01*
X46538679Y-120028250D01*
X46534500Y-120067122D01*
X46534500Y-120462869D01*
X46534501Y-120462878D01*
X46538679Y-120501745D01*
X46538679Y-120528250D01*
X46534500Y-120567122D01*
X46534500Y-120962869D01*
X46534501Y-120962878D01*
X46538679Y-121001745D01*
X46538679Y-121028250D01*
X46534500Y-121067122D01*
X46534500Y-121462869D01*
X46534501Y-121462878D01*
X46538679Y-121501745D01*
X46538679Y-121528251D01*
X46534500Y-121567123D01*
X46534499Y-121567127D01*
X46534499Y-121741659D01*
X46519554Y-121800675D01*
X46406175Y-122010183D01*
X46406169Y-122010197D01*
X46325429Y-122245383D01*
X46293019Y-122439611D01*
X46284500Y-122490665D01*
X46284500Y-122739335D01*
X46296151Y-122809157D01*
X46325429Y-122984616D01*
X46406169Y-123219802D01*
X46406172Y-123219811D01*
X46516023Y-123422797D01*
X46524526Y-123438509D01*
X46677262Y-123634744D01*
X46829208Y-123774620D01*
X46860217Y-123803166D01*
X47068393Y-123939173D01*
X47296118Y-124039063D01*
X47537175Y-124100107D01*
X47537179Y-124100108D01*
X47537181Y-124100108D01*
X47537186Y-124100109D01*
X47690589Y-124112819D01*
X47722933Y-124115500D01*
X48527825Y-124115500D01*
X48594864Y-124135185D01*
X48624771Y-124162186D01*
X48774450Y-124349877D01*
X48961283Y-124523232D01*
X49171866Y-124666805D01*
X49171871Y-124666807D01*
X49171872Y-124666808D01*
X49171873Y-124666809D01*
X49287858Y-124722664D01*
X49401492Y-124777387D01*
X49401493Y-124777387D01*
X49401496Y-124777389D01*
X49645042Y-124852513D01*
X49897065Y-124890500D01*
X50151935Y-124890500D01*
X50403958Y-124852513D01*
X50647504Y-124777389D01*
X50877134Y-124666805D01*
X51087717Y-124523232D01*
X51274550Y-124349877D01*
X51433459Y-124150612D01*
X51560893Y-123929888D01*
X51654008Y-123692637D01*
X51710722Y-123444157D01*
X51720025Y-123320009D01*
X51729768Y-123190004D01*
X51729768Y-123189995D01*
X51710722Y-122935845D01*
X51708159Y-122924616D01*
X51654008Y-122687363D01*
X51560893Y-122450112D01*
X51433459Y-122229388D01*
X51274550Y-122030123D01*
X51087717Y-121856768D01*
X50877134Y-121713195D01*
X50877130Y-121713193D01*
X50877127Y-121713191D01*
X50877125Y-121713190D01*
X50696529Y-121626220D01*
X50644669Y-121579398D01*
X50626356Y-121511971D01*
X50647404Y-121445347D01*
X50701130Y-121400678D01*
X50750330Y-121390500D01*
X54614352Y-121390500D01*
X54681391Y-121410185D01*
X54706500Y-121431526D01*
X54712226Y-121437885D01*
X54712230Y-121437889D01*
X54865365Y-121549148D01*
X54865370Y-121549151D01*
X55038292Y-121626142D01*
X55038297Y-121626144D01*
X55223454Y-121665500D01*
X55223455Y-121665500D01*
X55412744Y-121665500D01*
X55412746Y-121665500D01*
X55597903Y-121626144D01*
X55770830Y-121549151D01*
X55923971Y-121437888D01*
X56050633Y-121297216D01*
X56145279Y-121133284D01*
X56203774Y-120953256D01*
X56223560Y-120765000D01*
X56203774Y-120576744D01*
X56145279Y-120396716D01*
X56145276Y-120396710D01*
X56142638Y-120390786D01*
X56143926Y-120390212D01*
X56129198Y-120329484D01*
X56152055Y-120263459D01*
X56165370Y-120247718D01*
X57058820Y-119354269D01*
X57120142Y-119320785D01*
X57189834Y-119325769D01*
X57245767Y-119367641D01*
X57270184Y-119433105D01*
X57270500Y-119441951D01*
X57270500Y-120678655D01*
X57268775Y-120694272D01*
X57269061Y-120694299D01*
X57268326Y-120702066D01*
X57270469Y-120770246D01*
X57270500Y-120772193D01*
X57270500Y-120800743D01*
X57270501Y-120800760D01*
X57271368Y-120807631D01*
X57271826Y-120813450D01*
X57273290Y-120860024D01*
X57273291Y-120860027D01*
X57278880Y-120879267D01*
X57282824Y-120898311D01*
X57285336Y-120918192D01*
X57299220Y-120953259D01*
X57302490Y-120961519D01*
X57304382Y-120967047D01*
X57315089Y-121003900D01*
X57317382Y-121011790D01*
X57319280Y-121015000D01*
X57327580Y-121029034D01*
X57336138Y-121046503D01*
X57343514Y-121065132D01*
X57370898Y-121102823D01*
X57374106Y-121107707D01*
X57397827Y-121147816D01*
X57397833Y-121147824D01*
X57411990Y-121161980D01*
X57424627Y-121176775D01*
X57436406Y-121192987D01*
X57470019Y-121220794D01*
X57472309Y-121222688D01*
X57476620Y-121226610D01*
X58291583Y-122041574D01*
X58553697Y-122303688D01*
X58563522Y-122315951D01*
X58563743Y-122315769D01*
X58568711Y-122321774D01*
X58618432Y-122368466D01*
X58619832Y-122369823D01*
X58640023Y-122390015D01*
X58640027Y-122390018D01*
X58640029Y-122390020D01*
X58645511Y-122394273D01*
X58649943Y-122398057D01*
X58683918Y-122429962D01*
X58701476Y-122439614D01*
X58717735Y-122450295D01*
X58733564Y-122462573D01*
X58776338Y-122481082D01*
X58781556Y-122483638D01*
X58822408Y-122506097D01*
X58841816Y-122511080D01*
X58860217Y-122517380D01*
X58878604Y-122525337D01*
X58921988Y-122532208D01*
X58924619Y-122532625D01*
X58930339Y-122533809D01*
X58975481Y-122545400D01*
X58995516Y-122545400D01*
X59014914Y-122546926D01*
X59034694Y-122550059D01*
X59034695Y-122550060D01*
X59034695Y-122550059D01*
X59034696Y-122550060D01*
X59081083Y-122545675D01*
X59086922Y-122545400D01*
X60562357Y-122545400D01*
X60577977Y-122547124D01*
X60578004Y-122546839D01*
X60585766Y-122547573D01*
X60585766Y-122547572D01*
X60585767Y-122547573D01*
X60589099Y-122547468D01*
X60653947Y-122545431D01*
X60655894Y-122545400D01*
X60684447Y-122545400D01*
X60684450Y-122545400D01*
X60691328Y-122544530D01*
X60697141Y-122544072D01*
X60743727Y-122542609D01*
X60762969Y-122537017D01*
X60782012Y-122533074D01*
X60801892Y-122530564D01*
X60845222Y-122513407D01*
X60850746Y-122511517D01*
X60854496Y-122510427D01*
X60895490Y-122498518D01*
X60912729Y-122488322D01*
X60930203Y-122479762D01*
X60948829Y-122472387D01*
X60948828Y-122472387D01*
X60948832Y-122472386D01*
X60986530Y-122444995D01*
X60991414Y-122441788D01*
X60995095Y-122439611D01*
X61006672Y-122432764D01*
X61069789Y-122415499D01*
X61597871Y-122415499D01*
X61597872Y-122415499D01*
X61657483Y-122409091D01*
X61792331Y-122358796D01*
X61907546Y-122272546D01*
X61993796Y-122157331D01*
X62044091Y-122022483D01*
X62050500Y-121962873D01*
X62050499Y-121567128D01*
X62050499Y-121567127D01*
X62050498Y-121567111D01*
X62046320Y-121528253D01*
X62046320Y-121501745D01*
X62050500Y-121462873D01*
X62050499Y-121067128D01*
X62050499Y-121067127D01*
X62050498Y-121067111D01*
X62046320Y-121028253D01*
X62046320Y-121001745D01*
X62050500Y-120962873D01*
X62050499Y-120567128D01*
X62050499Y-120567127D01*
X62050498Y-120567111D01*
X62046320Y-120528253D01*
X62046320Y-120501745D01*
X62050500Y-120462873D01*
X62050499Y-120067128D01*
X62050499Y-120067127D01*
X62050498Y-120067111D01*
X62046320Y-120028253D01*
X62046320Y-120001745D01*
X62050500Y-119962873D01*
X62050499Y-119567128D01*
X62050499Y-119567127D01*
X62050498Y-119567111D01*
X62046320Y-119528253D01*
X62046320Y-119501745D01*
X62050500Y-119462873D01*
X62050499Y-119067128D01*
X62050499Y-119067127D01*
X62050498Y-119067111D01*
X62046320Y-119028253D01*
X62046320Y-119001745D01*
X62050500Y-118962873D01*
X62050499Y-118567128D01*
X62050499Y-118567127D01*
X62050498Y-118567111D01*
X62046320Y-118528253D01*
X62046320Y-118501745D01*
X62050500Y-118462873D01*
X62050499Y-118294652D01*
X62070183Y-118227613D01*
X62086809Y-118206980D01*
X62386173Y-117907616D01*
X62447495Y-117874134D01*
X62473853Y-117871300D01*
X64832508Y-117871300D01*
X64899547Y-117890985D01*
X64945302Y-117943789D01*
X64955797Y-118008552D01*
X64949500Y-118067127D01*
X64949500Y-118067134D01*
X64949500Y-118067135D01*
X64949500Y-118462869D01*
X64949501Y-118462878D01*
X64953679Y-118501745D01*
X64953679Y-118528250D01*
X64949500Y-118567122D01*
X64949500Y-118962869D01*
X64949501Y-118962878D01*
X64953679Y-119001745D01*
X64953679Y-119028250D01*
X64949500Y-119067122D01*
X64949500Y-119462869D01*
X64949501Y-119462878D01*
X64953679Y-119501745D01*
X64953679Y-119528250D01*
X64949500Y-119567122D01*
X64949500Y-119962869D01*
X64949501Y-119962878D01*
X64953679Y-120001745D01*
X64953679Y-120028250D01*
X64949500Y-120067122D01*
X64949500Y-120462869D01*
X64949501Y-120462878D01*
X64953679Y-120501745D01*
X64953679Y-120528250D01*
X64949500Y-120567122D01*
X64949500Y-120962869D01*
X64949501Y-120962878D01*
X64953679Y-121001745D01*
X64953679Y-121028250D01*
X64949500Y-121067122D01*
X64949500Y-121462869D01*
X64949501Y-121462878D01*
X64953679Y-121501745D01*
X64953679Y-121528250D01*
X64949500Y-121567122D01*
X64949500Y-121962870D01*
X64949501Y-121962876D01*
X64955908Y-122022481D01*
X64967056Y-122052369D01*
X65006204Y-122157331D01*
X65006205Y-122157332D01*
X65006206Y-122157335D01*
X65010456Y-122165118D01*
X65007485Y-122166740D01*
X65026182Y-122216857D01*
X65026499Y-122225713D01*
X65026499Y-122421253D01*
X65006814Y-122488292D01*
X64990180Y-122508934D01*
X63155924Y-124343191D01*
X63152910Y-124346010D01*
X62149515Y-125223981D01*
X62143347Y-125229560D01*
X62134253Y-125238063D01*
X62128088Y-125244024D01*
X61645295Y-125726818D01*
X61645287Y-125726826D01*
X61627210Y-125746953D01*
X61627202Y-125746962D01*
X61602074Y-125778145D01*
X61570431Y-125822027D01*
X61510662Y-125952900D01*
X61491811Y-126017097D01*
X61491486Y-126018036D01*
X61490976Y-126019939D01*
X61470500Y-126162359D01*
X61470500Y-130695500D01*
X61450815Y-130762539D01*
X61398011Y-130808294D01*
X61346500Y-130819500D01*
X56790452Y-130819500D01*
X56723413Y-130799815D01*
X56702771Y-130783181D01*
X55651489Y-129731899D01*
X55618004Y-129670576D01*
X55622988Y-129600884D01*
X55623742Y-129598916D01*
X55676377Y-129464805D01*
X55735593Y-129205367D01*
X55736587Y-129192101D01*
X55755479Y-128940004D01*
X55755479Y-128939995D01*
X55735594Y-128674642D01*
X55735594Y-128674640D01*
X55735593Y-128674636D01*
X55735593Y-128674633D01*
X55676377Y-128415195D01*
X55579156Y-128167479D01*
X55446101Y-127937020D01*
X55280183Y-127728967D01*
X55280182Y-127728966D01*
X55280179Y-127728962D01*
X55085110Y-127547965D01*
X55046045Y-127521331D01*
X54865240Y-127398060D01*
X54865236Y-127398058D01*
X54865233Y-127398056D01*
X54865232Y-127398055D01*
X54625484Y-127282600D01*
X54625486Y-127282600D01*
X54371195Y-127204161D01*
X54371189Y-127204159D01*
X54108062Y-127164500D01*
X54108055Y-127164500D01*
X53841945Y-127164500D01*
X53841937Y-127164500D01*
X53578810Y-127204159D01*
X53578804Y-127204161D01*
X53324514Y-127282600D01*
X53084769Y-127398055D01*
X53084760Y-127398060D01*
X52864892Y-127547963D01*
X52669820Y-127728962D01*
X52503899Y-127937020D01*
X52370844Y-128167478D01*
X52273625Y-128415189D01*
X52273620Y-128415206D01*
X52214405Y-128674640D01*
X52214405Y-128674642D01*
X52194521Y-128939995D01*
X52194521Y-128940004D01*
X52214405Y-129205357D01*
X52214405Y-129205359D01*
X52264651Y-129425500D01*
X52273623Y-129464805D01*
X52370844Y-129712521D01*
X52503899Y-129942980D01*
X52583501Y-130042797D01*
X52669820Y-130151037D01*
X52784332Y-130257288D01*
X52864890Y-130332035D01*
X53084761Y-130481940D01*
X53084767Y-130481942D01*
X53084769Y-130481944D01*
X53086364Y-130482712D01*
X53324514Y-130597399D01*
X53324515Y-130597399D01*
X53324518Y-130597401D01*
X53578806Y-130675839D01*
X53578807Y-130675839D01*
X53578810Y-130675840D01*
X53841937Y-130715499D01*
X53841942Y-130715499D01*
X53841945Y-130715500D01*
X53841946Y-130715500D01*
X54108054Y-130715500D01*
X54108055Y-130715500D01*
X54108062Y-130715499D01*
X54371189Y-130675840D01*
X54371190Y-130675839D01*
X54371194Y-130675839D01*
X54625482Y-130597401D01*
X54628772Y-130595816D01*
X54697710Y-130584459D01*
X54761846Y-130612177D01*
X54770261Y-130619852D01*
X55979197Y-131828788D01*
X55989022Y-131841051D01*
X55989243Y-131840869D01*
X55994211Y-131846874D01*
X56043932Y-131893566D01*
X56045332Y-131894923D01*
X56065523Y-131915115D01*
X56065527Y-131915118D01*
X56065529Y-131915120D01*
X56071011Y-131919373D01*
X56075443Y-131923157D01*
X56109418Y-131955062D01*
X56126976Y-131964714D01*
X56143233Y-131975393D01*
X56159064Y-131987673D01*
X56177844Y-131995800D01*
X56201833Y-132006182D01*
X56207077Y-132008750D01*
X56247908Y-132031197D01*
X56260523Y-132034435D01*
X56267305Y-132036177D01*
X56285719Y-132042481D01*
X56304104Y-132050438D01*
X56350157Y-132057732D01*
X56355826Y-132058906D01*
X56400981Y-132070500D01*
X56421016Y-132070500D01*
X56440413Y-132072026D01*
X56460196Y-132075160D01*
X56506583Y-132070775D01*
X56512422Y-132070500D01*
X61389042Y-132070500D01*
X61456081Y-132090185D01*
X61501836Y-132142989D01*
X61506696Y-132155341D01*
X61527383Y-132217497D01*
X61527386Y-132217503D01*
X61605171Y-132338537D01*
X61605179Y-132338548D01*
X61650923Y-132391340D01*
X61650926Y-132391343D01*
X61650930Y-132391347D01*
X61759664Y-132485567D01*
X61759667Y-132485568D01*
X61759668Y-132485569D01*
X61890536Y-132545336D01*
X61890537Y-132545336D01*
X61890541Y-132545338D01*
X61957580Y-132565023D01*
X61957584Y-132565024D01*
X62100000Y-132585500D01*
X62753407Y-132585500D01*
X62796740Y-132593318D01*
X62808634Y-132597754D01*
X62934954Y-132644869D01*
X62993717Y-132657652D01*
X63214566Y-132705695D01*
X63214568Y-132705695D01*
X63214572Y-132705696D01*
X63468220Y-132723837D01*
X63499999Y-132726110D01*
X63500000Y-132726110D01*
X63500001Y-132726110D01*
X63528595Y-132724064D01*
X63785428Y-132705696D01*
X64065046Y-132644869D01*
X64191366Y-132597754D01*
X64203260Y-132593318D01*
X64246593Y-132585500D01*
X64899990Y-132585500D01*
X64900000Y-132585500D01*
X65007456Y-132573947D01*
X65058967Y-132562741D01*
X65093197Y-132551347D01*
X65161497Y-132528616D01*
X65161501Y-132528613D01*
X65161504Y-132528613D01*
X65282543Y-132450825D01*
X65335347Y-132405070D01*
X65429567Y-132296336D01*
X65489338Y-132165459D01*
X65491070Y-132159559D01*
X65528847Y-132100784D01*
X65592404Y-132071761D01*
X65610046Y-132070500D01*
X76635347Y-132070500D01*
X76702386Y-132090185D01*
X76748141Y-132142989D01*
X76758085Y-132212147D01*
X76729060Y-132275703D01*
X76723028Y-132282181D01*
X73777028Y-135228181D01*
X73715705Y-135261666D01*
X73689347Y-135264500D01*
X50257743Y-135264500D01*
X50242122Y-135262775D01*
X50242095Y-135263061D01*
X50234333Y-135262326D01*
X50166140Y-135264469D01*
X50164193Y-135264500D01*
X50135649Y-135264500D01*
X50128778Y-135265367D01*
X50122959Y-135265825D01*
X50076374Y-135267289D01*
X50076368Y-135267290D01*
X50057126Y-135272880D01*
X50038087Y-135276823D01*
X50018217Y-135279334D01*
X50018203Y-135279337D01*
X49974883Y-135296488D01*
X49969358Y-135298380D01*
X49924613Y-135311380D01*
X49924610Y-135311381D01*
X49907366Y-135321579D01*
X49889905Y-135330133D01*
X49871274Y-135337510D01*
X49871262Y-135337517D01*
X49833570Y-135364902D01*
X49828687Y-135368109D01*
X49788580Y-135391829D01*
X49774414Y-135405995D01*
X49759624Y-135418627D01*
X49743414Y-135430404D01*
X49743411Y-135430407D01*
X49713710Y-135466309D01*
X49709777Y-135470631D01*
X48420260Y-136760147D01*
X48358937Y-136793632D01*
X48289245Y-136788648D01*
X48278794Y-136784194D01*
X48275482Y-136782599D01*
X48095829Y-136727183D01*
X48021195Y-136704161D01*
X48021189Y-136704159D01*
X47758062Y-136664500D01*
X47758055Y-136664500D01*
X47491945Y-136664500D01*
X47491937Y-136664500D01*
X47228810Y-136704159D01*
X47228804Y-136704161D01*
X46974514Y-136782600D01*
X46734769Y-136898055D01*
X46734760Y-136898060D01*
X46514892Y-137047963D01*
X46319820Y-137228962D01*
X46153899Y-137437020D01*
X46020844Y-137667478D01*
X45923625Y-137915189D01*
X45923624Y-137915194D01*
X45923620Y-137915206D01*
X45864405Y-138174640D01*
X45864405Y-138174642D01*
X45844521Y-138439995D01*
X45844521Y-138440004D01*
X45864405Y-138705357D01*
X45864405Y-138705359D01*
X45919589Y-138947134D01*
X45923623Y-138964805D01*
X46020844Y-139212521D01*
X46153899Y-139442980D01*
X46287906Y-139611018D01*
X46319820Y-139651037D01*
X46434332Y-139757288D01*
X46514890Y-139832035D01*
X46734761Y-139981940D01*
X46974514Y-140097399D01*
X46974515Y-140097399D01*
X46974518Y-140097401D01*
X47228806Y-140175839D01*
X47228807Y-140175839D01*
X47228810Y-140175840D01*
X47491937Y-140215499D01*
X47491942Y-140215499D01*
X47491945Y-140215500D01*
X47491946Y-140215500D01*
X47758054Y-140215500D01*
X47758055Y-140215500D01*
X47758062Y-140215499D01*
X48021189Y-140175840D01*
X48021190Y-140175839D01*
X48021194Y-140175839D01*
X48275482Y-140097401D01*
X48515240Y-139981940D01*
X48735110Y-139832035D01*
X48930183Y-139651033D01*
X49096101Y-139442980D01*
X49229156Y-139212521D01*
X49326377Y-138964805D01*
X49385593Y-138705367D01*
X49387600Y-138678583D01*
X49405479Y-138440004D01*
X49405479Y-138439995D01*
X49385594Y-138174642D01*
X49385594Y-138174640D01*
X49385593Y-138174636D01*
X49385593Y-138174633D01*
X49326377Y-137915195D01*
X49273740Y-137781079D01*
X49267572Y-137711487D01*
X49300009Y-137649603D01*
X49301423Y-137648165D01*
X50397770Y-136551819D01*
X50459094Y-136518334D01*
X50485452Y-136515500D01*
X59717746Y-136515500D01*
X59784785Y-136535185D01*
X59830540Y-136587989D01*
X59840484Y-136657147D01*
X59811459Y-136720703D01*
X59754297Y-136757990D01*
X59702901Y-136773843D01*
X59674514Y-136782600D01*
X59434769Y-136898055D01*
X59434760Y-136898060D01*
X59214892Y-137047963D01*
X59019820Y-137228962D01*
X58853899Y-137437020D01*
X58720844Y-137667478D01*
X58623625Y-137915189D01*
X58623624Y-137915194D01*
X58623620Y-137915206D01*
X58564405Y-138174640D01*
X58564405Y-138174642D01*
X58544521Y-138439995D01*
X58544521Y-138440004D01*
X58564405Y-138705357D01*
X58564405Y-138705359D01*
X58619589Y-138947134D01*
X58623623Y-138964805D01*
X58720844Y-139212521D01*
X58853899Y-139442980D01*
X58987906Y-139611018D01*
X59019820Y-139651037D01*
X59134332Y-139757288D01*
X59214890Y-139832035D01*
X59434761Y-139981940D01*
X59674514Y-140097399D01*
X59674515Y-140097399D01*
X59674518Y-140097401D01*
X59928806Y-140175839D01*
X59928807Y-140175839D01*
X59928810Y-140175840D01*
X60191937Y-140215499D01*
X60191942Y-140215499D01*
X60191945Y-140215500D01*
X60191946Y-140215500D01*
X60458054Y-140215500D01*
X60458055Y-140215500D01*
X60458062Y-140215499D01*
X60721189Y-140175840D01*
X60721190Y-140175839D01*
X60721194Y-140175839D01*
X60975482Y-140097401D01*
X61215240Y-139981940D01*
X61435110Y-139832035D01*
X61630183Y-139651033D01*
X61796101Y-139442980D01*
X61929156Y-139212521D01*
X62026377Y-138964805D01*
X62085593Y-138705367D01*
X62087600Y-138678583D01*
X62105479Y-138440004D01*
X62105479Y-138439995D01*
X62085594Y-138174642D01*
X62085594Y-138174640D01*
X62085593Y-138174636D01*
X62085593Y-138174633D01*
X62026377Y-137915195D01*
X61973742Y-137781083D01*
X61967573Y-137711486D01*
X62000011Y-137649603D01*
X62001489Y-137648100D01*
X62462772Y-137186819D01*
X62524095Y-137153334D01*
X62550453Y-137150500D01*
X71524903Y-137150500D01*
X71591942Y-137170185D01*
X71637697Y-137222989D01*
X71647641Y-137292147D01*
X71621850Y-137351813D01*
X71553899Y-137437020D01*
X71420844Y-137667478D01*
X71323625Y-137915189D01*
X71323624Y-137915194D01*
X71323620Y-137915206D01*
X71264405Y-138174640D01*
X71264405Y-138174642D01*
X71244521Y-138439995D01*
X71244521Y-138440004D01*
X71264405Y-138705357D01*
X71264405Y-138705359D01*
X71319589Y-138947134D01*
X71323623Y-138964805D01*
X71420844Y-139212521D01*
X71553899Y-139442980D01*
X71687906Y-139611018D01*
X71719820Y-139651037D01*
X71834332Y-139757288D01*
X71914890Y-139832035D01*
X72134761Y-139981940D01*
X72374514Y-140097399D01*
X72374515Y-140097399D01*
X72374518Y-140097401D01*
X72628806Y-140175839D01*
X72628807Y-140175839D01*
X72628810Y-140175840D01*
X72891937Y-140215499D01*
X72891942Y-140215499D01*
X72891945Y-140215500D01*
X72891946Y-140215500D01*
X73158054Y-140215500D01*
X73158055Y-140215500D01*
X73158062Y-140215499D01*
X73421189Y-140175840D01*
X73421190Y-140175839D01*
X73421194Y-140175839D01*
X73675482Y-140097401D01*
X73915240Y-139981940D01*
X74135110Y-139832035D01*
X74330183Y-139651033D01*
X74496101Y-139442980D01*
X74629156Y-139212521D01*
X74659896Y-139134194D01*
X74702710Y-139078984D01*
X74768580Y-139055683D01*
X74775323Y-139055500D01*
X100019548Y-139055500D01*
X100086587Y-139075185D01*
X100107229Y-139091819D01*
X100303181Y-139287771D01*
X100336666Y-139349094D01*
X100339500Y-139375452D01*
X100339500Y-144062255D01*
X100337775Y-144077872D01*
X100338061Y-144077899D01*
X100337326Y-144085666D01*
X100339469Y-144153846D01*
X100339500Y-144155793D01*
X100339500Y-144184343D01*
X100339501Y-144184360D01*
X100340368Y-144191231D01*
X100340826Y-144197050D01*
X100342290Y-144243624D01*
X100342291Y-144243627D01*
X100347880Y-144262867D01*
X100351824Y-144281911D01*
X100354336Y-144301792D01*
X100371490Y-144345119D01*
X100373382Y-144350647D01*
X100386381Y-144395388D01*
X100396580Y-144412634D01*
X100405136Y-144430100D01*
X100411530Y-144446248D01*
X100412514Y-144448732D01*
X100439898Y-144486423D01*
X100443106Y-144491307D01*
X100466827Y-144531416D01*
X100466833Y-144531424D01*
X100480990Y-144545580D01*
X100493628Y-144560376D01*
X100505405Y-144576586D01*
X100505406Y-144576587D01*
X100541309Y-144606288D01*
X100545620Y-144610210D01*
X101464382Y-145528973D01*
X101734197Y-145798788D01*
X101744022Y-145811051D01*
X101744243Y-145810869D01*
X101749211Y-145816874D01*
X101798932Y-145863566D01*
X101800332Y-145864923D01*
X101820523Y-145885115D01*
X101820527Y-145885118D01*
X101820529Y-145885120D01*
X101826011Y-145889373D01*
X101830443Y-145893157D01*
X101864418Y-145925062D01*
X101881976Y-145934714D01*
X101898235Y-145945395D01*
X101914064Y-145957673D01*
X101956838Y-145976182D01*
X101962056Y-145978738D01*
X102002908Y-146001197D01*
X102022316Y-146006180D01*
X102040717Y-146012480D01*
X102059104Y-146020437D01*
X102102488Y-146027308D01*
X102105119Y-146027725D01*
X102110839Y-146028909D01*
X102155981Y-146040500D01*
X102176016Y-146040500D01*
X102195414Y-146042026D01*
X102215194Y-146045159D01*
X102215195Y-146045160D01*
X102215195Y-146045159D01*
X102215196Y-146045160D01*
X102261583Y-146040775D01*
X102267422Y-146040500D01*
X120122357Y-146040500D01*
X120137977Y-146042224D01*
X120138004Y-146041939D01*
X120145766Y-146042673D01*
X120145766Y-146042672D01*
X120145767Y-146042673D01*
X120149099Y-146042568D01*
X120213947Y-146040531D01*
X120215894Y-146040500D01*
X120244447Y-146040500D01*
X120244450Y-146040500D01*
X120251328Y-146039630D01*
X120257141Y-146039172D01*
X120303727Y-146037709D01*
X120322969Y-146032117D01*
X120342012Y-146028174D01*
X120361892Y-146025664D01*
X120405222Y-146008507D01*
X120410746Y-146006617D01*
X120414496Y-146005527D01*
X120455490Y-145993618D01*
X120472729Y-145983422D01*
X120490203Y-145974862D01*
X120508827Y-145967488D01*
X120508827Y-145967487D01*
X120508832Y-145967486D01*
X120546549Y-145940082D01*
X120551405Y-145936892D01*
X120591520Y-145913170D01*
X120605689Y-145898999D01*
X120620479Y-145886368D01*
X120636687Y-145874594D01*
X120666399Y-145838676D01*
X120670312Y-145834376D01*
X122767781Y-143736907D01*
X122829102Y-143703424D01*
X122898794Y-143708408D01*
X122954727Y-143750280D01*
X122976033Y-143795641D01*
X122980826Y-143815607D01*
X122980829Y-143815616D01*
X123074220Y-144041085D01*
X123074222Y-144041088D01*
X123201737Y-144249173D01*
X123201738Y-144249176D01*
X123246676Y-144301791D01*
X123360241Y-144434759D01*
X123489996Y-144545580D01*
X123545823Y-144593261D01*
X123545826Y-144593262D01*
X123753910Y-144720777D01*
X123979381Y-144814169D01*
X123979378Y-144814169D01*
X123979384Y-144814170D01*
X123979388Y-144814172D01*
X124216698Y-144871146D01*
X124460000Y-144890294D01*
X124703302Y-144871146D01*
X124940612Y-144814172D01*
X125166089Y-144720777D01*
X125374179Y-144593259D01*
X125559759Y-144434759D01*
X125718259Y-144249179D01*
X125845777Y-144041089D01*
X125939172Y-143815612D01*
X125996146Y-143578302D01*
X126015294Y-143335000D01*
X125996146Y-143091698D01*
X125939172Y-142854388D01*
X125937500Y-142850351D01*
X125930027Y-142780882D01*
X125961298Y-142718401D01*
X125964348Y-142715240D01*
X132215871Y-136463719D01*
X132277195Y-136430234D01*
X132303553Y-136427400D01*
X151104172Y-136427400D01*
X151143175Y-136433694D01*
X151161832Y-136439876D01*
X151162203Y-136439999D01*
X151264991Y-136450500D01*
X152265008Y-136450499D01*
X152265016Y-136450498D01*
X152265019Y-136450498D01*
X152321302Y-136444748D01*
X152367797Y-136439999D01*
X152534334Y-136384814D01*
X152683656Y-136292712D01*
X152807712Y-136168656D01*
X152899814Y-136019334D01*
X152954999Y-135852797D01*
X152965500Y-135750009D01*
X152965499Y-134949992D01*
X152963870Y-134934049D01*
X152954999Y-134847203D01*
X152954998Y-134847200D01*
X152942928Y-134810776D01*
X152899814Y-134680666D01*
X152807712Y-134531344D01*
X152714049Y-134437681D01*
X152680564Y-134376358D01*
X152685548Y-134306666D01*
X152714049Y-134262319D01*
X152759783Y-134216585D01*
X152807712Y-134168656D01*
X152899814Y-134019334D01*
X152954999Y-133852797D01*
X152965500Y-133750009D01*
X152965499Y-133274250D01*
X152985183Y-133207213D01*
X153037987Y-133161458D01*
X153107146Y-133151514D01*
X153170702Y-133180539D01*
X153177180Y-133186571D01*
X153235697Y-133245088D01*
X153245522Y-133257351D01*
X153245743Y-133257169D01*
X153250711Y-133263174D01*
X153300432Y-133309866D01*
X153301832Y-133311223D01*
X153322023Y-133331415D01*
X153322027Y-133331418D01*
X153322029Y-133331420D01*
X153327511Y-133335673D01*
X153331943Y-133339457D01*
X153365918Y-133371362D01*
X153383476Y-133381014D01*
X153399733Y-133391693D01*
X153415564Y-133403973D01*
X153435237Y-133412486D01*
X153458333Y-133422482D01*
X153463577Y-133425050D01*
X153504408Y-133447497D01*
X153517023Y-133450735D01*
X153523805Y-133452477D01*
X153542219Y-133458781D01*
X153560604Y-133466738D01*
X153606657Y-133474032D01*
X153612326Y-133475206D01*
X153657481Y-133486800D01*
X153677516Y-133486800D01*
X153696913Y-133488326D01*
X153716696Y-133491460D01*
X153763083Y-133487075D01*
X153768922Y-133486800D01*
X154789657Y-133486800D01*
X154805277Y-133488524D01*
X154805304Y-133488239D01*
X154813066Y-133488973D01*
X154813066Y-133488972D01*
X154813067Y-133488973D01*
X154816399Y-133488868D01*
X154881247Y-133486831D01*
X154883194Y-133486800D01*
X154911747Y-133486800D01*
X154911750Y-133486800D01*
X154918628Y-133485930D01*
X154924441Y-133485472D01*
X154971027Y-133484009D01*
X154990269Y-133478417D01*
X155009312Y-133474474D01*
X155029192Y-133471964D01*
X155072522Y-133454807D01*
X155078046Y-133452917D01*
X155083181Y-133451425D01*
X155122790Y-133439918D01*
X155140029Y-133429722D01*
X155157503Y-133421162D01*
X155176127Y-133413788D01*
X155176127Y-133413787D01*
X155176132Y-133413786D01*
X155213849Y-133386382D01*
X155218705Y-133383192D01*
X155258820Y-133359470D01*
X155272986Y-133345303D01*
X155287781Y-133332668D01*
X155303984Y-133320896D01*
X155303983Y-133320896D01*
X155303987Y-133320894D01*
X155333699Y-133284976D01*
X155337611Y-133280678D01*
X155609982Y-133008306D01*
X155671305Y-132974822D01*
X155736666Y-132978281D01*
X155802203Y-132999999D01*
X155904991Y-133010500D01*
X156705008Y-133010499D01*
X156705016Y-133010498D01*
X156705019Y-133010498D01*
X156761302Y-133004748D01*
X156807797Y-132999999D01*
X156974334Y-132944814D01*
X157123656Y-132852712D01*
X157247712Y-132728656D01*
X157339814Y-132579334D01*
X157394999Y-132412797D01*
X157405500Y-132310009D01*
X157405500Y-132289500D01*
X157425185Y-132222461D01*
X157477989Y-132176706D01*
X157529500Y-132165500D01*
X158153942Y-132165500D01*
X158220981Y-132185185D01*
X158259479Y-132224401D01*
X158342288Y-132358656D01*
X158342290Y-132358658D01*
X158346766Y-132364319D01*
X158345374Y-132365419D01*
X158374436Y-132418642D01*
X158369452Y-132488334D01*
X158345893Y-132524990D01*
X158346766Y-132525681D01*
X158342290Y-132531341D01*
X158342288Y-132531343D01*
X158342288Y-132531344D01*
X158328511Y-132553679D01*
X158250187Y-132680663D01*
X158250185Y-132680668D01*
X158225905Y-132753942D01*
X158195001Y-132847203D01*
X158195001Y-132847204D01*
X158195000Y-132847204D01*
X158184500Y-132949983D01*
X158184500Y-133750001D01*
X158184501Y-133750019D01*
X158195000Y-133852796D01*
X158195001Y-133852799D01*
X158250185Y-134019331D01*
X158250187Y-134019336D01*
X158342289Y-134168657D01*
X158435951Y-134262319D01*
X158469436Y-134323642D01*
X158464452Y-134393334D01*
X158435951Y-134437681D01*
X158342289Y-134531342D01*
X158250187Y-134680663D01*
X158250185Y-134680666D01*
X158250186Y-134680666D01*
X158195001Y-134847203D01*
X158195001Y-134847204D01*
X158195000Y-134847204D01*
X158184500Y-134949983D01*
X158184500Y-135614546D01*
X158164815Y-135681585D01*
X158148181Y-135702227D01*
X155017328Y-138833081D01*
X154956005Y-138866566D01*
X154929647Y-138869400D01*
X133462843Y-138869400D01*
X133447222Y-138867675D01*
X133447195Y-138867961D01*
X133439433Y-138867226D01*
X133371240Y-138869369D01*
X133369293Y-138869400D01*
X133340749Y-138869400D01*
X133333878Y-138870267D01*
X133328059Y-138870725D01*
X133281474Y-138872189D01*
X133281468Y-138872190D01*
X133262226Y-138877780D01*
X133243187Y-138881723D01*
X133223317Y-138884234D01*
X133223300Y-138884238D01*
X133179982Y-138901388D01*
X133174458Y-138903279D01*
X133129707Y-138916283D01*
X133129704Y-138916284D01*
X133112458Y-138926483D01*
X133094993Y-138935039D01*
X133089110Y-138937368D01*
X133076366Y-138942414D01*
X133038672Y-138969799D01*
X133033791Y-138973005D01*
X132993680Y-138996728D01*
X132979508Y-139010900D01*
X132964723Y-139023528D01*
X132948512Y-139035307D01*
X132918809Y-139071210D01*
X132914877Y-139075531D01*
X130159786Y-141830621D01*
X130098463Y-141864106D01*
X130028771Y-141859122D01*
X130024655Y-141857502D01*
X130020622Y-141855831D01*
X130020615Y-141855829D01*
X130020613Y-141855828D01*
X130020612Y-141855828D01*
X129783302Y-141798854D01*
X129783300Y-141798853D01*
X129783297Y-141798853D01*
X129540000Y-141779706D01*
X129296702Y-141798853D01*
X129296697Y-141798854D01*
X129296698Y-141798854D01*
X129059397Y-141855826D01*
X129059380Y-141855830D01*
X128833910Y-141949222D01*
X128625826Y-142076737D01*
X128625823Y-142076738D01*
X128440241Y-142235241D01*
X128281738Y-142420823D01*
X128281737Y-142420826D01*
X128154222Y-142628910D01*
X128060830Y-142854380D01*
X128003853Y-143091702D01*
X127984706Y-143335000D01*
X128003853Y-143578297D01*
X128003853Y-143578300D01*
X128003854Y-143578302D01*
X128060198Y-143812989D01*
X128060830Y-143815619D01*
X128154222Y-144041089D01*
X128281737Y-144249173D01*
X128281738Y-144249176D01*
X128326676Y-144301791D01*
X128440241Y-144434759D01*
X128569996Y-144545580D01*
X128625823Y-144593261D01*
X128625826Y-144593262D01*
X128833910Y-144720777D01*
X129059381Y-144814169D01*
X129059378Y-144814169D01*
X129059384Y-144814170D01*
X129059388Y-144814172D01*
X129296698Y-144871146D01*
X129540000Y-144890294D01*
X129783302Y-144871146D01*
X130020612Y-144814172D01*
X130246089Y-144720777D01*
X130454179Y-144593259D01*
X130639759Y-144434759D01*
X130798259Y-144249179D01*
X130925777Y-144041089D01*
X131019172Y-143815612D01*
X131076146Y-143578302D01*
X131095294Y-143335000D01*
X131076146Y-143091698D01*
X131019172Y-142854388D01*
X131017500Y-142850351D01*
X131010027Y-142780882D01*
X131041298Y-142718401D01*
X131044348Y-142715240D01*
X133602870Y-140156719D01*
X133664194Y-140123234D01*
X133690552Y-140120400D01*
X136650648Y-140120400D01*
X136717687Y-140140085D01*
X136763442Y-140192889D01*
X136773386Y-140262047D01*
X136744361Y-140325603D01*
X136738332Y-140332077D01*
X136482192Y-140588217D01*
X135239786Y-141830621D01*
X135178463Y-141864106D01*
X135108771Y-141859122D01*
X135104655Y-141857502D01*
X135100622Y-141855831D01*
X135100615Y-141855829D01*
X135100613Y-141855828D01*
X135100612Y-141855828D01*
X134863302Y-141798854D01*
X134863300Y-141798853D01*
X134863297Y-141798853D01*
X134620000Y-141779706D01*
X134376702Y-141798853D01*
X134376697Y-141798854D01*
X134376698Y-141798854D01*
X134139397Y-141855826D01*
X134139380Y-141855830D01*
X133913910Y-141949222D01*
X133705826Y-142076737D01*
X133705823Y-142076738D01*
X133520241Y-142235241D01*
X133361738Y-142420823D01*
X133361737Y-142420826D01*
X133234222Y-142628910D01*
X133140830Y-142854380D01*
X133083853Y-143091702D01*
X133064706Y-143335000D01*
X133083853Y-143578297D01*
X133083853Y-143578300D01*
X133083854Y-143578302D01*
X133140198Y-143812989D01*
X133140830Y-143815619D01*
X133234222Y-144041089D01*
X133361737Y-144249173D01*
X133361738Y-144249176D01*
X133406676Y-144301791D01*
X133520241Y-144434759D01*
X133649996Y-144545580D01*
X133705823Y-144593261D01*
X133705826Y-144593262D01*
X133913910Y-144720777D01*
X134139381Y-144814169D01*
X134139378Y-144814169D01*
X134139384Y-144814170D01*
X134139388Y-144814172D01*
X134376698Y-144871146D01*
X134620000Y-144890294D01*
X134863302Y-144871146D01*
X135100612Y-144814172D01*
X135326089Y-144720777D01*
X135534179Y-144593259D01*
X135719759Y-144434759D01*
X135878259Y-144249179D01*
X136005777Y-144041089D01*
X136099172Y-143815612D01*
X136156146Y-143578302D01*
X136175294Y-143335000D01*
X136156146Y-143091698D01*
X136099172Y-142854388D01*
X136097500Y-142850351D01*
X136090027Y-142780882D01*
X136121298Y-142718401D01*
X136124348Y-142715240D01*
X138181170Y-140658419D01*
X138242494Y-140624934D01*
X138268852Y-140622100D01*
X162275657Y-140622100D01*
X162291277Y-140623824D01*
X162291304Y-140623539D01*
X162299066Y-140624273D01*
X162299066Y-140624272D01*
X162299067Y-140624273D01*
X162302399Y-140624168D01*
X162367247Y-140622131D01*
X162369194Y-140622100D01*
X162397747Y-140622100D01*
X162397750Y-140622100D01*
X162404628Y-140621230D01*
X162410441Y-140620772D01*
X162457027Y-140619309D01*
X162476269Y-140613717D01*
X162495312Y-140609774D01*
X162515192Y-140607264D01*
X162558522Y-140590107D01*
X162564046Y-140588217D01*
X162567796Y-140587127D01*
X162608790Y-140575218D01*
X162626029Y-140565022D01*
X162643503Y-140556462D01*
X162662127Y-140549088D01*
X162662127Y-140549087D01*
X162662132Y-140549086D01*
X162699849Y-140521682D01*
X162704705Y-140518492D01*
X162744820Y-140494770D01*
X162758989Y-140480599D01*
X162773779Y-140467968D01*
X162789987Y-140456194D01*
X162819699Y-140420276D01*
X162823612Y-140415976D01*
X166752771Y-136486817D01*
X166814094Y-136453333D01*
X166840452Y-136450499D01*
X167505002Y-136450499D01*
X167505008Y-136450499D01*
X167607797Y-136439999D01*
X167774334Y-136384814D01*
X167923656Y-136292712D01*
X168047712Y-136168656D01*
X168139814Y-136019334D01*
X168194999Y-135852797D01*
X168205500Y-135750009D01*
X168205499Y-134949992D01*
X168203870Y-134934049D01*
X168194999Y-134847203D01*
X168194998Y-134847200D01*
X168182928Y-134810776D01*
X168139814Y-134680666D01*
X168047712Y-134531344D01*
X167954049Y-134437681D01*
X167920564Y-134376358D01*
X167925548Y-134306666D01*
X167954049Y-134262319D01*
X167999783Y-134216585D01*
X168047712Y-134168656D01*
X168139814Y-134019334D01*
X168194999Y-133852797D01*
X168205500Y-133750009D01*
X168205499Y-132949992D01*
X168194999Y-132847203D01*
X168139814Y-132680666D01*
X168047712Y-132531344D01*
X168047709Y-132531341D01*
X168043234Y-132525681D01*
X168044625Y-132524580D01*
X168015564Y-132471358D01*
X168020548Y-132401666D01*
X168044107Y-132365007D01*
X168043235Y-132364318D01*
X168052195Y-132352987D01*
X168053271Y-132353838D01*
X168099405Y-132312341D01*
X168168367Y-132301117D01*
X168203435Y-132310882D01*
X168205015Y-132311585D01*
X168205597Y-132311844D01*
X168390754Y-132351200D01*
X168494681Y-132351200D01*
X168543930Y-132361400D01*
X168566534Y-132371182D01*
X168571777Y-132373750D01*
X168612608Y-132396197D01*
X168625223Y-132399435D01*
X168632005Y-132401177D01*
X168650419Y-132407481D01*
X168668804Y-132415438D01*
X168668810Y-132415438D01*
X168669353Y-132415597D01*
X168669734Y-132415840D01*
X168675965Y-132418537D01*
X168675530Y-132419542D01*
X168728238Y-132453205D01*
X168752461Y-132495666D01*
X168780185Y-132579331D01*
X168780186Y-132579333D01*
X168780187Y-132579336D01*
X168802805Y-132616006D01*
X168872288Y-132728656D01*
X168996344Y-132852712D01*
X169145666Y-132944814D01*
X169312203Y-132999999D01*
X169414991Y-133010500D01*
X170215008Y-133010499D01*
X170215016Y-133010498D01*
X170215019Y-133010498D01*
X170271302Y-133004748D01*
X170317797Y-132999999D01*
X170484334Y-132944814D01*
X170633656Y-132852712D01*
X170727318Y-132759048D01*
X170788642Y-132725564D01*
X170858334Y-132730548D01*
X170902681Y-132759048D01*
X170996344Y-132852712D01*
X171145666Y-132944814D01*
X171312203Y-132999999D01*
X171414991Y-133010500D01*
X172215008Y-133010499D01*
X172215016Y-133010498D01*
X172215019Y-133010498D01*
X172271302Y-133004748D01*
X172317797Y-132999999D01*
X172484334Y-132944814D01*
X172633656Y-132852712D01*
X172757712Y-132728656D01*
X172849814Y-132579334D01*
X172904999Y-132412797D01*
X172915500Y-132310009D01*
X172915500Y-132289500D01*
X172935185Y-132222461D01*
X172987989Y-132176706D01*
X173039500Y-132165500D01*
X173393942Y-132165500D01*
X173460981Y-132185185D01*
X173499479Y-132224401D01*
X173582288Y-132358656D01*
X173582290Y-132358658D01*
X173586766Y-132364319D01*
X173585374Y-132365419D01*
X173614436Y-132418642D01*
X173609452Y-132488334D01*
X173585893Y-132524990D01*
X173586766Y-132525681D01*
X173582290Y-132531341D01*
X173582288Y-132531343D01*
X173582288Y-132531344D01*
X173568511Y-132553678D01*
X173490187Y-132680663D01*
X173490185Y-132680668D01*
X173465905Y-132753942D01*
X173435001Y-132847203D01*
X173435001Y-132847204D01*
X173435000Y-132847204D01*
X173424500Y-132949983D01*
X173424500Y-133750001D01*
X173424501Y-133750019D01*
X173435000Y-133852796D01*
X173435001Y-133852799D01*
X173490185Y-134019331D01*
X173490187Y-134019336D01*
X173582289Y-134168657D01*
X173675951Y-134262319D01*
X173709436Y-134323642D01*
X173704452Y-134393334D01*
X173675951Y-134437681D01*
X173582289Y-134531342D01*
X173490187Y-134680663D01*
X173490185Y-134680666D01*
X173490186Y-134680666D01*
X173435001Y-134847203D01*
X173435001Y-134847204D01*
X173435000Y-134847204D01*
X173424500Y-134949983D01*
X173424500Y-135614546D01*
X173404815Y-135681585D01*
X173388181Y-135702227D01*
X168147228Y-140943181D01*
X168085905Y-140976666D01*
X168059547Y-140979500D01*
X142889637Y-140979500D01*
X142874020Y-140977776D01*
X142873993Y-140978062D01*
X142866231Y-140977327D01*
X142798071Y-140979469D01*
X142796124Y-140979500D01*
X142767550Y-140979500D01*
X142766829Y-140979590D01*
X142760657Y-140980369D01*
X142754845Y-140980826D01*
X142708272Y-140982290D01*
X142708269Y-140982291D01*
X142689026Y-140987881D01*
X142669983Y-140991825D01*
X142650104Y-140994336D01*
X142650103Y-140994337D01*
X142606778Y-141011490D01*
X142601252Y-141013382D01*
X142556508Y-141026383D01*
X142556504Y-141026385D01*
X142539265Y-141036580D01*
X142521798Y-141045137D01*
X142503169Y-141052512D01*
X142503167Y-141052513D01*
X142465464Y-141079906D01*
X142460582Y-141083112D01*
X142420480Y-141106828D01*
X142406308Y-141121000D01*
X142391523Y-141133628D01*
X142375312Y-141145407D01*
X142345609Y-141181310D01*
X142341677Y-141185631D01*
X141409240Y-142118067D01*
X141347917Y-142151552D01*
X141278225Y-142146568D01*
X141222292Y-142104696D01*
X141205377Y-142073718D01*
X141193798Y-142042673D01*
X141193793Y-142042664D01*
X141107547Y-141927455D01*
X141107544Y-141927452D01*
X140992335Y-141841206D01*
X140992328Y-141841202D01*
X140857482Y-141790908D01*
X140857483Y-141790908D01*
X140797883Y-141784501D01*
X140797881Y-141784500D01*
X140797873Y-141784500D01*
X140797864Y-141784500D01*
X138602129Y-141784500D01*
X138602123Y-141784501D01*
X138542516Y-141790908D01*
X138407671Y-141841202D01*
X138407664Y-141841206D01*
X138292455Y-141927452D01*
X138292452Y-141927455D01*
X138206206Y-142042664D01*
X138206202Y-142042671D01*
X138155908Y-142177517D01*
X138149908Y-142233334D01*
X138149501Y-142237123D01*
X138149500Y-142237135D01*
X138149500Y-144432870D01*
X138149501Y-144432876D01*
X138155908Y-144492483D01*
X138206202Y-144627328D01*
X138206206Y-144627335D01*
X138292452Y-144742544D01*
X138292455Y-144742547D01*
X138407664Y-144828793D01*
X138407671Y-144828797D01*
X138542517Y-144879091D01*
X138542516Y-144879091D01*
X138549444Y-144879835D01*
X138602127Y-144885500D01*
X140797872Y-144885499D01*
X140857483Y-144879091D01*
X140992331Y-144828796D01*
X141107546Y-144742546D01*
X141193796Y-144627331D01*
X141244091Y-144492483D01*
X141250500Y-144432873D01*
X141250499Y-144028300D01*
X141270183Y-143961262D01*
X141320574Y-143917597D01*
X141320571Y-143917592D01*
X141320601Y-143917573D01*
X141322987Y-143915507D01*
X141325256Y-143914498D01*
X141327282Y-143913620D01*
X141327290Y-143913618D01*
X141344529Y-143903422D01*
X141362003Y-143894862D01*
X141380627Y-143887488D01*
X141380627Y-143887487D01*
X141380632Y-143887486D01*
X141418349Y-143860082D01*
X141423205Y-143856892D01*
X141463320Y-143833170D01*
X141477489Y-143818999D01*
X141492279Y-143806368D01*
X141508487Y-143794594D01*
X141538199Y-143758676D01*
X141542112Y-143754376D01*
X143029671Y-142266819D01*
X143090995Y-142233334D01*
X143117353Y-142230500D01*
X144686952Y-142230500D01*
X144753991Y-142250185D01*
X144799746Y-142302989D01*
X144809690Y-142372147D01*
X144792679Y-142419290D01*
X144664222Y-142628910D01*
X144570830Y-142854380D01*
X144513853Y-143091702D01*
X144494706Y-143335000D01*
X144513853Y-143578297D01*
X144513853Y-143578300D01*
X144513854Y-143578302D01*
X144570198Y-143812989D01*
X144570830Y-143815619D01*
X144664222Y-144041089D01*
X144791737Y-144249173D01*
X144791738Y-144249176D01*
X144836676Y-144301791D01*
X144950241Y-144434759D01*
X145079996Y-144545580D01*
X145135823Y-144593261D01*
X145135826Y-144593262D01*
X145343910Y-144720777D01*
X145569381Y-144814169D01*
X145569378Y-144814169D01*
X145569384Y-144814170D01*
X145569388Y-144814172D01*
X145806698Y-144871146D01*
X146050000Y-144890294D01*
X146293302Y-144871146D01*
X146530612Y-144814172D01*
X146756089Y-144720777D01*
X146964179Y-144593259D01*
X147149759Y-144434759D01*
X147197409Y-144378967D01*
X147255914Y-144340776D01*
X147291698Y-144335500D01*
X149888302Y-144335500D01*
X149955341Y-144355185D01*
X149982588Y-144378965D01*
X150011345Y-144412634D01*
X150030241Y-144434759D01*
X150215823Y-144593261D01*
X150215826Y-144593262D01*
X150423910Y-144720777D01*
X150649381Y-144814169D01*
X150649378Y-144814169D01*
X150649384Y-144814170D01*
X150649388Y-144814172D01*
X150886698Y-144871146D01*
X151130000Y-144890294D01*
X151373302Y-144871146D01*
X151610612Y-144814172D01*
X151836089Y-144720777D01*
X152044179Y-144593259D01*
X152229759Y-144434759D01*
X152277409Y-144378967D01*
X152335914Y-144340776D01*
X152371698Y-144335500D01*
X154968302Y-144335500D01*
X155035341Y-144355185D01*
X155062588Y-144378965D01*
X155091345Y-144412634D01*
X155110241Y-144434759D01*
X155295823Y-144593261D01*
X155295826Y-144593262D01*
X155503910Y-144720777D01*
X155729381Y-144814169D01*
X155729378Y-144814169D01*
X155729384Y-144814170D01*
X155729388Y-144814172D01*
X155966698Y-144871146D01*
X156210000Y-144890294D01*
X156453302Y-144871146D01*
X156690612Y-144814172D01*
X156916089Y-144720777D01*
X157124179Y-144593259D01*
X157309759Y-144434759D01*
X157357409Y-144378967D01*
X157415914Y-144340776D01*
X157451698Y-144335500D01*
X159617649Y-144335500D01*
X159684688Y-144355185D01*
X159730443Y-144407989D01*
X159740939Y-144446248D01*
X159745908Y-144492483D01*
X159796202Y-144627328D01*
X159796206Y-144627335D01*
X159882452Y-144742544D01*
X159882455Y-144742547D01*
X159997664Y-144828793D01*
X159997671Y-144828797D01*
X160132517Y-144879091D01*
X160132516Y-144879091D01*
X160139444Y-144879835D01*
X160192127Y-144885500D01*
X162387872Y-144885499D01*
X162447483Y-144879091D01*
X162582331Y-144828796D01*
X162697546Y-144742546D01*
X162783796Y-144627331D01*
X162834091Y-144492483D01*
X162840500Y-144432873D01*
X162840499Y-142354499D01*
X162860184Y-142287461D01*
X162912987Y-142241706D01*
X162964499Y-142230500D01*
X166276952Y-142230500D01*
X166343991Y-142250185D01*
X166389746Y-142302989D01*
X166399690Y-142372147D01*
X166382679Y-142419290D01*
X166254222Y-142628910D01*
X166160830Y-142854380D01*
X166103853Y-143091702D01*
X166084706Y-143334999D01*
X166103853Y-143578297D01*
X166103853Y-143578300D01*
X166103854Y-143578302D01*
X166160198Y-143812989D01*
X166160830Y-143815619D01*
X166254222Y-144041089D01*
X166381737Y-144249173D01*
X166381738Y-144249176D01*
X166426676Y-144301791D01*
X166540241Y-144434759D01*
X166669996Y-144545580D01*
X166725823Y-144593261D01*
X166725826Y-144593262D01*
X166933910Y-144720777D01*
X167159381Y-144814169D01*
X167159378Y-144814169D01*
X167159384Y-144814170D01*
X167159388Y-144814172D01*
X167396698Y-144871146D01*
X167640000Y-144890294D01*
X167883302Y-144871146D01*
X168120612Y-144814172D01*
X168346089Y-144720777D01*
X168554179Y-144593259D01*
X168739759Y-144434759D01*
X168898259Y-144249179D01*
X169025777Y-144041089D01*
X169119172Y-143815612D01*
X169176146Y-143578302D01*
X169195294Y-143335000D01*
X169195294Y-143334999D01*
X171164706Y-143334999D01*
X171183853Y-143578297D01*
X171183853Y-143578300D01*
X171183854Y-143578302D01*
X171240198Y-143812989D01*
X171240830Y-143815619D01*
X171334222Y-144041089D01*
X171461737Y-144249173D01*
X171461738Y-144249176D01*
X171506676Y-144301791D01*
X171620241Y-144434759D01*
X171749996Y-144545580D01*
X171805823Y-144593261D01*
X171805826Y-144593262D01*
X172013910Y-144720777D01*
X172239381Y-144814169D01*
X172239378Y-144814169D01*
X172239384Y-144814170D01*
X172239388Y-144814172D01*
X172476698Y-144871146D01*
X172720000Y-144890294D01*
X172963302Y-144871146D01*
X173200612Y-144814172D01*
X173426089Y-144720777D01*
X173634179Y-144593259D01*
X173819759Y-144434759D01*
X173978259Y-144249179D01*
X174105777Y-144041089D01*
X174199172Y-143815612D01*
X174256146Y-143578302D01*
X174275294Y-143335000D01*
X174275294Y-143334999D01*
X176244706Y-143334999D01*
X176263853Y-143578297D01*
X176263853Y-143578300D01*
X176263854Y-143578302D01*
X176320198Y-143812989D01*
X176320830Y-143815619D01*
X176414222Y-144041089D01*
X176541737Y-144249173D01*
X176541738Y-144249176D01*
X176586676Y-144301791D01*
X176700241Y-144434759D01*
X176829996Y-144545580D01*
X176885823Y-144593261D01*
X176885826Y-144593262D01*
X177093910Y-144720777D01*
X177319381Y-144814169D01*
X177319378Y-144814169D01*
X177319384Y-144814170D01*
X177319388Y-144814172D01*
X177556698Y-144871146D01*
X177800000Y-144890294D01*
X178043302Y-144871146D01*
X178280612Y-144814172D01*
X178506089Y-144720777D01*
X178714179Y-144593259D01*
X178899759Y-144434759D01*
X178901372Y-144432870D01*
X181329500Y-144432870D01*
X181329501Y-144432876D01*
X181335908Y-144492483D01*
X181386202Y-144627328D01*
X181386206Y-144627335D01*
X181472452Y-144742544D01*
X181472455Y-144742547D01*
X181587664Y-144828793D01*
X181587671Y-144828797D01*
X181722517Y-144879091D01*
X181722516Y-144879091D01*
X181729444Y-144879835D01*
X181782127Y-144885500D01*
X183977872Y-144885499D01*
X184037483Y-144879091D01*
X184172331Y-144828796D01*
X184287546Y-144742546D01*
X184373796Y-144627331D01*
X184424091Y-144492483D01*
X184430500Y-144432873D01*
X184430499Y-142237128D01*
X184424091Y-142177517D01*
X184419143Y-142164252D01*
X184373797Y-142042671D01*
X184373793Y-142042664D01*
X184287547Y-141927455D01*
X184287544Y-141927452D01*
X184172335Y-141841206D01*
X184172328Y-141841202D01*
X184037482Y-141790908D01*
X184037483Y-141790908D01*
X183977883Y-141784501D01*
X183977881Y-141784500D01*
X183977873Y-141784500D01*
X183977864Y-141784500D01*
X181782129Y-141784500D01*
X181782123Y-141784501D01*
X181722516Y-141790908D01*
X181587671Y-141841202D01*
X181587664Y-141841206D01*
X181472455Y-141927452D01*
X181472452Y-141927455D01*
X181386206Y-142042664D01*
X181386202Y-142042671D01*
X181335908Y-142177517D01*
X181329908Y-142233334D01*
X181329501Y-142237123D01*
X181329500Y-142237135D01*
X181329500Y-144432870D01*
X178901372Y-144432870D01*
X179058259Y-144249179D01*
X179185777Y-144041089D01*
X179279172Y-143815612D01*
X179336146Y-143578302D01*
X179355294Y-143335000D01*
X179336146Y-143091698D01*
X179279172Y-142854388D01*
X179245572Y-142773270D01*
X179185777Y-142628910D01*
X179058262Y-142420826D01*
X179058261Y-142420823D01*
X179016688Y-142372147D01*
X178899759Y-142235241D01*
X178746910Y-142104696D01*
X178714176Y-142076738D01*
X178714173Y-142076737D01*
X178506089Y-141949222D01*
X178280618Y-141855830D01*
X178280621Y-141855830D01*
X178115727Y-141816242D01*
X178043302Y-141798854D01*
X178043300Y-141798853D01*
X178043297Y-141798853D01*
X177800000Y-141779706D01*
X177556702Y-141798853D01*
X177556697Y-141798854D01*
X177556698Y-141798854D01*
X177319397Y-141855826D01*
X177319380Y-141855830D01*
X177093910Y-141949222D01*
X176885826Y-142076737D01*
X176885823Y-142076738D01*
X176700241Y-142235241D01*
X176541738Y-142420823D01*
X176541737Y-142420826D01*
X176414222Y-142628910D01*
X176320830Y-142854380D01*
X176263853Y-143091702D01*
X176244706Y-143334999D01*
X174275294Y-143334999D01*
X174256146Y-143091698D01*
X174199172Y-142854388D01*
X174165572Y-142773270D01*
X174105777Y-142628910D01*
X173978262Y-142420826D01*
X173978261Y-142420823D01*
X173936688Y-142372147D01*
X173819759Y-142235241D01*
X173666910Y-142104696D01*
X173634176Y-142076738D01*
X173634173Y-142076737D01*
X173426089Y-141949222D01*
X173200618Y-141855830D01*
X173200621Y-141855830D01*
X173035727Y-141816242D01*
X172963302Y-141798854D01*
X172963300Y-141798853D01*
X172963297Y-141798853D01*
X172720000Y-141779706D01*
X172476702Y-141798853D01*
X172476697Y-141798854D01*
X172476698Y-141798854D01*
X172239397Y-141855826D01*
X172239380Y-141855830D01*
X172013910Y-141949222D01*
X171805826Y-142076737D01*
X171805823Y-142076738D01*
X171620241Y-142235241D01*
X171461738Y-142420823D01*
X171461737Y-142420826D01*
X171334222Y-142628910D01*
X171240830Y-142854380D01*
X171183853Y-143091702D01*
X171164706Y-143334999D01*
X169195294Y-143334999D01*
X169176146Y-143091698D01*
X169119172Y-142854388D01*
X169085572Y-142773270D01*
X169025777Y-142628910D01*
X168898262Y-142420826D01*
X168898261Y-142420823D01*
X168766729Y-142266819D01*
X168761036Y-142260153D01*
X168732466Y-142196393D01*
X168742903Y-142127307D01*
X168767642Y-142091946D01*
X168770590Y-142088999D01*
X168785379Y-142076368D01*
X168801587Y-142064594D01*
X168831299Y-142028676D01*
X168835212Y-142024376D01*
X174372771Y-136486818D01*
X174434095Y-136453333D01*
X174460453Y-136450499D01*
X175125002Y-136450499D01*
X175125008Y-136450499D01*
X175227797Y-136439999D01*
X175394334Y-136384814D01*
X175543656Y-136292712D01*
X175667712Y-136168656D01*
X175759814Y-136019334D01*
X175814999Y-135852797D01*
X175825500Y-135750009D01*
X175825499Y-134949992D01*
X175823870Y-134934049D01*
X175814999Y-134847203D01*
X175814998Y-134847200D01*
X175802928Y-134810776D01*
X175759814Y-134680666D01*
X175667712Y-134531344D01*
X175574049Y-134437681D01*
X175540564Y-134376358D01*
X175545548Y-134306666D01*
X175574049Y-134262319D01*
X175619783Y-134216585D01*
X175667712Y-134168656D01*
X175759814Y-134019334D01*
X175814999Y-133852797D01*
X175825500Y-133750009D01*
X175825499Y-132949992D01*
X175814999Y-132847203D01*
X175759814Y-132680666D01*
X175667712Y-132531344D01*
X175667709Y-132531341D01*
X175663234Y-132525681D01*
X175664625Y-132524580D01*
X175635564Y-132471358D01*
X175640548Y-132401666D01*
X175664106Y-132365009D01*
X175663234Y-132364319D01*
X175667705Y-132358662D01*
X175667712Y-132358656D01*
X175759814Y-132209334D01*
X175814999Y-132042797D01*
X175822496Y-131969414D01*
X175825500Y-131940011D01*
X175825500Y-131940008D01*
X175825499Y-131139992D01*
X175814999Y-131037203D01*
X175759814Y-130870666D01*
X175667712Y-130721344D01*
X175574048Y-130627680D01*
X175540564Y-130566358D01*
X175545548Y-130496666D01*
X175574049Y-130452319D01*
X175619867Y-130406501D01*
X175667712Y-130358656D01*
X175759814Y-130209334D01*
X175814999Y-130042797D01*
X175825500Y-129940009D01*
X175825499Y-129139992D01*
X175814999Y-129037203D01*
X175759814Y-128870666D01*
X175667712Y-128721344D01*
X175543656Y-128597288D01*
X175394334Y-128505186D01*
X175227797Y-128450001D01*
X175227795Y-128450000D01*
X175125010Y-128439500D01*
X174124998Y-128439500D01*
X174124980Y-128439501D01*
X174022203Y-128450000D01*
X174022200Y-128450001D01*
X173855668Y-128505185D01*
X173855663Y-128505187D01*
X173706342Y-128597289D01*
X173582289Y-128721342D01*
X173565598Y-128748403D01*
X173511304Y-128836429D01*
X173499481Y-128855597D01*
X173447533Y-128902321D01*
X173393942Y-128914500D01*
X168236058Y-128914500D01*
X168169019Y-128894815D01*
X168130519Y-128855597D01*
X168118697Y-128836430D01*
X168047712Y-128721344D01*
X167923656Y-128597288D01*
X167774334Y-128505186D01*
X167607797Y-128450001D01*
X167607795Y-128450000D01*
X167505010Y-128439500D01*
X166504998Y-128439500D01*
X166504980Y-128439501D01*
X166402203Y-128450000D01*
X166402200Y-128450001D01*
X166235668Y-128505185D01*
X166235663Y-128505187D01*
X166086342Y-128597289D01*
X165962289Y-128721342D01*
X165945598Y-128748403D01*
X165891304Y-128836429D01*
X165879481Y-128855597D01*
X165827533Y-128902321D01*
X165773942Y-128914500D01*
X160616058Y-128914500D01*
X160549019Y-128894815D01*
X160510519Y-128855597D01*
X160498697Y-128836430D01*
X160427712Y-128721344D01*
X160303656Y-128597288D01*
X160154334Y-128505186D01*
X159987797Y-128450001D01*
X159987795Y-128450000D01*
X159885016Y-128439500D01*
X159885009Y-128439500D01*
X159220452Y-128439500D01*
X159153413Y-128419815D01*
X159132771Y-128403181D01*
X158195272Y-127465681D01*
X158161787Y-127404358D01*
X158166771Y-127334666D01*
X158208643Y-127278733D01*
X158274107Y-127254316D01*
X158282953Y-127254000D01*
X169672000Y-127254000D01*
X169672000Y-101346000D01*
X157734000Y-101346000D01*
X157734000Y-126705047D01*
X157714315Y-126772086D01*
X157661511Y-126817841D01*
X157592353Y-126827785D01*
X157528797Y-126798760D01*
X157522319Y-126792728D01*
X157295011Y-126565420D01*
X157261526Y-126504097D01*
X157266510Y-126434405D01*
X157281115Y-126406619D01*
X157310142Y-126365167D01*
X157403723Y-126164480D01*
X157461035Y-125950591D01*
X157480334Y-125730000D01*
X157461035Y-125509409D01*
X157403723Y-125295520D01*
X157391574Y-125269467D01*
X157366443Y-125215572D01*
X157310142Y-125094833D01*
X157183132Y-124913445D01*
X157026555Y-124756868D01*
X156845167Y-124629858D01*
X156845163Y-124629856D01*
X156644486Y-124536279D01*
X156644475Y-124536275D01*
X156430592Y-124478965D01*
X156430585Y-124478964D01*
X156210002Y-124459666D01*
X156209998Y-124459666D01*
X155989414Y-124478964D01*
X155989407Y-124478965D01*
X155775524Y-124536275D01*
X155775513Y-124536279D01*
X155574836Y-124629856D01*
X155574834Y-124629857D01*
X155393444Y-124756868D01*
X155236868Y-124913444D01*
X155109857Y-125094834D01*
X155109856Y-125094836D01*
X155052382Y-125218091D01*
X155006210Y-125270531D01*
X154939017Y-125289683D01*
X154872135Y-125269467D01*
X154827618Y-125218091D01*
X154799050Y-125156828D01*
X154770142Y-125094833D01*
X154643132Y-124913445D01*
X154486555Y-124756868D01*
X154305167Y-124629858D01*
X154305163Y-124629856D01*
X154104486Y-124536279D01*
X154104475Y-124536275D01*
X153890592Y-124478965D01*
X153890585Y-124478964D01*
X153670002Y-124459666D01*
X153669998Y-124459666D01*
X153449414Y-124478964D01*
X153449407Y-124478965D01*
X153235524Y-124536275D01*
X153235513Y-124536279D01*
X153034836Y-124629856D01*
X153034826Y-124629862D01*
X152853445Y-124756867D01*
X152853435Y-124756876D01*
X152807229Y-124803081D01*
X152745906Y-124836565D01*
X152676214Y-124831579D01*
X152631869Y-124803079D01*
X152083103Y-124254312D01*
X152073280Y-124242050D01*
X152073059Y-124242234D01*
X152068086Y-124236222D01*
X152018366Y-124189532D01*
X152016966Y-124188175D01*
X151996776Y-124167984D01*
X151991286Y-124163725D01*
X151986861Y-124159947D01*
X151952882Y-124128038D01*
X151952880Y-124128036D01*
X151952877Y-124128035D01*
X151935329Y-124118388D01*
X151919063Y-124107704D01*
X151909272Y-124100109D01*
X151903236Y-124095427D01*
X151903235Y-124095426D01*
X151903233Y-124095425D01*
X151860468Y-124076918D01*
X151855222Y-124074348D01*
X151814393Y-124051903D01*
X151814392Y-124051902D01*
X151794993Y-124046922D01*
X151776581Y-124040618D01*
X151758198Y-124032662D01*
X151758192Y-124032660D01*
X151712174Y-124025372D01*
X151706452Y-124024187D01*
X151661321Y-124012600D01*
X151661319Y-124012600D01*
X151641284Y-124012600D01*
X151621886Y-124011073D01*
X151614462Y-124009897D01*
X151602105Y-124007940D01*
X151602104Y-124007940D01*
X151555716Y-124012325D01*
X151549878Y-124012600D01*
X150760538Y-124012600D01*
X150744921Y-124010876D01*
X150744894Y-124011162D01*
X150737132Y-124010427D01*
X150668972Y-124012569D01*
X150667025Y-124012600D01*
X150638450Y-124012600D01*
X150637729Y-124012690D01*
X150631557Y-124013469D01*
X150625745Y-124013926D01*
X150579173Y-124015390D01*
X150579172Y-124015390D01*
X150559929Y-124020981D01*
X150540879Y-124024925D01*
X150521011Y-124027434D01*
X150521009Y-124027435D01*
X150477684Y-124044588D01*
X150472157Y-124046480D01*
X150427410Y-124059481D01*
X150427409Y-124059482D01*
X150410167Y-124069679D01*
X150392699Y-124078237D01*
X150374069Y-124085613D01*
X150374067Y-124085614D01*
X150336376Y-124112998D01*
X150331494Y-124116205D01*
X150291379Y-124139930D01*
X150277208Y-124154100D01*
X150262423Y-124166728D01*
X150246212Y-124178507D01*
X150216509Y-124214410D01*
X150212577Y-124218731D01*
X149628179Y-124803128D01*
X149566856Y-124836613D01*
X149497164Y-124831629D01*
X149452818Y-124803129D01*
X149406563Y-124756875D01*
X149406554Y-124756867D01*
X149225173Y-124629862D01*
X149225170Y-124629860D01*
X149225167Y-124629858D01*
X149225163Y-124629856D01*
X149024486Y-124536279D01*
X149024475Y-124536275D01*
X148810592Y-124478965D01*
X148810585Y-124478964D01*
X148590002Y-124459666D01*
X148589998Y-124459666D01*
X148442939Y-124472532D01*
X148369409Y-124478965D01*
X148369407Y-124478965D01*
X148369403Y-124478966D01*
X148323528Y-124491258D01*
X148253678Y-124489595D01*
X148203755Y-124459164D01*
X147954903Y-124210312D01*
X147945080Y-124198050D01*
X147944859Y-124198234D01*
X147939886Y-124192222D01*
X147890166Y-124145532D01*
X147888766Y-124144175D01*
X147868576Y-124123984D01*
X147863086Y-124119725D01*
X147858661Y-124115947D01*
X147824682Y-124084038D01*
X147824680Y-124084036D01*
X147824677Y-124084035D01*
X147807129Y-124074388D01*
X147790863Y-124063704D01*
X147781986Y-124056818D01*
X147775036Y-124051427D01*
X147775035Y-124051426D01*
X147775033Y-124051425D01*
X147732268Y-124032918D01*
X147727022Y-124030348D01*
X147686193Y-124007903D01*
X147686192Y-124007902D01*
X147666793Y-124002922D01*
X147648381Y-123996618D01*
X147629998Y-123988662D01*
X147629992Y-123988660D01*
X147583974Y-123981372D01*
X147578252Y-123980187D01*
X147533121Y-123968600D01*
X147533119Y-123968600D01*
X147513084Y-123968600D01*
X147493686Y-123967073D01*
X147486262Y-123965897D01*
X147473905Y-123963940D01*
X147473904Y-123963940D01*
X147427516Y-123968325D01*
X147421678Y-123968600D01*
X145704637Y-123968600D01*
X145689020Y-123966876D01*
X145688993Y-123967162D01*
X145681231Y-123966427D01*
X145613071Y-123968569D01*
X145611124Y-123968600D01*
X145582550Y-123968600D01*
X145581829Y-123968690D01*
X145575657Y-123969469D01*
X145569845Y-123969926D01*
X145523278Y-123971390D01*
X145523267Y-123971392D01*
X145504034Y-123976979D01*
X145484994Y-123980922D01*
X145465117Y-123983434D01*
X145465110Y-123983435D01*
X145465108Y-123983436D01*
X145465106Y-123983436D01*
X145465105Y-123983437D01*
X145421768Y-124000594D01*
X145416242Y-124002486D01*
X145371511Y-124015482D01*
X145371508Y-124015483D01*
X145354263Y-124025681D01*
X145336801Y-124034235D01*
X145318172Y-124041611D01*
X145318167Y-124041613D01*
X145280464Y-124069006D01*
X145275582Y-124072212D01*
X145235480Y-124095928D01*
X145221308Y-124110100D01*
X145206523Y-124122728D01*
X145190312Y-124134507D01*
X145160609Y-124170410D01*
X145156677Y-124174731D01*
X144557608Y-124773799D01*
X144545351Y-124783620D01*
X144545534Y-124783841D01*
X144539516Y-124788819D01*
X144539439Y-124788902D01*
X144539362Y-124788946D01*
X144533516Y-124793784D01*
X144532734Y-124792839D01*
X144479194Y-124824290D01*
X144409381Y-124821489D01*
X144361376Y-124791689D01*
X144326555Y-124756868D01*
X144197938Y-124666809D01*
X144145167Y-124629858D01*
X144145163Y-124629856D01*
X143944486Y-124536279D01*
X143944475Y-124536275D01*
X143730592Y-124478965D01*
X143730585Y-124478964D01*
X143510002Y-124459666D01*
X143509998Y-124459666D01*
X143289414Y-124478964D01*
X143289407Y-124478965D01*
X143075524Y-124536275D01*
X143075513Y-124536279D01*
X142874836Y-124629856D01*
X142874834Y-124629857D01*
X142693444Y-124756868D01*
X142536868Y-124913444D01*
X142409857Y-125094834D01*
X142409856Y-125094836D01*
X142352382Y-125218091D01*
X142306210Y-125270531D01*
X142239017Y-125289683D01*
X142172135Y-125269467D01*
X142127618Y-125218091D01*
X142099050Y-125156828D01*
X142070142Y-125094833D01*
X141943132Y-124913445D01*
X141786555Y-124756868D01*
X141605167Y-124629858D01*
X141605163Y-124629856D01*
X141404486Y-124536279D01*
X141404475Y-124536275D01*
X141190592Y-124478965D01*
X141190585Y-124478964D01*
X140970002Y-124459666D01*
X140969998Y-124459666D01*
X140749414Y-124478964D01*
X140749407Y-124478965D01*
X140535524Y-124536275D01*
X140535513Y-124536279D01*
X140334836Y-124629856D01*
X140334834Y-124629857D01*
X140153444Y-124756868D01*
X139996868Y-124913444D01*
X139869857Y-125094834D01*
X139869856Y-125094836D01*
X139812382Y-125218091D01*
X139766210Y-125270531D01*
X139699017Y-125289683D01*
X139632135Y-125269467D01*
X139587618Y-125218091D01*
X139559050Y-125156828D01*
X139530142Y-125094833D01*
X139403132Y-124913445D01*
X139246555Y-124756868D01*
X139065167Y-124629858D01*
X139065163Y-124629856D01*
X138864486Y-124536279D01*
X138864475Y-124536275D01*
X138650592Y-124478965D01*
X138650585Y-124478964D01*
X138430002Y-124459666D01*
X138429998Y-124459666D01*
X138209414Y-124478964D01*
X138209407Y-124478965D01*
X137995524Y-124536275D01*
X137995513Y-124536279D01*
X137794836Y-124629856D01*
X137794834Y-124629857D01*
X137613444Y-124756868D01*
X137456868Y-124913444D01*
X137329857Y-125094834D01*
X137329856Y-125094836D01*
X137272382Y-125218091D01*
X137226210Y-125270531D01*
X137159017Y-125289683D01*
X137092135Y-125269467D01*
X137047618Y-125218091D01*
X137019050Y-125156828D01*
X136990142Y-125094833D01*
X136863132Y-124913445D01*
X136706555Y-124756868D01*
X136706550Y-124756864D01*
X136706547Y-124756862D01*
X136568376Y-124660112D01*
X136524751Y-124605535D01*
X136515500Y-124558538D01*
X136515500Y-124092016D01*
X136535185Y-124024977D01*
X136587989Y-123979222D01*
X136600488Y-123974313D01*
X136659334Y-123954814D01*
X136808656Y-123862712D01*
X136932712Y-123738656D01*
X137024814Y-123589334D01*
X137079999Y-123422797D01*
X137090500Y-123320009D01*
X137090499Y-122519992D01*
X137090232Y-122517381D01*
X137079999Y-122417203D01*
X137079998Y-122417200D01*
X137050895Y-122329373D01*
X137024814Y-122250666D01*
X136932712Y-122101344D01*
X136839049Y-122007681D01*
X136805564Y-121946358D01*
X136810548Y-121876666D01*
X136839049Y-121832319D01*
X136879877Y-121791491D01*
X136932712Y-121738656D01*
X137024814Y-121589334D01*
X137079999Y-121422797D01*
X137080100Y-121421814D01*
X137085249Y-121371403D01*
X137090500Y-121320009D01*
X137090499Y-120519992D01*
X137088634Y-120501738D01*
X137079999Y-120417203D01*
X137079998Y-120417200D01*
X137071055Y-120390212D01*
X137024814Y-120250666D01*
X136932712Y-120101344D01*
X136808656Y-119977288D01*
X136659334Y-119885186D01*
X136492797Y-119830001D01*
X136492795Y-119830000D01*
X136390010Y-119819500D01*
X135389998Y-119819500D01*
X135389980Y-119819501D01*
X135287203Y-119830000D01*
X135287200Y-119830001D01*
X135120668Y-119885185D01*
X135120663Y-119885187D01*
X134971342Y-119977289D01*
X134847289Y-120101342D01*
X134847287Y-120101344D01*
X134847288Y-120101344D01*
X134807717Y-120165500D01*
X134764481Y-120235597D01*
X134712533Y-120282321D01*
X134658942Y-120294500D01*
X134078248Y-120294500D01*
X134011209Y-120274815D01*
X133986100Y-120253474D01*
X133980373Y-120247114D01*
X133980369Y-120247110D01*
X133827234Y-120135851D01*
X133827229Y-120135848D01*
X133654307Y-120058857D01*
X133654302Y-120058855D01*
X133508500Y-120027865D01*
X133469146Y-120019500D01*
X133279854Y-120019500D01*
X133174523Y-120041888D01*
X133109279Y-120055756D01*
X133039612Y-120050439D01*
X132983879Y-120008301D01*
X132959774Y-119942721D01*
X132959499Y-119934493D01*
X132959499Y-117150452D01*
X132979184Y-117083414D01*
X132995818Y-117062771D01*
X133115473Y-116943118D01*
X133176797Y-116909634D01*
X133203154Y-116906800D01*
X137381957Y-116906800D01*
X137397577Y-116908524D01*
X137397604Y-116908239D01*
X137405366Y-116908973D01*
X137405366Y-116908972D01*
X137405367Y-116908973D01*
X137408699Y-116908868D01*
X137473547Y-116906831D01*
X137475494Y-116906800D01*
X137504047Y-116906800D01*
X137504050Y-116906800D01*
X137510928Y-116905930D01*
X137516741Y-116905472D01*
X137563327Y-116904009D01*
X137582569Y-116898417D01*
X137601612Y-116894474D01*
X137621492Y-116891964D01*
X137664822Y-116874807D01*
X137670346Y-116872917D01*
X137682135Y-116869492D01*
X137715090Y-116859918D01*
X137732329Y-116849722D01*
X137749803Y-116841162D01*
X137768427Y-116833788D01*
X137768427Y-116833787D01*
X137768432Y-116833786D01*
X137806149Y-116806382D01*
X137811005Y-116803192D01*
X137851120Y-116779470D01*
X137865289Y-116765299D01*
X137880079Y-116752668D01*
X137896287Y-116740894D01*
X137925999Y-116704976D01*
X137929912Y-116700676D01*
X145073788Y-109556801D01*
X145086042Y-109546986D01*
X145085859Y-109546764D01*
X145091868Y-109541791D01*
X145091877Y-109541786D01*
X145138607Y-109492022D01*
X145139846Y-109490743D01*
X145160120Y-109470471D01*
X145164379Y-109464978D01*
X145168152Y-109460561D01*
X145200062Y-109426582D01*
X145209713Y-109409024D01*
X145220396Y-109392761D01*
X145232673Y-109376936D01*
X145251185Y-109334153D01*
X145253738Y-109328941D01*
X145276197Y-109288092D01*
X145281180Y-109268680D01*
X145287481Y-109250280D01*
X145295437Y-109231896D01*
X145302729Y-109185852D01*
X145303906Y-109180171D01*
X145315500Y-109135019D01*
X145315500Y-109135010D01*
X145316478Y-109127276D01*
X145318429Y-109127522D01*
X145335185Y-109070461D01*
X145387989Y-109024706D01*
X145439500Y-109013500D01*
X145509644Y-109013500D01*
X145509646Y-109013500D01*
X145694803Y-108974144D01*
X145732430Y-108957390D01*
X145746289Y-108951221D01*
X145796725Y-108940500D01*
X146088942Y-108940500D01*
X146155981Y-108960185D01*
X146194479Y-108999401D01*
X146277288Y-109133656D01*
X146401344Y-109257712D01*
X146550666Y-109349814D01*
X146717203Y-109404999D01*
X146819991Y-109415500D01*
X147820008Y-109415499D01*
X147820016Y-109415498D01*
X147820019Y-109415498D01*
X147890913Y-109408256D01*
X147922797Y-109404999D01*
X148089334Y-109349814D01*
X148238656Y-109257712D01*
X148362712Y-109133656D01*
X148454814Y-108984334D01*
X148509999Y-108817797D01*
X148520500Y-108715009D01*
X148520499Y-107914992D01*
X148512097Y-107832746D01*
X148509999Y-107812203D01*
X148509998Y-107812200D01*
X148509520Y-107810757D01*
X148454814Y-107645666D01*
X148362712Y-107496344D01*
X148269048Y-107402680D01*
X148235564Y-107341356D01*
X148240548Y-107271665D01*
X148269045Y-107227322D01*
X148362712Y-107133656D01*
X148454814Y-106984334D01*
X148509999Y-106817797D01*
X148520500Y-106715009D01*
X148520499Y-105914992D01*
X148519217Y-105902445D01*
X148509999Y-105812203D01*
X148509998Y-105812200D01*
X148508269Y-105806982D01*
X148454814Y-105645666D01*
X148362712Y-105496344D01*
X148238656Y-105372288D01*
X148089334Y-105280186D01*
X147922797Y-105225001D01*
X147922795Y-105225000D01*
X147820016Y-105214500D01*
X147820009Y-105214500D01*
X147155453Y-105214500D01*
X147088414Y-105194815D01*
X147067772Y-105178181D01*
X146711819Y-104822227D01*
X146678334Y-104760904D01*
X146675500Y-104734546D01*
X146675500Y-104041460D01*
X146695185Y-103974421D01*
X146728374Y-103939887D01*
X146866555Y-103843132D01*
X147023132Y-103686555D01*
X147150142Y-103505167D01*
X147207618Y-103381907D01*
X147253790Y-103329468D01*
X147320983Y-103310316D01*
X147387864Y-103330531D01*
X147432381Y-103381907D01*
X147489858Y-103505167D01*
X147616868Y-103686555D01*
X147773445Y-103843132D01*
X147954833Y-103970142D01*
X148075572Y-104026443D01*
X148155513Y-104063720D01*
X148155515Y-104063720D01*
X148155520Y-104063723D01*
X148369409Y-104121035D01*
X148525225Y-104134667D01*
X148589998Y-104140334D01*
X148590000Y-104140334D01*
X148590002Y-104140334D01*
X148645147Y-104135509D01*
X148810591Y-104121035D01*
X149024480Y-104063723D01*
X149225167Y-103970142D01*
X149406555Y-103843132D01*
X149563132Y-103686555D01*
X149690142Y-103505167D01*
X149747618Y-103381907D01*
X149793790Y-103329468D01*
X149860983Y-103310316D01*
X149927864Y-103330531D01*
X149972381Y-103381907D01*
X150029858Y-103505167D01*
X150156868Y-103686555D01*
X150313445Y-103843132D01*
X150494833Y-103970142D01*
X150615572Y-104026443D01*
X150695513Y-104063720D01*
X150695515Y-104063720D01*
X150695520Y-104063723D01*
X150909409Y-104121035D01*
X151065225Y-104134667D01*
X151129998Y-104140334D01*
X151130000Y-104140334D01*
X151130002Y-104140334D01*
X151185147Y-104135509D01*
X151350591Y-104121035D01*
X151564480Y-104063723D01*
X151765167Y-103970142D01*
X151946555Y-103843132D01*
X152103132Y-103686555D01*
X152230142Y-103505167D01*
X152287618Y-103381907D01*
X152333790Y-103329468D01*
X152400983Y-103310316D01*
X152467864Y-103330531D01*
X152512381Y-103381907D01*
X152569858Y-103505167D01*
X152696868Y-103686555D01*
X152853445Y-103843132D01*
X153034833Y-103970142D01*
X153155572Y-104026443D01*
X153235513Y-104063720D01*
X153235515Y-104063720D01*
X153235520Y-104063723D01*
X153449409Y-104121035D01*
X153605225Y-104134667D01*
X153669998Y-104140334D01*
X153670000Y-104140334D01*
X153670002Y-104140334D01*
X153725147Y-104135509D01*
X153890591Y-104121035D01*
X154104480Y-104063723D01*
X154305167Y-103970142D01*
X154486555Y-103843132D01*
X154643132Y-103686555D01*
X154770142Y-103505167D01*
X154827618Y-103381907D01*
X154873790Y-103329468D01*
X154940983Y-103310316D01*
X155007864Y-103330531D01*
X155052381Y-103381907D01*
X155109858Y-103505167D01*
X155236868Y-103686555D01*
X155393445Y-103843132D01*
X155574833Y-103970142D01*
X155695572Y-104026443D01*
X155775513Y-104063720D01*
X155775515Y-104063720D01*
X155775520Y-104063723D01*
X155989409Y-104121035D01*
X156145225Y-104134667D01*
X156209998Y-104140334D01*
X156210000Y-104140334D01*
X156210002Y-104140334D01*
X156265147Y-104135509D01*
X156430591Y-104121035D01*
X156644480Y-104063723D01*
X156845167Y-103970142D01*
X157026555Y-103843132D01*
X157183132Y-103686555D01*
X157310142Y-103505167D01*
X157403723Y-103304480D01*
X157461035Y-103090591D01*
X157480334Y-102870000D01*
X157461035Y-102649409D01*
X157403723Y-102435520D01*
X157391574Y-102409467D01*
X157310143Y-102234836D01*
X157310142Y-102234834D01*
X157310142Y-102234833D01*
X157183132Y-102053445D01*
X157026555Y-101896868D01*
X156845167Y-101769858D01*
X156845163Y-101769856D01*
X156644486Y-101676279D01*
X156644475Y-101676275D01*
X156430592Y-101618965D01*
X156430585Y-101618964D01*
X156210002Y-101599666D01*
X156209998Y-101599666D01*
X155989414Y-101618964D01*
X155989407Y-101618965D01*
X155775524Y-101676275D01*
X155775513Y-101676279D01*
X155574836Y-101769856D01*
X155574834Y-101769857D01*
X155393444Y-101896868D01*
X155236868Y-102053444D01*
X155109857Y-102234834D01*
X155109856Y-102234836D01*
X155052382Y-102358091D01*
X155006210Y-102410531D01*
X154939017Y-102429683D01*
X154872135Y-102409467D01*
X154827618Y-102358091D01*
X154770143Y-102234836D01*
X154770142Y-102234834D01*
X154770142Y-102234833D01*
X154643132Y-102053445D01*
X154486555Y-101896868D01*
X154305167Y-101769858D01*
X154305163Y-101769856D01*
X154104486Y-101676279D01*
X154104475Y-101676275D01*
X153890592Y-101618965D01*
X153890585Y-101618964D01*
X153670002Y-101599666D01*
X153669998Y-101599666D01*
X153449414Y-101618964D01*
X153449407Y-101618965D01*
X153235524Y-101676275D01*
X153235513Y-101676279D01*
X153034836Y-101769856D01*
X153034834Y-101769857D01*
X152853444Y-101896868D01*
X152696868Y-102053444D01*
X152569857Y-102234834D01*
X152569856Y-102234836D01*
X152512382Y-102358091D01*
X152466210Y-102410531D01*
X152399017Y-102429683D01*
X152332135Y-102409467D01*
X152287618Y-102358091D01*
X152230143Y-102234836D01*
X152230142Y-102234834D01*
X152230142Y-102234833D01*
X152103132Y-102053445D01*
X151946555Y-101896868D01*
X151765167Y-101769858D01*
X151765163Y-101769856D01*
X151564486Y-101676279D01*
X151564475Y-101676275D01*
X151350592Y-101618965D01*
X151350585Y-101618964D01*
X151130002Y-101599666D01*
X151129998Y-101599666D01*
X150909414Y-101618964D01*
X150909407Y-101618965D01*
X150695524Y-101676275D01*
X150695513Y-101676279D01*
X150494836Y-101769856D01*
X150494834Y-101769857D01*
X150313444Y-101896868D01*
X150156868Y-102053444D01*
X150029857Y-102234834D01*
X150029856Y-102234836D01*
X149972382Y-102358091D01*
X149926210Y-102410531D01*
X149859017Y-102429683D01*
X149792135Y-102409467D01*
X149747618Y-102358091D01*
X149690143Y-102234836D01*
X149690142Y-102234834D01*
X149690142Y-102234833D01*
X149563132Y-102053445D01*
X149406555Y-101896868D01*
X149225167Y-101769858D01*
X149225163Y-101769856D01*
X149024486Y-101676279D01*
X149024475Y-101676275D01*
X148810592Y-101618965D01*
X148810585Y-101618964D01*
X148590002Y-101599666D01*
X148589998Y-101599666D01*
X148369414Y-101618964D01*
X148369407Y-101618965D01*
X148155524Y-101676275D01*
X148155513Y-101676279D01*
X147954836Y-101769856D01*
X147954834Y-101769857D01*
X147773444Y-101896868D01*
X147616868Y-102053444D01*
X147489857Y-102234834D01*
X147489856Y-102234836D01*
X147432382Y-102358091D01*
X147386210Y-102410531D01*
X147319017Y-102429683D01*
X147252135Y-102409467D01*
X147207618Y-102358091D01*
X147150143Y-102234836D01*
X147150142Y-102234834D01*
X147150142Y-102234833D01*
X147023132Y-102053445D01*
X146866555Y-101896868D01*
X146685167Y-101769858D01*
X146685163Y-101769856D01*
X146484486Y-101676279D01*
X146484475Y-101676275D01*
X146270592Y-101618965D01*
X146270585Y-101618964D01*
X146050002Y-101599666D01*
X146049998Y-101599666D01*
X145829414Y-101618964D01*
X145829407Y-101618965D01*
X145615524Y-101676275D01*
X145615513Y-101676279D01*
X145414836Y-101769856D01*
X145414834Y-101769857D01*
X145233444Y-101896868D01*
X145076868Y-102053444D01*
X144949857Y-102234834D01*
X144949856Y-102234836D01*
X144892382Y-102358091D01*
X144846210Y-102410531D01*
X144779017Y-102429683D01*
X144712135Y-102409467D01*
X144667618Y-102358091D01*
X144610143Y-102234836D01*
X144610142Y-102234834D01*
X144610142Y-102234833D01*
X144483132Y-102053445D01*
X144326555Y-101896868D01*
X144145167Y-101769858D01*
X144145163Y-101769856D01*
X143944486Y-101676279D01*
X143944475Y-101676275D01*
X143730592Y-101618965D01*
X143730585Y-101618964D01*
X143510002Y-101599666D01*
X143509998Y-101599666D01*
X143289414Y-101618964D01*
X143289407Y-101618965D01*
X143075524Y-101676275D01*
X143075513Y-101676279D01*
X142874836Y-101769856D01*
X142874834Y-101769857D01*
X142693444Y-101896868D01*
X142536868Y-102053444D01*
X142409857Y-102234834D01*
X142409856Y-102234836D01*
X142352382Y-102358091D01*
X142306210Y-102410531D01*
X142239017Y-102429683D01*
X142172135Y-102409467D01*
X142127618Y-102358091D01*
X142070143Y-102234836D01*
X142070142Y-102234834D01*
X142070142Y-102234833D01*
X141943132Y-102053445D01*
X141786555Y-101896868D01*
X141605167Y-101769858D01*
X141605163Y-101769856D01*
X141404486Y-101676279D01*
X141404475Y-101676275D01*
X141190592Y-101618965D01*
X141190585Y-101618964D01*
X140970002Y-101599666D01*
X140969998Y-101599666D01*
X140749414Y-101618964D01*
X140749407Y-101618965D01*
X140535524Y-101676275D01*
X140535513Y-101676279D01*
X140334836Y-101769856D01*
X140334826Y-101769862D01*
X140153445Y-101896867D01*
X140153441Y-101896871D01*
X140105877Y-101944434D01*
X140044553Y-101977918D01*
X139974861Y-101972932D01*
X139930516Y-101944432D01*
X139382296Y-101396212D01*
X139372473Y-101383950D01*
X139372252Y-101384134D01*
X139367279Y-101378122D01*
X139317559Y-101331432D01*
X139316159Y-101330075D01*
X139295969Y-101309884D01*
X139290479Y-101305625D01*
X139286054Y-101301847D01*
X139252075Y-101269938D01*
X139252073Y-101269936D01*
X139252070Y-101269935D01*
X139234522Y-101260288D01*
X139218256Y-101249604D01*
X139202426Y-101237325D01*
X139159661Y-101218818D01*
X139154415Y-101216248D01*
X139113586Y-101193803D01*
X139113585Y-101193802D01*
X139094186Y-101188822D01*
X139075774Y-101182518D01*
X139057391Y-101174562D01*
X139057385Y-101174560D01*
X139011367Y-101167272D01*
X139005645Y-101166087D01*
X138960514Y-101154500D01*
X138960512Y-101154500D01*
X138940477Y-101154500D01*
X138921079Y-101152973D01*
X138913655Y-101151797D01*
X138901298Y-101149840D01*
X138901297Y-101149840D01*
X138854909Y-101154225D01*
X138849071Y-101154500D01*
X138061244Y-101154500D01*
X138045627Y-101152776D01*
X138045600Y-101153062D01*
X138037838Y-101152327D01*
X137969678Y-101154469D01*
X137967731Y-101154500D01*
X137939157Y-101154500D01*
X137938436Y-101154590D01*
X137932264Y-101155369D01*
X137926452Y-101155826D01*
X137879880Y-101157290D01*
X137879879Y-101157290D01*
X137860636Y-101162881D01*
X137841586Y-101166825D01*
X137821718Y-101169334D01*
X137821716Y-101169335D01*
X137778391Y-101186488D01*
X137772864Y-101188380D01*
X137728117Y-101201381D01*
X137728116Y-101201382D01*
X137710874Y-101211579D01*
X137693406Y-101220137D01*
X137674776Y-101227513D01*
X137674774Y-101227514D01*
X137637083Y-101254898D01*
X137632201Y-101258105D01*
X137592086Y-101281830D01*
X137577915Y-101296000D01*
X137563130Y-101308628D01*
X137546919Y-101320407D01*
X137517216Y-101356310D01*
X137513284Y-101360631D01*
X136956208Y-101917706D01*
X136943951Y-101927527D01*
X136944134Y-101927748D01*
X136938118Y-101932724D01*
X136930926Y-101940383D01*
X136870683Y-101975773D01*
X136800869Y-101972974D01*
X136752860Y-101943173D01*
X136706555Y-101896868D01*
X136706554Y-101896867D01*
X136525167Y-101769858D01*
X136525163Y-101769856D01*
X136324486Y-101676279D01*
X136324475Y-101676275D01*
X136110592Y-101618965D01*
X136110585Y-101618964D01*
X135890002Y-101599666D01*
X135889998Y-101599666D01*
X135669414Y-101618964D01*
X135669407Y-101618965D01*
X135455524Y-101676275D01*
X135455513Y-101676279D01*
X135254836Y-101769856D01*
X135254826Y-101769862D01*
X135073445Y-101896867D01*
X135073441Y-101896871D01*
X135025877Y-101944434D01*
X134964553Y-101977918D01*
X134894861Y-101972932D01*
X134850516Y-101944432D01*
X133811296Y-100905212D01*
X133801473Y-100892950D01*
X133801252Y-100893134D01*
X133796279Y-100887122D01*
X133746559Y-100840432D01*
X133745159Y-100839075D01*
X133724969Y-100818884D01*
X133719479Y-100814625D01*
X133715054Y-100810847D01*
X133681075Y-100778938D01*
X133681073Y-100778936D01*
X133681070Y-100778935D01*
X133663522Y-100769288D01*
X133647256Y-100758604D01*
X133631426Y-100746325D01*
X133588661Y-100727818D01*
X133583415Y-100725248D01*
X133542586Y-100702803D01*
X133542585Y-100702802D01*
X133523186Y-100697822D01*
X133504774Y-100691518D01*
X133486391Y-100683562D01*
X133486385Y-100683560D01*
X133440367Y-100676272D01*
X133434645Y-100675087D01*
X133389514Y-100663500D01*
X133389512Y-100663500D01*
X133369477Y-100663500D01*
X133350079Y-100661973D01*
X133342655Y-100660797D01*
X133330298Y-100658840D01*
X133330297Y-100658840D01*
X133283909Y-100663225D01*
X133278071Y-100663500D01*
X79009542Y-100663500D01*
X78993925Y-100661776D01*
X78993898Y-100662062D01*
X78986136Y-100661327D01*
X78917976Y-100663469D01*
X78916029Y-100663500D01*
X78887454Y-100663500D01*
X78886733Y-100663590D01*
X78880561Y-100664369D01*
X78874749Y-100664826D01*
X78828177Y-100666290D01*
X78828176Y-100666290D01*
X78808933Y-100671881D01*
X78789883Y-100675825D01*
X78770015Y-100678334D01*
X78726688Y-100695488D01*
X78721162Y-100697379D01*
X78676418Y-100710379D01*
X78676414Y-100710381D01*
X78659170Y-100720579D01*
X78641709Y-100729133D01*
X78623078Y-100736510D01*
X78623066Y-100736517D01*
X78585374Y-100763902D01*
X78580491Y-100767109D01*
X78540384Y-100790829D01*
X78526218Y-100804995D01*
X78511428Y-100817627D01*
X78495218Y-100829404D01*
X78495215Y-100829407D01*
X78465514Y-100865309D01*
X78461581Y-100869631D01*
X75599032Y-103732181D01*
X75537709Y-103765666D01*
X75511351Y-103768500D01*
X49628743Y-103768500D01*
X49613122Y-103766775D01*
X49613095Y-103767061D01*
X49605333Y-103766326D01*
X49537140Y-103768469D01*
X49535193Y-103768500D01*
X49506649Y-103768500D01*
X49499778Y-103769367D01*
X49493959Y-103769825D01*
X49447374Y-103771289D01*
X49447368Y-103771290D01*
X49428126Y-103776880D01*
X49409087Y-103780823D01*
X49389217Y-103783334D01*
X49389203Y-103783337D01*
X49345883Y-103800488D01*
X49340358Y-103802380D01*
X49295613Y-103815380D01*
X49295610Y-103815381D01*
X49278366Y-103825579D01*
X49260905Y-103834133D01*
X49242274Y-103841510D01*
X49242262Y-103841517D01*
X49204570Y-103868902D01*
X49199687Y-103872109D01*
X49159580Y-103895829D01*
X49145414Y-103909995D01*
X49130624Y-103922627D01*
X49114414Y-103934404D01*
X49114411Y-103934407D01*
X49084710Y-103970309D01*
X49080777Y-103974631D01*
X48512227Y-104543181D01*
X48450904Y-104576666D01*
X48424546Y-104579500D01*
X47759998Y-104579500D01*
X47759980Y-104579501D01*
X47657203Y-104590000D01*
X47657200Y-104590001D01*
X47490668Y-104645185D01*
X47490663Y-104645187D01*
X47341342Y-104737289D01*
X47217289Y-104861342D01*
X47125187Y-105010663D01*
X47125185Y-105010668D01*
X47110557Y-105054814D01*
X47070001Y-105177203D01*
X47070001Y-105177204D01*
X47070000Y-105177204D01*
X47059500Y-105279983D01*
X47059500Y-105944546D01*
X47039815Y-106011585D01*
X47023181Y-106032227D01*
X46838808Y-106216599D01*
X46826551Y-106226420D01*
X46826734Y-106226641D01*
X46820722Y-106231614D01*
X46774032Y-106281332D01*
X46772679Y-106282729D01*
X46752489Y-106302919D01*
X46752477Y-106302932D01*
X46748221Y-106308417D01*
X46744437Y-106312847D01*
X46712537Y-106346818D01*
X46712536Y-106346820D01*
X46702884Y-106364376D01*
X46692210Y-106380626D01*
X46679929Y-106396461D01*
X46679924Y-106396468D01*
X46661415Y-106439238D01*
X46658845Y-106444484D01*
X46636403Y-106485306D01*
X46631422Y-106504707D01*
X46625121Y-106523110D01*
X46617162Y-106541502D01*
X46617161Y-106541505D01*
X46609871Y-106587527D01*
X46608687Y-106593246D01*
X46597101Y-106638372D01*
X46597100Y-106638382D01*
X46597100Y-106658416D01*
X46595573Y-106677815D01*
X46592440Y-106697594D01*
X46592440Y-106697595D01*
X46596825Y-106743983D01*
X46597100Y-106749821D01*
X46597100Y-107001347D01*
X46577415Y-107068386D01*
X46524611Y-107114141D01*
X46455453Y-107124085D01*
X46391897Y-107095060D01*
X46385419Y-107089028D01*
X45654057Y-106357666D01*
X45620572Y-106296343D01*
X45624032Y-106230981D01*
X45625470Y-106226641D01*
X45639999Y-106182797D01*
X45650500Y-106080009D01*
X45650499Y-105279992D01*
X45648025Y-105255777D01*
X45639999Y-105177203D01*
X45639998Y-105177200D01*
X45637610Y-105169993D01*
X45584814Y-105010666D01*
X45492712Y-104861344D01*
X45368656Y-104737288D01*
X45239576Y-104657671D01*
X45219336Y-104645187D01*
X45219331Y-104645185D01*
X45209997Y-104642092D01*
X45052797Y-104590001D01*
X45052795Y-104590000D01*
X44950016Y-104579500D01*
X44950009Y-104579500D01*
X44285453Y-104579500D01*
X44218414Y-104559815D01*
X44197772Y-104543181D01*
X44012303Y-104357712D01*
X44002480Y-104345450D01*
X44002259Y-104345634D01*
X43997286Y-104339622D01*
X43947566Y-104292932D01*
X43946166Y-104291575D01*
X43925976Y-104271384D01*
X43920486Y-104267125D01*
X43916061Y-104263347D01*
X43882082Y-104231438D01*
X43882080Y-104231436D01*
X43882077Y-104231435D01*
X43864529Y-104221788D01*
X43848263Y-104211104D01*
X43832433Y-104198825D01*
X43789668Y-104180318D01*
X43784422Y-104177748D01*
X43743593Y-104155303D01*
X43743592Y-104155302D01*
X43724193Y-104150322D01*
X43705781Y-104144018D01*
X43687398Y-104136062D01*
X43687392Y-104136060D01*
X43641374Y-104128772D01*
X43635652Y-104127587D01*
X43590521Y-104116000D01*
X43590519Y-104116000D01*
X43570484Y-104116000D01*
X43551086Y-104114473D01*
X43543662Y-104113297D01*
X43531305Y-104111340D01*
X43531304Y-104111340D01*
X43484916Y-104115725D01*
X43479078Y-104116000D01*
X37928737Y-104116000D01*
X37913120Y-104114276D01*
X37913093Y-104114562D01*
X37905331Y-104113827D01*
X37837171Y-104115969D01*
X37835224Y-104116000D01*
X37806650Y-104116000D01*
X37805929Y-104116090D01*
X37799757Y-104116869D01*
X37793945Y-104117326D01*
X37747373Y-104118790D01*
X37747372Y-104118790D01*
X37728129Y-104124381D01*
X37709079Y-104128325D01*
X37689211Y-104130834D01*
X37689209Y-104130835D01*
X37645884Y-104147988D01*
X37640357Y-104149880D01*
X37595610Y-104162881D01*
X37595609Y-104162882D01*
X37578367Y-104173079D01*
X37560899Y-104181637D01*
X37542269Y-104189013D01*
X37542267Y-104189014D01*
X37504576Y-104216398D01*
X37499694Y-104219605D01*
X37459579Y-104243330D01*
X37445408Y-104257500D01*
X37430623Y-104270128D01*
X37414412Y-104281907D01*
X37384709Y-104317810D01*
X37380777Y-104322131D01*
X36192208Y-105510699D01*
X36179951Y-105520520D01*
X36180134Y-105520741D01*
X36174122Y-105525714D01*
X36127432Y-105575432D01*
X36126079Y-105576829D01*
X36105889Y-105597019D01*
X36105877Y-105597032D01*
X36101621Y-105602517D01*
X36097837Y-105606947D01*
X36065937Y-105640918D01*
X36065936Y-105640920D01*
X36056284Y-105658476D01*
X36045610Y-105674726D01*
X36033329Y-105690561D01*
X36033324Y-105690568D01*
X36014815Y-105733338D01*
X36012245Y-105738584D01*
X35989803Y-105779406D01*
X35984822Y-105798807D01*
X35978521Y-105817210D01*
X35970562Y-105835602D01*
X35970561Y-105835605D01*
X35963271Y-105881627D01*
X35962087Y-105887346D01*
X35950501Y-105932472D01*
X35950500Y-105932482D01*
X35950500Y-105952516D01*
X35948973Y-105971915D01*
X35945840Y-105991694D01*
X35945840Y-105991695D01*
X35950225Y-106038083D01*
X35950500Y-106043921D01*
X35950500Y-112693255D01*
X35948775Y-112708872D01*
X35949061Y-112708899D01*
X35948326Y-112716666D01*
X35950469Y-112784846D01*
X35950500Y-112786793D01*
X35950500Y-112815343D01*
X35950501Y-112815360D01*
X35951368Y-112822231D01*
X35951826Y-112828050D01*
X35953290Y-112874624D01*
X35953291Y-112874627D01*
X35958880Y-112893867D01*
X35962824Y-112912911D01*
X35965336Y-112932792D01*
X35982490Y-112976119D01*
X35984382Y-112981647D01*
X35997381Y-113026388D01*
X36007580Y-113043634D01*
X36016136Y-113061100D01*
X36023514Y-113079732D01*
X36035622Y-113096398D01*
X36050898Y-113117423D01*
X36054106Y-113122307D01*
X36077827Y-113162416D01*
X36077833Y-113162424D01*
X36091990Y-113176580D01*
X36104628Y-113191376D01*
X36116405Y-113207586D01*
X36116406Y-113207587D01*
X36152309Y-113237288D01*
X36156620Y-113241210D01*
X37748673Y-114833263D01*
X38893180Y-115977770D01*
X38926665Y-116039093D01*
X38929499Y-116065451D01*
X38929500Y-118865651D01*
X38927775Y-118881268D01*
X38928061Y-118881295D01*
X38927326Y-118889062D01*
X38929469Y-118957242D01*
X38929500Y-118959189D01*
X38929500Y-118987739D01*
X38929501Y-118987756D01*
X38930368Y-118994627D01*
X38930826Y-119000446D01*
X38932290Y-119047020D01*
X38932291Y-119047023D01*
X38937880Y-119066263D01*
X38941824Y-119085307D01*
X38944336Y-119105187D01*
X38961490Y-119148515D01*
X38963382Y-119154043D01*
X38976382Y-119198786D01*
X38982779Y-119209604D01*
X38986580Y-119216030D01*
X38995138Y-119233499D01*
X39002514Y-119252128D01*
X39029898Y-119289819D01*
X39033106Y-119294703D01*
X39056827Y-119334812D01*
X39056833Y-119334820D01*
X39070990Y-119348976D01*
X39083628Y-119363772D01*
X39095405Y-119379982D01*
X39095406Y-119379983D01*
X39131309Y-119409684D01*
X39135620Y-119413606D01*
X39957610Y-120235597D01*
X40188907Y-120466894D01*
X40222392Y-120528217D01*
X40217408Y-120597909D01*
X40208615Y-120616571D01*
X40197622Y-120635612D01*
X40197621Y-120635614D01*
X40139839Y-120813450D01*
X40139126Y-120815644D01*
X40125691Y-120943463D01*
X40099109Y-121008076D01*
X40041811Y-121048061D01*
X40002372Y-121054500D01*
X35756733Y-121054500D01*
X35702932Y-121042220D01*
X35548006Y-120967612D01*
X35548008Y-120967612D01*
X35304466Y-120892489D01*
X35304462Y-120892488D01*
X35304458Y-120892487D01*
X35183231Y-120874214D01*
X35052440Y-120854500D01*
X35052435Y-120854500D01*
X34797565Y-120854500D01*
X34797559Y-120854500D01*
X34640609Y-120878157D01*
X34545542Y-120892487D01*
X34545538Y-120892488D01*
X34545539Y-120892488D01*
X34545533Y-120892489D01*
X34301992Y-120967612D01*
X34072373Y-121078190D01*
X34072372Y-121078191D01*
X33861782Y-121221768D01*
X33674952Y-121395121D01*
X33674950Y-121395123D01*
X33516041Y-121594388D01*
X33388608Y-121815109D01*
X33295492Y-122052362D01*
X33295490Y-122052369D01*
X33238777Y-122300845D01*
X33219732Y-122554995D01*
X33219732Y-122555004D01*
X17145500Y-122555004D01*
X17145500Y-118735001D01*
X20977177Y-118735001D01*
X20996443Y-119004382D01*
X21050338Y-119252128D01*
X21053850Y-119268270D01*
X21095517Y-119379983D01*
X21148228Y-119521308D01*
X21148230Y-119521312D01*
X21277652Y-119758331D01*
X21277657Y-119758339D01*
X21439493Y-119974527D01*
X21439509Y-119974545D01*
X21630454Y-120165490D01*
X21630472Y-120165506D01*
X21846660Y-120327342D01*
X21846668Y-120327347D01*
X22083687Y-120456769D01*
X22083691Y-120456771D01*
X22083693Y-120456772D01*
X22336730Y-120551150D01*
X22413135Y-120567771D01*
X22600617Y-120608556D01*
X22600619Y-120608556D01*
X22600623Y-120608557D01*
X22840007Y-120625677D01*
X22869999Y-120627823D01*
X22870000Y-120627823D01*
X22870001Y-120627823D01*
X22896987Y-120625892D01*
X23139377Y-120608557D01*
X23403270Y-120551150D01*
X23656307Y-120456772D01*
X23893337Y-120327344D01*
X24109535Y-120165500D01*
X24300500Y-119974535D01*
X24462344Y-119758337D01*
X24591772Y-119521307D01*
X24686150Y-119268270D01*
X24743557Y-119004377D01*
X24762823Y-118735001D01*
X25412177Y-118735001D01*
X25431443Y-119004382D01*
X25485338Y-119252128D01*
X25488850Y-119268270D01*
X25530517Y-119379983D01*
X25583228Y-119521308D01*
X25583230Y-119521312D01*
X25712652Y-119758331D01*
X25712657Y-119758339D01*
X25874493Y-119974527D01*
X25874509Y-119974545D01*
X26065454Y-120165490D01*
X26065472Y-120165506D01*
X26281660Y-120327342D01*
X26281668Y-120327347D01*
X26518687Y-120456769D01*
X26518691Y-120456771D01*
X26518693Y-120456772D01*
X26771730Y-120551150D01*
X26848135Y-120567771D01*
X27035617Y-120608556D01*
X27035619Y-120608556D01*
X27035623Y-120608557D01*
X27275007Y-120625677D01*
X27304999Y-120627823D01*
X27305000Y-120627823D01*
X27305001Y-120627823D01*
X27331987Y-120625892D01*
X27574377Y-120608557D01*
X27838270Y-120551150D01*
X28091307Y-120456772D01*
X28328337Y-120327344D01*
X28544535Y-120165500D01*
X28735500Y-119974535D01*
X28897344Y-119758337D01*
X29026772Y-119521307D01*
X29121150Y-119268270D01*
X29178557Y-119004377D01*
X29197823Y-118735001D01*
X29847177Y-118735001D01*
X29866443Y-119004382D01*
X29920338Y-119252128D01*
X29923850Y-119268270D01*
X29965517Y-119379983D01*
X30018228Y-119521308D01*
X30018230Y-119521312D01*
X30147652Y-119758331D01*
X30147657Y-119758339D01*
X30309493Y-119974527D01*
X30309509Y-119974545D01*
X30500454Y-120165490D01*
X30500472Y-120165506D01*
X30716660Y-120327342D01*
X30716668Y-120327347D01*
X30953687Y-120456769D01*
X30953691Y-120456771D01*
X30953693Y-120456772D01*
X31206730Y-120551150D01*
X31283135Y-120567771D01*
X31470617Y-120608556D01*
X31470619Y-120608556D01*
X31470623Y-120608557D01*
X31710007Y-120625677D01*
X31739999Y-120627823D01*
X31740000Y-120627823D01*
X31740001Y-120627823D01*
X31766987Y-120625892D01*
X32009377Y-120608557D01*
X32273270Y-120551150D01*
X32526307Y-120456772D01*
X32763337Y-120327344D01*
X32979535Y-120165500D01*
X33170500Y-119974535D01*
X33332344Y-119758337D01*
X33461772Y-119521307D01*
X33556150Y-119268270D01*
X33613557Y-119004377D01*
X33632823Y-118735000D01*
X33613557Y-118465623D01*
X33612957Y-118462867D01*
X33565191Y-118243291D01*
X33556150Y-118201730D01*
X33461772Y-117948693D01*
X33439343Y-117907618D01*
X33332347Y-117711668D01*
X33332342Y-117711660D01*
X33170506Y-117495472D01*
X33170490Y-117495454D01*
X32979545Y-117304509D01*
X32979527Y-117304493D01*
X32763339Y-117142657D01*
X32763331Y-117142652D01*
X32526312Y-117013230D01*
X32526308Y-117013228D01*
X32387198Y-116961343D01*
X32273270Y-116918850D01*
X32273266Y-116918849D01*
X32273263Y-116918848D01*
X32009382Y-116861443D01*
X31740001Y-116842177D01*
X31739999Y-116842177D01*
X31470617Y-116861443D01*
X31206736Y-116918848D01*
X31206731Y-116918849D01*
X31206730Y-116918850D01*
X31145551Y-116941668D01*
X30953691Y-117013228D01*
X30953687Y-117013230D01*
X30716668Y-117142652D01*
X30716660Y-117142657D01*
X30500472Y-117304493D01*
X30500454Y-117304509D01*
X30309509Y-117495454D01*
X30309493Y-117495472D01*
X30147657Y-117711660D01*
X30147652Y-117711668D01*
X30018230Y-117948687D01*
X30018228Y-117948691D01*
X29923848Y-118201736D01*
X29866443Y-118465617D01*
X29847177Y-118734998D01*
X29847177Y-118735001D01*
X29197823Y-118735001D01*
X29197823Y-118735000D01*
X29178557Y-118465623D01*
X29177957Y-118462867D01*
X29130191Y-118243291D01*
X29121150Y-118201730D01*
X29026772Y-117948693D01*
X29004343Y-117907618D01*
X28897347Y-117711668D01*
X28897342Y-117711660D01*
X28735506Y-117495472D01*
X28735490Y-117495454D01*
X28544545Y-117304509D01*
X28544527Y-117304493D01*
X28328339Y-117142657D01*
X28328331Y-117142652D01*
X28091312Y-117013230D01*
X28091308Y-117013228D01*
X27952198Y-116961343D01*
X27838270Y-116918850D01*
X27838266Y-116918849D01*
X27838263Y-116918848D01*
X27574382Y-116861443D01*
X27305001Y-116842177D01*
X27304999Y-116842177D01*
X27035617Y-116861443D01*
X26771736Y-116918848D01*
X26771731Y-116918849D01*
X26771730Y-116918850D01*
X26710551Y-116941668D01*
X26518691Y-117013228D01*
X26518687Y-117013230D01*
X26281668Y-117142652D01*
X26281660Y-117142657D01*
X26065472Y-117304493D01*
X26065454Y-117304509D01*
X25874509Y-117495454D01*
X25874493Y-117495472D01*
X25712657Y-117711660D01*
X25712652Y-117711668D01*
X25583230Y-117948687D01*
X25583228Y-117948691D01*
X25488848Y-118201736D01*
X25431443Y-118465617D01*
X25412177Y-118734998D01*
X25412177Y-118735001D01*
X24762823Y-118735001D01*
X24762823Y-118735000D01*
X24743557Y-118465623D01*
X24742957Y-118462867D01*
X24695191Y-118243291D01*
X24686150Y-118201730D01*
X24591772Y-117948693D01*
X24569343Y-117907618D01*
X24462347Y-117711668D01*
X24462342Y-117711660D01*
X24300506Y-117495472D01*
X24300490Y-117495454D01*
X24109545Y-117304509D01*
X24109527Y-117304493D01*
X23893339Y-117142657D01*
X23893331Y-117142652D01*
X23656312Y-117013230D01*
X23656308Y-117013228D01*
X23517198Y-116961343D01*
X23403270Y-116918850D01*
X23403266Y-116918849D01*
X23403263Y-116918848D01*
X23139382Y-116861443D01*
X22870001Y-116842177D01*
X22869999Y-116842177D01*
X22600617Y-116861443D01*
X22336736Y-116918848D01*
X22336731Y-116918849D01*
X22336730Y-116918850D01*
X22275551Y-116941668D01*
X22083691Y-117013228D01*
X22083687Y-117013230D01*
X21846668Y-117142652D01*
X21846660Y-117142657D01*
X21630472Y-117304493D01*
X21630454Y-117304509D01*
X21439509Y-117495454D01*
X21439493Y-117495472D01*
X21277657Y-117711660D01*
X21277652Y-117711668D01*
X21148230Y-117948687D01*
X21148228Y-117948691D01*
X21053848Y-118201736D01*
X20996443Y-118465617D01*
X20977177Y-118734998D01*
X20977177Y-118735001D01*
X17145500Y-118735001D01*
X17145500Y-114300001D01*
X20977177Y-114300001D01*
X20996443Y-114569382D01*
X21053848Y-114833263D01*
X21053850Y-114833270D01*
X21112448Y-114990377D01*
X21148228Y-115086308D01*
X21148230Y-115086312D01*
X21277652Y-115323331D01*
X21277657Y-115323339D01*
X21439493Y-115539527D01*
X21439509Y-115539545D01*
X21630454Y-115730490D01*
X21630472Y-115730506D01*
X21846660Y-115892342D01*
X21846668Y-115892347D01*
X22083687Y-116021769D01*
X22083691Y-116021771D01*
X22083693Y-116021772D01*
X22336730Y-116116150D01*
X22468676Y-116144853D01*
X22600617Y-116173556D01*
X22600619Y-116173556D01*
X22600623Y-116173557D01*
X22840007Y-116190677D01*
X22869999Y-116192823D01*
X22870000Y-116192823D01*
X22870001Y-116192823D01*
X22896987Y-116190892D01*
X23139377Y-116173557D01*
X23403270Y-116116150D01*
X23656307Y-116021772D01*
X23893337Y-115892344D01*
X24109535Y-115730500D01*
X24300500Y-115539535D01*
X24462344Y-115323337D01*
X24591772Y-115086307D01*
X24686150Y-114833270D01*
X24743557Y-114569377D01*
X24762823Y-114300001D01*
X25412177Y-114300001D01*
X25431443Y-114569382D01*
X25488848Y-114833263D01*
X25488850Y-114833270D01*
X25547448Y-114990377D01*
X25583228Y-115086308D01*
X25583230Y-115086312D01*
X25712652Y-115323331D01*
X25712657Y-115323339D01*
X25874493Y-115539527D01*
X25874509Y-115539545D01*
X26065454Y-115730490D01*
X26065472Y-115730506D01*
X26281660Y-115892342D01*
X26281668Y-115892347D01*
X26518687Y-116021769D01*
X26518691Y-116021771D01*
X26518693Y-116021772D01*
X26771730Y-116116150D01*
X26903676Y-116144853D01*
X27035617Y-116173556D01*
X27035619Y-116173556D01*
X27035623Y-116173557D01*
X27275007Y-116190677D01*
X27304999Y-116192823D01*
X27305000Y-116192823D01*
X27305001Y-116192823D01*
X27331987Y-116190892D01*
X27574377Y-116173557D01*
X27838270Y-116116150D01*
X28091307Y-116021772D01*
X28328337Y-115892344D01*
X28544535Y-115730500D01*
X28735500Y-115539535D01*
X28897344Y-115323337D01*
X29026772Y-115086307D01*
X29121150Y-114833270D01*
X29178557Y-114569377D01*
X29197823Y-114300001D01*
X29847177Y-114300001D01*
X29866443Y-114569382D01*
X29923848Y-114833263D01*
X29923850Y-114833270D01*
X29982448Y-114990377D01*
X30018228Y-115086308D01*
X30018230Y-115086312D01*
X30147652Y-115323331D01*
X30147657Y-115323339D01*
X30309493Y-115539527D01*
X30309509Y-115539545D01*
X30500454Y-115730490D01*
X30500472Y-115730506D01*
X30716660Y-115892342D01*
X30716668Y-115892347D01*
X30953687Y-116021769D01*
X30953691Y-116021771D01*
X30953693Y-116021772D01*
X31206730Y-116116150D01*
X31338676Y-116144853D01*
X31470617Y-116173556D01*
X31470619Y-116173556D01*
X31470623Y-116173557D01*
X31710007Y-116190677D01*
X31739999Y-116192823D01*
X31740000Y-116192823D01*
X31740001Y-116192823D01*
X31766987Y-116190892D01*
X32009377Y-116173557D01*
X32273270Y-116116150D01*
X32526307Y-116021772D01*
X32763337Y-115892344D01*
X32979535Y-115730500D01*
X33170500Y-115539535D01*
X33332344Y-115323337D01*
X33461772Y-115086307D01*
X33556150Y-114833270D01*
X33613557Y-114569377D01*
X33632823Y-114300000D01*
X33613557Y-114030623D01*
X33556150Y-113766730D01*
X33461772Y-113513693D01*
X33445772Y-113484392D01*
X33332347Y-113276668D01*
X33332342Y-113276660D01*
X33170506Y-113060472D01*
X33170490Y-113060454D01*
X32979545Y-112869509D01*
X32979527Y-112869493D01*
X32763339Y-112707657D01*
X32763331Y-112707652D01*
X32526312Y-112578230D01*
X32526308Y-112578228D01*
X32430377Y-112542448D01*
X32273270Y-112483850D01*
X32273266Y-112483849D01*
X32273263Y-112483848D01*
X32009382Y-112426443D01*
X31740001Y-112407177D01*
X31739999Y-112407177D01*
X31470617Y-112426443D01*
X31206736Y-112483848D01*
X31206731Y-112483849D01*
X31206730Y-112483850D01*
X31185134Y-112491905D01*
X30953691Y-112578228D01*
X30953687Y-112578230D01*
X30716668Y-112707652D01*
X30716660Y-112707657D01*
X30500472Y-112869493D01*
X30500454Y-112869509D01*
X30309509Y-113060454D01*
X30309493Y-113060472D01*
X30147657Y-113276660D01*
X30147652Y-113276668D01*
X30018230Y-113513687D01*
X30018228Y-113513691D01*
X29923848Y-113766736D01*
X29866443Y-114030617D01*
X29847177Y-114299998D01*
X29847177Y-114300001D01*
X29197823Y-114300001D01*
X29197823Y-114300000D01*
X29178557Y-114030623D01*
X29121150Y-113766730D01*
X29026772Y-113513693D01*
X29010772Y-113484392D01*
X28897347Y-113276668D01*
X28897342Y-113276660D01*
X28735506Y-113060472D01*
X28735490Y-113060454D01*
X28544545Y-112869509D01*
X28544527Y-112869493D01*
X28328339Y-112707657D01*
X28328331Y-112707652D01*
X28091312Y-112578230D01*
X28091308Y-112578228D01*
X27995377Y-112542448D01*
X27838270Y-112483850D01*
X27838266Y-112483849D01*
X27838263Y-112483848D01*
X27574382Y-112426443D01*
X27305001Y-112407177D01*
X27304999Y-112407177D01*
X27035617Y-112426443D01*
X26771736Y-112483848D01*
X26771731Y-112483849D01*
X26771730Y-112483850D01*
X26750134Y-112491905D01*
X26518691Y-112578228D01*
X26518687Y-112578230D01*
X26281668Y-112707652D01*
X26281660Y-112707657D01*
X26065472Y-112869493D01*
X26065454Y-112869509D01*
X25874509Y-113060454D01*
X25874493Y-113060472D01*
X25712657Y-113276660D01*
X25712652Y-113276668D01*
X25583230Y-113513687D01*
X25583228Y-113513691D01*
X25488848Y-113766736D01*
X25431443Y-114030617D01*
X25412177Y-114299998D01*
X25412177Y-114300001D01*
X24762823Y-114300001D01*
X24762823Y-114300000D01*
X24743557Y-114030623D01*
X24686150Y-113766730D01*
X24591772Y-113513693D01*
X24575772Y-113484392D01*
X24462347Y-113276668D01*
X24462342Y-113276660D01*
X24300506Y-113060472D01*
X24300490Y-113060454D01*
X24109545Y-112869509D01*
X24109527Y-112869493D01*
X23893339Y-112707657D01*
X23893331Y-112707652D01*
X23656312Y-112578230D01*
X23656308Y-112578228D01*
X23560377Y-112542448D01*
X23403270Y-112483850D01*
X23403266Y-112483849D01*
X23403263Y-112483848D01*
X23139382Y-112426443D01*
X22870001Y-112407177D01*
X22869999Y-112407177D01*
X22600617Y-112426443D01*
X22336736Y-112483848D01*
X22336731Y-112483849D01*
X22336730Y-112483850D01*
X22315134Y-112491905D01*
X22083691Y-112578228D01*
X22083687Y-112578230D01*
X21846668Y-112707652D01*
X21846660Y-112707657D01*
X21630472Y-112869493D01*
X21630454Y-112869509D01*
X21439509Y-113060454D01*
X21439493Y-113060472D01*
X21277657Y-113276660D01*
X21277652Y-113276668D01*
X21148230Y-113513687D01*
X21148228Y-113513691D01*
X21053848Y-113766736D01*
X20996443Y-114030617D01*
X20977177Y-114299998D01*
X20977177Y-114300001D01*
X17145500Y-114300001D01*
X17145500Y-109865001D01*
X20977177Y-109865001D01*
X20996443Y-110134382D01*
X21050944Y-110384912D01*
X21053850Y-110398270D01*
X21107935Y-110543277D01*
X21148228Y-110651308D01*
X21148230Y-110651312D01*
X21277652Y-110888331D01*
X21277657Y-110888339D01*
X21439493Y-111104527D01*
X21439509Y-111104545D01*
X21630454Y-111295490D01*
X21630472Y-111295506D01*
X21846660Y-111457342D01*
X21846668Y-111457347D01*
X22083687Y-111586769D01*
X22083691Y-111586771D01*
X22083693Y-111586772D01*
X22336730Y-111681150D01*
X22446361Y-111704999D01*
X22600617Y-111738556D01*
X22600619Y-111738556D01*
X22600623Y-111738557D01*
X22840007Y-111755677D01*
X22869999Y-111757823D01*
X22870000Y-111757823D01*
X22870001Y-111757823D01*
X22896987Y-111755892D01*
X23139377Y-111738557D01*
X23403270Y-111681150D01*
X23656307Y-111586772D01*
X23893337Y-111457344D01*
X24109535Y-111295500D01*
X24300500Y-111104535D01*
X24462344Y-110888337D01*
X24591772Y-110651307D01*
X24686150Y-110398270D01*
X24738763Y-110156413D01*
X24743556Y-110134382D01*
X24743556Y-110134381D01*
X24743557Y-110134377D01*
X24762823Y-109865001D01*
X25412177Y-109865001D01*
X25431443Y-110134382D01*
X25485944Y-110384912D01*
X25488850Y-110398270D01*
X25542935Y-110543277D01*
X25583228Y-110651308D01*
X25583230Y-110651312D01*
X25712652Y-110888331D01*
X25712657Y-110888339D01*
X25874493Y-111104527D01*
X25874509Y-111104545D01*
X26065454Y-111295490D01*
X26065472Y-111295506D01*
X26281660Y-111457342D01*
X26281668Y-111457347D01*
X26518687Y-111586769D01*
X26518691Y-111586771D01*
X26518693Y-111586772D01*
X26771730Y-111681150D01*
X26881361Y-111704999D01*
X27035617Y-111738556D01*
X27035619Y-111738556D01*
X27035623Y-111738557D01*
X27275007Y-111755677D01*
X27304999Y-111757823D01*
X27305000Y-111757823D01*
X27305001Y-111757823D01*
X27331987Y-111755892D01*
X27574377Y-111738557D01*
X27838270Y-111681150D01*
X28091307Y-111586772D01*
X28328337Y-111457344D01*
X28544535Y-111295500D01*
X28735500Y-111104535D01*
X28897344Y-110888337D01*
X29026772Y-110651307D01*
X29121150Y-110398270D01*
X29173763Y-110156413D01*
X29178556Y-110134382D01*
X29178556Y-110134381D01*
X29178557Y-110134377D01*
X29197823Y-109865001D01*
X29847177Y-109865001D01*
X29866443Y-110134382D01*
X29920944Y-110384912D01*
X29923850Y-110398270D01*
X29977935Y-110543277D01*
X30018228Y-110651308D01*
X30018230Y-110651312D01*
X30147652Y-110888331D01*
X30147657Y-110888339D01*
X30309493Y-111104527D01*
X30309509Y-111104545D01*
X30500454Y-111295490D01*
X30500472Y-111295506D01*
X30716660Y-111457342D01*
X30716668Y-111457347D01*
X30953687Y-111586769D01*
X30953691Y-111586771D01*
X30953693Y-111586772D01*
X31206730Y-111681150D01*
X31316361Y-111704999D01*
X31470617Y-111738556D01*
X31470619Y-111738556D01*
X31470623Y-111738557D01*
X31710007Y-111755677D01*
X31739999Y-111757823D01*
X31740000Y-111757823D01*
X31740001Y-111757823D01*
X31766987Y-111755892D01*
X32009377Y-111738557D01*
X32273270Y-111681150D01*
X32526307Y-111586772D01*
X32763337Y-111457344D01*
X32979535Y-111295500D01*
X33170500Y-111104535D01*
X33332344Y-110888337D01*
X33461772Y-110651307D01*
X33556150Y-110398270D01*
X33608763Y-110156413D01*
X33613556Y-110134382D01*
X33613556Y-110134381D01*
X33613557Y-110134377D01*
X33632823Y-109865000D01*
X33631944Y-109852716D01*
X33626990Y-109783438D01*
X33613557Y-109595623D01*
X33611960Y-109588284D01*
X33575580Y-109421048D01*
X33556150Y-109331730D01*
X33461772Y-109078693D01*
X33460194Y-109075804D01*
X33332347Y-108841668D01*
X33332342Y-108841660D01*
X33170506Y-108625472D01*
X33170490Y-108625454D01*
X32979545Y-108434509D01*
X32979527Y-108434493D01*
X32763339Y-108272657D01*
X32763331Y-108272652D01*
X32526312Y-108143230D01*
X32526308Y-108143228D01*
X32357727Y-108080351D01*
X32273270Y-108048850D01*
X32273266Y-108048849D01*
X32273263Y-108048848D01*
X32009382Y-107991443D01*
X31740001Y-107972177D01*
X31739999Y-107972177D01*
X31470617Y-107991443D01*
X31206736Y-108048848D01*
X31206731Y-108048849D01*
X31206730Y-108048850D01*
X31174391Y-108060912D01*
X30953691Y-108143228D01*
X30953687Y-108143230D01*
X30716668Y-108272652D01*
X30716660Y-108272657D01*
X30500472Y-108434493D01*
X30500454Y-108434509D01*
X30309509Y-108625454D01*
X30309493Y-108625472D01*
X30147657Y-108841660D01*
X30147652Y-108841668D01*
X30018230Y-109078687D01*
X30018228Y-109078691D01*
X29948925Y-109264501D01*
X29928957Y-109318039D01*
X29923848Y-109331736D01*
X29866443Y-109595617D01*
X29847177Y-109864998D01*
X29847177Y-109865001D01*
X29197823Y-109865001D01*
X29197823Y-109865000D01*
X29196944Y-109852716D01*
X29191990Y-109783438D01*
X29178557Y-109595623D01*
X29176960Y-109588284D01*
X29140580Y-109421048D01*
X29121150Y-109331730D01*
X29026772Y-109078693D01*
X29025194Y-109075804D01*
X28897347Y-108841668D01*
X28897342Y-108841660D01*
X28735506Y-108625472D01*
X28735490Y-108625454D01*
X28544545Y-108434509D01*
X28544527Y-108434493D01*
X28328339Y-108272657D01*
X28328331Y-108272652D01*
X28091312Y-108143230D01*
X28091308Y-108143228D01*
X27922727Y-108080351D01*
X27838270Y-108048850D01*
X27838266Y-108048849D01*
X27838263Y-108048848D01*
X27574382Y-107991443D01*
X27305001Y-107972177D01*
X27304999Y-107972177D01*
X27035617Y-107991443D01*
X26771736Y-108048848D01*
X26771731Y-108048849D01*
X26771730Y-108048850D01*
X26739391Y-108060912D01*
X26518691Y-108143228D01*
X26518687Y-108143230D01*
X26281668Y-108272652D01*
X26281660Y-108272657D01*
X26065472Y-108434493D01*
X26065454Y-108434509D01*
X25874509Y-108625454D01*
X25874493Y-108625472D01*
X25712657Y-108841660D01*
X25712652Y-108841668D01*
X25583230Y-109078687D01*
X25583228Y-109078691D01*
X25513925Y-109264501D01*
X25493957Y-109318039D01*
X25488848Y-109331736D01*
X25431443Y-109595617D01*
X25412177Y-109864998D01*
X25412177Y-109865001D01*
X24762823Y-109865001D01*
X24762823Y-109865000D01*
X24761944Y-109852716D01*
X24756990Y-109783438D01*
X24743557Y-109595623D01*
X24741960Y-109588284D01*
X24705580Y-109421048D01*
X24686150Y-109331730D01*
X24591772Y-109078693D01*
X24590194Y-109075804D01*
X24462347Y-108841668D01*
X24462342Y-108841660D01*
X24300506Y-108625472D01*
X24300490Y-108625454D01*
X24109545Y-108434509D01*
X24109527Y-108434493D01*
X23893339Y-108272657D01*
X23893331Y-108272652D01*
X23656312Y-108143230D01*
X23656308Y-108143228D01*
X23487727Y-108080351D01*
X23403270Y-108048850D01*
X23403266Y-108048849D01*
X23403263Y-108048848D01*
X23139382Y-107991443D01*
X22870001Y-107972177D01*
X22869999Y-107972177D01*
X22600617Y-107991443D01*
X22336736Y-108048848D01*
X22336731Y-108048849D01*
X22336730Y-108048850D01*
X22304391Y-108060912D01*
X22083691Y-108143228D01*
X22083687Y-108143230D01*
X21846668Y-108272652D01*
X21846660Y-108272657D01*
X21630472Y-108434493D01*
X21630454Y-108434509D01*
X21439509Y-108625454D01*
X21439493Y-108625472D01*
X21277657Y-108841660D01*
X21277652Y-108841668D01*
X21148230Y-109078687D01*
X21148228Y-109078691D01*
X21078925Y-109264501D01*
X21058957Y-109318039D01*
X21053848Y-109331736D01*
X20996443Y-109595617D01*
X20977177Y-109864998D01*
X20977177Y-109865001D01*
X17145500Y-109865001D01*
X17145500Y-99819500D01*
X17165185Y-99752461D01*
X17217989Y-99706706D01*
X17269500Y-99695500D01*
X186565500Y-99695500D01*
X186632539Y-99715185D01*
G37*
%TD.AperFunction*%
%TD*%
%TA.AperFunction,Conductor*%
%TO.N,/OUT5*%
G36*
X64967039Y-131840185D02*
G01*
X65012794Y-131892989D01*
X65024000Y-131944500D01*
X65024000Y-131956000D01*
X65004315Y-132023039D01*
X64951511Y-132068794D01*
X64900000Y-132080000D01*
X62100000Y-132080000D01*
X62032961Y-132060315D01*
X61987206Y-132007511D01*
X61976000Y-131956000D01*
X61976000Y-131944500D01*
X61995685Y-131877461D01*
X62048489Y-131831706D01*
X62100000Y-131820500D01*
X64900000Y-131820500D01*
X64967039Y-131840185D01*
G37*
%TD.AperFunction*%
%TA.AperFunction,Conductor*%
G36*
X67044651Y-120185185D02*
G01*
X67053776Y-120191648D01*
X67093810Y-120222809D01*
X67100722Y-120226549D01*
X67107801Y-120230010D01*
X67159200Y-120245312D01*
X67161594Y-120246079D01*
X67186341Y-120254574D01*
X67212339Y-120263500D01*
X67220079Y-120264791D01*
X67227909Y-120265767D01*
X67227911Y-120265768D01*
X67227912Y-120265767D01*
X67227913Y-120265768D01*
X67252412Y-120264754D01*
X67281475Y-120263552D01*
X67284033Y-120263500D01*
X67490592Y-120263500D01*
X67510975Y-120265186D01*
X67517078Y-120266204D01*
X67527549Y-120267508D01*
X67558449Y-120270065D01*
X67568989Y-120270500D01*
X68581500Y-120270500D01*
X68648539Y-120290185D01*
X68694294Y-120342989D01*
X68705500Y-120394500D01*
X68705500Y-121311807D01*
X68709951Y-121359282D01*
X68709953Y-121359293D01*
X68718525Y-121404603D01*
X68731732Y-121450447D01*
X68731733Y-121450452D01*
X68739191Y-121469456D01*
X68744652Y-121487160D01*
X68790378Y-121687497D01*
X68793140Y-121705822D01*
X68798026Y-121771018D01*
X68804826Y-121861751D01*
X68804999Y-121866368D01*
X68804999Y-123158456D01*
X68805130Y-123165545D01*
X68807795Y-123236767D01*
X68807102Y-123255285D01*
X68799132Y-123326022D01*
X68798467Y-123333087D01*
X68793141Y-123404175D01*
X68790383Y-123422486D01*
X68789367Y-123426939D01*
X68787980Y-123433908D01*
X68787968Y-123433969D01*
X68785612Y-123447823D01*
X68785603Y-123447883D01*
X68784607Y-123454934D01*
X68784605Y-123454952D01*
X68784091Y-123459507D01*
X68780648Y-123477692D01*
X68762192Y-123546573D01*
X68760522Y-123553309D01*
X68744653Y-123622834D01*
X68739197Y-123640523D01*
X68737537Y-123644752D01*
X68737531Y-123644770D01*
X68735100Y-123651516D01*
X68730690Y-123664919D01*
X68730687Y-123664930D01*
X68728642Y-123671790D01*
X68723650Y-123690422D01*
X68721041Y-123694701D01*
X68709112Y-123764895D01*
X68709109Y-123764914D01*
X68705500Y-123807702D01*
X68705500Y-126747500D01*
X68685815Y-126814539D01*
X68633011Y-126860294D01*
X68581500Y-126871500D01*
X66205173Y-126871500D01*
X66202043Y-126871538D01*
X66194398Y-126871726D01*
X66194392Y-126871726D01*
X66194390Y-126871727D01*
X66116740Y-126885823D01*
X66050763Y-126908765D01*
X66050743Y-126908773D01*
X65986158Y-126942187D01*
X65181417Y-127517003D01*
X65144884Y-127548728D01*
X65144883Y-127548729D01*
X65112637Y-127582599D01*
X65112626Y-127582611D01*
X65098741Y-127598455D01*
X65052534Y-127686789D01*
X65052533Y-127686792D01*
X65042747Y-127720118D01*
X65034684Y-127740626D01*
X65024000Y-127761998D01*
X65024000Y-127806511D01*
X65022739Y-127824153D01*
X65022500Y-127825815D01*
X65022500Y-128339758D01*
X65016991Y-128376308D01*
X64963606Y-128549376D01*
X64963605Y-128549381D01*
X64963604Y-128549385D01*
X64948853Y-128647247D01*
X64924500Y-128808812D01*
X64924500Y-129071187D01*
X64944794Y-129205823D01*
X64963604Y-129330615D01*
X64963605Y-129330617D01*
X64963606Y-129330623D01*
X65016991Y-129503691D01*
X65022500Y-129540241D01*
X65022500Y-130559004D01*
X65023644Y-130569650D01*
X65024000Y-130576282D01*
X65024000Y-130945500D01*
X65004315Y-131012539D01*
X64951511Y-131058294D01*
X64900000Y-131069500D01*
X62100000Y-131069500D01*
X62032961Y-131049815D01*
X61987206Y-130997011D01*
X61976000Y-130945500D01*
X61976000Y-128808812D01*
X61976000Y-126162358D01*
X61995684Y-126095323D01*
X62012313Y-126074686D01*
X62482559Y-125604440D01*
X62485543Y-125601650D01*
X62553174Y-125542472D01*
X63500000Y-124714000D01*
X65532000Y-122682000D01*
X65532000Y-120289499D01*
X65551685Y-120222461D01*
X65604489Y-120176706D01*
X65656000Y-120165500D01*
X66977612Y-120165500D01*
X67044651Y-120185185D01*
G37*
%TD.AperFunction*%
%TD*%
%TA.AperFunction,Conductor*%
%TO.N,/OUT4*%
G36*
X73313553Y-118090985D02*
G01*
X73357423Y-118139846D01*
X73660000Y-118745000D01*
X74841631Y-119099489D01*
X74900187Y-119137607D01*
X74928839Y-119201331D01*
X74930000Y-119218259D01*
X74930000Y-130559000D01*
X74910315Y-130626039D01*
X74857511Y-130671794D01*
X74806000Y-130683000D01*
X65402000Y-130683000D01*
X65334961Y-130663315D01*
X65289206Y-130610511D01*
X65278000Y-130559000D01*
X65278000Y-127825813D01*
X65297685Y-127758774D01*
X65329926Y-127724910D01*
X66134664Y-127150097D01*
X66200658Y-127127149D01*
X66206738Y-127127000D01*
X68961000Y-127127000D01*
X68961000Y-123807707D01*
X68966642Y-123774510D01*
X68965700Y-123774258D01*
X68974509Y-123741377D01*
X68976681Y-123734774D01*
X68987420Y-123707416D01*
X69009075Y-123612535D01*
X69009611Y-123610373D01*
X69034805Y-123516350D01*
X69038094Y-123487147D01*
X69039261Y-123480287D01*
X69045802Y-123451628D01*
X69045803Y-123451617D01*
X69046016Y-123448765D01*
X69053074Y-123354578D01*
X69053287Y-123352313D01*
X69064181Y-123255635D01*
X69063977Y-123250205D01*
X69060542Y-123158400D01*
X69060500Y-123156115D01*
X69060500Y-121854507D01*
X69060499Y-121854484D01*
X69045803Y-121658379D01*
X69045802Y-121658374D01*
X69045802Y-121658370D01*
X68987420Y-121402584D01*
X68982281Y-121389490D01*
X68969571Y-121357103D01*
X68961000Y-121311802D01*
X68961000Y-120015000D01*
X67574264Y-120015000D01*
X67553878Y-120013313D01*
X67173604Y-119949933D01*
X67125101Y-119930723D01*
X67047742Y-119879035D01*
X67047735Y-119879032D01*
X66974677Y-119864500D01*
X66974674Y-119864500D01*
X65656000Y-119864500D01*
X65588961Y-119844815D01*
X65543206Y-119792011D01*
X65532000Y-119740500D01*
X65532000Y-118195300D01*
X65551685Y-118128261D01*
X65604489Y-118082506D01*
X65656000Y-118071300D01*
X73246514Y-118071300D01*
X73313553Y-118090985D01*
G37*
%TD.AperFunction*%
%TD*%
M02*
